<svg width="500" height="373" viewBox="0 0 500 373" fill="none" xmlns="http://www.w3.org/2000/svg">
<path d="M500 327.4H0V327.65H500V327.4Z" fill="#EBEBEB"/>
<path d="M449.9 343.49H416.78V343.74H449.9V343.49Z" fill="#EBEBEB"/>
<path d="M331.22 346.21H322.53V346.46H331.22V346.21Z" fill="#EBEBEB"/>
<path d="M415.78 334.21H396.59V334.46H415.78V334.21Z" fill="#EBEBEB"/>
<path d="M95.65 335.89H52.46V336.14H95.65V335.89Z" fill="#EBEBEB"/>
<path d="M110.89 335.89H104.56V336.14H110.89V335.89Z" fill="#EBEBEB"/>
<path d="M225.15 340.11H131.47V340.36H225.15V340.11Z" fill="#EBEBEB"/>
<path d="M237 282.8H43.91C42.3973 282.797 40.9475 282.195 39.8788 281.124C38.8102 280.054 38.21 278.603 38.21 277.09V5.66C38.2231 4.15603 38.8292 2.71798 39.8964 1.65822C40.9637 0.598458 42.4059 0.00257639 43.91 0H237C238.514 0 239.967 0.601588 241.038 1.67242C242.108 2.74325 242.71 4.19561 242.71 5.71V277.09C242.71 278.604 242.108 280.057 241.038 281.128C239.967 282.198 238.514 282.8 237 282.8V282.8ZM43.91 0.200001C42.4636 0.20265 41.0774 0.779065 40.0556 1.80273C39.0338 2.82639 38.46 4.21365 38.46 5.66V277.09C38.46 278.536 39.0338 279.924 40.0556 280.947C41.0774 281.971 42.4636 282.547 43.91 282.55H237C238.447 282.547 239.834 281.971 240.858 280.948C241.881 279.924 242.457 278.537 242.46 277.09V5.66C242.457 4.21273 241.881 2.82549 240.858 1.80212C239.834 0.77874 238.447 0.202644 237 0.200001H43.91Z" fill="#EBEBEB"/>
<path d="M453.31 282.8H260.21C258.696 282.797 257.246 282.195 256.175 281.125C255.105 280.054 254.503 278.604 254.5 277.09V5.66C254.516 4.15511 255.124 2.71708 256.193 1.65759C257.262 0.598109 258.705 0.00254829 260.21 0H453.31C454.812 0.0052045 456.252 0.602249 457.317 1.66173C458.382 2.72121 458.987 4.15775 459 5.66V277.09C459 278.601 458.401 280.05 457.335 281.121C456.268 282.191 454.821 282.795 453.31 282.8V282.8ZM260.21 0.200001C258.763 0.202644 257.375 0.77874 256.352 1.80212C255.329 2.82549 254.753 4.21273 254.75 5.66V277.09C254.753 278.537 255.329 279.924 256.352 280.948C257.375 281.971 258.763 282.547 260.21 282.55H453.31C454.757 282.547 456.145 281.971 457.168 280.948C458.191 279.924 458.767 278.537 458.77 277.09V5.66C458.767 4.21273 458.191 2.82549 457.168 1.80212C456.145 0.77874 454.757 0.202644 453.31 0.200001H260.21Z" fill="#EBEBEB"/>
<path d="M289.69 119.06L427.47 119.06V28.8301L289.69 28.8301V119.06Z" fill="#E6E6E6"/>
<path d="M285.48 119.06L425.5 119.06V28.8301L285.48 28.8301V119.06Z" fill="#F0F0F0"/>
<path d="M289.69 136.76L427.47 136.76V119.05L289.69 119.05V136.76Z" fill="#E6E6E6"/>
<path d="M278.49 136.76L418.51 136.76V119.05L278.49 119.05V136.76Z" fill="#F0F0F0"/>
<path d="M419.62 113.18V34.72L291.37 34.72V113.18L419.62 113.18Z" fill="#FAFAFA"/>
<path d="M390.7 113.17L374.32 34.72H348.76L365.14 113.17H390.7Z" fill="white"/>
<path d="M416.9 107.32C416.956 107.32 417.011 107.309 417.063 107.287C417.114 107.265 417.161 107.234 417.2 107.193C417.239 107.153 417.27 107.106 417.291 107.054C417.311 107.002 417.321 106.946 417.32 106.89V38.55C417.32 38.4386 417.275 38.3318 417.197 38.253C417.118 38.1743 417.011 38.13 416.9 38.13C416.844 38.1286 416.789 38.1386 416.737 38.1592C416.686 38.1798 416.639 38.2107 416.6 38.25C416.56 38.2892 416.529 38.3361 416.509 38.3877C416.488 38.4393 416.478 38.4945 416.48 38.55V106.89C416.478 106.946 416.488 107.002 416.509 107.054C416.529 107.106 416.56 107.153 416.599 107.193C416.638 107.234 416.685 107.265 416.737 107.287C416.788 107.309 416.844 107.32 416.9 107.32V107.32Z" fill="#F0F0F0"/>
<path d="M359.65 113.17L343.27 34.72H333.3L349.69 113.17H359.65Z" fill="white"/>
<path d="M292.12 113.18V34.72H291.37V113.18H292.12Z" fill="#E6E6E6"/>
<path opacity="0.6" d="M284.1 43.59H421.88L422.42 37H284.64L284.1 43.59Z" fill="#EBEBEB"/>
<path opacity="0.6" d="M284.1 54.3901H421.88L422.42 47.8101H284.64L284.1 54.3901Z" fill="#EBEBEB"/>
<path opacity="0.6" d="M284.1 65.19H421.88L422.42 58.61H284.64L284.1 65.19Z" fill="#EBEBEB"/>
<path opacity="0.6" d="M284.1 76H421.88L422.42 69.41H284.64L284.1 76Z" fill="#EBEBEB"/>
<path opacity="0.6" d="M284.1 86.8H421.88L422.42 80.21H284.64L284.1 86.8Z" fill="#EBEBEB"/>
<path opacity="0.6" d="M284.1 97.6H421.88L422.42 91.01H284.64L284.1 97.6Z" fill="#EBEBEB"/>
<path d="M407.69 261.78H378.8V267.48H407.69V261.78Z" fill="#E6E6E6"/>
<path d="M324.31 327.4H329.64V196.33H324.31V327.4Z" fill="#E6E6E6"/>
<path d="M305.83 267.48H378.79V261.78H305.83V267.48Z" fill="#F5F5F5"/>
<path d="M407.69 292.95H378.8V298.65H407.69V292.95Z" fill="#E6E6E6"/>
<path d="M305.83 298.64H378.79V292.94H305.83V298.64Z" fill="#F5F5F5"/>
<path d="M407.69 199.45H378.8V205.15H407.69V199.45Z" fill="#E6E6E6"/>
<path d="M305.83 205.14H378.79V199.44H305.83V205.14Z" fill="#F5F5F5"/>
<path d="M407.69 230.61H378.8V236.31H407.69V230.61Z" fill="#E6E6E6"/>
<path d="M305.83 236.31H378.79V230.61H305.83V236.31Z" fill="#F5F5F5"/>
<path d="M397.28 327.4H402.61V196.33H397.28V327.4Z" fill="#E6E6E6"/>
<path d="M373.46 327.4H378.79V196.33H373.46V327.4Z" fill="#F5F5F5"/>
<path d="M305.83 327.4H311.16V196.33H305.83V327.4Z" fill="#F5F5F5"/>
<path d="M65.38 327.4H119.96L119.96 221.51H65.38L65.38 327.4Z" fill="#E6E6E6"/>
<path d="M79.9501 327.4H65.3701V312.78H95.2301L79.9501 327.4Z" fill="#FAFAFA"/>
<path d="M214.18 327.4H268.76V221.51H214.18V327.4Z" fill="#E6E6E6"/>
<path d="M65.3802 322.36H226.91V221.5H65.3802V322.36Z" fill="#FAFAFA"/>
<path d="M212.33 327.4H226.9V312.78H197.05L212.33 327.4Z" fill="#FAFAFA"/>
<path d="M76.6796 284.33H215.6V259.09H76.6796V284.33Z" fill="#F0F0F0"/>
<path d="M76.6796 314.96H215.6V289.72H76.6796V314.96Z" fill="#F0F0F0"/>
<path d="M189.2 261.79H103.09C101.875 261.79 100.71 261.307 99.851 260.449C98.9921 259.59 98.5095 258.425 98.5095 257.21V256.9H193.77V257.21C193.77 258.423 193.288 259.586 192.432 260.445C191.575 261.304 190.412 261.787 189.2 261.79Z" fill="#FAFAFA"/>
<path d="M76.6796 253.69L215.6 253.69V228.45L76.6796 228.45V253.69Z" fill="#F0F0F0"/>
<path d="M189.2 231.15H103.09C101.875 231.15 100.71 230.667 99.851 229.809C98.9921 228.95 98.5095 227.785 98.5095 226.57V226.26H193.77V226.57C193.77 227.783 193.288 228.946 192.432 229.805C191.575 230.664 190.412 231.147 189.2 231.15Z" fill="#FAFAFA"/>
<path d="M189.2 292.43H103.09C101.875 292.43 100.71 291.947 99.851 291.089C98.9921 290.23 98.5095 289.065 98.5095 287.85V287.54H193.77V287.85C193.77 289.063 193.288 290.226 192.432 291.085C191.575 291.944 190.412 292.427 189.2 292.43Z" fill="#FAFAFA"/>
<path d="M74.0696 119.06L211.85 119.06V28.8301L74.0696 28.8301V119.06Z" fill="#E6E6E6"/>
<path d="M69.8696 119.06L209.89 119.06V28.8301L69.8696 28.8301V119.06Z" fill="#F0F0F0"/>
<path d="M74.0696 136.76L211.85 136.76V119.05L74.0696 119.05V136.76Z" fill="#E6E6E6"/>
<path d="M62.8599 136.76L202.88 136.76V119.05L62.8599 119.05V136.76Z" fill="#F0F0F0"/>
<path d="M204 113.18V34.72L75.75 34.72V113.18L204 113.18Z" fill="#FAFAFA"/>
<path d="M175.08 113.17L158.7 34.72H133.14L149.52 113.17H175.08Z" fill="white"/>
<path d="M201.27 107.32C201.326 107.32 201.381 107.309 201.433 107.287C201.484 107.265 201.531 107.234 201.57 107.193C201.609 107.153 201.64 107.106 201.661 107.054C201.681 107.002 201.691 106.946 201.69 106.89V38.55C201.691 38.4945 201.681 38.4393 201.661 38.3877C201.64 38.3361 201.609 38.2892 201.57 38.25C201.53 38.2107 201.484 38.1798 201.432 38.1592C201.38 38.1386 201.325 38.1286 201.27 38.13C201.158 38.13 201.052 38.1743 200.973 38.253C200.894 38.3318 200.85 38.4386 200.85 38.55V106.89C200.848 106.946 200.858 107.002 200.879 107.054C200.899 107.106 200.93 107.153 200.969 107.193C201.008 107.234 201.055 107.265 201.107 107.287C201.158 107.309 201.214 107.32 201.27 107.32Z" fill="#F0F0F0"/>
<path d="M144.03 113.17L127.65 34.72H117.68L134.06 113.17H144.03Z" fill="white"/>
<path d="M76.5 113.18V34.72H75.75V113.18H76.5Z" fill="#E6E6E6"/>
<path opacity="0.6" d="M68.4697 43.59H206.25L206.79 37H69.0097L68.4697 43.59Z" fill="#EBEBEB"/>
<path opacity="0.6" d="M68.4697 47.31H206.25L206.79 40.72H69.0097L68.4697 47.31Z" fill="#EBEBEB"/>
<path opacity="0.6" d="M68.4697 51.0199H206.25L206.79 44.4399H69.0097L68.4697 51.0199Z" fill="#EBEBEB"/>
<path opacity="0.6" d="M68.4697 54.74H206.25L206.79 48.15H69.0097L68.4697 54.74Z" fill="#EBEBEB"/>
<path opacity="0.6" d="M68.4697 58.45H206.25L206.79 51.87H69.0097L68.4697 58.45Z" fill="#EBEBEB"/>
<path opacity="0.6" d="M68.4697 62.17H206.25L206.79 55.58H69.0097L68.4697 62.17Z" fill="#EBEBEB"/>
<path d="M96.0203 218.27H100.78V165.18H96.0203V218.27Z" fill="#F5F5F5"/>
<path d="M96.6197 218.24H97.9697V165.15H96.6197V218.24Z" fill="#FAFAFA"/>
<path d="M98.5296 218.24H99.0596V165.15H98.5296V218.24Z" fill="#FAFAFA"/>
<path d="M116.03 221.51H80.7903C80.7903 220.332 81.2581 219.203 82.0907 218.37C82.9234 217.538 84.0527 217.07 85.2303 217.07H111.58C112.758 217.07 113.887 217.538 114.72 218.37C115.552 219.203 116.02 220.332 116.02 221.51H116.03Z" fill="#F0F0F0"/>
<path d="M89.84 198.14C90.2025 198.137 90.5494 197.992 90.8058 197.736C91.0622 197.48 91.2073 197.133 91.21 196.77V162C91.21 161.637 91.0656 161.288 90.8087 161.031C90.5518 160.774 90.2033 160.63 89.84 160.63V160.63C89.6592 160.629 89.48 160.663 89.3126 160.731C89.1452 160.8 88.993 160.9 88.8648 161.028C88.7365 161.155 88.6347 161.307 88.5652 161.473C88.4957 161.64 88.46 161.819 88.46 162V196.81C88.4729 197.167 88.624 197.506 88.8814 197.754C89.1388 198.002 89.4825 198.14 89.84 198.14Z" fill="#F0F0F0"/>
<path d="M77.0703 177.8H119.72L114.81 148H81.9803L77.0703 177.8Z" fill="#E0E0E0"/>
<path d="M249.999 372.56C357.082 372.56 443.889 367.492 443.889 361.24C443.889 354.988 357.082 349.92 249.999 349.92C142.917 349.92 56.1094 354.988 56.1094 361.24C56.1094 367.492 142.917 372.56 249.999 372.56Z" fill="#F5F5F5"/>
<path d="M104.119 147.359L103.121 147.431L104.45 165.873L105.447 165.801L104.119 147.359Z" fill="#06BC67"/>
<path d="M106.124 175.322L105.127 175.394L105.627 182.336L106.624 182.264L106.124 175.322Z" fill="#06BC67"/>
<path d="M337.71 260.16H123.55C121.166 260.117 118.882 259.193 117.139 257.567C115.396 255.94 114.317 253.725 114.11 251.35L103.59 105.22C103.492 104.093 103.631 102.958 103.999 101.888C104.366 100.818 104.954 99.8373 105.723 99.0083C106.493 98.1793 107.428 97.5207 108.468 97.0749C109.507 96.6291 110.629 96.406 111.76 96.4201H325.92C328.302 96.4627 330.585 97.3852 332.327 99.0099C334.07 100.635 335.15 102.847 335.36 105.22L345.88 251.35C345.978 252.478 345.838 253.613 345.471 254.683C345.104 255.754 344.516 256.735 343.747 257.565C342.977 258.395 342.043 259.054 341.003 259.501C339.963 259.948 338.842 260.173 337.71 260.16V260.16Z" fill="#06BC67"/>
<path d="M338.53 260.16H124.37C121.986 260.117 119.703 259.193 117.96 257.567C116.217 255.94 115.137 253.725 114.93 251.35L104.41 105.22C104.312 104.093 104.452 102.958 104.819 101.888C105.187 100.818 105.774 99.8373 106.544 99.0083C107.313 98.1793 108.248 97.5207 109.288 97.0749C110.328 96.6291 111.449 96.406 112.58 96.4201H326.74C329.123 96.4627 331.405 97.3852 333.148 99.0099C334.891 100.635 335.971 102.847 336.18 105.22L346.7 251.35C346.8 252.478 346.661 253.614 346.295 254.685C345.928 255.756 345.341 256.738 344.571 257.568C343.801 258.399 342.866 259.058 341.825 259.505C340.785 259.951 339.662 260.174 338.53 260.16V260.16Z" fill="#06BC67"/>
<path opacity="0.5" d="M338.53 260.16H124.37C121.986 260.117 119.703 259.193 117.96 257.567C116.217 255.94 115.137 253.725 114.93 251.35L104.41 105.22C104.312 104.093 104.452 102.958 104.819 101.888C105.187 100.818 105.774 99.8373 106.544 99.0083C107.313 98.1793 108.248 97.5207 109.288 97.0749C110.328 96.6291 111.449 96.406 112.58 96.4201H326.74C329.123 96.4627 331.405 97.3852 333.148 99.0099C334.891 100.635 335.971 102.847 336.18 105.22L346.7 251.35C346.8 252.478 346.661 253.614 346.295 254.685C345.928 255.756 345.341 256.738 344.571 257.568C343.801 258.399 342.866 259.058 341.825 259.505C340.785 259.951 339.662 260.174 338.53 260.16V260.16Z" fill="white"/>
<path d="M327.06 100.82H112.9H112.18C106.71 101.27 107.83 109.6 113.35 109.6H327.87C333.4 109.6 333.32 101.27 327.78 100.82H327.06Z" fill="#06BC67"/>
<path d="M118.48 105.22C118.501 105.478 118.467 105.737 118.382 105.981C118.297 106.225 118.161 106.449 117.984 106.637C117.807 106.826 117.592 106.975 117.354 107.076C117.115 107.176 116.858 107.225 116.6 107.22C116.056 107.212 115.535 107.004 115.136 106.635C114.737 106.265 114.489 105.761 114.44 105.22C114.419 104.963 114.452 104.705 114.537 104.461C114.621 104.218 114.756 103.995 114.932 103.806C115.108 103.618 115.322 103.469 115.559 103.368C115.796 103.267 116.052 103.216 116.31 103.22C116.855 103.225 117.379 103.433 117.78 103.802C118.181 104.172 118.43 104.677 118.48 105.22Z" fill="#FAFAFA"/>
<path d="M125.35 105.22C125.371 105.478 125.338 105.737 125.252 105.981C125.167 106.225 125.031 106.449 124.854 106.637C124.677 106.826 124.462 106.975 124.224 107.076C123.985 107.176 123.728 107.225 123.47 107.22C122.926 107.212 122.405 107.004 122.006 106.635C121.607 106.265 121.359 105.761 121.31 105.22C121.289 104.963 121.322 104.705 121.407 104.461C121.492 104.218 121.626 103.995 121.802 103.806C121.978 103.618 122.192 103.469 122.429 103.368C122.666 103.267 122.922 103.216 123.18 103.22C123.725 103.225 124.249 103.433 124.65 103.802C125.051 104.172 125.3 104.677 125.35 105.22Z" fill="#FAFAFA"/>
<path d="M132.21 105.22C132.231 105.477 132.198 105.736 132.113 105.979C132.028 106.222 131.893 106.445 131.717 106.634C131.541 106.822 131.328 106.972 131.091 107.072C130.853 107.173 130.598 107.224 130.34 107.22C129.796 107.215 129.273 107.007 128.874 106.637C128.474 106.267 128.227 105.762 128.18 105.22C128.157 104.963 128.189 104.704 128.273 104.46C128.358 104.215 128.492 103.992 128.669 103.803C128.845 103.614 129.059 103.465 129.297 103.365C129.535 103.264 129.792 103.215 130.05 103.22C130.593 103.228 131.115 103.436 131.514 103.806C131.912 104.175 132.161 104.679 132.21 105.22V105.22Z" fill="#FAFAFA"/>
<path d="M332.85 245.58H128C127.134 245.566 126.305 245.23 125.673 244.639C125.041 244.048 124.651 243.243 124.58 242.38L115.93 122.21C115.891 121.798 115.941 121.382 116.075 120.99C116.21 120.598 116.426 120.24 116.71 119.938C116.994 119.636 117.338 119.399 117.721 119.24C118.104 119.082 118.516 119.007 118.93 119.02H323.83C324.694 119.032 325.523 119.365 326.155 119.955C326.788 120.545 327.178 121.348 327.25 122.21L335.91 242.38C335.947 242.798 335.895 243.219 335.756 243.614C335.618 244.01 335.396 244.372 335.106 244.675C334.816 244.978 334.465 245.216 334.076 245.372C333.687 245.528 333.269 245.599 332.85 245.58V245.58Z" fill="white"/>
<path d="M246.53 199.8L243.19 153.48L233.09 147.4H205.28L209.06 199.8H246.53Z" fill="white"/>
<path d="M246.53 200.28H209.06C208.936 200.283 208.816 200.238 208.724 200.154C208.633 200.07 208.578 199.954 208.57 199.83L204.8 147.43C204.795 147.364 204.804 147.298 204.827 147.236C204.849 147.174 204.884 147.118 204.93 147.07C204.974 147.021 205.028 146.981 205.088 146.953C205.149 146.926 205.214 146.911 205.28 146.91H233.09C233.178 146.913 233.264 146.937 233.34 146.98L243.44 153.06C243.508 153.099 243.565 153.154 243.607 153.22C243.649 153.286 243.674 153.362 243.68 153.44L247 199.76C247.007 199.827 246.999 199.896 246.976 199.96C246.954 200.024 246.918 200.082 246.87 200.13C246.827 200.177 246.774 200.214 246.716 200.24C246.657 200.266 246.594 200.279 246.53 200.28V200.28ZM209.53 199.28H246L242.72 153.73L233 147.88H205.8L209.53 199.28Z" fill="#06BC67"/>
<path d="M243.19 153.48L233.09 147.4L236.8 155.46L243.19 153.48Z" fill="#EBEBEB"/>
<path d="M236.8 155.94C236.707 155.94 236.617 155.913 236.539 155.864C236.462 155.814 236.399 155.743 236.36 155.66L232.65 147.6C232.606 147.505 232.594 147.4 232.614 147.298C232.633 147.195 232.684 147.102 232.76 147.03C232.839 146.962 232.938 146.921 233.042 146.912C233.146 146.903 233.25 146.927 233.34 146.98L243.44 153.06C243.521 153.109 243.587 153.18 243.63 153.265C243.672 153.35 243.689 153.446 243.68 153.54C243.667 153.632 243.628 153.719 243.568 153.789C243.508 153.86 243.429 153.913 243.34 153.94L236.94 155.94H236.8ZM234.19 148.62L237.06 154.87L242.06 153.34L234.19 148.62Z" fill="#06BC67"/>
<path d="M221 171C221.015 171.272 220.974 171.544 220.88 171.799C220.787 172.055 220.642 172.288 220.454 172.486C220.267 172.684 220.042 172.841 219.792 172.948C219.541 173.055 219.272 173.111 219 173.11C218.429 173.1 217.882 172.879 217.465 172.489C217.048 172.099 216.789 171.569 216.74 171C216.714 170.726 216.747 170.449 216.837 170.188C216.927 169.927 217.071 169.688 217.26 169.488C217.45 169.287 217.679 169.129 217.935 169.024C218.19 168.92 218.464 168.87 218.74 168.88C219.312 168.893 219.859 169.116 220.276 169.507C220.693 169.899 220.951 170.43 221 171Z" fill="#06BC67"/>
<path d="M234.699 171C234.724 171.274 234.689 171.55 234.599 171.809C234.509 172.069 234.364 172.306 234.175 172.506C233.986 172.705 233.757 172.862 233.502 172.967C233.248 173.071 232.974 173.12 232.699 173.11C232.127 173.1 231.579 172.879 231.16 172.49C230.741 172.1 230.481 171.57 230.429 171C230.413 170.728 230.453 170.455 230.546 170.198C230.639 169.941 230.784 169.706 230.971 169.508C231.158 169.309 231.384 169.151 231.635 169.043C231.886 168.935 232.156 168.88 232.429 168.88C233.004 168.888 233.554 169.11 233.974 169.502C234.394 169.894 234.652 170.428 234.699 171V171Z" fill="#06BC67"/>
<path d="M238.58 184.74C238.458 184.738 238.342 184.691 238.253 184.608C238.164 184.524 238.11 184.411 238.1 184.29C237.85 180.88 232.51 178.11 226.2 178.11C222.01 178.11 218.25 179.36 216.39 181.36C216.008 181.729 215.709 182.174 215.512 182.667C215.315 183.16 215.226 183.69 215.25 184.22C215.255 184.286 215.246 184.352 215.225 184.414C215.204 184.476 215.171 184.534 215.128 184.584C215.041 184.684 214.918 184.746 214.785 184.755C214.652 184.764 214.521 184.721 214.421 184.633C214.321 184.546 214.259 184.423 214.25 184.29C214.22 183.627 214.329 182.965 214.57 182.347C214.812 181.729 215.179 181.168 215.65 180.7C217.65 178.51 221.72 177.14 226.17 177.14C233.1 177.14 238.75 180.25 239.03 184.22C239.034 184.283 239.026 184.346 239.005 184.406C238.985 184.466 238.953 184.521 238.911 184.568C238.869 184.616 238.818 184.655 238.761 184.682C238.705 184.71 238.643 184.726 238.58 184.73V184.74Z" fill="#06BC67"/>
<path d="M213.17 166.72C213.048 166.718 212.931 166.671 212.84 166.59C212.749 166.498 212.698 166.374 212.698 166.245C212.698 166.116 212.749 165.992 212.84 165.9L214.97 163.61C215.062 163.522 215.183 163.473 215.31 163.473C215.437 163.473 215.559 163.522 215.65 163.61C215.695 163.655 215.731 163.708 215.755 163.766C215.779 163.824 215.791 163.887 215.791 163.95C215.791 164.013 215.779 164.076 215.755 164.134C215.731 164.192 215.695 164.245 215.65 164.29L213.52 166.58C213.474 166.626 213.42 166.662 213.36 166.686C213.299 166.71 213.235 166.722 213.17 166.72V166.72Z" fill="#06BC67"/>
<path d="M237.58 166.72C237.458 166.714 237.342 166.669 237.25 166.59L234.8 164.3C234.753 164.255 234.717 164.202 234.691 164.142C234.666 164.083 234.653 164.019 234.653 163.955C234.653 163.891 234.666 163.827 234.691 163.768C234.717 163.708 234.753 163.655 234.8 163.61C234.891 163.522 235.013 163.473 235.14 163.473C235.266 163.473 235.388 163.522 235.48 163.61L237.93 165.9C237.974 165.945 238.01 165.998 238.034 166.056C238.058 166.114 238.071 166.177 238.071 166.24C238.071 166.303 238.058 166.366 238.034 166.424C238.01 166.482 237.974 166.535 237.93 166.58C237.835 166.669 237.71 166.719 237.58 166.72V166.72Z" fill="#06BC67"/>
<path d="M353.689 118.08C354.579 117.63 355.689 117.08 356.629 116.51C357.569 115.94 358.629 115.39 359.629 114.79C361.579 113.58 363.559 112.39 365.429 111.07C369.185 108.5 372.706 105.602 375.949 102.41C376.359 102.03 376.719 101.61 377.109 101.2L377.679 100.59L377.959 100.29L378.099 100.13C377.959 100.4 378.099 100.32 378.099 100.06C378.187 99.7028 378.238 99.3375 378.249 98.97C378.226 96.8436 377.982 94.7255 377.519 92.6499C376.629 88.1699 375.279 83.55 373.949 79.03L377.829 77.33C380.278 81.6666 382.324 86.2191 383.939 90.9299C384.847 93.4758 385.425 96.1273 385.659 98.82C385.721 99.6571 385.694 100.498 385.579 101.33C385.431 102.506 385.014 103.632 384.359 104.62L384.189 104.85L384.059 105.01L383.909 105.2L383.599 105.58L382.979 106.33C382.569 106.82 382.169 107.33 381.729 107.8C378.31 111.595 374.495 115.014 370.349 118C368.349 119.48 366.229 120.9 364.059 122.19C362.989 122.84 361.899 123.46 360.789 124.07C359.679 124.68 358.599 125.24 357.319 125.84L353.689 118.08Z" fill="#FFB573"/>
<path d="M344.79 353.18C345.539 353.161 346.283 353.061 347.01 352.88C347.047 352.869 347.08 352.848 347.106 352.82C347.133 352.792 347.151 352.757 347.16 352.72C347.165 352.682 347.159 352.643 347.143 352.607C347.127 352.572 347.102 352.542 347.07 352.52C346.78 352.33 344.24 350.69 343.26 351.13C343.152 351.181 343.058 351.259 342.99 351.358C342.921 351.456 342.88 351.571 342.87 351.69C342.831 351.879 342.841 352.074 342.899 352.258C342.956 352.442 343.06 352.608 343.2 352.74C343.66 353.074 344.224 353.23 344.79 353.18V353.18ZM346.44 352.6C344.99 352.89 343.89 352.84 343.44 352.45C343.35 352.358 343.285 352.245 343.25 352.12C343.215 351.996 343.211 351.866 343.24 351.74C343.244 351.687 343.261 351.636 343.291 351.592C343.321 351.548 343.362 351.513 343.41 351.49C343.94 351.26 345.41 352 346.44 352.6Z" fill="#06BC67"/>
<path d="M347 352.88H347.1C347.13 352.862 347.154 352.837 347.171 352.807C347.189 352.778 347.199 352.744 347.2 352.71C347.2 352.6 347.2 350.19 346.28 349.39C346.17 349.284 346.037 349.204 345.892 349.157C345.746 349.111 345.592 349.098 345.44 349.12C345.282 349.121 345.13 349.177 345.008 349.277C344.886 349.377 344.802 349.516 344.77 349.67C344.58 350.67 346.1 352.42 346.9 352.88C346.933 352.889 346.968 352.889 347 352.88V352.88ZM345.57 349.49C345.733 349.491 345.889 349.551 346.01 349.66C346.538 350.438 346.81 351.36 346.79 352.3C345.99 351.66 345.04 350.3 345.16 349.73C345.16 349.64 345.23 349.52 345.48 349.49H345.57Z" fill="#06BC67"/>
<path d="M346.22 93.0699C345.22 98.0699 343.22 108.07 346.67 111.42C346.67 111.42 345.31 116.42 336.08 116.42C325.92 116.42 331.23 111.42 331.23 111.42C336.77 110.1 336.62 105.99 335.66 102.12L346.22 93.0699Z" fill="#FFB573"/>
<path d="M329.28 113.42C327.69 113.64 329.05 109.51 329.69 109.08C331.19 108.08 350.55 106.69 350.42 109.08C350.34 110.08 349.86 112.08 349.02 112.74C348.18 113.4 343.2 111.34 329.28 113.42Z" fill="#263238"/>
<path d="M332.44 112C331.17 112.43 331.29 108.27 331.72 107.77C332.72 106.61 348.39 102.59 348.85 104.86C349.03 105.86 349.12 107.86 348.58 108.57C348.04 109.28 343.44 108.11 332.44 112Z" fill="#263238"/>
<path d="M326.609 84.1099C326.546 84.1127 326.484 84.1005 326.426 84.0744C326.369 84.0484 326.319 84.0091 326.279 83.9599C325.974 83.5664 325.581 83.2501 325.131 83.0364C324.681 82.8228 324.187 82.7178 323.689 82.7299C323.637 82.7369 323.584 82.7333 323.534 82.7193C323.483 82.7053 323.436 82.6812 323.395 82.6486C323.354 82.6159 323.32 82.5752 323.295 82.5291C323.27 82.4829 323.254 82.4322 323.249 82.3799C323.241 82.2769 323.273 82.1746 323.338 82.0944C323.403 82.0143 323.497 81.9625 323.599 81.9499C324.229 81.9178 324.857 82.0383 325.43 82.3012C326.003 82.5642 326.503 82.9617 326.889 83.4599C326.956 83.5411 326.989 83.6453 326.979 83.7502C326.97 83.855 326.92 83.9519 326.839 84.0199C326.771 84.0687 326.692 84.0996 326.609 84.1099V84.1099Z" fill="#263238"/>
<path d="M324.67 89C324.216 90.5953 323.543 92.1199 322.67 93.53C323.037 93.7409 323.445 93.8689 323.867 93.9052C324.288 93.9415 324.712 93.8851 325.11 93.74L324.67 89Z" fill="#FF5652"/>
<path d="M325.16 87.7899C325.23 88.4599 324.92 89.04 324.48 89.08C324.04 89.12 323.63 88.62 323.57 87.94C323.51 87.26 323.81 86.6899 324.24 86.6499C324.67 86.6099 325.09 87.1099 325.16 87.7899Z" fill="#263238"/>
<path d="M324.44 86.67L322.78 86.36C322.78 86.36 323.73 87.54 324.44 86.67Z" fill="#263238"/>
<path d="M356.7 352.69H348.32L348.98 333.29H357.36L356.7 352.69Z" fill="#FFB573"/>
<path d="M347.66 351.72H357.07C357.232 351.716 357.39 351.772 357.513 351.877C357.637 351.982 357.718 352.129 357.74 352.29L358.81 359.73C358.831 359.918 358.812 360.109 358.754 360.289C358.696 360.469 358.601 360.635 358.474 360.776C358.348 360.917 358.193 361.029 358.02 361.106C357.846 361.182 357.659 361.221 357.47 361.22C354.19 361.17 352.61 360.97 348.47 360.97C345.92 360.97 342.2 361.24 338.69 361.24C335.18 361.24 334.98 357.76 336.45 357.45C343.01 356.03 344.05 354.09 346.26 352.23C346.653 351.903 347.148 351.723 347.66 351.72V351.72Z" fill="#263238"/>
<g opacity="0.2">
<path d="M357.36 333.29H348.98L348.64 343.29H357.02L357.36 333.29Z" fill="black"/>
</g>
<path d="M323.37 123C318.242 121.006 313.219 118.753 308.32 116.25C303.26 113.777 298.439 110.841 293.92 107.48C292.713 106.534 291.57 105.509 290.5 104.41C290.22 104.11 289.94 103.83 289.67 103.48C289.353 103.122 289.059 102.745 288.79 102.35C288.052 101.276 287.592 100.035 287.45 98.74C287.34 97.5118 287.507 96.2746 287.94 95.12C288.287 94.1919 288.761 93.3168 289.35 92.52C290.316 91.199 291.456 90.0149 292.74 89C295.006 87.1958 297.452 85.6308 300.04 84.33C301.28 83.67 302.54 83.08 303.82 82.53C305.1 81.98 306.36 81.46 307.73 80.99L309.5 84.84C305.14 87.59 300.62 90.62 297.3 94C296.557 94.7529 295.903 95.5883 295.35 96.49C294.87 97.28 294.88 97.87 294.96 97.82C295.04 97.77 294.96 97.82 295.1 97.92L295.5 98.35C295.65 98.53 295.86 98.71 296.05 98.9C296.897 99.6796 297.796 100.401 298.74 101.06C300.804 102.522 302.955 103.857 305.18 105.06C307.43 106.32 309.75 107.51 312.11 108.65C316.83 110.91 321.71 113.08 326.5 115.06L323.37 123Z" fill="#FFB573"/>
<path d="M312 82.15L313.38 79.15L307.06 77C307.06 77 305.06 82.91 307.43 85.63C308.421 85.4741 309.357 85.0744 310.154 84.4669C310.952 83.8595 311.586 83.0633 312 82.15Z" fill="#FFB573"/>
<path d="M313.35 72.66L308.32 71.2L307.06 76.96L313.35 79.1499V72.66Z" fill="#FFB573"/>
<path d="M378.35 79.4399L379.08 72.4399L372.6 73.9999C372.6 73.9999 372.5 80.5799 375.93 81.6199L378.35 79.4399Z" fill="#FFB573"/>
<path d="M375.959 67.51L371.729 69.48L372.599 73.95L379.079 72.42L375.959 67.51Z" fill="#FFB573"/>
<path d="M347.54 83.25C347.85 91.56 348.15 95.07 344.4 99.72C338.75 106.72 328.48 105.27 325.7 97.22C323.2 89.98 323.12 77.61 330.88 73.53C332.586 72.6229 334.496 72.1667 336.428 72.2048C338.359 72.243 340.25 72.7741 341.918 73.7478C343.587 74.7215 344.98 76.1056 345.964 77.7686C346.948 79.4316 347.49 81.3184 347.54 83.25V83.25Z" fill="#FFB573"/>
<path d="M343.92 99.71C352.08 96.18 357.44 88.71 355.18 77.13C353.01 66.02 345.51 64.92 342.41 67.22C339.31 69.52 331.58 66.0899 326.94 69.9899C318.94 76.7599 326.5 83.99 330.46 88.36C332.82 93.22 335.92 103.16 343.92 99.71Z" fill="#263238"/>
<path d="M340.53 75.14C341.526 76.417 342.873 77.3745 344.407 77.8943C345.94 78.4142 347.592 78.4737 349.159 78.0654C350.726 77.6572 352.139 76.7991 353.223 75.597C354.308 74.395 355.017 72.9016 355.263 71.3013C355.508 69.7009 355.28 68.0637 354.606 66.5916C353.932 65.1195 352.841 63.8771 351.469 63.0177C350.097 62.1582 348.503 61.7194 346.884 61.7553C345.266 61.7913 343.693 62.3005 342.36 63.22C340.538 64.5584 339.321 66.5659 338.978 68.8012C338.635 71.0364 339.193 73.3164 340.53 75.14Z" fill="#06BC67"/>
<path d="M342.65 68C341.48 61.3 347.81 56.1399 356.29 58.6299C364.77 61.1199 360.29 68.63 358.54 74.63C356.79 80.63 361.37 86.35 363.27 81.78C365.17 77.21 361.97 75.78 361.97 75.78C361.97 75.78 370.97 78.1099 362.61 88.2599C354.25 98.4099 346.68 87.1999 348.73 80.5899C350.39 75.2799 343.76 74.33 342.65 68Z" fill="#263238"/>
<path d="M334.18 70.53C330.31 68.53 323.76 66.88 320.03 73.16C318.27 76.16 318.95 80.16 318.95 80.16L330.34 80.91L334.18 70.53Z" fill="#263238"/>
<path d="M317.61 78.18C317.543 78.1748 317.481 78.1438 317.436 78.0935C317.391 78.0431 317.368 77.9773 317.37 77.91C317.37 77.74 317.66 73.72 320.09 71.2C325.96 65.1 332.84 70.2 334.8 71.85C334.843 71.8946 334.867 71.9532 334.869 72.0145C334.87 72.0759 334.85 72.1358 334.81 72.1828C334.77 72.2297 334.715 72.2605 334.654 72.2692C334.593 72.2779 334.532 72.264 334.48 72.23C332.59 70.61 326.01 65.76 320.48 71.54C318.18 73.93 317.9 77.9 317.9 77.94C317.899 77.9756 317.891 78.0106 317.875 78.0427C317.86 78.0747 317.837 78.1031 317.81 78.1258C317.782 78.1485 317.75 78.1651 317.716 78.1745C317.682 78.1838 317.646 78.1857 317.61 78.18Z" fill="#263238"/>
<path d="M331.85 88C331.805 89.5732 331.223 91.0836 330.2 92.28C328.82 93.9 327.2 93.1 326.87 91.28C326.54 89.67 326.87 86.88 328.61 85.91C330.35 84.94 331.87 86.18 331.85 88Z" fill="#FFB573"/>
<path d="M330.05 164.12C330.05 164.12 330.59 222.27 335.63 254.67C339.71 280.84 347.24 341.36 347.24 341.36H358.67C358.67 341.36 359.78 282.93 357.67 257.05C352.44 191.55 365.95 179.3 355.05 164.12H330.05Z" fill="#263238"/>
<path opacity="0.1" d="M330.05 164.12C330.05 164.12 330.59 222.27 335.63 254.67C339.71 280.84 347.24 341.36 347.24 341.36H358.67C358.67 341.36 359.78 282.93 357.67 257.05C352.44 191.55 365.95 179.3 355.05 164.12H330.05Z" fill="white"/>
<path opacity="0.3" d="M336.06 190.5C340.06 208.05 336.87 235.69 334.68 247.86C332.36 229.38 331.19 205.43 330.61 187.86C332.68 184.52 334.64 184.3 336.06 190.5Z" fill="black"/>
<path d="M345.68 341.58H360.23L360.99 336.48L345.6 335.96L345.68 341.58Z" fill="#06BC67"/>
<path d="M349.83 115C351.2 112.28 358.56 110.57 362.58 110.58L365.58 123.94C365.58 123.94 357.58 135.83 354.24 134.57C350.31 133.12 346.9 120.87 349.83 115Z" fill="#06BC67"/>
<path opacity="0.4" d="M349.83 115C351.2 112.28 358.56 110.57 362.58 110.58L365.58 123.94C365.58 123.94 357.58 135.83 354.24 134.57C350.31 133.12 346.9 120.87 349.83 115Z" fill="black"/>
<path d="M341.35 338.31C341.367 338.281 341.375 338.248 341.375 338.215C341.375 338.182 341.367 338.149 341.35 338.12C341.331 338.082 341.301 338.05 341.263 338.03C341.225 338.011 341.182 338.003 341.14 338.01C340.72 338.08 337.02 338.66 336.52 339.72C336.466 339.816 336.438 339.925 336.438 340.035C336.438 340.145 336.466 340.253 336.52 340.35C336.606 340.508 336.729 340.643 336.879 340.742C337.029 340.841 337.201 340.902 337.38 340.92C338.59 341.04 340.38 339.36 341.28 338.34L341.35 338.31ZM336.91 339.85C337.25 339.29 339.17 338.77 340.63 338.5C339.31 339.84 338.15 340.59 337.47 340.5C337.352 340.488 337.24 340.447 337.142 340.381C337.044 340.315 336.964 340.225 336.91 340.12C336.888 340.082 336.876 340.039 336.876 339.995C336.876 339.951 336.888 339.908 336.91 339.87C336.91 339.87 336.9 339.86 336.91 339.85Z" fill="#06BC67"/>
<path d="M350.08 334.76L342.42 338.17L339.01 331.06L334.55 321.76L334.02 320.68L341.68 317.27L342.27 318.49L346.59 327.5L350.08 334.76Z" fill="#FFB573"/>
<path opacity="0.2" d="M346.59 327.5L339.01 331.06L334.55 321.76L342.27 318.49L346.59 327.5Z" fill="black"/>
<path d="M321.07 164.12C321.07 164.12 296.6 225 303.23 253.6C309.23 279.49 335.73 328.52 335.73 328.52L346 323.38C346 323.38 329.61 264.19 327.84 251.33C324.38 226.33 346.61 191 346.61 164.12H321.07Z" fill="#263238"/>
<path opacity="0.1" d="M321.07 164.12C321.07 164.12 296.6 225 303.23 253.6C309.23 279.49 335.73 328.52 335.73 328.52L346 323.38C346 323.38 329.61 264.19 327.84 251.33C324.38 226.33 346.61 191 346.61 164.12H321.07Z" fill="white"/>
<path d="M341.06 337.1L348.66 331.57C348.789 331.47 348.949 331.42 349.112 331.431C349.274 331.442 349.427 331.513 349.54 331.63L354.79 337.02C354.918 337.161 355.014 337.327 355.073 337.507C355.132 337.687 355.152 337.878 355.132 338.067C355.112 338.256 355.053 338.438 354.958 338.602C354.863 338.766 354.734 338.909 354.58 339.02C351.89 340.9 350.5 341.68 347.16 344.11C345.1 345.61 341 348.92 338.16 350.99C335.32 353.06 333.16 350.36 334.16 349.25C338.64 344.25 339.58 341.15 340.28 338.34C340.389 337.849 340.664 337.41 341.06 337.1V337.1Z" fill="#263238"/>
<path d="M335.069 330.69L348.299 324.64L346.609 319.25L332.439 325.71L335.069 330.69Z" fill="#06BC67"/>
<path d="M327.56 114.36C326.47 111.52 316.91 108.36 312.11 107.36L310 123.08C310 123.08 317.84 134.34 321.27 133.41C325.33 132.31 329.92 120.45 327.56 114.36Z" fill="#06BC67"/>
<path opacity="0.4" d="M327.56 114.36C326.47 111.52 316.91 108.36 312.11 107.36L310 123.08C310 123.08 317.84 134.34 321.27 133.41C325.33 132.31 329.92 120.45 327.56 114.36Z" fill="black"/>
<path d="M317.07 113.57C317.07 113.57 313.07 114.97 321.07 164.12H355.07C354.5 150.28 354.48 141.74 361.07 113.32C356.306 112.337 351.477 111.702 346.62 111.42C341.48 111.049 336.32 111.049 331.18 111.42C324.59 112 317.07 113.57 317.07 113.57Z" fill="#06BC67"/>
<path opacity="0.4" d="M317.07 113.57C317.07 113.57 313.07 114.97 321.07 164.12H355.07C354.5 150.28 354.48 141.74 361.07 113.32C356.306 112.337 351.477 111.702 346.62 111.42C341.48 111.049 336.32 111.049 331.18 111.42C324.59 112 317.07 113.57 317.07 113.57Z" fill="black"/>
<path d="M355.6 162.13L357.13 165.13C357.25 165.37 356.97 165.61 356.58 165.61H320.9C320.59 165.61 320.34 165.46 320.32 165.26L320.01 162.26C320.01 162.05 320.26 161.87 320.59 161.87H355C355.114 161.852 355.231 161.867 355.338 161.913C355.444 161.959 355.535 162.034 355.6 162.13Z" fill="#06BC67"/>
<path opacity="0.3" d="M355.6 162.13L357.13 165.13C357.25 165.37 356.97 165.61 356.58 165.61H320.9C320.59 165.61 320.34 165.46 320.32 165.26L320.01 162.26C320.01 162.05 320.26 161.87 320.59 161.87H355C355.114 161.852 355.231 161.867 355.338 161.913C355.444 161.959 355.535 162.034 355.6 162.13Z" fill="white"/>
<path d="M350.999 166H351.92C352.11 166 352.25 165.9 352.23 165.79L351.799 161.79C351.799 161.67 351.63 161.58 351.45 161.58H350.519C350.339 161.58 350.199 161.67 350.209 161.79L350.64 165.79C350.63 165.88 350.789 166 350.999 166Z" fill="#263238"/>
<path d="M328.61 166H329.53C329.71 166 329.85 165.9 329.84 165.79L329.41 161.79C329.41 161.67 329.24 161.58 329.05 161.58H328.13C327.94 161.58 327.81 161.67 327.82 161.79L328.25 165.79C328.26 165.88 328.42 166 328.61 166Z" fill="#263238"/>
<path d="M197.228 216.608C197.412 216.608 197.596 216.596 197.78 216.572C197.964 216.54 198.128 216.488 198.272 216.416C198.416 216.344 198.532 216.244 198.62 216.116C198.716 215.98 198.764 215.808 198.764 215.6C198.764 215.44 198.72 215.304 198.632 215.192C198.544 215.072 198.432 214.964 198.296 214.868C198.16 214.772 198.008 214.684 197.84 214.604C197.672 214.524 197.504 214.436 197.336 214.34C197.12 214.212 196.916 214.076 196.724 213.932C196.532 213.788 196.368 213.628 196.232 213.452C196.096 213.268 195.988 213.068 195.908 212.852C195.828 212.628 195.788 212.372 195.788 212.084C195.788 211.716 195.856 211.376 195.992 211.064C196.136 210.744 196.344 210.468 196.616 210.236C196.896 210.004 197.244 209.824 197.66 209.696C198.076 209.56 198.564 209.492 199.124 209.492C199.38 209.492 199.628 209.516 199.868 209.564C200.108 209.604 200.332 209.656 200.54 209.72C200.748 209.784 200.936 209.86 201.104 209.948C201.28 210.028 201.428 210.108 201.548 210.188L200.768 211.568C200.568 211.416 200.324 211.288 200.036 211.184C199.748 211.08 199.436 211.028 199.1 211.028C198.916 211.028 198.74 211.044 198.572 211.076C198.404 211.108 198.256 211.164 198.128 211.244C198 211.316 197.896 211.412 197.816 211.532C197.744 211.652 197.708 211.8 197.708 211.976C197.708 212.136 197.736 212.272 197.792 212.384C197.856 212.488 197.936 212.58 198.032 212.66C198.128 212.74 198.24 212.812 198.368 212.876C198.496 212.94 198.632 213.008 198.776 213.08C199.024 213.208 199.264 213.344 199.496 213.488C199.728 213.632 199.932 213.8 200.108 213.992C200.284 214.176 200.424 214.388 200.528 214.628C200.632 214.868 200.684 215.152 200.684 215.48C200.684 215.936 200.6 216.332 200.432 216.668C200.264 217.004 200.028 217.284 199.724 217.508C199.42 217.732 199.056 217.896 198.632 218C198.216 218.112 197.752 218.168 197.24 218.168C196.904 218.168 196.588 218.14 196.292 218.084C196.004 218.028 195.74 217.964 195.5 217.892C195.268 217.812 195.064 217.728 194.888 217.64C194.72 217.552 194.584 217.472 194.48 217.4L195.272 215.972C195.368 216.036 195.484 216.104 195.62 216.176C195.756 216.248 195.908 216.316 196.076 216.38C196.252 216.444 196.436 216.5 196.628 216.548C196.82 216.588 197.02 216.608 197.228 216.608ZM201.603 218L203.595 209.684H209.031L208.647 211.22H205.083L204.699 212.9H207.843L207.471 214.412H204.327L203.847 216.452H207.687L207.303 218H201.603ZM212.82 209.684C212.868 209.9 212.928 210.208 213 210.608C213.08 211 213.16 211.436 213.24 211.916C213.328 212.388 213.416 212.876 213.504 213.38C213.592 213.876 213.672 214.332 213.744 214.748C214.016 214.332 214.312 213.884 214.632 213.404C214.952 212.924 215.268 212.452 215.58 211.988C215.892 211.524 216.188 211.092 216.468 210.692C216.748 210.284 216.988 209.948 217.188 209.684H218.844C218.788 210.236 218.712 210.856 218.616 211.544C218.528 212.232 218.424 212.944 218.304 213.68C218.192 214.416 218.072 215.156 217.944 215.9C217.816 216.644 217.688 217.344 217.56 218H215.736C215.904 217.184 216.08 216.304 216.264 215.36C216.456 214.408 216.632 213.448 216.792 212.48C216.584 212.808 216.352 213.176 216.096 213.584C215.84 213.984 215.584 214.392 215.328 214.808C215.072 215.216 214.824 215.608 214.584 215.984C214.344 216.36 214.136 216.68 213.96 216.944H212.592C212.552 216.704 212.504 216.4 212.448 216.032C212.392 215.664 212.328 215.276 212.256 214.868C212.192 214.452 212.124 214.036 212.052 213.62C211.98 213.196 211.912 212.816 211.848 212.48C211.536 213.448 211.252 214.408 210.996 215.36C210.748 216.304 210.516 217.184 210.3 218H208.488C208.672 217.344 208.872 216.644 209.088 215.9C209.312 215.156 209.54 214.416 209.772 213.68C210.012 212.936 210.248 212.22 210.48 211.532C210.712 210.844 210.932 210.228 211.14 209.684H212.82ZM224.33 216.5C224.418 216.508 224.506 216.516 224.594 216.524C224.69 216.524 224.818 216.524 224.978 216.524C225.498 216.524 225.966 216.444 226.382 216.284C226.806 216.124 227.162 215.896 227.45 215.6C227.746 215.296 227.974 214.928 228.134 214.496C228.294 214.056 228.374 213.564 228.374 213.02C228.374 212.74 228.338 212.488 228.266 212.264C228.194 212.032 228.074 211.836 227.906 211.676C227.746 211.508 227.534 211.38 227.27 211.292C227.014 211.204 226.702 211.16 226.334 211.16C226.094 211.16 225.85 211.172 225.602 211.196L224.33 216.5ZM230.294 212.924C230.294 213.732 230.162 214.456 229.898 215.096C229.634 215.736 229.254 216.28 228.758 216.728C228.27 217.168 227.674 217.508 226.97 217.748C226.266 217.988 225.47 218.108 224.582 218.108C224.246 218.108 223.858 218.088 223.418 218.048C222.978 218.008 222.554 217.944 222.146 217.856L224.078 209.828C224.534 209.74 224.97 209.68 225.386 209.648C225.81 209.608 226.19 209.588 226.526 209.588C227.118 209.588 227.646 209.668 228.11 209.828C228.582 209.988 228.978 210.216 229.298 210.512C229.626 210.808 229.874 211.16 230.042 211.568C230.21 211.976 230.294 212.428 230.294 212.924ZM236.243 218C236.227 217.688 236.207 217.384 236.183 217.088C236.167 216.784 236.147 216.484 236.123 216.188H233.003C232.843 216.484 232.675 216.784 232.499 217.088C232.323 217.384 232.155 217.688 231.995 218H230.039C230.559 217.104 231.043 216.276 231.491 215.516C231.947 214.756 232.383 214.04 232.799 213.368C233.223 212.696 233.635 212.06 234.035 211.46C234.435 210.852 234.843 210.26 235.259 209.684H236.927C237.055 210.26 237.175 210.9 237.287 211.604C237.407 212.3 237.515 213.016 237.611 213.752C237.715 214.48 237.807 215.212 237.887 215.948C237.975 216.676 238.055 217.36 238.127 218H236.243ZM235.691 211.508C235.355 212.044 235.023 212.576 234.695 213.104C234.375 213.632 234.063 214.172 233.759 214.724H236.003C235.963 214.236 235.919 213.716 235.871 213.164C235.831 212.612 235.771 212.06 235.691 211.508ZM241.416 216.5C241.504 216.508 241.592 216.516 241.68 216.524C241.776 216.524 241.904 216.524 242.064 216.524C242.584 216.524 243.052 216.444 243.468 216.284C243.892 216.124 244.248 215.896 244.536 215.6C244.832 215.296 245.06 214.928 245.22 214.496C245.38 214.056 245.46 213.564 245.46 213.02C245.46 212.74 245.424 212.488 245.352 212.264C245.28 212.032 245.16 211.836 244.992 211.676C244.832 211.508 244.62 211.38 244.356 211.292C244.1 211.204 243.788 211.16 243.42 211.16C243.18 211.16 242.936 211.172 242.688 211.196L241.416 216.5ZM247.38 212.924C247.38 213.732 247.248 214.456 246.984 215.096C246.72 215.736 246.34 216.28 245.844 216.728C245.356 217.168 244.76 217.508 244.056 217.748C243.352 217.988 242.556 218.108 241.668 218.108C241.332 218.108 240.944 218.088 240.504 218.048C240.064 218.008 239.64 217.944 239.232 217.856L241.164 209.828C241.62 209.74 242.056 209.68 242.472 209.648C242.896 209.608 243.276 209.588 243.612 209.588C244.204 209.588 244.732 209.668 245.196 209.828C245.668 209.988 246.064 210.216 246.384 210.512C246.712 210.808 246.96 211.16 247.128 211.568C247.296 211.976 247.38 212.428 247.38 212.924ZM252.945 211.1C252.577 211.1 252.233 211.196 251.913 211.388C251.601 211.58 251.325 211.836 251.085 212.156C250.853 212.476 250.669 212.844 250.533 213.26C250.405 213.676 250.341 214.104 250.341 214.544C250.341 215.144 250.465 215.632 250.713 216.008C250.969 216.376 251.381 216.56 251.949 216.56C252.317 216.56 252.657 216.464 252.969 216.272C253.289 216.08 253.565 215.824 253.797 215.504C254.037 215.184 254.221 214.82 254.349 214.412C254.485 213.996 254.553 213.564 254.553 213.116C254.553 212.516 254.425 212.032 254.169 211.664C253.921 211.288 253.513 211.1 252.945 211.1ZM251.757 218.168C251.269 218.168 250.821 218.088 250.413 217.928C250.005 217.768 249.653 217.54 249.357 217.244C249.061 216.94 248.829 216.572 248.661 216.14C248.501 215.708 248.421 215.22 248.421 214.676C248.421 214.052 248.529 213.432 248.745 212.816C248.961 212.2 249.269 211.648 249.669 211.16C250.077 210.664 250.573 210.264 251.157 209.96C251.741 209.648 252.401 209.492 253.137 209.492C253.625 209.492 254.073 209.572 254.481 209.732C254.889 209.892 255.241 210.124 255.537 210.428C255.833 210.724 256.061 211.088 256.221 211.52C256.389 211.952 256.473 212.44 256.473 212.984C256.473 213.608 256.365 214.232 256.149 214.856C255.941 215.472 255.633 216.028 255.225 216.524C254.825 217.012 254.333 217.408 253.749 217.712C253.165 218.016 252.501 218.168 251.757 218.168ZM259.255 216.608C259.439 216.608 259.623 216.596 259.807 216.572C259.991 216.54 260.155 216.488 260.299 216.416C260.443 216.344 260.559 216.244 260.647 216.116C260.743 215.98 260.791 215.808 260.791 215.6C260.791 215.44 260.747 215.304 260.659 215.192C260.571 215.072 260.459 214.964 260.323 214.868C260.187 214.772 260.035 214.684 259.867 214.604C259.699 214.524 259.531 214.436 259.363 214.34C259.147 214.212 258.943 214.076 258.751 213.932C258.559 213.788 258.395 213.628 258.259 213.452C258.123 213.268 258.015 213.068 257.935 212.852C257.855 212.628 257.815 212.372 257.815 212.084C257.815 211.716 257.883 211.376 258.019 211.064C258.163 210.744 258.371 210.468 258.643 210.236C258.923 210.004 259.271 209.824 259.687 209.696C260.103 209.56 260.591 209.492 261.151 209.492C261.407 209.492 261.655 209.516 261.895 209.564C262.135 209.604 262.359 209.656 262.567 209.72C262.775 209.784 262.963 209.86 263.131 209.948C263.307 210.028 263.455 210.108 263.575 210.188L262.795 211.568C262.595 211.416 262.351 211.288 262.063 211.184C261.775 211.08 261.463 211.028 261.127 211.028C260.943 211.028 260.767 211.044 260.599 211.076C260.431 211.108 260.283 211.164 260.155 211.244C260.027 211.316 259.923 211.412 259.843 211.532C259.771 211.652 259.735 211.8 259.735 211.976C259.735 212.136 259.763 212.272 259.819 212.384C259.883 212.488 259.963 212.58 260.059 212.66C260.155 212.74 260.267 212.812 260.395 212.876C260.523 212.94 260.659 213.008 260.803 213.08C261.051 213.208 261.291 213.344 261.523 213.488C261.755 213.632 261.959 213.8 262.135 213.992C262.311 214.176 262.451 214.388 262.555 214.628C262.659 214.868 262.711 215.152 262.711 215.48C262.711 215.936 262.627 216.332 262.459 216.668C262.291 217.004 262.055 217.284 261.751 217.508C261.447 217.732 261.083 217.896 260.659 218C260.243 218.112 259.779 218.168 259.267 218.168C258.931 218.168 258.615 218.14 258.319 218.084C258.031 218.028 257.767 217.964 257.527 217.892C257.295 217.812 257.091 217.728 256.915 217.64C256.747 217.552 256.611 217.472 256.507 217.4L257.299 215.972C257.395 216.036 257.511 216.104 257.647 216.176C257.783 216.248 257.935 216.316 258.103 216.38C258.279 216.444 258.463 216.5 258.655 216.548C258.847 216.588 259.047 216.608 259.255 216.608Z" fill="#06BC67"/>
</svg>
