<svg width="843" height="163" viewBox="0 0 843 163" fill="none" xmlns="http://www.w3.org/2000/svg">
<path d="M0 81.5C0 36.4888 36.4888 0 81.5 0H761.5C806.511 0 843 36.4888 843 81.5C843 126.511 806.511 163 761.5 163H81.5C36.4888 163 0 126.511 0 81.5Z" fill="#06BC67"/>
<path d="M0 81.5C0 36.4888 36.4888 0 81.5 0H569.5C614.511 0 651 36.4888 651 81.5C651 126.511 614.511 163 569.5 163H81.5C36.4888 163 0 126.511 0 81.5Z" fill="white"/>
<path d="M162.522 45.3767C162.009 44.9591 161.27 44.5564 160.304 44.1686C159.338 43.7808 158.282 43.5869 157.135 43.5869C155.928 43.5869 154.887 43.8106 154.012 44.2581C153.167 44.6757 152.473 45.2723 151.93 46.0479C151.387 46.7936 150.994 47.6885 150.753 48.7326C150.511 49.7766 150.391 50.8952 150.391 52.0884C150.391 54.803 151.07 56.906 152.428 58.3975C153.786 59.8592 155.596 60.59 157.86 60.59C159.006 60.59 159.957 60.5453 160.711 60.4558C161.496 60.3365 162.099 60.2171 162.522 60.0978V45.3767ZM162.522 29.7159L166.732 29V63.051C165.766 63.3195 164.529 63.5879 163.02 63.8564C161.511 64.1249 159.776 64.2591 157.814 64.2591C156.004 64.2591 154.374 63.9757 152.926 63.409C151.477 62.8422 150.24 62.0368 149.214 60.9927C148.188 59.9487 147.388 58.6809 146.815 57.1894C146.272 55.6681 146 53.9677 146 52.0884C146 50.2986 146.226 48.658 146.679 47.1665C147.162 45.675 147.856 44.3923 148.761 43.3184C149.667 42.2445 150.768 41.4093 152.066 40.8127C153.393 40.2161 154.902 39.9178 156.592 39.9178C157.95 39.9178 159.142 40.0968 160.168 40.4547C161.224 40.8127 162.009 41.1557 162.522 41.4839V29.7159Z" fill="#06BC67"/>
<path d="M172.655 52.1332C172.655 50.0749 172.957 48.2851 173.561 46.7638C174.164 45.2126 174.964 43.9299 175.96 42.9157C176.956 41.9015 178.102 41.1408 179.4 40.6337C180.698 40.1266 182.025 39.873 183.383 39.873C186.552 39.873 188.981 40.8574 190.671 42.8262C192.361 44.7652 193.206 47.7333 193.206 51.7305C193.206 51.9095 193.206 52.1481 193.206 52.4464C193.206 52.7149 193.191 52.9684 193.161 53.2071H177.046C177.227 55.6233 177.936 57.4579 179.174 58.7107C180.411 59.9636 182.342 60.59 184.968 60.59C186.446 60.59 187.683 60.4707 188.679 60.232C189.705 59.9636 190.475 59.71 190.988 59.4714L191.576 62.9615C191.063 63.23 190.158 63.5134 188.86 63.8117C187.593 64.11 186.144 64.2591 184.515 64.2591C182.463 64.2591 180.682 63.9608 179.174 63.3642C177.695 62.7378 176.473 61.8876 175.507 60.8137C174.541 59.7399 173.817 58.4721 173.334 57.0104C172.882 55.5189 172.655 53.8932 172.655 52.1332ZM188.815 49.8512C188.845 47.9719 188.362 46.4357 187.367 45.2425C186.401 44.0194 185.058 43.4079 183.338 43.4079C182.372 43.4079 181.512 43.6018 180.758 43.9896C180.034 44.3476 179.415 44.8248 178.902 45.4214C178.389 46.018 177.982 46.7041 177.68 47.4797C177.408 48.2553 177.227 49.0458 177.137 49.8512H188.815Z" fill="#06BC67"/>
<path d="M204.73 60.7242C206.45 60.7242 207.718 60.5005 208.532 60.0531C209.377 59.6056 209.8 58.8897 209.8 57.9053C209.8 56.8911 209.393 56.0857 208.578 55.4891C207.763 54.8925 206.42 54.2213 204.549 53.4755C203.644 53.1176 202.769 52.7596 201.924 52.4017C201.109 52.0139 200.4 51.5664 199.796 51.0593C199.193 50.5522 198.71 49.9407 198.348 49.2248C197.986 48.5088 197.805 47.6289 197.805 46.5848C197.805 44.5265 198.574 42.9008 200.113 41.7076C201.652 40.4846 203.749 39.873 206.405 39.873C207.069 39.873 207.733 39.9178 208.397 40.0073C209.061 40.0669 209.679 40.1564 210.253 40.2758C210.826 40.3652 211.324 40.4696 211.746 40.589C212.199 40.7083 212.546 40.8127 212.787 40.9022L212.018 44.4818C211.565 44.2431 210.856 44.0045 209.89 43.7659C208.925 43.4974 207.763 43.3632 206.405 43.3632C205.228 43.3632 204.202 43.6018 203.327 44.0791C202.452 44.5265 202.014 45.2425 202.014 46.2268C202.014 46.734 202.105 47.1814 202.286 47.5692C202.497 47.957 202.799 48.3149 203.191 48.6431C203.614 48.9414 204.127 49.2248 204.73 49.4932C205.334 49.7617 206.058 50.0451 206.903 50.3434C208.019 50.761 209.015 51.1786 209.89 51.5963C210.766 51.984 211.505 52.4464 212.108 52.9834C212.742 53.5203 213.225 54.1766 213.557 54.9521C213.889 55.6979 214.055 56.6226 214.055 57.7263C214.055 59.8741 213.24 61.4998 211.611 62.6035C210.011 63.7072 207.718 64.2591 204.73 64.2591C202.648 64.2591 201.018 64.0801 199.841 63.7222C198.665 63.394 197.865 63.1405 197.442 62.9615L198.212 59.3819C198.695 59.5609 199.464 59.8293 200.52 60.1873C201.577 60.5453 202.98 60.7242 204.73 60.7242Z" fill="#06BC67"/>
<path d="M218.142 52.1332C218.142 50.0749 218.444 48.2851 219.047 46.7638C219.651 45.2126 220.45 43.9299 221.446 42.9157C222.442 41.9015 223.589 41.1408 224.886 40.6337C226.184 40.1266 227.512 39.873 228.87 39.873C232.038 39.873 234.468 40.8574 236.157 42.8262C237.847 44.7652 238.692 47.7333 238.692 51.7305C238.692 51.9095 238.692 52.1481 238.692 52.4464C238.692 52.7149 238.677 52.9684 238.647 53.2071H222.533C222.714 55.6233 223.423 57.4579 224.66 58.7107C225.897 59.9636 227.829 60.59 230.454 60.59C231.933 60.59 233.17 60.4707 234.166 60.232C235.192 59.9636 235.961 59.71 236.474 59.4714L237.063 62.9615C236.55 63.23 235.644 63.5134 234.347 63.8117C233.079 64.11 231.631 64.2591 230.001 64.2591C227.949 64.2591 226.169 63.9608 224.66 63.3642C223.181 62.7378 221.959 61.8876 220.994 60.8137C220.028 59.7399 219.304 58.4721 218.821 57.0104C218.368 55.5189 218.142 53.8932 218.142 52.1332ZM234.302 49.8512C234.332 47.9719 233.849 46.4357 232.853 45.2425C231.887 44.0194 230.545 43.4079 228.824 43.4079C227.859 43.4079 226.999 43.6018 226.244 43.9896C225.52 44.3476 224.901 44.8248 224.388 45.4214C223.875 46.018 223.468 46.7041 223.166 47.4797C222.895 48.2553 222.714 49.0458 222.623 49.8512H234.302Z" fill="#06BC67"/>
<path d="M244.74 41.1259C245.705 40.8873 246.988 40.6337 248.587 40.3652C250.186 40.0968 252.027 39.9625 254.109 39.9625C255.98 39.9625 257.535 40.231 258.772 40.768C260.009 41.2751 260.99 42.0059 261.714 42.9605C262.468 43.8852 262.997 45.0038 263.298 46.3163C263.6 47.6289 263.751 49.0756 263.751 50.6566V63.7222H259.541V51.5515C259.541 50.1197 259.436 48.8966 259.224 47.8824C259.043 46.8682 258.727 46.0479 258.274 45.4214C257.821 44.795 257.218 44.3476 256.463 44.0791C255.709 43.7808 254.773 43.6316 253.657 43.6316C253.204 43.6316 252.736 43.6465 252.254 43.6764C251.771 43.7062 251.303 43.751 250.85 43.8106C250.428 43.8404 250.036 43.8852 249.673 43.9448C249.342 44.0045 249.1 44.0493 248.949 44.0791V63.7222H244.74V41.1259Z" fill="#06BC67"/>
<path d="M288.402 40.4547C287.225 44.8099 285.837 48.9861 284.238 52.9834C282.669 56.9806 281.145 60.5602 279.666 63.7222H275.864C274.385 60.5602 272.846 56.9806 271.247 52.9834C269.678 48.9861 268.304 44.8099 267.128 40.4547H271.654C272.016 41.9164 272.439 43.4825 272.922 45.153C273.435 46.7936 273.963 48.4343 274.506 50.0749C275.079 51.6857 275.653 53.2518 276.226 54.7732C276.799 56.2945 277.342 57.6518 277.855 58.845C278.368 57.6518 278.912 56.2945 279.485 54.7732C280.058 53.2518 280.617 51.6857 281.16 50.0749C281.733 48.4343 282.261 46.7936 282.744 45.153C283.257 43.4825 283.695 41.9164 284.057 40.4547H288.402Z" fill="#06BC67"/>
<path d="M312.904 52.0884C312.904 53.9379 312.632 55.6084 312.089 57.0999C311.546 58.5914 310.776 59.8741 309.78 60.948C308.815 62.0218 307.653 62.8571 306.295 63.4537C304.937 64.0205 303.458 64.3038 301.859 64.3038C300.26 64.3038 298.781 64.0205 297.423 63.4537C296.065 62.8571 294.888 62.0218 293.892 60.948C292.926 59.8741 292.172 58.5914 291.629 57.0999C291.086 55.6084 290.814 53.9379 290.814 52.0884C290.814 50.2688 291.086 48.6133 291.629 47.1217C292.172 45.6004 292.926 44.3028 293.892 43.2289C294.888 42.155 296.065 41.3347 297.423 40.768C298.781 40.1714 300.26 39.873 301.859 39.873C303.458 39.873 304.937 40.1714 306.295 40.768C307.653 41.3347 308.815 42.155 309.78 43.2289C310.776 44.3028 311.546 45.6004 312.089 47.1217C312.632 48.6133 312.904 50.2688 312.904 52.0884ZM308.513 52.0884C308.513 49.4634 307.909 47.3902 306.702 45.8689C305.525 44.3177 303.911 43.5421 301.859 43.5421C299.807 43.5421 298.177 44.3177 296.97 45.8689C295.793 47.3902 295.205 49.4634 295.205 52.0884C295.205 54.7135 295.793 56.8016 296.97 58.3528C298.177 59.8741 299.807 60.6348 301.859 60.6348C303.911 60.6348 305.525 59.8741 306.702 58.3528C307.909 56.8016 308.513 54.7135 308.513 52.0884Z" fill="#06BC67"/>
<path d="M325.888 64.1696C323.293 64.11 321.452 63.5581 320.365 62.514C319.279 61.47 318.736 59.8443 318.736 57.6368V29.7159L322.945 29V56.9657C322.945 57.6518 323.006 58.2185 323.127 58.666C323.247 59.1134 323.443 59.4714 323.715 59.7399C323.987 60.0083 324.349 60.2171 324.801 60.3663C325.254 60.4856 325.812 60.59 326.476 60.6795L325.888 64.1696Z" fill="#06BC67"/>
<path d="M349.581 40.4547C348.404 44.8099 347.016 48.9861 345.417 52.9834C343.848 56.9806 342.324 60.5602 340.845 63.7222H337.043C335.564 60.5602 334.025 56.9806 332.426 52.9834C330.857 48.9861 329.484 44.8099 328.307 40.4547H332.833C333.195 41.9164 333.618 43.4825 334.101 45.153C334.614 46.7936 335.142 48.4343 335.685 50.0749C336.258 51.6857 336.832 53.2518 337.405 54.7732C337.978 56.2945 338.522 57.6518 339.035 58.845C339.548 57.6518 340.091 56.2945 340.664 54.7732C341.237 53.2518 341.796 51.6857 342.339 50.0749C342.912 48.4343 343.44 46.7936 343.923 45.153C344.436 43.4825 344.874 41.9164 345.236 40.4547H349.581Z" fill="#06BC67"/>
<path d="M358.134 63.7222H353.925V40.4547H358.134V63.7222ZM356.007 36.2487C355.253 36.2487 354.604 36.0101 354.061 35.5328C353.548 35.0257 353.291 34.3545 353.291 33.5193C353.291 32.684 353.548 32.0277 354.061 31.5505C354.604 31.0434 355.253 30.7898 356.007 30.7898C356.761 30.7898 357.395 31.0434 357.908 31.5505C358.451 32.0277 358.723 32.684 358.723 33.5193C358.723 34.3545 358.451 35.0257 357.908 35.5328C357.395 36.0101 356.761 36.2487 356.007 36.2487Z" fill="#06BC67"/>
<path d="M380.583 45.3767C380.07 44.9591 379.331 44.5564 378.365 44.1686C377.399 43.7808 376.343 43.5869 375.196 43.5869C373.989 43.5869 372.948 43.8106 372.073 44.2581C371.228 44.6757 370.534 45.2723 369.991 46.0479C369.448 46.7936 369.055 47.6885 368.814 48.7326C368.572 49.7766 368.452 50.8952 368.452 52.0884C368.452 54.803 369.131 56.906 370.489 58.3975C371.847 59.8592 373.657 60.59 375.921 60.59C377.067 60.59 378.018 60.5453 378.772 60.4558C379.557 60.3365 380.16 60.2171 380.583 60.0978V45.3767ZM380.583 29.7159L384.793 29V63.051C383.827 63.3195 382.59 63.5879 381.081 63.8564C379.572 64.1249 377.837 64.2591 375.875 64.2591C374.065 64.2591 372.435 63.9757 370.987 63.409C369.538 62.8422 368.301 62.0368 367.275 60.9927C366.249 59.9487 365.449 58.6809 364.876 57.1894C364.333 55.6681 364.061 53.9677 364.061 52.0884C364.061 50.2986 364.287 48.658 364.74 47.1665C365.223 45.675 365.917 44.3923 366.822 43.3184C367.728 42.2445 368.829 41.4093 370.127 40.8127C371.454 40.2161 372.963 39.9178 374.653 39.9178C376.011 39.9178 377.203 40.0968 378.229 40.4547C379.285 40.8127 380.07 41.1557 380.583 41.4839V29.7159Z" fill="#06BC67"/>
<path d="M412.806 52.0884C412.806 53.9379 412.534 55.6084 411.991 57.0999C411.448 58.5914 410.678 59.8741 409.683 60.948C408.717 62.0218 407.555 62.8571 406.197 63.4537C404.839 64.0205 403.361 64.3038 401.761 64.3038C400.162 64.3038 398.683 64.0205 397.325 63.4537C395.967 62.8571 394.79 62.0218 393.794 60.948C392.829 59.8741 392.074 58.5914 391.531 57.0999C390.988 55.6084 390.716 53.9379 390.716 52.0884C390.716 50.2688 390.988 48.6133 391.531 47.1217C392.074 45.6004 392.829 44.3028 393.794 43.2289C394.79 42.155 395.967 41.3347 397.325 40.768C398.683 40.1714 400.162 39.873 401.761 39.873C403.361 39.873 404.839 40.1714 406.197 40.768C407.555 41.3347 408.717 42.155 409.683 43.2289C410.678 44.3028 411.448 45.6004 411.991 47.1217C412.534 48.6133 412.806 50.2688 412.806 52.0884ZM408.415 52.0884C408.415 49.4634 407.812 47.3902 406.605 45.8689C405.428 44.3177 403.813 43.5421 401.761 43.5421C399.709 43.5421 398.08 44.3177 396.872 45.8689C395.696 47.3902 395.107 49.4634 395.107 52.0884C395.107 54.7135 395.696 56.8016 396.872 58.3528C398.08 59.8741 399.709 60.6348 401.761 60.6348C403.813 60.6348 405.428 59.8741 406.605 58.3528C407.812 56.8016 408.415 54.7135 408.415 52.0884Z" fill="#06BC67"/>
<path d="M445.546 52.1332C445.546 49.4187 444.867 47.3306 443.509 45.8689C442.151 44.4072 440.34 43.6764 438.077 43.6764C436.81 43.6764 435.814 43.7211 435.09 43.8106C434.396 43.9001 433.837 44.0045 433.415 44.1238V58.8002C433.928 59.2178 434.667 59.6205 435.633 60.0083C436.598 60.3961 437.655 60.59 438.801 60.59C440.008 60.59 441.034 60.3812 441.879 59.9636C442.755 59.5161 443.464 58.9195 444.007 58.1738C444.55 57.3982 444.942 56.5033 445.184 55.4891C445.425 54.445 445.546 53.3264 445.546 52.1332ZM449.937 52.1332C449.937 53.8932 449.695 55.5189 449.212 57.0104C448.76 58.5019 448.081 59.7846 447.176 60.8585C446.27 61.9324 445.154 62.7676 443.826 63.3642C442.528 63.9608 441.034 64.2591 439.345 64.2591C437.987 64.2591 436.78 64.0801 435.723 63.7222C434.697 63.3642 433.928 63.0212 433.415 62.693V72H429.205V41.1707C430.201 40.932 431.438 40.6785 432.917 40.41C434.426 40.1117 436.161 39.9625 438.122 39.9625C439.933 39.9625 441.563 40.2459 443.011 40.8127C444.46 41.3795 445.697 42.1849 446.723 43.2289C447.749 44.273 448.533 45.5557 449.077 47.077C449.65 48.5685 449.937 50.2539 449.937 52.1332Z" fill="#06BC67"/>
<path d="M476.637 52.0884C476.637 53.9379 476.366 55.6084 475.823 57.0999C475.279 58.5914 474.51 59.8741 473.514 60.948C472.548 62.0218 471.386 62.8571 470.029 63.4537C468.671 64.0205 467.192 64.3038 465.593 64.3038C463.993 64.3038 462.514 64.0205 461.157 63.4537C459.799 62.8571 458.622 62.0218 457.626 60.948C456.66 59.8741 455.906 58.5914 455.363 57.0999C454.819 55.6084 454.548 53.9379 454.548 52.0884C454.548 50.2688 454.819 48.6133 455.363 47.1217C455.906 45.6004 456.66 44.3028 457.626 43.2289C458.622 42.155 459.799 41.3347 461.157 40.768C462.514 40.1714 463.993 39.873 465.593 39.873C467.192 39.873 468.671 40.1714 470.029 40.768C471.386 41.3347 472.548 42.155 473.514 43.2289C474.51 44.3028 475.279 45.6004 475.823 47.1217C476.366 48.6133 476.637 50.2688 476.637 52.0884ZM472.247 52.0884C472.247 49.4634 471.643 47.3902 470.436 45.8689C469.259 44.3177 467.645 43.5421 465.593 43.5421C463.54 43.5421 461.911 44.3177 460.704 45.8689C459.527 47.3902 458.939 49.4634 458.939 52.0884C458.939 54.7135 459.527 56.8016 460.704 58.3528C461.911 59.8741 463.54 60.6348 465.593 60.6348C467.645 60.6348 469.259 59.8741 470.436 58.3528C471.643 56.8016 472.247 54.7135 472.247 52.0884Z" fill="#06BC67"/>
<path d="M491.251 39.9625C491.613 39.9625 492.02 39.9924 492.473 40.052C492.956 40.0819 493.424 40.1415 493.876 40.231C494.329 40.2907 494.736 40.3652 495.099 40.4547C495.491 40.5144 495.778 40.5741 495.959 40.6337L495.234 44.2581C494.902 44.1387 494.344 44.0045 493.56 43.8554C492.805 43.6764 491.824 43.5869 490.617 43.5869C489.833 43.5869 489.048 43.6764 488.263 43.8554C487.509 44.0045 487.011 44.1089 486.77 44.1686V63.7222H482.56V41.4391C483.556 41.0812 484.793 40.753 486.272 40.4547C487.75 40.1266 489.41 39.9625 491.251 39.9625Z" fill="#06BC67"/>
<path d="M505 61.3059C505 62.1113 504.728 62.8124 504.185 63.409C503.642 64.0056 502.903 64.3038 501.967 64.3038C501.032 64.3038 500.292 64.0056 499.749 63.409C499.206 62.8124 498.934 62.1113 498.934 61.3059C498.934 60.5005 499.206 59.7995 499.749 59.2029C500.292 58.6063 501.032 58.308 501.967 58.308C502.903 58.308 503.642 58.6063 504.185 59.2029C504.728 59.7995 505 60.5005 505 61.3059ZM505 43.4527C505 44.2581 504.728 44.9591 504.185 45.5557C503.642 46.1523 502.903 46.4506 501.967 46.4506C501.032 46.4506 500.292 46.1523 499.749 45.5557C499.206 44.9591 498.934 44.2581 498.934 43.4527C498.934 42.6472 499.206 41.9462 499.749 41.3496C500.292 40.753 501.032 40.4547 501.967 40.4547C502.903 40.4547 503.642 40.753 504.185 41.3496C504.728 41.9462 505 42.6472 505 43.4527Z" fill="#06BC67"/>
<path d="M282.062 123.14C280.132 123.14 278.32 122.786 276.626 122.076C274.932 121.367 273.436 120.382 272.136 119.082C270.836 117.782 269.812 116.284 269.103 114.63C268.394 112.935 268 111.162 268 109.232C268 107.301 268.354 105.449 269.063 103.716C269.772 101.982 270.757 100.445 272.057 99.145C273.357 97.8448 274.854 96.8203 276.547 96.0717C278.28 95.3231 280.092 94.9685 282.062 94.9685C283.874 94.9685 285.646 95.2837 287.3 95.9535C288.994 96.5839 290.373 97.5295 291.554 98.7116C292.027 99.1844 292.263 99.736 292.263 100.327C292.263 100.879 292.027 101.351 291.554 101.706C291.16 102.061 290.727 102.218 290.294 102.218C289.9 102.218 289.427 102.021 288.758 101.548L287.931 100.918C287.576 100.642 287.34 100.445 287.143 100.366C286.316 99.8148 285.488 99.4208 284.622 99.1844C283.755 98.948 282.849 98.8298 281.865 98.8298C280.486 98.8298 279.186 99.1056 277.926 99.6572C276.705 100.209 275.602 100.957 274.696 101.942C273.79 102.888 273.121 103.952 272.608 105.173C272.096 106.395 271.86 107.656 271.86 108.995C271.86 110.335 272.096 111.596 272.608 112.857C273.081 114.117 273.79 115.181 274.696 116.127C275.602 117.112 276.665 117.861 277.886 118.412C279.108 118.964 280.447 119.24 281.865 119.24C283.243 119.24 284.504 119.003 285.646 118.491C286.67 118.058 287.891 117.309 289.349 116.166C289.742 115.969 290.057 115.89 290.294 115.89C290.491 115.89 290.688 115.93 290.924 116.009C291.16 116.087 291.357 116.206 291.515 116.363C291.948 116.757 292.184 117.23 292.184 117.742C292.184 118.333 291.948 118.885 291.475 119.318C290.294 120.5 288.915 121.446 287.222 122.076C285.528 122.746 283.795 123.061 281.983 123.061L282.062 123.14ZM309.2 123.18C307.27 123.18 305.498 122.825 303.765 122.076C302.071 121.367 300.574 120.343 299.235 119.043C297.935 117.742 296.911 116.245 296.163 114.551C295.414 112.817 295.06 111.044 295.06 109.113C295.06 107.183 295.414 105.37 296.163 103.637C296.911 101.903 297.935 100.406 299.235 99.1056C300.535 97.8054 302.032 96.7809 303.765 96.0717C305.458 95.3231 307.27 94.9685 309.2 94.9685C311.13 94.9685 312.942 95.3231 314.675 96.0717C316.408 96.8203 317.905 97.8054 319.205 99.1056C320.505 100.406 321.489 101.942 322.238 103.637C322.986 105.37 323.341 107.183 323.341 109.113C323.341 111.044 322.986 112.817 322.238 114.551C321.529 116.284 320.505 117.782 319.205 119.043C317.905 120.343 316.408 121.367 314.675 122.076C312.942 122.825 311.13 123.18 309.2 123.18ZM309.2 119.358C310.618 119.358 311.957 119.082 313.218 118.57C314.478 118.018 315.581 117.309 316.527 116.324C317.472 115.378 318.181 114.275 318.693 113.054C319.205 111.793 319.481 110.493 319.481 109.153C319.481 107.774 319.205 106.434 318.693 105.213C318.181 103.952 317.432 102.849 316.527 101.903C315.581 100.957 314.478 100.209 313.218 99.6966C311.957 99.145 310.618 98.9086 309.24 98.9086C307.822 98.9086 306.522 99.1844 305.261 99.6966C304.001 100.248 302.938 100.957 301.992 101.903C301.047 102.849 300.298 103.952 299.786 105.213C299.235 106.474 298.999 107.774 298.999 109.153C298.999 110.532 299.274 111.832 299.786 113.054C300.338 114.314 301.047 115.378 301.992 116.324C302.938 117.309 304.04 118.018 305.261 118.57C306.522 119.121 307.822 119.358 309.24 119.358H309.2ZM335.827 123.18C334.606 123.18 333.424 122.943 332.361 122.47C331.258 121.998 330.312 121.367 329.446 120.5C328.579 119.634 327.949 118.688 327.477 117.585C327.004 116.481 326.767 115.299 326.767 114.078V96.7809C326.767 96.2293 326.964 95.7565 327.319 95.4019C327.713 95.0473 328.146 94.8503 328.698 94.8503C329.21 94.8503 329.682 95.0473 330.037 95.4019C330.391 95.7565 330.588 96.2293 330.628 96.7809L330.667 114.039V114.196C330.667 114.236 330.628 114.314 330.628 114.354C330.746 115.654 331.297 116.797 332.321 117.742C332.794 118.176 333.345 118.53 333.936 118.806C334.566 119.043 335.197 119.161 335.866 119.161C336.575 119.161 337.245 119.003 337.875 118.727C338.505 118.452 339.096 118.018 339.569 117.545C340.041 117.033 340.435 116.442 340.672 115.812C340.947 115.142 341.065 114.472 341.065 113.763V96.7809C341.065 96.2293 341.262 95.7565 341.617 95.3625C341.971 95.0079 342.444 94.8109 342.996 94.8109C343.508 94.8109 343.98 95.0079 344.335 95.3625C344.729 95.7565 344.926 96.2293 344.926 96.7809V114.078C344.926 114.117 344.886 114.157 344.886 114.275C344.926 114.945 345.083 115.575 345.359 116.166C345.635 116.757 346.028 117.27 346.501 117.742C346.974 118.215 347.525 118.57 348.155 118.806C348.746 119.043 349.416 119.2 350.085 119.2C350.794 119.2 351.464 119.043 352.134 118.806C352.803 118.53 353.355 118.136 353.827 117.664C354.3 117.191 354.694 116.639 354.97 116.009C355.245 115.378 355.403 114.748 355.442 114.039V96.7809C355.442 96.2293 355.639 95.7565 355.994 95.4019C356.388 95.0473 356.821 94.8503 357.372 94.8503C357.884 94.8503 358.357 95.0473 358.751 95.4019C359.145 95.7565 359.342 96.2293 359.342 96.7809V114.157C359.342 115.378 359.105 116.56 358.633 117.624C358.16 118.727 357.49 119.673 356.624 120.5C355.757 121.328 354.773 121.998 353.67 122.431C352.528 122.904 351.385 123.14 350.164 123.14C348.707 123.14 347.368 122.825 346.147 122.195C344.926 121.564 343.901 120.737 343.074 119.634C342.208 120.737 341.144 121.604 339.923 122.234C338.663 122.825 337.363 123.14 335.906 123.14L335.827 123.18ZM375.333 123.18C373.403 123.18 371.631 122.825 369.898 122.076C368.204 121.367 366.707 120.343 365.368 119.043C364.068 117.742 363.044 116.245 362.296 114.551C361.547 112.817 361.193 111.044 361.193 109.113C361.193 107.183 361.547 105.37 362.296 103.637C363.044 101.903 364.068 100.406 365.368 99.1056C366.668 97.8054 368.165 96.7809 369.898 96.0717C371.592 95.3231 373.403 94.9685 375.333 94.9685C377.263 94.9685 379.075 95.3231 380.808 96.0717C382.541 96.8203 384.038 97.8054 385.338 99.1056C386.638 100.406 387.623 101.942 388.371 103.637C389.119 105.37 389.474 107.183 389.474 109.113C389.474 111.044 389.119 112.817 388.371 114.551C387.662 116.284 386.638 117.782 385.338 119.043C384.038 120.343 382.541 121.367 380.808 122.076C379.075 122.825 377.263 123.18 375.333 123.18ZM375.333 119.358C376.751 119.358 378.091 119.082 379.351 118.57C380.611 118.018 381.714 117.309 382.66 116.324C383.605 115.378 384.314 114.275 384.826 113.054C385.338 111.793 385.614 110.493 385.614 109.153C385.614 107.774 385.338 106.434 384.826 105.213C384.314 103.952 383.566 102.849 382.66 101.903C381.714 100.957 380.611 100.209 379.351 99.6966C378.091 99.145 376.751 98.9086 375.373 98.9086C373.955 98.9086 372.655 99.1844 371.395 99.6966C370.134 100.248 369.071 100.957 368.125 101.903C367.18 102.849 366.432 103.952 365.92 105.213C365.368 106.474 365.132 107.774 365.132 109.153C365.132 110.532 365.408 111.832 365.92 113.054C366.471 114.314 367.18 115.378 368.125 116.324C369.071 117.309 370.173 118.018 371.395 118.57C372.655 119.121 373.955 119.358 375.373 119.358H375.333ZM395.264 122.864C394.712 122.864 394.24 122.667 393.846 122.313C393.452 121.958 393.255 121.485 393.255 120.934V109.744C393.255 107.774 393.649 105.883 394.397 104.07C395.185 102.258 396.209 100.682 397.548 99.342C398.927 97.963 400.503 96.8991 402.275 96.1505C404.048 95.3625 405.899 95.0079 407.868 95.0079H408.105C408.735 95.0079 409.207 95.2049 409.562 95.5595C409.916 95.9141 410.113 96.3869 410.113 96.9779C410.113 97.5296 409.916 98.0024 409.562 98.357C409.207 98.7116 408.695 98.9086 408.144 98.9086H407.908C406.49 98.9086 405.111 99.1844 403.811 99.736C402.511 100.288 401.33 101.076 400.345 102.1C399.321 103.085 398.533 104.267 397.982 105.607C397.391 106.946 397.115 108.365 397.115 109.823V121.013C397.115 121.564 396.918 122.037 396.564 122.392C396.209 122.746 395.776 122.943 395.264 122.943V122.864ZM415.707 122.864C415.155 122.864 414.682 122.667 414.328 122.313C413.934 121.958 413.737 121.485 413.737 120.973V86.9307C413.737 86.379 413.934 85.9062 414.328 85.5516C414.722 85.197 415.194 85 415.707 85C416.258 85 416.691 85.197 417.085 85.5516C417.44 85.9062 417.637 86.379 417.637 86.9307V106.04L428.468 95.9535C428.823 95.5989 429.256 95.4807 429.768 95.4807C430.28 95.4807 430.753 95.6777 431.107 96.0717C431.501 96.4657 431.698 96.8991 431.698 97.4507C431.738 97.963 431.541 98.3964 431.107 98.8298L420.866 108.404L432.762 119.712C433.116 120.067 433.274 120.461 433.274 120.973C433.274 121.485 433.077 121.958 432.722 122.352C432.328 122.746 431.895 122.943 431.383 122.943C430.832 122.943 430.359 122.746 429.965 122.352L417.676 110.65V121.091C417.676 121.643 417.479 122.076 417.124 122.431C416.77 122.786 416.297 122.983 415.785 122.983L415.707 122.864ZM439.497 91.0678C438.827 91.0678 438.276 90.8314 437.843 90.398C437.41 89.9252 437.173 89.3735 437.173 88.7431C437.173 88.0733 437.41 87.5217 437.843 87.0883C438.276 86.6549 438.827 86.4184 439.497 86.4184C440.167 86.4184 440.718 86.6155 441.151 87.0883C441.585 87.5217 441.821 88.0733 441.821 88.7431C441.821 89.3735 441.585 89.9252 441.151 90.398C440.718 90.8314 440.127 91.0678 439.497 91.0678ZM439.497 123.022C438.946 123.022 438.512 122.825 438.119 122.47C437.725 122.076 437.567 121.643 437.567 121.091V96.9779C437.567 96.4263 437.764 95.9535 438.119 95.5595C438.512 95.1655 438.985 95.0079 439.497 95.0079C440.049 95.0079 440.521 95.2049 440.876 95.5595C441.23 95.9141 441.427 96.3869 441.427 96.9779V121.091C441.427 121.643 441.23 122.076 440.876 122.47C440.482 122.864 440.049 123.022 439.536 123.022H439.497ZM448.517 122.864C447.966 122.864 447.493 122.667 447.099 122.313C446.705 121.958 446.508 121.485 446.508 120.973V108.562C446.508 106.71 446.823 104.976 447.493 103.322C448.163 101.667 449.068 100.209 450.29 98.948C451.471 97.6872 452.889 96.7415 454.504 96.0323C456.119 95.3231 457.813 95.0079 459.664 95.0079C461.476 95.0079 463.209 95.3625 464.784 96.0323C466.399 96.7415 467.778 97.6872 468.96 98.9086C470.141 100.169 471.047 101.627 471.677 103.243C472.308 104.898 472.662 106.631 472.662 108.483V120.934C472.662 121.485 472.465 121.958 472.111 122.313C471.756 122.667 471.284 122.864 470.732 122.864C470.181 122.864 469.747 122.667 469.354 122.313C468.999 121.958 468.802 121.485 468.802 120.934V108.641C468.802 107.301 468.566 106.04 468.132 104.858C467.699 103.676 467.03 102.612 466.242 101.745C465.375 100.839 464.391 100.13 463.288 99.6178C462.145 99.1056 460.964 98.8692 459.625 98.8692C458.325 98.8692 457.104 99.1056 455.961 99.6178C454.819 100.13 453.834 100.8 453.007 101.706C452.18 102.573 451.55 103.597 451.077 104.779C450.605 105.961 450.368 107.222 450.368 108.562V120.934C450.368 121.485 450.211 121.958 449.856 122.313C449.502 122.667 449.068 122.864 448.478 122.864H448.517ZM483.809 135C483.297 135 482.824 134.803 482.391 134.448C481.958 134.094 481.761 133.621 481.761 133.109C481.761 132.006 482.706 131.139 484.636 130.508C485.345 130.272 486.054 130.114 486.842 129.996C487.63 129.878 488.299 129.838 488.851 129.838C489.639 129.838 490.426 129.878 491.175 129.917C491.962 129.996 492.75 129.996 493.499 129.996C495.823 129.996 497.634 129.444 498.934 128.341C500.234 127.238 500.864 125.662 500.864 123.652C500.864 122.786 500.746 122.037 500.51 121.367C500.352 120.934 500.076 120.5 499.761 120.028C498.54 121.013 497.162 121.801 495.626 122.352C494.089 122.904 492.514 123.18 490.86 123.18C488.93 123.18 487.157 122.825 485.424 122.076C483.73 121.367 482.234 120.343 480.894 119.043C479.595 117.742 478.57 116.245 477.822 114.551C477.074 112.817 476.719 111.044 476.719 109.113C476.719 107.183 477.074 105.37 477.822 103.637C478.57 101.903 479.595 100.406 480.894 99.1056C482.194 97.8054 483.691 96.7809 485.424 96.0717C487.118 95.3231 488.93 94.9685 490.86 94.9685C492.79 94.9685 494.601 95.3231 496.335 96.0717C498.068 96.8203 499.564 97.8054 500.864 99.1056C502.164 100.406 503.149 101.942 503.897 103.637C504.646 105.37 505 107.183 505 109.113C505 112.029 504.133 114.708 502.44 117.151C503.228 118.018 503.818 118.964 504.173 120.028C504.527 121.091 504.724 122.313 504.724 123.692C504.724 125.268 504.449 126.686 503.937 127.947C503.424 129.208 502.676 130.311 501.691 131.217C500.785 132.084 499.722 132.715 498.54 133.188C497.359 133.66 496.098 133.897 494.798 133.897C493.932 133.897 493.026 133.818 492.041 133.621C490.978 133.463 489.993 133.385 489.126 133.385C488.496 133.385 487.787 133.463 487.118 133.621C486.251 133.818 485.542 134.133 484.991 134.567C484.636 134.882 484.242 135 483.848 135H483.809ZM490.899 119.358C492.317 119.358 493.656 119.082 494.917 118.57C496.177 118.018 497.28 117.309 498.225 116.324C499.171 115.378 499.919 114.275 500.431 113.054C500.943 111.793 501.219 110.493 501.219 109.153C501.219 107.774 500.943 106.434 500.431 105.213C499.919 103.952 499.171 102.849 498.225 101.903C497.28 100.957 496.177 100.209 494.917 99.6966C493.656 99.145 492.317 98.9086 490.938 98.9086C489.52 98.9086 488.221 99.1844 486.96 99.6966C485.7 100.248 484.636 100.957 483.691 101.903C482.746 102.849 481.997 103.952 481.485 105.213C480.934 106.474 480.697 107.774 480.697 109.153C480.697 110.532 480.973 111.832 481.485 113.054C482.037 114.314 482.746 115.378 483.691 116.324C484.636 117.309 485.739 118.018 486.96 118.57C488.221 119.121 489.52 119.358 490.938 119.358H490.899Z" fill="#06BC67"/>
<path fill-rule="evenodd" clip-rule="evenodd" d="M185.032 93.2832C180.896 89.2207 175.226 86.7218 168.972 86.7218C165.421 86.7218 162.06 87.5256 159.05 88.9723V103.103C161.183 99.8883 164.822 97.784 168.972 97.784C173.546 97.784 177.506 100.356 179.508 104.141C180.443 100.049 182.372 96.3373 185.046 93.2832H185.032Z" fill="#06BC67"/>
<path fill-rule="evenodd" clip-rule="evenodd" d="M191.915 109.635C191.944 103.089 197.263 97.784 203.81 97.784C207.112 97.784 210.108 99.1284 212.271 101.32L220.133 93.5462C215.968 89.3376 210.196 86.7364 203.81 86.7364C191.126 86.7364 180.853 97.0095 180.853 109.694C180.853 116.27 175.519 121.589 168.957 121.589C162.381 121.589 157.062 116.255 157.062 109.694V84.0622C157.062 77.9831 152.094 73 146 73V109.679C146 122.363 156.273 132.637 168.957 132.637C181.642 132.637 191.915 122.363 191.915 109.679V109.635Z" fill="#06BC67"/>
<path fill-rule="evenodd" clip-rule="evenodd" d="M203.825 132.637C210.196 132.637 215.953 130.035 220.118 125.856L212.271 118.067C210.108 120.244 207.127 121.589 203.825 121.589C199.251 121.589 195.276 119.017 193.288 115.232C192.353 119.324 190.424 123.036 187.75 126.09C191.886 130.152 197.555 132.651 203.81 132.651L203.825 132.637Z" fill="#06BC67"/>
<path fill-rule="evenodd" clip-rule="evenodd" d="M238.677 132.637C245.048 132.637 250.806 130.035 254.971 125.856L247.123 118.067C244.961 120.245 241.98 121.589 238.677 121.589C232.101 121.589 226.782 116.255 226.782 109.694C226.782 103.118 232.116 97.7986 238.677 97.7986C241.98 97.7986 244.975 99.143 247.138 101.335L255 93.5608C250.835 89.3522 245.063 86.751 238.677 86.751C225.993 86.751 215.72 97.0241 215.72 109.708C215.72 122.393 225.993 132.666 238.677 132.666V132.637Z" fill="#06BC67"/>
<path d="M748.841 27.6567C746.79 28.1116 743.606 29.6621 741.479 31.2447C739.032 33.0706 737.776 34.7237 737.782 36.1268C737.789 37.1647 738.128 37.8375 739.525 39.5737C740.294 40.5284 740.633 41.0281 740.902 41.6176C741.485 42.8862 741.447 44.2637 740.793 45.6988C740.62 46.0832 740.563 46.1473 740.114 46.4484C739.121 47.102 738.211 47.5312 737.18 47.8324C736.411 48.0566 735.681 48.1719 734.271 48.2873C731.67 48.5051 730.927 48.7293 729.261 49.7737C726.775 51.337 724.641 53.4 723.738 55.1107C722.713 57.0584 722.758 59.839 723.86 62.2032C724.552 63.6832 725.82 65.2145 727.23 66.2781L727.717 66.6433H766.831L767.376 66.3229C769.593 65.0159 771.086 62.9464 771.63 60.4285C771.829 59.5251 771.842 57.8657 771.662 57.0008C771.4 55.745 770.836 54.4444 770.105 53.4385C769.676 52.8362 768.613 51.7855 768.062 51.4075C767.677 51.1512 767.024 50.7539 766.985 50.7539C766.972 50.7539 767.036 50.9461 767.12 51.1832C767.338 51.7727 767.389 52.7337 767.241 53.3103C767.036 54.1112 766.652 54.6942 766.037 55.1491C765.672 55.4182 765.121 55.6745 765.05 55.604C765.031 55.5848 765.076 55.2965 765.146 54.9633C765.877 51.5804 764.813 48.1911 762.257 45.7885C761.802 45.3593 760.694 44.4815 760.604 44.4751C760.585 44.4751 760.533 44.8275 760.489 45.2567C760.059 49.5302 757.701 53.2334 753.992 55.4439C753.428 55.777 752.563 56.2127 752.198 56.3472C752.14 56.3665 752.621 55.5848 753.261 54.6109C758.24 47.0763 759.316 44.9236 759.175 42.8221C759.124 42.1045 758.996 41.6304 758.675 40.9512C757.509 38.5038 754.44 36.7611 750.026 36.0499C749.475 35.9666 748.828 35.8321 748.584 35.7552C747.559 35.4412 746.579 34.8198 746.195 34.2431C746.009 33.9676 745.99 33.8972 746.015 33.6088C746.073 33.0258 746.291 32.7183 747.758 31.1742C749.206 29.6493 749.853 28.8933 750.167 28.3615C750.372 28.0027 750.41 27.6632 750.25 27.5991C750.084 27.535 749.251 27.567 748.841 27.6567ZM751.032 38.2219C752.448 38.7024 753.684 39.625 754.447 40.759C755.1 41.7329 755.369 42.6619 755.363 43.9305C755.363 45.5066 754.838 47.0699 753.832 48.4602C753.319 49.1714 752.031 50.4016 751.916 50.2862C751.897 50.2734 752.031 50.0299 752.211 49.7544C753.671 47.5184 754.043 44.6609 753.204 42.1365C752.787 40.8744 752.025 39.6314 751.077 38.6575C750.59 38.1642 750.506 38.0681 750.564 38.0681C750.577 38.0681 750.788 38.1386 751.032 38.2219ZM741.575 48.3065C741.575 48.4282 740.697 49.4341 740.307 49.7609C739.307 50.6002 738.436 51.0038 736.738 51.4267C735.341 51.7791 734.835 51.9328 734.06 52.234C731.17 53.3744 729.351 55.0722 728.537 57.366C728.191 58.3462 728.172 57.8144 728.505 56.4882C728.87 55.0466 729.517 53.8549 730.491 52.8682C731.644 51.6894 732.605 51.2024 735.296 50.4336C737.148 49.9082 738.859 49.3252 740.294 48.7486C741.556 48.236 741.575 48.2296 741.575 48.3065ZM761.488 54.0279C760.123 55.6425 759.515 56.6484 758.778 58.5384C758.547 59.1343 758.265 59.8326 758.163 60.0825C757.394 61.8765 755.85 62.9593 753.627 63.254C752.755 63.3693 751.25 63.2476 751.25 63.0618C751.25 63.0297 751.519 62.94 751.845 62.8631C753.165 62.5364 753.985 62.1712 754.825 61.5369C755.414 61.082 755.831 60.5566 756.612 59.2496C758.073 56.815 759.015 55.6104 760.194 54.6878C760.713 54.2778 761.603 53.7012 761.712 53.7012C761.744 53.7012 761.642 53.8485 761.488 54.0279Z" fill="white"/>
<path d="M730.062 67.2903C728.62 67.5338 727.371 68.7127 727.025 70.1671C726.916 70.6092 726.922 71.4357 727.025 71.897C727.364 73.3321 728.588 74.4918 730.03 74.7545C730.766 74.8826 764.749 74.8826 765.486 74.7545C766.927 74.4918 768.151 73.3321 768.491 71.897C768.593 71.4485 768.593 70.6156 768.491 70.1671C768.19 68.9049 767.203 67.8349 765.922 67.3929L765.505 67.2519L747.95 67.2455C738.288 67.2391 730.247 67.2583 730.062 67.2903Z" fill="white"/>
<path d="M727.565 75.8813C727.277 76.0095 727.033 76.3298 726.989 76.6438C726.969 76.7911 726.957 86.6066 726.969 98.4532L726.989 119.993L727.123 120.173C727.194 120.269 727.354 120.416 727.469 120.5L727.681 120.641L768.083 120.609L768.256 120.474C768.352 120.404 768.493 120.263 768.564 120.166L768.698 119.993V98.261C768.698 76.6438 768.698 76.5284 768.57 76.3106C768.499 76.1889 768.358 76.0351 768.262 75.9582L768.083 75.8237L747.92 75.8109C731.249 75.7981 727.725 75.8109 727.565 75.8813ZM751.431 95.8583C751.431 114.054 751.457 112.773 751.06 113.612C750.63 114.522 749.881 115.278 748.965 115.72C746.793 116.758 744.236 115.861 743.166 113.689C742.679 112.702 742.718 114.272 742.718 95.8007V79.1873H751.431V95.8583ZM730.935 79.5077C731.602 80.0331 732.595 80.4816 733.581 80.7058C734.228 80.8532 735.548 80.8532 736.247 80.6994C737.189 80.5008 738.214 80.0395 738.957 79.4693L739.258 79.2386V95.9224C739.258 114.323 739.29 112.862 738.848 113.753C737.874 115.707 735.606 116.668 733.556 115.989C732.486 115.637 731.486 114.772 730.999 113.772C730.506 112.76 730.544 114.362 730.544 95.8647C730.544 86.7284 730.557 79.2514 730.576 79.2514C730.596 79.2514 730.756 79.3667 730.935 79.5077ZM760.452 79.3475C761.362 79.5654 762.33 80.1612 762.9 80.8724C763.56 81.6861 763.854 82.4677 763.906 83.5185C763.95 84.4155 763.829 85.0049 763.444 85.7737C762.285 88.0674 759.478 88.9196 757.198 87.6638C756.653 87.3627 755.814 86.5234 755.513 85.9788C754.878 84.8255 754.75 83.5185 755.154 82.2947C755.609 80.93 756.877 79.7512 758.3 79.3796C758.876 79.2322 759.882 79.213 760.452 79.3475ZM760.888 89.2719C762.221 89.6948 763.291 90.7263 763.739 92.027L763.925 92.5459V113.92L763.771 114.221C763.38 114.996 762.432 115.63 761.163 115.97C760.702 116.098 760.472 116.117 759.568 116.117C758.319 116.111 757.838 116.008 756.89 115.541C756.211 115.207 755.647 114.701 755.416 114.227L755.275 113.939V92.4819L755.436 92.0462C755.666 91.3799 755.961 90.9378 756.525 90.3675C757.198 89.6948 757.966 89.2912 758.915 89.1182C759.421 89.0221 760.324 89.099 760.888 89.2719Z" fill="white"/>
<path d="M725.839 124.011C725.82 124.063 725.814 125.44 725.833 127.074C725.859 129.765 725.871 130.092 725.987 130.623C726.23 131.693 726.762 132.61 727.46 133.135C728.306 133.782 729.011 134 730.235 134C731.606 134.006 732.483 133.673 733.31 132.834C734.092 132.046 734.463 131.13 734.591 129.656C734.668 128.81 734.675 124.114 734.604 123.999C734.559 123.941 734.309 123.922 733.56 123.935L732.573 123.954L732.535 126.933C732.503 129.451 732.483 129.97 732.394 130.284C732.157 131.104 731.715 131.693 731.138 131.95C730.683 132.155 729.921 132.174 729.44 131.995C728.767 131.738 728.261 131.091 728.05 130.201C727.992 129.951 727.954 129.009 727.928 126.901L727.896 123.954L726.884 123.935C726.051 123.922 725.872 123.935 725.839 124.011Z" fill="white"/>
<path d="M736.296 124.024C736.276 124.082 736.257 126.312 736.257 128.983C736.257 133.039 736.27 133.846 736.347 133.91C736.405 133.961 736.738 133.981 737.385 133.968L738.339 133.949L738.404 129.912L740.345 129.893L742.28 129.88V128.15L740.345 128.138L738.404 128.118V125.812L743.081 125.748L743.1 124.979C743.106 124.556 743.1 124.146 743.081 124.063L743.049 123.922H739.691C736.693 123.922 736.328 123.935 736.296 124.024Z" fill="white"/>
<path d="M745.105 128.849C744.067 131.578 743.241 133.827 743.26 133.878C743.292 133.968 743.459 133.981 744.317 133.981H745.342L745.676 133.064C745.861 132.565 746.066 132.001 746.137 131.815L746.265 131.482L747.899 131.495L749.533 131.514L749.987 132.731L750.449 133.949L751.448 133.968C752.204 133.981 752.467 133.961 752.518 133.904C752.57 133.84 752.108 132.558 750.711 128.887L748.834 123.954L746.989 123.915L745.105 128.849ZM748.527 128.278C748.834 129.163 749.071 129.899 749.058 129.919C749.039 129.931 748.495 129.938 747.841 129.931L746.656 129.912L746.989 129.015C747.168 128.522 747.444 127.779 747.591 127.369C747.745 126.952 747.886 126.625 747.918 126.645C747.944 126.658 748.213 127.394 748.527 128.278Z" fill="white"/>
<path d="M753.466 124.024C753.447 124.082 753.428 126.312 753.428 128.983C753.428 133.039 753.441 133.846 753.518 133.91C753.575 133.961 753.909 133.981 754.556 133.968L755.51 133.949L755.574 130.681L757.048 130.649C758.72 130.604 758.919 130.559 759.592 130.053C760.469 129.393 760.924 128.451 760.924 127.292C760.918 125.767 759.886 124.389 758.458 124.018C758.15 123.941 757.637 123.922 755.792 123.922C753.768 123.922 753.498 123.935 753.466 124.024ZM757.862 125.844C758.176 125.934 758.458 126.177 758.637 126.51C758.746 126.722 758.778 126.882 758.778 127.317C758.778 127.933 758.65 128.259 758.297 128.554C758.035 128.778 757.868 128.797 756.632 128.778L755.574 128.759L755.555 127.349C755.549 126.574 755.555 125.908 755.568 125.863C755.613 125.761 757.503 125.748 757.862 125.844Z" fill="white"/>
<path d="M762.052 124.024C762.033 124.075 762.013 126.311 762.013 128.983C762.013 133 762.026 133.846 762.103 133.91C762.161 133.961 763.135 133.974 765.608 133.968L769.029 133.949V132.091L766.575 132.071L764.128 132.059L764.14 130.886L764.16 129.72L766.229 129.701L768.299 129.688L768.26 127.99L766.191 127.971L764.128 127.958L764.14 126.882L764.16 125.812L766.549 125.793L768.939 125.78L768.901 123.954L765.499 123.934C762.436 123.922 762.09 123.928 762.052 124.024Z" fill="white"/>
</svg>
