<svg width="134" height="28" viewBox="0 0 134 28" fill="none" xmlns="http://www.w3.org/2000/svg">
<path d="M0 17.9735C0 16.3511 0.249128 14.9315 0.747473 13.7147C1.24573 12.498 1.90044 11.484 2.7117 10.6728C3.52287 9.86161 4.45578 9.24736 5.51025 8.83028C6.5648 8.41304 7.64825 8.20446 8.76076 8.20446C11.3566 8.20446 13.4077 8.99831 14.9141 10.5859C16.4206 12.1735 17.1739 14.5086 17.1739 17.591C17.1739 17.8923 17.1623 18.2226 17.1391 18.5818C17.1159 18.9411 17.0927 19.2598 17.0695 19.5379H5.31907C5.43498 20.604 5.93323 21.4499 6.81393 22.0757C7.69463 22.7014 8.87666 23.0144 10.36 23.0144C11.3102 23.0144 12.2431 22.9273 13.1585 22.7536C14.074 22.5798 14.8215 22.3654 15.4008 22.1104L16.0962 26.317C15.8181 26.4561 15.4472 26.5951 14.9836 26.7342C14.52 26.8733 14.0044 26.9949 13.4366 27.0993C12.8688 27.2036 12.2604 27.2904 11.6115 27.36C10.9625 27.4295 10.3136 27.4643 9.66469 27.4643C8.01911 27.4643 6.58804 27.2209 5.37119 26.7342C4.15444 26.2476 3.14618 25.5812 2.34658 24.7352C1.54698 23.8893 0.955965 22.8869 0.573614 21.728C0.191175 20.5692 0 19.3177 0 17.9735ZM12.1677 15.9918C12.1445 15.5515 12.0691 15.1227 11.9417 14.7056C11.8143 14.2883 11.6173 13.9175 11.3507 13.5931C11.0843 13.2686 10.7482 13.002 10.3425 12.7934C9.93696 12.5848 9.43287 12.4805 8.83028 12.4805C8.25093 12.4805 7.75258 12.5791 7.33551 12.776C6.91827 12.973 6.57063 13.2338 6.29253 13.5583C6.01442 13.8827 5.80001 14.2593 5.64939 14.6881C5.49867 15.1169 5.3886 15.5514 5.31907 15.9918H12.1678L12.1677 15.9918ZM21.1718 9.31697C22.0525 9.0621 23.1881 8.82454 24.5787 8.6043C25.9693 8.38415 27.4294 8.27407 28.959 8.27407C30.5118 8.27407 31.8039 8.47682 32.8353 8.88241C33.8667 9.28799 34.6837 9.86161 35.2862 10.6033C35.8887 11.345 36.3176 12.2257 36.5725 13.2454C36.8274 14.2653 36.955 15.4008 36.955 16.6524V26.9775H31.7749V17.2781C31.7749 15.6094 31.5548 14.4275 31.1144 13.7321C30.674 13.0368 29.8513 12.6891 28.6462 12.6891C28.2753 12.6891 27.8813 12.7065 27.4641 12.7413C27.047 12.7761 26.6761 12.8167 26.3516 12.863V26.9775H21.1717V9.31697H21.1718ZM55.3803 12.1677C54.9631 12.6313 54.401 13.2571 53.6884 14.045C52.9814 14.833 52.2225 15.7022 51.4112 16.6524C50.5943 17.6026 49.7773 18.5992 48.9546 19.6422C48.1261 20.6852 47.3786 21.6934 46.7065 22.6667H55.5541V26.9776H40.4314V23.9184C40.9181 23.0841 41.5033 22.1859 42.187 21.2241C42.8707 20.2622 43.5892 19.2946 44.3424 18.3212C45.0957 17.3477 45.8431 16.4034 46.5848 15.4878C47.3264 14.5724 48.0102 13.7438 48.6359 13.0022H40.8485V8.69132H55.3803V12.1678V12.1677ZM64.2105 26.9775H59.0306V8.69123H64.2105V26.9775ZM64.6972 3.40697C64.6972 4.35719 64.3901 5.10466 63.776 5.6493C63.1618 6.19394 62.4375 6.46621 61.6032 6.46621C60.7688 6.46621 60.0446 6.19394 59.4304 5.6493C58.8163 5.10466 58.5091 4.35719 58.5091 3.40697C58.5091 2.45674 58.8163 1.70927 59.4304 1.16463C60.0446 0.619994 60.7688 0.347719 61.6032 0.347719C62.4375 0.347719 63.1618 0.619994 63.776 1.16463C64.3901 1.70927 64.6972 2.45674 64.6972 3.40697ZM72.4498 8.89981H79.2984V11.6115H72.4498V19.955C72.4498 20.859 72.5193 21.6064 72.6583 22.1974C72.7974 22.7884 73.006 23.2519 73.2841 23.588C73.5622 23.924 73.9099 24.1616 74.3271 24.3007C74.7443 24.4398 75.2309 24.5092 75.7871 24.5092C76.7605 24.5092 77.5428 24.3991 78.1338 24.179C78.7247 23.9588 79.1362 23.8024 79.3679 23.7096L79.9937 26.3865C79.6692 26.5487 79.1014 26.7516 78.2902 26.9949C77.479 27.2382 76.5519 27.36 75.509 27.36C74.2807 27.36 73.2667 27.2035 72.4671 26.8906C71.6674 26.5777 71.0243 26.1083 70.5376 25.4826C70.0509 24.8569 69.7091 24.0861 69.512 23.1707C69.3151 22.2552 69.2165 21.1949 69.2165 19.9897V3.85884L72.4497 3.30263V8.89981H72.4498ZM82.0449 17.9735C82.0449 16.3743 82.2766 14.9778 82.7402 13.7843C83.2038 12.5907 83.8179 11.5999 84.5827 10.8118C85.3476 10.0238 86.2282 9.43288 87.2248 9.03886C88.2214 8.64485 89.2412 8.44793 90.2841 8.44793C92.7176 8.44793 94.5834 9.20698 95.8813 10.725C97.1792 12.2431 97.8281 14.5549 97.8281 17.6606C97.8281 17.7996 97.8281 17.9792 97.8281 18.1994C97.8281 18.4195 97.8165 18.6224 97.7933 18.8078H85.4171C85.5562 20.6851 86.1008 22.1104 87.051 23.0839C88.0013 24.0573 89.4845 24.5439 91.501 24.5439C92.6365 24.5439 93.5926 24.4454 94.3691 24.2484C95.1455 24.0515 95.7307 23.8603 96.1247 23.6748L96.5767 26.3865C96.1827 26.5951 95.4931 26.8153 94.5081 27.0471C93.5231 27.2788 92.4049 27.3948 91.1533 27.3948C89.5773 27.3948 88.2157 27.1572 87.0684 26.682C85.9212 26.2069 84.9768 25.5522 84.2351 24.7178C83.4934 23.8835 82.9431 22.8927 82.5838 21.7454C82.2246 20.5982 82.045 19.3408 82.045 17.9735H82.0449ZM94.4559 16.2005C94.479 14.7404 94.114 13.5409 93.3608 12.6023C92.6075 11.6636 91.5704 11.1943 90.2493 11.1943C89.5077 11.1943 88.8529 11.3392 88.2851 11.6289C87.7173 11.9186 87.2364 12.2952 86.8424 12.7587C86.4483 13.2223 86.1412 13.7553 85.921 14.3578C85.7009 14.9604 85.556 15.5746 85.4865 16.2004H94.4558L94.4559 16.2005ZM110.343 27.3948C108.883 27.3948 107.603 27.163 106.502 26.6994C105.401 26.2359 104.474 25.5869 103.721 24.7526C102.967 23.9183 102.405 22.9274 102.035 21.7802C101.664 20.633 101.478 19.3641 101.478 17.9735C101.478 16.5829 101.681 15.3082 102.087 14.1494C102.492 12.9906 103.066 11.9881 103.808 11.1421C104.549 10.2963 105.459 9.63571 106.537 9.16051C107.614 8.6854 108.814 8.44785 110.135 8.44785C110.946 8.44785 111.757 8.51737 112.568 8.65642C113.38 8.79548 114.156 9.01563 114.898 9.31688L114.168 12.0633C113.681 11.8316 113.119 11.6461 112.481 11.5071C111.844 11.368 111.166 11.2985 110.448 11.2985C108.64 11.2985 107.255 11.8663 106.293 13.002C105.331 14.1376 104.85 15.7948 104.85 17.9735C104.85 18.9468 104.961 19.8391 105.181 20.6504C105.401 21.4615 105.748 22.1568 106.224 22.7363C106.699 23.3157 107.307 23.7619 108.049 24.0747C108.791 24.3877 109.694 24.5441 110.76 24.5441C111.618 24.5441 112.394 24.463 113.09 24.3008C113.785 24.1386 114.33 23.9648 114.724 23.7793L115.176 26.491C114.99 26.6069 114.724 26.717 114.376 26.8213C114.028 26.9257 113.634 27.0183 113.194 27.0994C112.754 27.1805 112.284 27.2501 111.786 27.3079C111.288 27.366 110.807 27.395 110.343 27.395L110.343 27.3948ZM118.652 26.9775V0.556211L121.885 0V9.24744C122.488 9.01572 123.131 8.83603 123.815 8.70864C124.499 8.58116 125.176 8.51746 125.849 8.51746C127.286 8.51746 128.479 8.72021 129.429 9.12588C130.38 9.53147 131.139 10.0992 131.706 10.8293C132.274 11.5594 132.674 12.4343 132.906 13.4541C133.138 14.4738 133.254 15.5979 133.254 16.8263V26.9775H130.02V17.5214C130.02 16.4089 129.945 15.4587 129.794 14.6708C129.644 13.8827 129.395 13.2453 129.047 12.7587C128.699 12.2721 128.236 11.9186 127.656 11.6984C127.077 11.4782 126.358 11.368 125.501 11.368C125.153 11.368 124.794 11.3913 124.423 11.4377C124.052 11.484 123.699 11.5362 123.363 11.5941C123.027 11.6521 122.725 11.7158 122.459 11.7853C122.192 11.8548 122.001 11.9128 121.885 11.9591V26.9775H118.652V26.9775Z" fill="white"/>
</svg>
