<svg width="500" height="500" viewBox="0 0 500 500" fill="none" xmlns="http://www.w3.org/2000/svg">
<path d="M500 382.4H0V382.65H500V382.4Z" fill="#EBEBEB"/>
<path d="M449.9 398.49H394.67V398.74H449.9V398.49Z" fill="#EBEBEB"/>
<path d="M330.5 393.25H321.81V393.5H330.5V393.25Z" fill="#EBEBEB"/>
<path d="M391.66 389.21H372.47V389.46H391.66V389.21Z" fill="#EBEBEB"/>
<path d="M95.65 390.89H52.46V391.14H95.65V390.89Z" fill="#EBEBEB"/>
<path d="M261.05 397.35H215.33V397.6H261.05V397.35Z" fill="#EBEBEB"/>
<path d="M234.14 393.12H140.46V393.37H234.14V393.12Z" fill="#EBEBEB"/>
<path d="M43.91 337.8H237C238.514 337.8 239.967 337.198 241.038 336.128C242.108 335.057 242.71 333.604 242.71 332.09V60.66C242.697 59.1543 242.089 57.7147 241.02 56.6547C239.951 55.5947 238.506 54.9999 237 55H43.91C42.3973 55.0026 40.9475 55.6054 39.8788 56.676C38.8102 57.7465 38.21 59.1973 38.21 60.71V332.09C38.21 333.603 38.8102 335.054 39.8788 336.124C40.9475 337.195 42.3973 337.797 43.91 337.8V337.8ZM38.46 60.66C38.46 59.2136 39.0338 57.8264 40.0556 56.8027C41.0774 55.7791 42.4636 55.2026 43.91 55.2H237C238.447 55.2026 239.834 55.7787 240.858 56.8021C241.881 57.8255 242.457 59.2127 242.46 60.66V332.09C242.457 333.537 241.881 334.924 240.858 335.948C239.834 336.971 238.447 337.547 237 337.55H43.91C42.4636 337.547 41.0774 336.971 40.0556 335.947C39.0338 334.924 38.46 333.536 38.46 332.09V60.66Z" fill="#EBEBEB"/>
<path d="M260.21 337.8H453.31C454.824 337.8 456.277 337.198 457.348 336.128C458.418 335.057 459.02 333.604 459.02 332.09V60.66C459.007 59.1543 458.399 57.7147 457.33 56.6547C456.261 55.5947 454.816 54.9999 453.31 55H260.21C258.696 55.0026 257.246 55.6051 256.175 56.6753C255.105 57.7456 254.503 59.1964 254.5 60.71V332.09C254.503 333.604 255.105 335.054 256.175 336.125C257.246 337.195 258.696 337.797 260.21 337.8V337.8ZM254.75 60.66C254.753 59.2127 255.329 57.8255 256.352 56.8021C257.375 55.7787 258.763 55.2026 260.21 55.2H453.31C454.757 55.2026 456.145 55.7787 457.168 56.8021C458.191 57.8255 458.767 59.2127 458.77 60.66V332.09C458.767 333.537 458.191 334.924 457.168 335.948C456.145 336.971 454.757 337.547 453.31 337.55H260.21C258.763 337.547 257.375 336.971 256.352 335.948C255.329 334.924 254.753 333.537 254.75 332.09V60.66Z" fill="#EBEBEB"/>
<path d="M425.2 68.46H196.92V199.7H425.2V68.46Z" fill="#F5F5F5"/>
<path d="M418.47 78.23H314.4V191.69H418.47V78.23Z" fill="#FAFAFA"/>
<path d="M404.37 86.1699H386.39L377.4 101.74L386.39 117.31H404.37L413.36 101.74L404.37 86.1699Z" fill="#F0F0F0"/>
<path d="M377.4 132.87H359.43L350.44 148.44L359.43 164.01H377.4L386.39 148.44L377.4 132.87Z" fill="white"/>
<path d="M377.4 101.74H359.43L350.44 117.31L359.43 132.87H377.4L386.39 117.31L377.4 101.74Z" fill="#EBEBEB"/>
<path d="M295.87 169.97H210.87V189.51H295.87V169.97Z" fill="#FAFAFA"/>
<path d="M246.61 93.7599C246.358 95.1613 245.697 96.4566 244.709 97.4821C243.722 98.5076 242.452 99.2173 241.061 99.5214C239.67 99.8256 238.22 99.7105 236.895 99.1907C235.569 98.6709 234.428 97.7698 233.614 96.6013C232.801 95.4328 232.352 94.0494 232.325 92.6258C232.297 91.2023 232.693 89.8027 233.461 88.6038C234.229 87.4049 235.335 86.4606 236.639 85.8904C237.944 85.3201 239.388 85.1494 240.79 85.3999C242.669 85.7385 244.338 86.8089 245.429 88.3762C246.52 89.9436 246.945 91.8798 246.61 93.7599V93.7599Z" fill="#EBEBEB"/>
<path d="M233.86 135.65C233.608 137.051 232.947 138.347 231.959 139.372C230.972 140.398 229.702 141.107 228.311 141.412C226.92 141.716 225.47 141.601 224.145 141.081C222.819 140.561 221.678 139.66 220.864 138.491C220.051 137.323 219.602 135.94 219.575 134.516C219.547 133.092 219.943 131.693 220.711 130.494C221.479 129.295 222.585 128.351 223.889 127.781C225.194 127.21 226.638 127.04 228.04 127.29C228.971 127.456 229.86 127.805 230.657 128.315C231.454 128.825 232.142 129.488 232.682 130.264C233.223 131.04 233.605 131.916 233.807 132.84C234.009 133.764 234.027 134.719 233.86 135.65V135.65Z" fill="#EBEBEB"/>
<path d="M271.49 160.047C275.465 159.952 278.61 156.653 278.515 152.677C278.42 148.702 275.121 145.557 271.145 145.652C267.17 145.747 264.024 149.046 264.119 153.022C264.214 156.997 267.514 160.143 271.49 160.047Z" fill="#EBEBEB"/>
<path d="M287.82 112.917C289.935 109.549 288.919 105.105 285.551 102.99C282.183 100.876 277.739 101.892 275.625 105.26C273.51 108.628 274.527 113.072 277.894 115.186C281.262 117.301 285.706 116.284 287.82 112.917Z" fill="#EBEBEB"/>
<path d="M298.66 107C298.55 107.58 298.271 108.114 297.859 108.537C297.446 108.959 296.919 109.25 296.342 109.374C295.764 109.497 295.164 109.448 294.614 109.232C294.065 109.016 293.592 108.642 293.254 108.159C292.916 107.675 292.728 107.102 292.714 106.512C292.7 105.922 292.86 105.341 293.174 104.842C293.489 104.342 293.944 103.947 294.482 103.704C295.02 103.462 295.618 103.384 296.2 103.48C296.992 103.624 297.694 104.074 298.155 104.734C298.615 105.393 298.797 106.207 298.66 107V107Z" fill="#EBEBEB"/>
<path d="M281.72 110.27C281.423 110.271 281.137 110.16 280.917 109.961C280.697 109.761 280.56 109.486 280.532 109.191C280.505 108.895 280.589 108.6 280.768 108.363C280.947 108.126 281.208 107.964 281.5 107.91L295.45 105.31C295.604 105.281 295.762 105.283 295.915 105.315C296.068 105.347 296.213 105.409 296.342 105.497C296.471 105.585 296.581 105.698 296.667 105.829C296.752 105.96 296.811 106.106 296.84 106.26C296.869 106.414 296.867 106.572 296.835 106.725C296.803 106.878 296.741 107.023 296.653 107.152C296.565 107.281 296.452 107.391 296.321 107.477C296.19 107.562 296.044 107.621 295.89 107.65L281.94 110.25C281.868 110.267 281.794 110.273 281.72 110.27V110.27Z" fill="#EBEBEB"/>
<path d="M220.39 114.49C220.978 114.54 221.538 114.763 222 115.13C222.462 115.497 222.806 115.992 222.988 116.553C223.17 117.114 223.183 117.717 223.024 118.285C222.866 118.853 222.543 119.362 222.097 119.748C221.651 120.134 221.1 120.38 220.515 120.455C219.93 120.53 219.335 120.43 218.806 120.169C218.277 119.907 217.837 119.496 217.54 118.986C217.244 118.475 217.105 117.889 217.14 117.3C217.164 116.9 217.268 116.509 217.445 116.15C217.622 115.791 217.87 115.472 218.173 115.21C218.476 114.948 218.828 114.749 219.209 114.626C219.589 114.502 219.991 114.456 220.39 114.49V114.49Z" fill="#EBEBEB"/>
<path d="M226.77 135.57C226.531 135.567 226.297 135.494 226.1 135.358C225.902 135.223 225.749 135.032 225.66 134.81L219.06 118C219.003 117.854 218.975 117.699 218.978 117.542C218.981 117.386 219.015 117.231 219.078 117.088C219.14 116.944 219.231 116.815 219.344 116.706C219.456 116.597 219.589 116.512 219.735 116.455C219.881 116.398 220.037 116.37 220.193 116.373C220.35 116.376 220.504 116.41 220.648 116.473C220.791 116.535 220.921 116.626 221.029 116.738C221.138 116.851 221.223 116.984 221.28 117.13L227.88 133.99C227.995 134.286 227.987 134.615 227.86 134.905C227.733 135.196 227.495 135.424 227.2 135.54C227.06 135.574 226.914 135.584 226.77 135.57Z" fill="#EBEBEB"/>
<path d="M269.73 124.77C269.456 126.296 268.736 127.707 267.66 128.824C266.585 129.942 265.202 130.714 263.687 131.046C262.172 131.377 260.593 131.251 259.149 130.685C257.706 130.118 256.462 129.136 255.577 127.863C254.691 126.59 254.203 125.083 254.174 123.533C254.145 121.982 254.577 120.458 255.414 119.153C256.252 117.848 257.457 116.82 258.879 116.2C260.3 115.58 261.873 115.396 263.4 115.67C265.446 116.038 267.262 117.203 268.449 118.909C269.636 120.616 270.097 122.724 269.73 124.77V124.77Z" fill="#EBEBEB"/>
<path d="M226.77 135.57C226.516 135.57 226.269 135.488 226.066 135.337C225.862 135.186 225.713 134.973 225.64 134.73C225.546 134.429 225.575 134.103 225.722 133.824C225.868 133.544 226.119 133.334 226.42 133.24L260.08 122.75L238.56 93.1901C238.457 93.0648 238.381 92.9199 238.337 92.7643C238.292 92.6087 238.28 92.4455 238.3 92.2849C238.321 92.1243 238.374 91.9696 238.456 91.8302C238.539 91.6908 238.648 91.5697 238.779 91.4743C238.91 91.3789 239.059 91.3112 239.217 91.2754C239.375 91.2395 239.538 91.2363 239.698 91.2658C239.857 91.2954 240.008 91.3571 240.143 91.4473C240.277 91.5374 240.392 91.654 240.48 91.7901L262.98 122.69C263.09 122.843 263.163 123.019 263.193 123.205C263.222 123.391 263.208 123.581 263.15 123.76C263.091 123.94 262.989 124.103 262.853 124.235C262.717 124.368 262.551 124.465 262.37 124.52L227.12 135.52C227.007 135.557 226.889 135.574 226.77 135.57Z" fill="#EBEBEB"/>
<path d="M271.31 154C271.058 154.001 270.812 153.92 270.608 153.771C270.405 153.622 270.255 153.411 270.18 153.17L260.88 123.7C260.807 123.461 260.81 123.206 260.889 122.97C260.968 122.733 261.119 122.527 261.32 122.38L281.02 108.08C281.275 107.915 281.584 107.854 281.883 107.909C282.182 107.965 282.448 108.133 282.627 108.378C282.806 108.624 282.885 108.929 282.846 109.23C282.808 109.532 282.655 109.807 282.42 110L263.42 123.81L272.42 152.46C272.511 152.761 272.481 153.086 272.335 153.364C272.189 153.643 271.939 153.853 271.64 153.95C271.533 153.983 271.422 154 271.31 154V154Z" fill="#EBEBEB"/>
<path d="M425.21 199.69H428.21V68.45H425.21V199.69Z" fill="#E6E6E6"/>
<path d="M135.6 307.67H63.3599C61.0692 307.669 58.8606 308.522 57.165 310.063C55.4695 311.603 54.4088 313.72 54.1899 316L47.8999 382.4H151.06L144.77 316C144.551 313.72 143.49 311.603 141.795 310.063C140.099 308.522 137.891 307.669 135.6 307.67V307.67Z" fill="#EBEBEB"/>
<path d="M135.72 101.74H63.23V307.67H135.72V101.74Z" fill="#F5F5F5"/>
<path d="M136.55 92.49H62.3998C60.8037 92.49 59.5098 93.7839 59.5098 95.38V98.85C59.5098 100.446 60.8037 101.74 62.3998 101.74H136.55C138.146 101.74 139.44 100.446 139.44 98.85V95.38C139.44 93.7839 138.146 92.49 136.55 92.49Z" fill="#EBEBEB"/>
<path d="M99.4801 62.3501C90.7651 62.3501 82.407 65.8121 76.2446 71.9746C70.0821 78.137 66.6201 86.4951 66.6201 95.2101H132.33C132.33 86.4968 128.869 78.1403 122.709 71.9781C116.549 65.8159 108.193 62.3527 99.4801 62.3501V62.3501Z" fill="#EBEBEB"/>
<path d="M90.6699 272C96.7451 272 101.67 267.075 101.67 261C101.67 254.925 96.7451 250 90.6699 250C84.5948 250 79.6699 254.925 79.6699 261C79.6699 267.075 84.5948 272 90.6699 272Z" fill="#FAFAFA"/>
<path d="M106.82 235.17C110.222 235.17 112.98 232.412 112.98 229.01C112.98 225.608 110.222 222.85 106.82 222.85C103.418 222.85 100.66 225.608 100.66 229.01C100.66 232.412 103.418 235.17 106.82 235.17Z" fill="#FAFAFA"/>
<path d="M108.89 141.97C114.965 141.97 119.89 137.045 119.89 130.97C119.89 124.895 114.965 119.97 108.89 119.97C102.815 119.97 97.8901 124.895 97.8901 130.97C97.8901 137.045 102.815 141.97 108.89 141.97Z" fill="#FAFAFA"/>
<path d="M83.0702 196.56C84.2885 196.56 85.4795 196.921 86.4925 197.598C87.5055 198.275 88.295 199.237 88.7613 200.363C89.2275 201.488 89.3495 202.727 89.1118 203.922C88.8741 205.117 88.2874 206.214 87.4259 207.076C86.5644 207.937 85.4668 208.524 84.2719 208.762C83.077 208.999 81.8384 208.877 80.7128 208.411C79.5872 207.945 78.6252 207.155 77.9483 206.142C77.2714 205.129 76.9102 203.938 76.9102 202.72C76.9102 201.086 77.5592 199.52 78.7144 198.364C79.8696 197.209 81.4364 196.56 83.0702 196.56Z" fill="#FAFAFA"/>
<path d="M101.67 176.05C103.879 176.05 105.67 174.259 105.67 172.05C105.67 169.841 103.879 168.05 101.67 168.05C99.4608 168.05 97.6699 169.841 97.6699 172.05C97.6699 174.259 99.4608 176.05 101.67 176.05Z" fill="#FAFAFA"/>
<path d="M262.33 382.4V239.45H185.7V382.4H262.33Z" fill="#F0F0F0"/>
<path d="M250.65 285.52V243.62H197.4V285.52H250.65Z" fill="#F5F5F5"/>
<path d="M250.65 331.18V289.28H197.4V331.18H250.65Z" fill="#F5F5F5"/>
<path d="M250.65 376.85V334.95H197.4V376.85H250.65Z" fill="#F5F5F5"/>
<path d="M232.22 243.07H215.82C215.82 243.641 215.932 244.206 216.151 244.733C216.37 245.26 216.69 245.739 217.095 246.142C217.499 246.546 217.978 246.865 218.506 247.083C219.034 247.3 219.599 247.411 220.17 247.41H227.88C229.031 247.41 230.135 246.953 230.949 246.139C231.763 245.325 232.22 244.221 232.22 243.07Z" fill="#E6E6E6"/>
<path d="M232.22 288.73H215.82C215.82 289.301 215.932 289.867 216.151 290.395C216.37 290.922 216.69 291.402 217.094 291.806C217.498 292.21 217.977 292.53 218.505 292.749C219.033 292.967 219.599 293.08 220.17 293.08H227.88C228.451 293.08 229.016 292.967 229.543 292.749C230.07 292.53 230.549 292.209 230.952 291.805C231.355 291.401 231.675 290.922 231.892 290.394C232.11 289.866 232.221 289.301 232.22 288.73V288.73Z" fill="#E6E6E6"/>
<path d="M232.22 334.39H215.82C215.82 335.544 216.278 336.65 217.094 337.466C217.91 338.282 219.016 338.74 220.17 338.74H227.88C228.451 338.74 229.016 338.628 229.543 338.409C230.07 338.19 230.549 337.869 230.952 337.465C231.355 337.061 231.675 336.582 231.892 336.054C232.11 335.526 232.221 334.961 232.22 334.39Z" fill="#E6E6E6"/>
<path d="M283.78 382.39V239.44H262.34V382.39H283.78Z" fill="#E6E6E6"/>
<path d="M412.7 382.39V239.44H267.27V382.39H412.7Z" fill="#F0F0F0"/>
<path d="M388.59 225.6V218.3C388.674 218.277 388.748 218.227 388.802 218.159C388.856 218.091 388.887 218.007 388.89 217.92C388.89 217.814 388.848 217.712 388.773 217.637C388.698 217.562 388.596 217.52 388.49 217.52H384.64C384.546 217.523 384.457 217.56 384.387 217.622C384.317 217.685 384.271 217.771 384.258 217.864C384.245 217.957 384.265 218.052 384.315 218.131C384.365 218.211 384.441 218.271 384.53 218.3V225.6C382.904 226.087 381.508 227.143 380.597 228.575C379.685 230.007 379.319 231.719 379.565 233.398C379.811 235.078 380.654 236.612 381.938 237.722C383.222 238.832 384.863 239.442 386.56 239.442C388.258 239.442 389.898 238.832 391.183 237.722C392.467 236.612 393.309 235.078 393.555 233.398C393.802 231.719 393.436 230.007 392.524 228.575C391.612 227.143 390.216 226.087 388.59 225.6V225.6Z" fill="#F0F0F0"/>
<path d="M378.08 227.91V225C378.159 224.98 378.228 224.932 378.273 224.865C378.319 224.797 378.338 224.715 378.327 224.635C378.316 224.554 378.275 224.48 378.213 224.428C378.151 224.375 378.071 224.348 377.99 224.35H374.78C374.692 224.35 374.608 224.385 374.547 224.447C374.485 224.509 374.45 224.592 374.45 224.68C374.448 224.753 374.47 224.824 374.514 224.882C374.557 224.94 374.619 224.982 374.69 225V227.92C373.333 228.327 372.168 229.208 371.408 230.403C370.647 231.598 370.342 233.026 370.547 234.428C370.753 235.829 371.456 237.11 372.528 238.036C373.599 238.962 374.969 239.471 376.385 239.471C377.801 239.471 379.17 238.962 380.242 238.036C381.314 237.11 382.017 235.829 382.222 234.428C382.428 233.026 382.123 231.598 381.362 230.403C380.602 229.208 379.437 228.327 378.08 227.92V227.91Z" fill="#F0F0F0"/>
<path d="M405.67 227V213.12C405.772 213.097 405.864 213.04 405.929 212.958C405.994 212.876 406.03 212.775 406.03 212.67C406.027 212.543 405.976 212.423 405.886 212.333C405.797 212.244 405.676 212.192 405.55 212.19H401C400.872 212.19 400.75 212.241 400.66 212.331C400.57 212.421 400.52 212.543 400.52 212.67C400.519 212.773 400.553 212.874 400.617 212.956C400.68 213.037 400.769 213.095 400.87 213.12V227C400.849 228.143 400.575 229.267 400.066 230.291C399.558 231.315 398.828 232.213 397.93 232.92C396.864 233.798 396.029 234.924 395.5 236.2C395.357 236.56 395.305 236.95 395.348 237.334C395.392 237.719 395.529 238.088 395.749 238.407C395.968 238.726 396.263 238.986 396.606 239.165C396.95 239.343 397.332 239.434 397.72 239.43H408.87C409.257 239.433 409.639 239.342 409.983 239.164C410.327 238.985 410.622 238.725 410.842 238.407C411.062 238.088 411.2 237.72 411.245 237.335C411.29 236.951 411.24 236.561 411.1 236.2C410.566 234.924 409.729 233.798 408.66 232.92C407.754 232.216 407.016 231.32 406.499 230.296C405.981 229.273 405.698 228.147 405.67 227V227Z" fill="#F0F0F0"/>
<path d="M401.01 285.52V243.62H278.96V285.52H401.01Z" fill="#F5F5F5"/>
<path d="M401.02 331.19V289.29H278.97V331.19H401.02Z" fill="#F5F5F5"/>
<path d="M401.02 376.85V334.95H278.97V376.85H401.02Z" fill="#F5F5F5"/>
<path d="M348.19 243.07H331.79C331.79 243.641 331.903 244.206 332.121 244.733C332.34 245.26 332.661 245.739 333.065 246.142C333.469 246.546 333.948 246.865 334.476 247.083C335.004 247.3 335.569 247.411 336.14 247.41H343.85C345.001 247.41 346.105 246.953 346.919 246.139C347.733 245.325 348.19 244.221 348.19 243.07V243.07Z" fill="#E6E6E6"/>
<path d="M348.19 288.73H331.79C331.79 289.301 331.903 289.867 332.121 290.395C332.34 290.922 332.66 291.402 333.064 291.806C333.468 292.21 333.948 292.53 334.475 292.749C335.003 292.967 335.569 293.08 336.14 293.08H343.85C344.421 293.08 344.986 292.967 345.513 292.749C346.04 292.53 346.519 292.209 346.922 291.805C347.326 291.401 347.645 290.922 347.863 290.394C348.08 289.866 348.191 289.301 348.19 288.73V288.73Z" fill="#E6E6E6"/>
<path d="M348.19 334.39H331.79C331.79 335.544 332.248 336.65 333.064 337.466C333.88 338.282 334.986 338.74 336.14 338.74H343.85C344.421 338.74 344.986 338.628 345.513 338.409C346.04 338.19 346.519 337.869 346.922 337.465C347.326 337.061 347.645 336.582 347.863 336.054C348.08 335.526 348.191 334.961 348.19 334.39V334.39Z" fill="#E6E6E6"/>
<path d="M434.14 382.4V239.45H412.7V382.4H434.14Z" fill="#E6E6E6"/>
<path d="M250 427.56C357.082 427.56 443.89 422.492 443.89 416.24C443.89 409.988 357.082 404.92 250 404.92C142.917 404.92 56.1099 409.988 56.1099 416.24C56.1099 422.492 142.917 427.56 250 427.56Z" fill="#F5F5F5"/>
<path d="M306.5 111.78C301.07 109.17 287.96 113.33 290.85 123.56C293.3 132.25 286.29 137.06 292.24 142C298.19 146.94 286.92 158.17 311.73 157.17C332.23 156.33 339.9 148.08 338.48 141.04C336.7 132.18 329.06 134.79 329.64 128.84C330.22 122.89 306.5 111.78 306.5 111.78Z" fill="#263238"/>
<path d="M306.27 174C305.98 174.8 305.76 175.38 305.49 176.06C305.22 176.74 304.96 177.34 304.68 177.97C304.14 179.24 303.53 180.48 302.92 181.71C301.67 184.206 300.274 186.627 298.74 188.96C297.153 191.409 295.367 193.724 293.4 195.88C292.351 197.038 291.225 198.124 290.03 199.13C289.42 199.65 288.75 200.13 288.08 200.64L287.01 201.36L286.31 201.79C286.05 201.95 285.79 202.08 285.53 202.22C283.68 203.126 281.674 203.672 279.62 203.83C277.955 203.969 276.28 203.942 274.62 203.75C271.708 203.382 268.843 202.712 266.07 201.75C260.913 199.954 255.991 197.543 251.41 194.57L254.5 188C259.169 189.303 263.906 190.344 268.69 191.12C270.862 191.466 273.061 191.62 275.26 191.58C276.149 191.569 277.034 191.462 277.9 191.26C278.406 191.162 278.884 190.954 279.3 190.65C279.3 190.65 279.3 190.65 279.3 190.59L279.4 190.5L279.88 190.08C280.2 189.77 280.53 189.47 280.88 189.08C281.53 188.39 282.18 187.62 282.82 186.8C284.14 185.035 285.352 183.191 286.45 181.28C287.58 179.28 288.68 177.23 289.7 175.11C290.22 174.11 290.7 172.98 291.2 171.91L291.92 170.31L292.57 168.81L306.27 174Z" fill="#06BC67"/>
<path opacity="0.8" d="M306.27 174C305.98 174.8 305.76 175.38 305.49 176.06C305.22 176.74 304.96 177.34 304.68 177.97C304.14 179.24 303.53 180.48 302.92 181.71C301.67 184.206 300.274 186.627 298.74 188.96C297.153 191.409 295.367 193.724 293.4 195.88C292.351 197.038 291.225 198.124 290.03 199.13C289.42 199.65 288.75 200.13 288.08 200.64L287.01 201.36L286.31 201.79C286.05 201.95 285.79 202.08 285.53 202.22C283.68 203.126 281.674 203.672 279.62 203.83C277.955 203.969 276.28 203.942 274.62 203.75C271.708 203.382 268.843 202.712 266.07 201.75C260.913 199.954 255.991 197.543 251.41 194.57L254.5 188C259.169 189.303 263.906 190.344 268.69 191.12C270.862 191.466 273.061 191.62 275.26 191.58C276.149 191.569 277.034 191.462 277.9 191.26C278.406 191.162 278.884 190.954 279.3 190.65C279.3 190.65 279.3 190.65 279.3 190.59L279.4 190.5L279.88 190.08C280.2 189.77 280.53 189.47 280.88 189.08C281.53 188.39 282.18 187.62 282.82 186.8C284.14 185.035 285.352 183.191 286.45 181.28C287.58 179.28 288.68 177.23 289.7 175.11C290.22 174.11 290.7 172.98 291.2 171.91L291.92 170.31L292.57 168.81L306.27 174Z" fill="white"/>
<path d="M254.22 193.61L248.39 194.35V186.5C248.39 186.5 254.17 187.17 256.6 190.07L254.22 193.61Z" fill="#FFB573"/>
<path d="M241.24 193.88L242.04 188.51L248.41 186.5L248.39 194.35L241.24 193.88Z" fill="#FFB573"/>
<path opacity="0.2" d="M249.72 195.52V185.52C249.862 185.5 249.99 185.425 250.076 185.31C250.163 185.196 250.2 185.052 250.18 184.91C250.16 184.768 250.085 184.64 249.97 184.554C249.856 184.467 249.712 184.43 249.57 184.45H244.29C244.151 184.438 244.013 184.479 243.904 184.566C243.795 184.654 243.724 184.78 243.706 184.918C243.688 185.056 243.724 185.196 243.807 185.308C243.89 185.421 244.013 185.496 244.15 185.52V195.52C241.922 196.189 240.009 197.636 238.76 199.599C237.511 201.561 237.01 203.907 237.348 206.209C237.686 208.51 238.84 210.613 240.6 212.134C242.361 213.654 244.609 214.491 246.935 214.491C249.261 214.491 251.51 213.654 253.27 212.134C255.03 210.613 256.185 208.51 256.522 206.209C256.86 203.907 256.359 201.561 255.11 199.599C253.861 197.636 251.948 196.189 249.72 195.52V195.52Z" fill="#06BC67"/>
<path opacity="0.5" d="M255.57 206.31C255.317 208.421 254.301 210.367 252.712 211.78C251.124 213.193 249.074 213.977 246.947 213.983C244.821 213.989 242.766 213.218 241.17 211.813C239.573 210.409 238.546 208.47 238.28 206.36C244.05 208.38 249.82 204.29 255.57 206.31Z" fill="#06BC67"/>
<path opacity="0.7" d="M238.28 206.31C238.533 208.421 239.55 210.367 241.138 211.78C242.727 213.193 244.777 213.977 246.903 213.983C249.029 213.989 251.084 213.218 252.681 211.813C254.277 210.409 255.305 208.47 255.57 206.36C249.81 208.38 244 204.29 238.28 206.31Z" fill="#06BC67"/>
<path d="M330.18 404.18L320.9 405.06L320.21 383.8L329.5 382.93L330.18 404.18Z" fill="#FFB573"/>
<path d="M382.42 392.88L373.91 396.61L366.31 376.69L374.82 372.95L382.42 392.88Z" fill="#FFB573"/>
<path d="M372.69 395L381.07 388.77C381.212 388.647 381.397 388.585 381.585 388.598C381.772 388.612 381.947 388.698 382.07 388.84L387.73 394.84C387.869 395 387.972 395.186 388.035 395.388C388.097 395.59 388.117 395.803 388.092 396.012C388.068 396.222 388 396.425 387.893 396.607C387.786 396.789 387.642 396.947 387.47 397.07C384.52 399.19 382.99 400.07 379.3 402.8C377.03 404.49 372.25 408.55 369.12 410.88C365.99 413.21 363.63 410.21 364.73 408.96C369.73 403.35 371.01 399.55 371.81 396.42C371.927 395.858 372.239 395.355 372.69 395V395Z" fill="#263238"/>
<path d="M320.13 402.3H331.13C331.325 402.301 331.514 402.366 331.668 402.485C331.822 402.604 331.932 402.771 331.98 402.96L334.12 411.64C334.171 411.849 334.173 412.067 334.126 412.276C334.079 412.486 333.985 412.682 333.851 412.85C333.717 413.018 333.546 413.153 333.352 413.245C333.158 413.337 332.945 413.383 332.73 413.38C328.87 413.38 327.03 413.1 322.21 413.1C319.21 413.1 311.57 413.39 307.47 413.39C303.37 413.39 302.74 409.34 304.41 408.97C311.89 407.33 316.24 405.06 318.59 402.9C319.013 402.519 319.561 402.305 320.13 402.3V402.3Z" fill="#263238"/>
<path opacity="0.2" d="M320.21 383.81L320.56 394.76H329.88L329.5 382.93L320.21 383.81Z" fill="black"/>
<path opacity="0.2" d="M374.82 372.96L366.31 376.69L370.23 386.96L378.74 383.23L374.82 372.96Z" fill="black"/>
<path d="M345.34 208.71L308.92 217.94C300.01 195.77 295.7 182.83 293.67 175.29C292.911 172.462 293.202 169.454 294.489 166.824C295.775 164.193 297.971 162.117 300.67 160.98C301.85 160.48 303.09 159.98 304.34 159.49C305.26 159.13 306.2 158.78 307.12 158.49C312.527 156.702 318.055 155.299 323.66 154.29C324.48 154.12 325.31 153.97 326.13 153.83H326.34C328.003 153.556 329.706 153.632 331.338 154.053C332.971 154.474 334.497 155.232 335.82 156.276C337.144 157.321 338.234 158.63 339.023 160.12C339.811 161.61 340.28 163.249 340.4 164.93C341.32 177.74 343.02 197.36 345.4 208.78" fill="#06BC67"/>
<path d="M318.52 143.51C319.29 148.06 320.8 152.62 323.63 154.26C323.63 154.26 324.36 158.06 315.19 166.1C314.458 166.752 313.511 167.113 312.53 167.113C311.549 167.113 310.603 166.752 309.87 166.1C304.58 161.23 307.09 158.47 307.09 158.47C312.71 155.54 311.94 151.56 308.86 145.36L313.17 142.36C313.513 141.894 313.983 141.538 314.523 141.333C315.064 141.128 315.652 141.083 316.217 141.205C316.782 141.326 317.3 141.609 317.709 142.018C318.117 142.427 318.399 142.945 318.52 143.51Z" fill="#FFB573"/>
<path opacity="0.2" d="M313.18 142.32C313.504 141.882 313.941 141.541 314.443 141.332C314.946 141.123 315.496 141.056 316.035 141.136C316.573 141.216 317.08 141.441 317.5 141.787C317.92 142.133 318.238 142.587 318.42 143.1C317.026 146.822 314.519 150.023 311.24 152.27C310.884 149.832 310.077 147.482 308.86 145.34L313.18 142.32Z" fill="black"/>
<path d="M319.4 124.73C321.29 133.79 322.29 137.58 319.14 143.47C314.4 152.32 303.14 152.86 298.6 144.59C294.54 137.15 292.12 123.59 299.67 117.48C307.22 111.37 317.5 115.66 319.4 124.73Z" fill="#FFB573"/>
<path d="M297.74 140.36C297.276 140.323 296.825 140.194 296.411 139.981C295.997 139.768 295.63 139.476 295.33 139.12C294.308 137.945 293.554 136.562 293.119 135.067C292.684 133.572 292.579 132 292.81 130.46C292.795 129.878 292.974 129.307 293.317 128.836C293.661 128.366 294.15 128.022 294.71 127.859C295.269 127.696 295.866 127.722 296.409 127.934C296.952 128.146 297.409 128.531 297.71 129.03C298.76 130.189 299.521 131.58 299.93 133.09V133.09C300.394 134.581 300.497 136.161 300.23 137.7C300.18 138.264 299.975 138.803 299.638 139.259C299.301 139.714 298.845 140.067 298.32 140.28C298.131 140.332 297.936 140.359 297.74 140.36V140.36ZM295.3 128.28C295.148 128.28 294.997 128.3 294.85 128.34C294.414 128.535 294.039 128.844 293.764 129.235C293.49 129.626 293.326 130.084 293.29 130.56C293.075 132.021 293.177 133.512 293.59 134.93C294.002 136.349 294.715 137.662 295.68 138.78C295.917 139.214 296.295 139.554 296.751 139.743C297.207 139.933 297.714 139.962 298.189 139.824C298.663 139.687 299.077 139.391 299.361 138.987C299.645 138.582 299.782 138.093 299.75 137.6C300 136.138 299.9 134.637 299.46 133.22V133.22C299.071 131.79 298.351 130.472 297.36 129.37C296.843 128.75 296.103 128.358 295.3 128.28Z" fill="white"/>
<path d="M316.18 125.72C314.57 127.06 316.83 135.47 321.09 134.12C325.35 132.77 321.46 121.33 316.18 125.72Z" fill="#263238"/>
<path d="M320.077 128.77L309.277 130.086L309.337 130.583L320.137 129.266L320.077 128.77Z" fill="white"/>
<path d="M306 138C304.958 137.96 303.962 137.561 303.18 136.87C301.923 135.761 301.019 134.308 300.58 132.69C299.58 129.12 300.7 125.63 303.16 124.91C305.62 124.19 308.48 126.52 309.52 130.09C310.52 133.67 309.4 137.16 306.93 137.87C306.628 137.959 306.315 138.003 306 138ZM304.09 125.28C303.823 125.282 303.557 125.319 303.3 125.39C301.11 126.03 300.1 129.24 301.06 132.55C301.469 134.072 302.317 135.439 303.5 136.48C303.93 136.893 304.456 137.192 305.03 137.351C305.604 137.51 306.209 137.523 306.79 137.39C308.99 136.75 310 133.54 309.04 130.23C308.17 127.27 306.07 125.24 304.07 125.24L304.09 125.28Z" fill="white"/>
<path d="M323.63 132.42C323.687 134.214 323.045 135.96 321.84 137.29C320.23 139.03 318.25 137.88 317.71 135.69C317.22 133.69 317.47 130.46 319.56 129.53C321.65 128.6 323.55 130.22 323.63 132.42Z" fill="#FFB573"/>
<path d="M306.5 110.67C294.74 115.73 297.58 123.67 309.4 126.34C315.96 127.8 322.87 131.34 323.16 135.15C323.45 138.96 334.76 126.08 328.01 122.56C321.26 119.04 321.25 104.32 306.5 110.67Z" fill="#263238"/>
<path d="M301.08 116.17C301.49 120.59 294.33 132.28 285.92 125.46C290.55 125.65 291.19 122.57 293.12 117.75C294.9 113.33 300.6 111 301.08 116.17Z" fill="#263238"/>
<path d="M308.92 217.94C308.92 217.94 309.14 265.01 309.06 301.17C309 329.92 317.47 390.47 317.47 390.47L330.92 389.13C330.92 389.13 330.92 323.93 328.34 303.41C336.73 262.97 350.06 224.48 338.17 210.32L308.92 217.94Z" fill="#263238"/>
<path d="M333.11 385.85L315.38 386.39L316.35 392.45L332.94 392.2L333.11 385.85Z" fill="#06BC67"/>
<path opacity="0.3" d="M327.75 244.66L342.5 235.27C341.14 249.61 336.44 267.77 331.95 287.14C327 272.18 324.28 256.44 327.75 244.66Z" fill="black"/>
<path d="M316.9 216C316.9 216 331.59 260.36 338.51 295.19C340.294 304.211 342.615 313.116 345.46 321.86C354.46 349.55 366.22 382.7 366.22 382.7L377.78 377.27C377.78 377.27 368.29 320.53 360.3 301.27C359.99 260.81 360.67 222.08 345.3 208.69L316.9 216Z" fill="#263238"/>
<path d="M324.44 153.94C324.44 153.94 322.67 197.14 335.12 252.56C351.12 250.83 360.77 245.91 360.77 245.91C360.77 245.91 351.77 209.44 348.77 194.78C346.55 184.02 343.58 166.84 342.16 158.45C341.905 156.979 341.17 155.634 340.071 154.625C338.971 153.615 337.568 152.998 336.08 152.87C333 152.61 328.75 153.2 324.44 153.94Z" fill="#06BC67"/>
<path opacity="0.8" d="M324.44 153.94C324.44 153.94 322.67 197.14 335.12 252.56C351.12 250.83 360.77 245.91 360.77 245.91C360.77 245.91 351.77 209.44 348.77 194.78C346.55 184.02 343.58 166.84 342.16 158.45C341.905 156.979 341.17 155.634 340.071 154.625C338.971 153.615 337.568 152.998 336.08 152.87C333 152.61 328.75 153.2 324.44 153.94Z" fill="white"/>
<path d="M306.93 157.9C306.93 157.9 305.81 178.39 322.61 254.22C317.56 257.22 306.42 256.82 306.42 256.82C306.42 256.82 302.2 223.33 298.82 206.94C296.22 194.38 293.47 177.86 292.32 170.82C292.14 169.697 292.246 168.546 292.629 167.474C293.012 166.403 293.659 165.445 294.51 164.69C297.28 162.21 301.88 158.79 306.93 157.9Z" fill="#06BC67"/>
<path opacity="0.8" d="M306.93 157.9C306.93 157.9 305.81 178.39 322.61 254.22C317.56 257.22 306.42 256.82 306.42 256.82C306.42 256.82 302.2 223.33 298.82 206.94C296.22 194.38 293.47 177.86 292.32 170.82C292.14 169.697 292.246 168.546 292.629 167.474C293.012 166.403 293.659 165.445 294.51 164.69C297.28 162.21 301.88 158.79 306.93 157.9Z" fill="white"/>
<path d="M326.89 187C316.98 191.16 307.54 195 300.89 196.85C300.634 196.928 300.398 197.059 300.197 197.235C299.995 197.41 299.834 197.627 299.722 197.87C299.611 198.113 299.552 198.376 299.55 198.644C299.548 198.911 299.602 199.175 299.71 199.42L316 233.32C316.279 233.811 316.727 234.184 317.261 234.368C317.795 234.552 318.378 234.535 318.9 234.32C328.2 230.32 341.81 225.82 344.54 222.5C337.08 208.9 330.12 195.87 326.89 187Z" fill="white"/>
<path d="M328.85 187.82C318.66 191.24 308.97 194.36 302.17 195.74C301.91 195.798 301.665 195.911 301.452 196.071C301.238 196.231 301.061 196.435 300.933 196.668C300.804 196.902 300.727 197.16 300.706 197.426C300.684 197.692 300.72 197.959 300.81 198.21L314.64 233.21C314.879 233.724 315.298 234.133 315.817 234.36C316.337 234.586 316.921 234.615 317.46 234.44C327.03 231.11 340.93 227.63 343.89 224.52C337.41 210.42 331.43 196.91 328.85 187.82Z" fill="white"/>
<path d="M342.18 227.57L317 235.7C316.461 235.889 315.871 235.877 315.34 235.665C314.809 235.454 314.372 235.058 314.11 234.55L299.16 199.91C299.065 199.659 299.023 199.391 299.04 199.124C299.056 198.856 299.128 198.594 299.253 198.357C299.378 198.12 299.552 197.911 299.764 197.746C299.975 197.581 300.219 197.463 300.48 197.4L325.62 189.27C326.16 189.081 326.749 189.093 327.28 189.305C327.811 189.516 328.248 189.912 328.51 190.42L343.46 225.06C343.558 225.308 343.602 225.574 343.589 225.84C343.576 226.106 343.507 226.366 343.386 226.604C343.265 226.841 343.095 227.05 342.887 227.216C342.679 227.383 342.438 227.504 342.18 227.57V227.57Z" fill="#06BC67"/>
<path opacity="0.3" d="M342.18 227.57L317 235.7C316.461 235.889 315.871 235.877 315.34 235.665C314.809 235.454 314.372 235.058 314.11 234.55L299.16 199.91C299.065 199.659 299.023 199.391 299.04 199.124C299.056 198.856 299.128 198.594 299.253 198.357C299.378 198.12 299.552 197.911 299.764 197.746C299.975 197.581 300.219 197.463 300.48 197.4L325.62 189.27C326.16 189.081 326.749 189.093 327.28 189.305C327.811 189.516 328.248 189.912 328.51 190.42L343.46 225.06C343.558 225.308 343.602 225.574 343.589 225.84C343.576 226.106 343.507 226.366 343.386 226.604C343.265 226.841 343.095 227.05 342.887 227.216C342.679 227.383 342.438 227.504 342.18 227.57V227.57Z" fill="black"/>
<path d="M365.77 385.82L380.56 379.54L379.06 373.31L362.66 380.85L365.77 385.82Z" fill="#06BC67"/>
<path d="M305.52 131.81C305.72 132.53 305.52 133.23 305.04 133.37C304.56 133.51 304.04 133.03 303.84 132.31C303.64 131.59 303.84 130.88 304.32 130.75C304.8 130.62 305.32 131.08 305.52 131.81Z" fill="#263238"/>
<path d="M297.5 134.2C297.7 134.92 297.5 135.62 297.02 135.76C296.54 135.9 296.02 135.43 295.82 134.7C295.62 133.97 295.82 133.28 296.3 133.14C296.78 133 297.3 133.47 297.5 134.2Z" fill="#263238"/>
<path d="M296.52 133.12H294.68C294.68 133.12 295.93 134.22 296.52 133.12Z" fill="#263238"/>
<path d="M300.47 134.45C300.409 136.503 300.073 138.537 299.47 140.5C299.964 140.637 300.483 140.662 300.988 140.574C301.493 140.486 301.972 140.286 302.39 139.99L300.47 134.45Z" fill="#ED893E"/>
<path d="M311.854 139.115C311.918 139.144 311.972 139.191 312.008 139.251C312.044 139.311 312.061 139.381 312.056 139.451C312.053 139.547 312.014 139.638 311.945 139.706C311.876 139.774 311.784 139.812 311.688 139.814C310.166 139.765 308.653 140.073 307.271 140.713C305.889 141.353 304.676 142.308 303.728 143.5C303.676 143.579 303.595 143.633 303.503 143.653C303.411 143.672 303.315 143.654 303.236 143.603C303.161 143.545 303.111 143.461 303.096 143.368C303.081 143.275 303.101 143.179 303.153 143.1C304.154 141.807 305.447 140.767 306.925 140.067C308.404 139.367 310.027 139.027 311.662 139.073L311.854 139.115Z" fill="#263238"/>
<path d="M307.3 128.07C307.223 128.068 307.149 128.04 307.09 127.99C306.676 127.655 306.188 127.424 305.666 127.314C305.145 127.205 304.605 127.22 304.09 127.36C304.036 127.381 303.979 127.39 303.922 127.388C303.864 127.386 303.807 127.373 303.755 127.349C303.703 127.324 303.656 127.29 303.618 127.247C303.579 127.205 303.549 127.154 303.53 127.1C303.492 126.989 303.498 126.866 303.549 126.76C303.599 126.653 303.69 126.571 303.8 126.53C304.457 126.326 305.154 126.288 305.829 126.419C306.505 126.55 307.137 126.846 307.67 127.28C307.761 127.353 307.821 127.458 307.835 127.574C307.85 127.69 307.82 127.807 307.75 127.9C307.701 127.97 307.631 128.024 307.551 128.054C307.471 128.084 307.384 128.09 307.3 128.07Z" fill="#263238"/>
<path d="M293.3 131.27L293.24 131.21C293.158 131.128 293.112 131.016 293.112 130.9C293.112 130.784 293.158 130.673 293.24 130.59C293.72 130.092 294.314 129.718 294.971 129.502C295.628 129.286 296.328 129.234 297.01 129.35C297.122 129.383 297.217 129.457 297.276 129.557C297.336 129.657 297.355 129.776 297.33 129.89C297.302 130.001 297.232 130.097 297.135 130.158C297.039 130.219 296.922 130.242 296.81 130.22C296.266 130.13 295.709 130.173 295.186 130.348C294.663 130.522 294.191 130.821 293.81 131.22C293.742 131.282 293.655 131.32 293.563 131.329C293.471 131.338 293.379 131.318 293.3 131.27V131.27Z" fill="#263238"/>
<path d="M369.51 398.84H369.36C369.143 398.82 368.936 398.741 368.76 398.613C368.584 398.484 368.446 398.31 368.36 398.11C368.297 397.993 368.264 397.863 368.264 397.73C368.264 397.597 368.297 397.467 368.36 397.35C368.95 396.35 372.26 396.1 372.63 396.08C372.672 396.077 372.714 396.086 372.749 396.108C372.785 396.129 372.814 396.162 372.83 396.2C372.855 396.235 372.868 396.277 372.868 396.32C372.868 396.363 372.855 396.405 372.83 396.44C372.07 397.34 370.64 398.82 369.51 398.84ZM372.16 396.55C370.84 396.68 369.09 397.01 368.78 397.55C368.75 397.6 368.734 397.657 368.734 397.715C368.734 397.773 368.75 397.83 368.78 397.88C368.83 398.013 368.915 398.129 369.026 398.218C369.137 398.306 369.27 398.362 369.41 398.38C370 398.46 371.05 397.78 372.16 396.55V396.55Z" fill="#06BC67"/>
<path d="M372.46 396.53C371.35 396.53 369.17 395.95 368.78 395.05C368.708 394.889 368.693 394.709 368.736 394.538C368.78 394.368 368.88 394.217 369.02 394.11C369.139 393.991 369.284 393.9 369.443 393.845C369.603 393.789 369.773 393.771 369.94 393.79C371.26 393.91 372.79 396.07 372.86 396.16C372.883 396.192 372.898 396.229 372.902 396.268C372.906 396.307 372.899 396.347 372.883 396.382C372.867 396.418 372.841 396.449 372.809 396.471C372.777 396.494 372.739 396.507 372.7 396.51L372.46 396.53ZM369.8 394.23C369.617 394.23 369.441 394.302 369.31 394.43C369.11 394.63 369.13 394.76 369.17 394.86C369.43 395.45 371.17 396.04 372.25 396.08C371.7 395.39 370.68 394.3 369.89 394.23H369.8Z" fill="#06BC67"/>
<path d="M315.22 404.11C314.473 404.164 313.728 403.982 313.09 403.59C312.934 403.473 312.805 403.322 312.714 403.149C312.622 402.976 312.57 402.786 312.56 402.59C312.552 402.472 312.576 402.355 312.628 402.249C312.681 402.144 312.761 402.054 312.86 401.99C313.86 401.32 317.56 402.99 318.28 403.36C318.324 403.378 318.361 403.411 318.383 403.453C318.405 403.495 318.411 403.544 318.4 403.59C318.393 403.635 318.373 403.676 318.343 403.71C318.312 403.743 318.274 403.768 318.23 403.78C317.24 403.989 316.232 404.1 315.22 404.11V404.11ZM313.52 402.21C313.37 402.2 313.22 402.235 313.09 402.31C313.057 402.331 313.031 402.361 313.015 402.397C312.999 402.432 312.994 402.472 313 402.51C312.999 402.651 313.032 402.791 313.094 402.918C313.157 403.044 313.248 403.155 313.36 403.24C313.99 403.73 315.51 403.8 317.48 403.43C316.231 402.822 314.895 402.41 313.52 402.21V402.21Z" fill="#06BC67"/>
<path d="M318.18 403.73C318.155 403.74 318.126 403.74 318.1 403.73C316.87 403.23 314.43 401.23 314.6 400.19C314.6 399.97 314.8 399.68 315.37 399.61C317.56 399.36 318.37 403.31 318.37 403.48C318.38 403.521 318.378 403.563 318.364 403.602C318.349 403.641 318.324 403.675 318.29 403.7C318.257 403.719 318.219 403.729 318.18 403.73V403.73ZM315.56 400H315.41C315.18 400 315.05 400.09 315.04 400.2C314.94 400.8 316.62 402.38 317.86 403.07C317.6 402.15 316.87 400 315.56 400Z" fill="#06BC67"/>
<path d="M304.53 130.72H302.69C302.69 130.72 303.94 131.83 304.53 130.72Z" fill="#263238"/>
<path d="M339.85 154.52C342.46 156.69 344.85 158.86 347.2 161.14C349.55 163.42 351.89 165.76 354.13 168.23C356.452 170.737 358.632 173.371 360.66 176.12C361.778 177.614 362.8 179.177 363.72 180.8C364.248 181.734 364.718 182.699 365.13 183.69C365.684 184.991 366.064 186.36 366.26 187.76L366.4 188.82L366.26 189.62C365.909 191.559 365.197 193.414 364.16 195.09C363.29 196.504 362.264 197.816 361.1 199C359.084 200.996 356.819 202.724 354.36 204.14C352.117 205.455 349.777 206.599 347.36 207.56C344.981 208.518 342.534 209.3 340.04 209.9L337.34 203.18C339.13 201.96 341.08 200.65 342.86 199.32C344.627 198.039 346.326 196.667 347.95 195.21C349.412 193.931 350.733 192.499 351.89 190.94C352.644 190.053 353.099 188.951 353.19 187.79V189.65C353.19 189.81 353.11 189.55 352.9 189.18C352.69 188.81 352.41 188.35 352.07 187.86C351.39 186.86 350.57 185.79 349.66 184.72C347.83 182.57 345.77 180.39 343.66 178.24C341.55 176.09 339.32 173.97 337.07 171.86C334.82 169.75 332.51 167.63 330.32 165.62L339.85 154.52Z" fill="#06BC67"/>
<path opacity="0.8" d="M339.85 154.52C342.46 156.69 344.85 158.86 347.2 161.14C349.55 163.42 351.89 165.76 354.13 168.23C356.452 170.737 358.632 173.371 360.66 176.12C361.778 177.614 362.8 179.177 363.72 180.8C364.248 181.734 364.718 182.699 365.13 183.69C365.684 184.991 366.064 186.36 366.26 187.76L366.4 188.82L366.26 189.62C365.909 191.559 365.197 193.414 364.16 195.09C363.29 196.504 362.264 197.816 361.1 199C359.084 200.996 356.819 202.724 354.36 204.14C352.117 205.455 349.777 206.599 347.36 207.56C344.981 208.518 342.534 209.3 340.04 209.9L337.34 203.18C339.13 201.96 341.08 200.65 342.86 199.32C344.627 198.039 346.326 196.667 347.95 195.21C349.412 193.931 350.733 192.499 351.89 190.94C352.644 190.053 353.099 188.951 353.19 187.79V189.65C353.19 189.81 353.11 189.55 352.9 189.18C352.69 188.81 352.41 188.35 352.07 187.86C351.39 186.86 350.57 185.79 349.66 184.72C347.83 182.57 345.77 180.39 343.66 178.24C341.55 176.09 339.32 173.97 337.07 171.86C334.82 169.75 332.51 167.63 330.32 165.62L339.85 154.52Z" fill="white"/>
<path d="M340.7 208.28L336.82 211.54L334.49 204.07C336.581 203.265 338.892 203.24 341 204L340.7 208.28Z" fill="#FFB573"/>
<path opacity="0.7" d="M324.25 153.83C324.25 153.83 322.49 174.71 325.25 184.34C326.15 175.16 328.94 166.28 328.72 163.41C327.764 162.961 326.841 162.443 325.96 161.86C326.944 160.961 328.032 160.182 329.2 159.54C329.2 158.23 329.2 153.44 328.98 153.05C326.43 153.4 324.25 153.83 324.25 153.83Z" fill="#06BC67"/>
<path opacity="0.7" d="M307.09 157.74C307.09 157.74 307.91 174.25 309.92 188.17C306.69 180.17 302.64 172.58 302.83 169.51C304.25 168.2 305.49 166.77 305.49 166.77C304.519 166.229 303.459 165.863 302.36 165.69C302.296 163.412 302.359 161.131 302.55 158.86C305 158.18 307.09 157.74 307.09 157.74Z" fill="#06BC67"/>
<path d="M333.74 213.35L330.65 208.16L334.49 204.07L336.82 211.54L333.74 213.35Z" fill="#FFB573"/>
<g opacity="0.2">
<path d="M157.81 210.78V232.14C157.852 232.85 158.164 233.517 158.682 234.004C159.199 234.492 159.884 234.763 160.595 234.763C161.306 234.763 161.99 234.492 162.507 234.004C163.025 233.517 163.337 232.85 163.38 232.14V210.78H157.81Z" fill="#06BC67"/>
<path d="M163.24 211.33H158C157.854 211.33 157.714 211.272 157.611 211.169C157.508 211.066 157.45 210.926 157.45 210.78V210.78C157.45 210.634 157.508 210.494 157.611 210.391C157.714 210.288 157.854 210.23 158 210.23H163.28C163.426 210.23 163.565 210.288 163.669 210.391C163.772 210.494 163.83 210.634 163.83 210.78V210.78C163.83 210.856 163.814 210.931 163.784 211C163.754 211.07 163.71 211.132 163.655 211.184C163.599 211.235 163.534 211.275 163.462 211.3C163.391 211.325 163.315 211.335 163.24 211.33V211.33Z" fill="#06BC67"/>
</g>
<g opacity="0.2">
<path d="M168.92 210.78V232.14C168.962 232.85 169.274 233.517 169.792 234.004C170.31 234.492 170.994 234.763 171.705 234.763C172.416 234.763 173.1 234.492 173.618 234.004C174.135 233.517 174.447 232.85 174.49 232.14V210.78H168.92Z" fill="#06BC67"/>
<path d="M174.34 211.33H169.06C168.914 211.33 168.774 211.272 168.671 211.169C168.568 211.066 168.51 210.926 168.51 210.78V210.78C168.51 210.634 168.568 210.494 168.671 210.391C168.774 210.288 168.914 210.23 169.06 210.23H174.34C174.486 210.23 174.626 210.288 174.729 210.391C174.832 210.494 174.89 210.634 174.89 210.78V210.78C174.89 210.926 174.832 211.066 174.729 211.169C174.626 211.272 174.486 211.33 174.34 211.33V211.33Z" fill="#06BC67"/>
</g>
<g opacity="0.2">
<path d="M180 210.78V232.14C180.043 232.85 180.355 233.517 180.872 234.004C181.39 234.492 182.074 234.763 182.785 234.763C183.496 234.763 184.18 234.492 184.698 234.004C185.216 233.517 185.527 232.85 185.57 232.14V210.78H180Z" fill="#06BC67"/>
<path d="M185.45 211.33H180.16C180.088 211.33 180.016 211.316 179.949 211.288C179.883 211.26 179.822 211.22 179.771 211.169C179.72 211.118 179.679 211.057 179.652 210.99C179.624 210.924 179.61 210.852 179.61 210.78V210.78C179.61 210.708 179.624 210.636 179.652 210.57C179.679 210.503 179.72 210.442 179.771 210.391C179.822 210.34 179.883 210.299 179.949 210.272C180.016 210.244 180.088 210.23 180.16 210.23H185.45C185.596 210.23 185.736 210.288 185.839 210.391C185.942 210.494 186 210.634 186 210.78V210.78C186 210.926 185.942 211.066 185.839 211.169C185.736 211.272 185.596 211.33 185.45 211.33V211.33Z" fill="#06BC67"/>
</g>
<path d="M191.76 215.07H151.64C151.486 215.07 151.339 215.009 151.23 214.9C151.121 214.791 151.06 214.644 151.06 214.49V214.49C151.06 214.414 151.075 214.339 151.104 214.268C151.133 214.198 151.176 214.134 151.23 214.08C151.284 214.026 151.348 213.983 151.418 213.954C151.488 213.925 151.564 213.91 151.64 213.91H191.76C191.836 213.91 191.912 213.925 191.982 213.954C192.052 213.983 192.116 214.026 192.17 214.08C192.224 214.134 192.267 214.198 192.296 214.268C192.325 214.339 192.34 214.414 192.34 214.49V214.49C192.34 214.644 192.279 214.791 192.17 214.9C192.061 215.009 191.914 215.07 191.76 215.07V215.07Z" fill="#06BC67"/>
<path d="M155.6 242.23V213.01H154.44V242.23H155.6Z" fill="#06BC67"/>
<path d="M188.98 242.23V213.01H187.82V242.23H188.98Z" fill="#06BC67"/>
<path d="M231.42 197.14H208.05C207.896 197.14 207.748 197.079 207.64 196.97C207.531 196.861 207.47 196.714 207.47 196.56V196.56C207.47 196.406 207.531 196.259 207.64 196.15C207.748 196.041 207.896 195.98 208.05 195.98H231.42C231.574 195.98 231.721 196.041 231.83 196.15C231.939 196.259 232 196.406 232 196.56V196.56C232 196.714 231.939 196.861 231.83 196.97C231.721 197.079 231.574 197.14 231.42 197.14V197.14Z" fill="#06BC67"/>
<path d="M230.46 195.46H223.39C223.136 195.46 222.93 195.666 222.93 195.92V197.21C222.93 197.464 223.136 197.67 223.39 197.67H230.46C230.714 197.67 230.92 197.464 230.92 197.21V195.92C230.92 195.666 230.714 195.46 230.46 195.46Z" fill="#06BC67"/>
<path d="M212 242.24V195.09H210.84V242.24H212Z" fill="#06BC67"/>
<path opacity="0.1" d="M274.12 225.22V219.22C274.274 219.181 274.409 219.086 274.499 218.954C274.588 218.822 274.626 218.662 274.605 218.504C274.584 218.346 274.505 218.202 274.385 218.098C274.264 217.994 274.109 217.937 273.95 217.94H267.64C267.466 217.943 267.299 218.013 267.176 218.136C267.053 218.259 266.983 218.426 266.98 218.6C266.982 218.743 267.031 218.881 267.12 218.993C267.209 219.105 267.332 219.185 267.47 219.22V225.22C267.444 226.783 267.072 228.322 266.38 229.724C265.688 231.126 264.695 232.358 263.47 233.33C262.005 234.53 260.858 236.072 260.13 237.82C259.937 238.311 259.866 238.841 259.924 239.366C259.982 239.89 260.166 240.393 260.461 240.83C260.757 241.267 261.154 241.625 261.619 241.875C262.084 242.124 262.603 242.256 263.13 242.26H278.42C278.948 242.256 279.466 242.124 279.931 241.875C280.396 241.625 280.793 241.267 281.089 240.83C281.384 240.393 281.569 239.89 281.626 239.366C281.684 238.841 281.613 238.311 281.42 237.82C280.692 236.072 279.545 234.53 278.08 233.33C276.863 232.354 275.877 231.121 275.192 229.718C274.507 228.316 274.141 226.78 274.12 225.22Z" fill="#06BC67"/>
<path opacity="0.6" d="M230.56 234.24H223.3C221.543 234.24 220.12 235.664 220.12 237.42V239.05C220.12 240.806 221.543 242.23 223.3 242.23H230.56C232.316 242.23 233.74 240.806 233.74 239.05V237.42C233.74 235.664 232.316 234.24 230.56 234.24Z" fill="#06BC67"/>
<path opacity="0.8" d="M230.33 231.32H223.52C222.857 231.32 222.32 231.857 222.32 232.52V233.04C222.32 233.703 222.857 234.24 223.52 234.24H230.33C230.993 234.24 231.53 233.703 231.53 233.04V232.52C231.53 231.857 230.993 231.32 230.33 231.32Z" fill="#06BC67"/>
<path d="M227.1 232.08H226.77C226.632 232.08 226.52 232.192 226.52 232.33V233.24C226.52 233.378 226.632 233.49 226.77 233.49H227.1C227.238 233.49 227.35 233.378 227.35 233.24V232.33C227.35 232.192 227.238 232.08 227.1 232.08Z" fill="#06BC67"/>
<path d="M228.58 232.08H228.25C228.112 232.08 228 232.192 228 232.33V233.24C228 233.378 228.112 233.49 228.25 233.49H228.58C228.718 233.49 228.83 233.378 228.83 233.24V232.33C228.83 232.192 228.718 232.08 228.58 232.08Z" fill="#06BC67"/>
<path d="M230.06 232.08H229.73C229.592 232.08 229.48 232.192 229.48 232.33V233.24C229.48 233.378 229.592 233.49 229.73 233.49H230.06C230.198 233.49 230.31 233.378 230.31 233.24V232.33C230.31 232.192 230.198 232.08 230.06 232.08Z" fill="#06BC67"/>
<path d="M231.54 232.08H231.21C231.072 232.08 230.96 232.192 230.96 232.33V233.24C230.96 233.378 231.072 233.49 231.21 233.49H231.54C231.678 233.49 231.79 233.378 231.79 233.24V232.33C231.79 232.192 231.678 232.08 231.54 232.08Z" fill="#06BC67"/>
<path d="M225.62 232.08H225.29C225.152 232.08 225.04 232.192 225.04 232.33V233.24C225.04 233.378 225.152 233.49 225.29 233.49H225.62C225.758 233.49 225.87 233.378 225.87 233.24V232.33C225.87 232.192 225.758 232.08 225.62 232.08Z" fill="#06BC67"/>
<path d="M224.13 232.08H223.8C223.662 232.08 223.55 232.192 223.55 232.33V233.24C223.55 233.378 223.662 233.49 223.8 233.49H224.13C224.268 233.49 224.38 233.378 224.38 233.24V232.33C224.38 232.192 224.268 232.08 224.13 232.08Z" fill="#06BC67"/>
<path d="M222.65 232.08H222.32C222.182 232.08 222.07 232.192 222.07 232.33V233.24C222.07 233.378 222.182 233.49 222.32 233.49H222.65C222.788 233.49 222.9 233.378 222.9 233.24V232.33C222.9 232.192 222.788 232.08 222.65 232.08Z" fill="#06BC67"/>
<path opacity="0.6" d="M226.93 230.77C225.53 231.05 224.99 227.87 226.93 225.06C227.44 226.1 229.87 230.19 226.93 230.77Z" fill="#06BC67"/>
<path opacity="0.6" d="M227 230.65C226.19 230.81 225.88 228.98 227 227.36C227.26 228 228.66 230.32 227 230.65Z" fill="#06BC67"/>
<path d="M323.69 249.66H124.58V416.23H323.69V249.66Z" fill="#06BC67"/>
<path opacity="0.7" d="M323.69 249.66H124.58V416.23H323.69V249.66Z" fill="white"/>
<path opacity="0.2" d="M323.69 249.66H280.86V416.23H323.69V249.66Z" fill="#06BC67"/>
<path opacity="0.3" d="M270.24 404.88H135.24V261H270.24V404.88ZM136.24 403.88H269.24V262.06H136.25L136.24 403.88Z" fill="#06BC67"/>
<g opacity="0.3">
<path d="M173.279 385.3L172.479 384.5C180.169 376.82 181.319 364.03 182.479 351.67C183.569 339.61 184.59 328.22 191.32 321.49C199.32 313.49 212.32 312.35 224.85 311.22C236.7 310.15 247.85 309.15 254.32 302.71L255.119 303.51C248.399 310.24 237.009 311.26 224.949 312.35C212.589 313.46 199.799 314.61 192.119 322.29C185.679 328.73 184.669 339.92 183.609 351.77C182.429 364.33 181.259 377.33 173.279 385.3Z" fill="#06BC67"/>
<path d="M151.17 363.19L150.37 362.39C158.37 354.39 171.37 353.25 183.9 352.12C195.75 351.05 206.9 350.04 213.38 343.61C221.06 335.92 222.21 323.14 223.38 310.77C224.46 298.71 225.49 287.33 232.21 280.6L233.01 281.4C226.58 287.83 225.57 299.03 224.5 310.87C223.37 323.44 222.2 336.43 214.23 344.41C207.5 351.13 196.11 352.16 184.06 353.24C171.64 354.35 158.86 355.51 151.17 363.19Z" fill="#06BC67"/>
<path d="M196.355 325.77L195.556 326.569L209.111 340.124L209.91 339.325L196.355 325.77Z" fill="#06BC67"/>
<path d="M188.948 338.087L188.149 338.886L196.79 347.527L197.589 346.728L188.948 338.087Z" fill="#06BC67"/>
<path d="M237.237 284.875L236.438 285.674L249.994 299.23L250.793 298.431L237.237 284.875Z" fill="#06BC67"/>
<path d="M229.838 297.186L229.039 297.985L237.68 306.626L238.479 305.827L229.838 297.186Z" fill="#06BC67"/>
<path d="M208.658 318.383L207.859 319.182L216.5 327.823L217.299 327.024L208.658 318.383Z" fill="#06BC67"/>
<path d="M155.447 366.664L154.648 367.463L168.204 381.018L169.003 380.219L155.447 366.664Z" fill="#06BC67"/>
<path d="M167.768 359.27L166.969 360.069L175.61 368.71L176.409 367.911L167.768 359.27Z" fill="#06BC67"/>
</g>
<path d="M326.74 249.66H121.53C120.547 249.657 119.605 249.266 118.909 248.57C118.214 247.875 117.822 246.933 117.82 245.95V245.95C117.822 244.966 118.214 244.023 118.909 243.326C119.604 242.629 120.546 242.235 121.53 242.23H326.74C327.725 242.235 328.668 242.629 329.364 243.325C330.061 244.022 330.455 244.965 330.46 245.95V245.95C330.455 246.934 330.061 247.876 329.364 248.571C328.667 249.266 327.724 249.657 326.74 249.66V249.66Z" fill="#06BC67"/>
<path opacity="0.3" d="M326.74 249.66H277.79C276.806 249.657 275.863 249.266 275.166 248.571C274.469 247.876 274.075 246.934 274.07 245.95C274.075 244.965 274.469 244.022 275.165 243.325C275.862 242.629 276.805 242.235 277.79 242.23H326.74C327.725 242.235 328.668 242.629 329.364 243.325C330.061 244.022 330.455 244.965 330.46 245.95V245.95C330.455 246.934 330.061 247.876 329.364 248.571C328.667 249.266 327.724 249.657 326.74 249.66V249.66Z" fill="black"/>
</svg>
