<?xml version="1.0" standalone="no"?>
<!DOCTYPE svg PUBLIC "-//W3C//DTD SVG 20010904//EN"
 "http://www.w3.org/TR/2001/REC-SVG-20010904/DTD/svg10.dtd">
<svg version="1.0" xmlns="http://www.w3.org/2000/svg"
 width="2000.000000pt" height="1000.000000pt" viewBox="0 0 2000.000000 1000.000000"
 preserveAspectRatio="xMidYMid meet">

<g transform="translate(0.000000,1000.000000) scale(0.100000,-0.100000)"
fill="#000000" stroke="none">
<path d="M3674 8800 c-254 -51 -664 -297 -799 -481 -58 -79 -79 -135 -73 -202
6 -72 33 -124 124 -237 104 -130 146 -218 146 -307 1 -83 -23 -171 -58 -212
-31 -37 -204 -125 -286 -145 -32 -8 -113 -20 -180 -26 -238 -21 -325 -52 -503
-178 -95 -69 -269 -238 -313 -306 -69 -107 -95 -233 -80 -385 18 -191 141
-399 309 -526 l61 -45 1517 0 1516 0 64 37 c96 57 211 183 260 284 59 122 74
199 68 339 -4 89 -11 132 -32 192 -47 137 -146 266 -267 349 -64 44 -73 47
-63 22 35 -91 23 -198 -29 -265 -29 -39 -121 -107 -130 -97 -2 2 3 36 11 74
22 105 13 268 -21 370 -49 145 -142 277 -264 375 -35 27 -67 50 -71 50 -5 0
-11 -33 -14 -72 -20 -250 -169 -522 -376 -690 -74 -60 -256 -166 -266 -156 -3
2 17 35 42 74 26 38 116 177 201 309 252 395 320 556 295 702 -29 168 -143
293 -361 395 -81 38 -223 78 -398 111 -100 18 -184 59 -230 109 -62 69 -50
101 101 260 240 254 260 310 99 278z m222 -854 c100 -48 185 -130 231 -223 33
-67 38 -86 41 -167 8 -172 -50 -316 -179 -450 -42 -45 -81 -78 -85 -74 -4 5 0
16 8 25 9 10 28 43 43 73 137 272 97 567 -105 793 -28 31 -45 57 -38 57 7 0
45 -15 84 -34z m-825 -795 c-36 -51 -120 -119 -184 -151 -34 -16 -122 -45
-195 -65 -210 -55 -336 -114 -448 -211 -63 -53 -145 -173 -165 -238 -15 -53
-31 -62 -23 -13 35 207 149 376 309 459 39 20 124 53 190 73 205 63 363 116
448 150 45 18 84 32 86 30 2 -2 -6 -17 -18 -34z m1562 -433 c-82 -90 -142
-192 -200 -342 -67 -174 -104 -229 -193 -286 -78 -50 -160 -72 -273 -73 -112
-1 -148 14 -76 33 187 48 271 108 361 259 85 143 164 253 223 314 55 56 184
151 193 142 3 -3 -13 -24 -35 -47z"/>
<path d="M2155 5692 c-219 -76 -273 -348 -100 -500 88 -78 -25 -73 1540 -70
l1400 3 42 23 c55 29 107 82 134 135 30 58 37 159 15 225 -23 68 -91 143 -158
173 l-53 24 -1385 2 c-1295 2 -1388 1 -1435 -15z"/>
<path d="M1971 5024 l-21 -27 0 -1692 0 -1692 21 -27 20 -26 1588 0 1588 0 19
21 c19 21 19 63 19 1724 0 1661 0 1703 -19 1724 l-19 21 -1588 0 -1588 0 -20
-26z m1889 -1539 c0 -1291 0 -1305 -21 -1359 -28 -76 -96 -148 -176 -188 -124
-61 -269 -38 -375 61 -25 22 -58 64 -74 93 l-29 53 -3 1323 -2 1322 340 0 340
0 0 -1305z m767 1270 c107 -49 181 -146 204 -268 27 -148 -60 -306 -205 -373
-244 -112 -520 89 -492 359 15 143 128 270 273 307 57 14 161 2 220 -25z
m-2338 -9 c82 -55 170 -81 281 -81 111 0 199 26 281 81 28 19 53 34 55 34 2 0
4 -588 4 -1307 l0 -1308 -29 -62 c-37 -77 -96 -137 -170 -172 -47 -22 -70 -26
-141 -26 -71 0 -94 4 -141 26 -74 35 -133 95 -170 172 l-29 62 0 1308 c0 719
2 1307 4 1307 2 0 27 -15 55 -34z m2301 -742 c98 -29 180 -100 223 -192 22
-47 22 -48 25 -885 3 -913 6 -860 -55 -921 -39 -40 -136 -83 -215 -96 -136
-21 -292 24 -368 106 l-40 44 0 852 0 853 24 51 c73 157 244 236 406 188z"/>
<path d="M5624 4796 c-3 -8 -4 -183 -2 -388 4 -348 6 -378 27 -446 32 -109 67
-170 135 -237 103 -102 202 -138 376 -137 126 1 207 23 296 80 73 48 114 96
160 187 59 119 64 165 64 583 l0 372 -120 0 -120 0 0 -342 c0 -431 -10 -488
-99 -581 -45 -48 -79 -66 -142 -76 -107 -17 -200 19 -259 101 -60 83 -64 106
-70 518 l-5 375 -118 3 c-96 2 -118 0 -123 -12z"/>
<path d="M6920 4200 l0 -611 123 3 122 3 3 248 2 247 235 0 235 0 0 100 0 100
-235 0 -235 0 0 150 0 150 285 0 286 0 -3 108 -3 107 -407 3 -408 2 0 -610z"/>
<path d="M8216 4743 c-14 -38 -118 -309 -230 -603 -113 -294 -201 -539 -197
-543 4 -4 61 -6 127 -5 l119 3 54 148 54 147 206 -2 206 -3 54 -148 55 -148
125 3 c84 2 125 7 124 14 -1 6 -104 279 -229 607 l-227 597 -108 0 -107 0 -26
-67z m209 -445 c39 -110 71 -207 73 -214 3 -11 -26 -14 -153 -14 -122 0 -156
3 -152 13 2 6 37 103 78 214 41 112 76 203 79 203 3 0 37 -91 75 -202z"/>
<path d="M9050 4200 l0 -611 123 3 122 3 3 203 2 202 175 0 c194 0 235 9 316
68 148 109 203 338 121 504 -40 81 -89 138 -153 177 -88 55 -133 61 -436 61
l-273 0 0 -610z m577 364 c96 -70 96 -258 0 -328 -25 -19 -46 -21 -178 -24
l-149 -4 0 192 0 191 149 -3 c132 -3 153 -5 178 -24z"/>
<path d="M10110 4200 l0 -610 423 2 422 3 0 105 0 105 -297 3 -298 2 0 150 0
150 250 0 250 0 0 100 0 100 -250 0 -250 0 0 140 0 140 290 0 291 0 -3 108 -3
107 -412 3 -413 2 0 -610z"/>
<path d="M8956 3170 c-86 -22 -132 -86 -124 -172 7 -66 35 -94 118 -117 36
-11 93 -27 126 -36 78 -22 113 -50 120 -96 5 -28 1 -41 -21 -67 -62 -74 -197
-65 -317 20 -14 10 -21 9 -35 -5 -17 -18 -17 -20 16 -47 50 -43 112 -60 210
-60 147 1 211 48 211 157 0 90 -42 122 -219 163 -115 27 -146 50 -146 109 0
60 45 102 114 109 69 6 115 -4 152 -35 24 -21 35 -24 48 -16 31 19 24 41 -23
68 -51 30 -161 42 -230 25z"/>
<path d="M5622 2967 l3 -204 30 -58 c25 -50 39 -63 84 -87 92 -48 234 -36 299
25 62 58 82 147 82 369 l0 158 -29 0 -29 0 -5 -182 c-5 -208 -17 -259 -73
-307 -91 -80 -221 -54 -275 56 -22 45 -24 62 -27 241 l-4 192 -30 0 -29 0 3
-203z"/>
<path d="M6280 2880 l0 -290 30 0 30 0 2 232 3 232 184 -232 c163 -205 187
-232 213 -232 l28 0 0 290 0 290 -30 0 -30 0 0 -236 0 -237 -187 236 c-162
204 -192 236 -215 236 l-28 1 0 -290z"/>
<path d="M6950 2880 l0 -290 30 0 30 0 0 290 0 290 -30 0 -30 0 0 -290z"/>
<path d="M7148 3083 c20 -49 75 -179 122 -290 84 -200 85 -203 116 -203 l30 0
121 288 122 287 -31 3 c-17 2 -34 -2 -39 -9 -4 -7 -51 -118 -105 -247 -76
-182 -100 -231 -106 -216 -5 10 -51 120 -102 244 l-94 225 -36 3 -35 3 37 -88z"/>
<path d="M7760 2880 l0 -290 200 0 200 0 0 25 0 25 -170 0 -170 0 0 115 0 115
145 0 c138 0 145 1 145 20 0 19 -7 20 -145 20 l-145 0 0 110 0 110 165 0 c158
0 165 1 165 20 0 19 -7 20 -195 20 l-195 0 0 -290z"/>
<path d="M8300 2880 l0 -290 30 0 30 0 0 110 0 110 80 0 81 0 71 -110 c67
-104 73 -110 105 -110 18 0 33 3 33 7 0 3 -27 48 -60 99 -33 51 -62 98 -65
106 -3 8 7 18 25 26 17 8 43 30 58 50 24 31 27 44 27 112 0 68 -3 80 -28 113
-46 61 -67 67 -237 67 l-150 0 0 -290z m305 220 c73 -68 73 -152 0 -220 -24
-23 -36 -25 -136 -28 l-109 -4 0 142 0 142 109 -4 c101 -3 112 -5 136 -28z"/>
<path d="M9390 2880 l0 -290 30 0 30 0 0 290 0 290 -30 0 -30 0 0 -290z"/>
<path d="M9620 2880 l0 -290 123 0 c160 0 215 16 279 79 60 60 82 131 76 240
-7 121 -55 198 -148 240 -38 18 -66 21 -187 21 l-143 0 0 -290z m257 238 c180
-45 219 -335 60 -445 -37 -26 -49 -28 -149 -31 l-108 -4 0 246 0 246 76 0 c41
0 96 -5 121 -12z"/>
<path d="M10285 2889 c-66 -155 -121 -285 -123 -290 -2 -5 12 -9 31 -9 34 0
35 1 74 93 l39 92 128 0 129 0 40 -92 c39 -91 40 -93 73 -93 l34 0 -13 33
c-231 551 -229 547 -262 547 l-31 0 -119 -281z m208 62 c26 -62 47 -117 47
-122 0 -5 -49 -9 -110 -9 l-109 0 45 108 c25 59 50 118 55 131 6 14 13 20 18
15 4 -5 29 -60 54 -123z"/>
<path d="M10820 2880 l0 -290 123 0 c160 0 215 16 279 79 60 60 82 131 76 240
-7 121 -55 198 -148 240 -38 18 -66 21 -187 21 l-143 0 0 -290z m257 238 c180
-45 219 -335 60 -445 -37 -26 -49 -28 -149 -31 l-108 -4 0 246 0 246 76 0 c41
0 96 -5 121 -12z"/>
<path d="M11430 2880 l0 -290 200 0 200 0 0 25 0 25 -170 0 -170 0 0 115 0
115 145 0 c138 0 145 1 145 20 0 19 -7 20 -145 20 l-145 0 0 110 0 110 165 0
c158 0 165 1 165 20 0 19 -7 20 -195 20 l-195 0 0 -290z"/>
<path d="M12210 2880 l0 -290 30 0 30 0 0 140 0 140 140 0 c133 0 140 1 140
20 0 19 -7 20 -140 20 l-140 0 0 110 0 110 165 0 c158 0 165 1 165 20 0 19 -7
20 -195 20 l-195 0 0 -290z"/>
<path d="M12730 2880 l0 -290 200 0 200 0 0 25 0 25 -170 0 -170 0 0 115 0
115 145 0 c138 0 145 1 145 20 0 19 -7 20 -145 20 l-145 0 0 110 0 110 165 0
c158 0 165 1 165 20 0 19 -7 20 -195 20 l-195 0 0 -290z"/>
<path d="M13270 2880 l0 -290 123 0 c160 0 215 16 279 79 60 60 82 131 76 240
-7 121 -55 198 -148 240 -38 18 -66 21 -187 21 l-143 0 0 -290z m257 238 c180
-45 219 -335 60 -445 -37 -26 -49 -28 -149 -31 l-108 -4 0 246 0 246 76 0 c41
0 96 -5 121 -12z"/>
<path d="M13880 2880 l0 -290 200 0 200 0 0 25 0 25 -170 0 -170 0 0 115 0
115 145 0 c138 0 145 1 145 20 0 19 -7 20 -145 20 l-145 0 0 110 0 110 165 0
c158 0 165 1 165 20 0 19 -7 20 -195 20 l-195 0 0 -290z"/>
<path d="M14410 2880 l0 -290 30 0 30 0 0 110 0 110 80 0 81 0 71 -110 c67
-104 73 -110 105 -110 18 0 33 3 33 7 0 3 -27 48 -60 99 -33 51 -62 98 -65
106 -3 8 7 18 25 26 17 8 43 30 58 50 24 31 27 44 27 112 0 68 -3 80 -28 113
-46 61 -67 67 -237 67 l-150 0 0 -290z m305 220 c73 -68 73 -152 0 -220 -24
-23 -36 -25 -136 -28 l-109 -4 0 142 0 142 109 -4 c101 -3 112 -5 136 -28z"/>
<path d="M15035 2889 c-66 -155 -121 -285 -123 -290 -2 -5 12 -9 31 -9 34 0
35 1 74 93 l39 92 128 0 129 0 40 -92 c39 -91 40 -93 73 -93 l34 0 -13 33
c-231 551 -229 547 -262 547 l-31 0 -119 -281z m208 62 c26 -62 47 -117 47
-122 0 -5 -49 -9 -110 -9 l-109 0 45 108 c25 59 50 118 55 131 6 14 13 20 18
15 4 -5 29 -60 54 -123z"/>
<path d="M15560 2880 l0 -290 200 0 200 0 0 25 0 25 -170 0 -170 0 0 265 0
265 -30 0 -30 0 0 -290z"/>
<path d="M6397 2306 c-81 -30 -154 -108 -177 -191 -18 -63 -9 -179 18 -231 54
-105 132 -154 247 -154 167 0 279 122 278 301 0 111 -61 212 -157 261 -52 27
-157 34 -209 14z m196 -72 c96 -68 134 -203 87 -312 -27 -63 -94 -127 -149
-142 -55 -15 -119 3 -171 47 -54 46 -82 103 -88 180 -4 56 -1 70 27 127 30 61
72 104 123 126 43 18 125 6 171 -26z"/>
<path d="M7877 2306 c-59 -22 -105 -57 -136 -106 -42 -65 -54 -112 -49 -193 6
-117 67 -215 162 -258 77 -35 242 -17 270 30 13 21 26 11 26 -19 0 -27 3 -30
30 -30 l30 0 0 145 0 145 -95 0 c-88 0 -95 -1 -95 -20 0 -18 7 -20 65 -20 l65
0 0 -53 c0 -47 -4 -57 -32 -84 -73 -69 -157 -85 -234 -45 -107 55 -160 190
-120 308 56 169 237 218 347 93 32 -36 39 -40 58 -30 30 17 26 36 -18 80 -64
64 -184 89 -274 57z"/>
<path d="M9536 2310 c-86 -22 -132 -86 -124 -172 7 -66 35 -94 118 -117 36
-11 93 -27 126 -36 78 -22 113 -50 120 -96 5 -28 1 -41 -21 -67 -62 -74 -197
-65 -317 20 -14 10 -21 9 -35 -5 -17 -18 -17 -20 16 -47 50 -43 112 -60 210
-60 147 1 211 48 211 157 0 90 -42 122 -219 163 -115 27 -146 50 -146 109 0
60 45 102 114 109 69 6 115 -4 152 -35 24 -21 35 -24 48 -16 31 19 24 41 -23
68 -51 30 -161 42 -230 25z"/>
<path d="M17695 2311 c-73 -18 -139 -72 -178 -145 -18 -34 -22 -58 -22 -136 0
-80 4 -103 24 -144 52 -106 131 -155 252 -156 89 0 163 31 205 86 47 61 -3 92
-53 34 -29 -36 -83 -65 -135 -75 -49 -9 -129 26 -173 78 -108 126 -73 328 68
396 81 39 166 21 228 -50 32 -36 39 -40 58 -30 30 17 26 33 -18 79 -59 61
-162 86 -256 63z"/>
<path d="M18277 2306 c-81 -30 -154 -108 -177 -191 -18 -63 -9 -179 18 -231
54 -105 132 -154 247 -154 167 0 279 122 278 301 0 111 -61 212 -157 261 -52
27 -157 34 -209 14z m196 -72 c96 -68 134 -203 87 -312 -27 -63 -94 -127 -149
-142 -55 -15 -119 3 -171 47 -54 46 -82 103 -88 180 -4 56 -1 70 27 127 30 61
72 104 123 126 43 18 125 6 171 -26z"/>
<path d="M5630 2020 l0 -290 123 0 c160 0 215 16 279 79 60 60 82 131 76 240
-7 121 -55 198 -148 240 -38 18 -66 21 -187 21 l-143 0 0 -290z m257 238 c180
-45 219 -335 60 -445 -37 -26 -49 -28 -149 -31 l-108 -4 0 246 0 246 76 0 c41
0 96 -5 121 -12z"/>
<path d="M7195 2029 c-66 -155 -121 -285 -123 -290 -2 -5 12 -9 31 -9 34 0 35
1 74 93 l39 92 128 0 129 0 40 -92 c39 -91 40 -93 73 -93 l34 0 -13 33 c-231
551 -229 547 -262 547 l-31 0 -119 -281z m208 62 c26 -62 47 -117 47 -122 0
-5 -49 -9 -110 -9 l-109 0 45 108 c25 59 50 118 55 131 6 14 13 20 18 15 4 -5
29 -60 54 -123z"/>
<path d="M8340 2020 l0 -290 30 0 30 0 0 110 0 110 80 0 81 0 71 -110 c67
-104 73 -110 105 -110 18 0 33 3 33 7 0 3 -27 48 -60 99 -33 51 -62 98 -65
106 -3 8 7 18 25 26 17 8 43 30 58 50 24 31 27 44 27 112 0 68 -3 80 -28 113
-46 61 -67 67 -237 67 l-150 0 0 -290z m305 220 c73 -68 73 -152 0 -220 -24
-23 -36 -25 -136 -28 l-109 -4 0 142 0 142 109 -4 c101 -3 112 -5 136 -28z"/>
<path d="M8910 2020 l0 -290 200 0 200 0 0 25 0 25 -170 0 -170 0 0 115 0 115
145 0 c138 0 145 1 145 20 0 19 -7 20 -145 20 l-145 0 0 110 0 110 165 0 c158
0 165 1 165 20 0 19 -7 20 -195 20 l-195 0 0 -290z"/>
<path d="M9910 2290 c0 -18 8 -20 103 -22 l102 -3 3 -267 2 -268 30 0 30 0 0
270 0 270 105 0 c98 0 105 1 105 20 0 19 -7 20 -240 20 -232 0 -240 -1 -240
-20z"/>
<path d="M10500 2020 l0 -290 200 0 200 0 0 25 0 25 -170 0 -170 0 0 115 0
115 145 0 c138 0 145 1 145 20 0 19 -7 20 -145 20 l-145 0 0 110 0 110 165 0
c158 0 165 1 165 20 0 19 -7 20 -195 20 l-195 0 0 -290z"/>
<path d="M11280 2020 l0 -290 123 0 c160 0 215 16 279 79 60 60 82 131 76 240
-7 121 -55 198 -148 240 -38 18 -66 21 -187 21 l-143 0 0 -290z m257 238 c180
-45 219 -335 60 -445 -37 -26 -49 -28 -149 -31 l-108 -4 0 246 0 246 76 0 c41
0 96 -5 121 -12z"/>
<path d="M11890 2020 l0 -290 200 0 200 0 0 25 0 25 -170 0 -170 0 0 115 0
115 145 0 c138 0 145 1 145 20 0 19 -7 20 -145 20 l-145 0 0 110 0 110 165 0
c158 0 165 1 165 20 0 19 -7 20 -195 20 l-195 0 0 -290z"/>
<path d="M12670 2020 l0 -290 30 0 30 0 0 110 0 110 124 0 c111 0 126 2 157
23 44 29 79 98 79 156 0 59 -33 126 -78 156 -35 24 -44 25 -189 25 l-153 0 0
-290z m291 227 c93 -62 87 -189 -12 -239 -25 -13 -58 -18 -126 -18 l-93 0 0
140 0 140 99 0 c85 0 102 -3 132 -23z"/>
<path d="M13210 2020 l0 -290 200 0 200 0 0 25 0 25 -170 0 -170 0 0 115 0
115 145 0 c138 0 145 1 145 20 0 19 -7 20 -145 20 l-145 0 0 110 0 110 165 0
c158 0 165 1 165 20 0 19 -7 20 -195 20 l-195 0 0 -290z"/>
<path d="M13750 2020 l0 -290 30 0 30 0 0 110 0 110 80 0 81 0 71 -110 c67
-104 73 -110 105 -110 18 0 33 3 33 7 0 3 -27 48 -60 99 -33 51 -62 98 -65
106 -3 8 7 18 25 26 17 8 43 30 58 50 24 31 27 44 27 112 0 68 -3 80 -28 113
-46 61 -67 67 -237 67 l-150 0 0 -290z m305 220 c73 -68 73 -152 0 -220 -24
-23 -36 -25 -136 -28 l-109 -4 0 142 0 142 109 -4 c101 -3 112 -5 136 -28z"/>
<path d="M14310 2020 l0 -290 30 0 30 0 2 232 3 232 184 -232 c163 -205 187
-232 213 -232 l28 0 0 290 0 290 -30 0 -30 0 0 -236 0 -237 -187 236 c-162
204 -192 236 -215 236 l-28 1 0 -290z"/>
<path d="M15025 2029 c-66 -155 -121 -285 -123 -290 -2 -5 12 -9 31 -9 34 0
35 1 74 93 l39 92 128 0 129 0 40 -92 c39 -91 40 -93 73 -93 l34 0 -13 33
c-231 551 -229 547 -262 547 l-31 0 -119 -281z m208 62 c26 -62 47 -117 47
-122 0 -5 -49 -9 -110 -9 l-109 0 45 108 c25 59 50 118 55 131 6 14 13 20 18
15 4 -5 29 -60 54 -123z"/>
<path d="M15560 2021 l0 -291 30 0 30 0 2 225 3 225 100 -170 c90 -154 102
-171 125 -168 20 2 41 31 120 165 52 89 98 165 103 169 4 4 7 -95 7 -219 l0
-227 30 0 30 0 0 290 0 290 -33 0 c-32 0 -35 -4 -143 -190 -60 -104 -113 -188
-117 -187 -4 1 -56 85 -115 187 -102 174 -110 185 -140 188 l-32 3 0 -290z"/>
<path d="M16310 2020 l0 -290 158 0 c144 0 162 2 202 23 51 26 80 73 80 130 0
49 -25 103 -60 129 l-27 20 23 23 c45 45 53 134 16 196 -30 52 -56 59 -231 59
l-161 0 0 -290z m309 224 c40 -34 53 -78 34 -124 -24 -62 -44 -70 -170 -70
l-113 0 0 110 0 110 109 0 c103 0 111 -2 140 -26z m24 -264 c36 -29 52 -81 37
-125 -21 -65 -46 -75 -186 -75 l-124 0 0 110 0 110 124 0 c108 0 126 -2 149
-20z"/>
<path d="M16872 2107 l3 -204 30 -58 c25 -50 39 -63 84 -87 92 -48 234 -36
299 25 62 58 82 147 82 369 l0 158 -29 0 -29 0 -5 -182 c-5 -208 -17 -259 -73
-307 -91 -80 -221 -54 -275 56 -22 45 -24 62 -27 241 l-4 192 -30 0 -29 0 3
-203z"/>
</g>
</svg>
