<svg width="1786" height="1566" viewBox="0 0 1786 1566" fill="none" xmlns="http://www.w3.org/2000/svg">
<path fill-rule="evenodd" clip-rule="evenodd" d="M219.351 717.004C256.538 717.004 286.682 746.55 286.682 783C286.682 819.45 256.538 848.996 219.351 848.996C182.164 848.996 152.021 819.45 152.021 783C152.021 746.55 182.164 717.004 219.351 717.004Z" fill="#49E087"/>
<path fill-rule="evenodd" clip-rule="evenodd" d="M219.35 625.392C239.362 625.392 255.584 641.291 255.584 660.905C255.584 680.52 239.362 696.419 219.35 696.419C199.34 696.419 183.118 680.52 183.118 660.905C183.118 641.291 199.34 625.392 219.35 625.392V625.392Z" fill="#49E087"/>
<path fill-rule="evenodd" clip-rule="evenodd" d="M219.349 568C229.72 568 238.127 576.239 238.127 586.404C238.127 596.57 229.72 604.81 219.349 604.81C208.978 604.81 200.572 596.57 200.572 586.404C200.572 576.239 208.978 568 219.349 568Z" fill="#49E087"/>
<path fill-rule="evenodd" clip-rule="evenodd" d="M58.5518 783C58.5518 763.386 74.7734 747.487 94.7841 747.487C114.796 747.487 131.017 763.386 131.017 783C131.017 802.614 114.796 818.514 94.7841 818.514C74.7734 818.514 58.5518 802.614 58.5518 783V783Z" fill="#49E087"/>
<path fill-rule="evenodd" clip-rule="evenodd" d="M0 783C0 772.834 8.40647 764.595 18.7769 764.595C29.1481 764.595 37.5546 772.834 37.5546 783C37.5546 793.165 29.1481 801.405 18.7769 801.405C8.40647 801.405 0 793.165 0 783Z" fill="#49E087"/>
<path fill-rule="evenodd" clip-rule="evenodd" d="M380.147 783C380.147 763.386 363.926 747.487 343.915 747.487C323.904 747.487 307.683 763.386 307.683 783C307.683 802.614 323.904 818.514 343.915 818.514C363.926 818.514 380.147 802.614 380.147 783Z" fill="#49E087"/>
<path fill-rule="evenodd" clip-rule="evenodd" d="M438.702 783C438.702 772.834 430.295 764.595 419.924 764.595C409.553 764.595 401.146 772.834 401.146 783C401.146 793.165 409.553 801.405 419.924 801.405C430.295 801.405 438.702 793.165 438.702 783Z" fill="#49E087"/>
<path fill-rule="evenodd" clip-rule="evenodd" d="M219.35 940.608C199.34 940.608 183.118 924.708 183.118 905.094C183.118 885.48 199.34 869.581 219.35 869.581C239.362 869.581 255.584 885.48 255.584 905.094C255.584 924.708 239.362 940.608 219.35 940.608Z" fill="#49E087"/>
<path fill-rule="evenodd" clip-rule="evenodd" d="M219.349 998C208.978 998 200.572 989.761 200.572 979.595C200.572 969.43 208.978 961.19 219.349 961.19C229.72 961.19 238.127 969.43 238.127 979.595C238.127 989.761 229.72 998 219.349 998Z" fill="#49E087"/>
<path fill-rule="evenodd" clip-rule="evenodd" d="M105.65 671.554C119.8 657.685 142.74 657.685 156.89 671.554C171.04 685.424 171.04 707.909 156.89 721.778C142.74 735.648 119.8 735.648 105.65 721.778C91.4995 707.909 91.4995 685.424 105.65 671.554V671.554Z" fill="#49E087"/>
<path fill-rule="evenodd" clip-rule="evenodd" d="M64.2462 630.972C71.5798 623.784 83.4682 623.784 90.8009 630.972C98.1345 638.161 98.1345 649.813 90.8009 657.001C83.4674 664.189 71.579 664.189 64.2462 657.001C56.9127 649.812 56.9127 638.16 64.2462 630.972Z" fill="#49E087"/>
<path fill-rule="evenodd" clip-rule="evenodd" d="M105.65 894.446C91.4995 880.576 91.4995 858.091 105.65 844.222C119.8 830.352 142.74 830.352 156.89 844.222C171.04 858.091 171.04 880.576 156.89 894.446C142.74 908.315 119.8 908.315 105.65 894.446V894.446Z" fill="#49E087"/>
<path fill-rule="evenodd" clip-rule="evenodd" d="M64.2462 935.028C56.9127 927.84 56.9127 916.187 64.2462 909C71.5798 901.812 83.4682 901.812 90.8009 909C98.1345 916.188 98.1345 927.84 90.8009 935.028C83.4674 942.216 71.579 942.216 64.2462 935.028Z" fill="#49E087"/>
<path fill-rule="evenodd" clip-rule="evenodd" d="M333.05 671.554C318.9 657.685 295.959 657.685 281.81 671.554C267.66 685.424 267.66 707.909 281.81 721.778C295.959 735.648 318.9 735.648 333.05 721.778C347.2 707.909 347.2 685.424 333.05 671.554Z" fill="#49E087"/>
<path fill-rule="evenodd" clip-rule="evenodd" d="M374.455 630.972C367.122 623.784 355.232 623.784 347.9 630.972C340.566 638.161 340.566 649.813 347.9 657C355.233 664.189 367.122 664.189 374.455 657C381.788 649.812 381.788 638.16 374.455 630.972Z" fill="#49E087"/>
<path fill-rule="evenodd" clip-rule="evenodd" d="M333.05 894.446C318.9 908.315 295.959 908.315 281.81 894.446C267.66 880.576 267.66 858.091 281.81 844.222C295.959 830.352 318.9 830.352 333.05 844.222C347.2 858.091 347.2 880.576 333.05 894.446Z" fill="#49E087"/>
<path fill-rule="evenodd" clip-rule="evenodd" d="M374.455 935.028C367.122 942.216 355.232 942.216 347.9 935.028C340.566 927.84 340.566 916.187 347.9 909C355.233 901.812 367.122 901.812 374.455 909C381.788 916.188 381.788 927.841 374.455 935.028Z" fill="#49E087"/>
<path d="M541.747 778.182C541.747 763.338 544.072 750.351 548.724 739.219C553.375 728.087 559.486 718.81 567.058 711.388C574.63 703.967 583.338 698.347 593.18 694.531C603.023 690.714 613.136 688.806 623.521 688.806C647.75 688.806 666.895 696.069 680.957 710.594C695.018 725.118 702.049 746.482 702.049 774.683C702.049 777.439 701.941 780.461 701.724 783.747C701.508 787.035 701.291 789.95 701.075 792.494H591.396C592.477 802.248 597.128 809.987 605.349 815.713C613.569 821.438 624.602 824.301 638.447 824.301C647.317 824.301 656.025 823.504 664.569 821.915C673.115 820.325 680.092 818.363 685.499 816.031L691.99 854.516C689.394 855.789 685.932 857.061 681.605 858.334C677.278 859.606 672.465 860.719 667.165 861.673C661.865 862.628 656.186 863.422 650.13 864.058C644.072 864.694 638.015 865.013 631.958 865.013C616.598 865.013 603.24 862.786 591.882 858.334C580.525 853.881 571.114 847.784 563.65 840.044C556.187 832.305 550.67 823.134 547.101 812.532C543.532 801.93 541.747 790.48 541.747 778.182V778.182ZM655.321 760.052C655.104 756.023 654.401 752.1 653.212 748.284C652.022 744.467 650.183 741.074 647.695 738.106C645.208 735.137 642.072 732.698 638.285 730.789C634.499 728.881 629.794 727.927 624.169 727.927C618.762 727.927 614.11 728.829 610.217 730.63C606.323 732.433 603.078 734.818 600.482 737.787C597.886 740.756 595.885 744.201 594.479 748.124C593.072 752.047 592.045 756.022 591.396 760.051H655.322L655.321 760.052ZM739.366 698.984C747.586 696.652 758.186 694.479 771.166 692.464C784.146 690.45 797.775 689.443 812.052 689.443C826.546 689.443 838.607 691.297 848.234 695.008C857.86 698.719 865.486 703.967 871.11 710.753C876.735 717.538 880.737 725.596 883.117 734.925C885.496 744.256 886.687 754.645 886.687 766.095V860.559H838.336V771.82C838.336 756.553 836.281 745.74 832.171 739.378C828.06 733.017 820.381 729.836 809.132 729.836C805.67 729.836 801.993 729.995 798.099 730.313C794.205 730.631 790.743 731.003 787.715 731.426V860.559H739.365V698.984H739.366ZM1058.67 725.065C1054.78 729.306 1049.53 735.032 1042.88 742.241C1036.28 749.45 1029.19 757.402 1021.62 766.095C1014 774.789 1006.37 783.907 998.692 793.449C990.959 802.991 983.982 812.215 977.708 821.12H1060.29V860.56H919.136V832.571C923.679 824.938 929.142 816.721 935.523 807.921C941.905 799.121 948.611 790.268 955.642 781.363C962.673 772.457 969.649 763.817 976.572 755.441C983.495 747.066 989.877 739.485 995.718 732.7H923.03V693.26H1058.67V725.066V725.065ZM1141.09 860.559H1092.74V693.259H1141.09V860.559ZM1145.63 644.914C1145.63 653.607 1142.77 660.446 1137.04 665.429C1131.3 670.412 1124.54 672.903 1116.75 672.903C1108.97 672.903 1102.21 670.412 1096.47 665.429C1090.74 660.446 1087.87 653.607 1087.87 644.914C1087.87 636.22 1090.74 629.382 1096.47 624.399C1102.21 619.416 1108.97 616.925 1116.75 616.925C1124.54 616.925 1131.3 619.416 1137.04 624.399C1142.77 629.382 1145.63 636.22 1145.63 644.914ZM1218 695.167H1281.92V719.977H1218V796.311C1218 804.581 1218.65 811.42 1219.94 816.826C1221.24 822.233 1223.19 826.474 1225.79 829.549C1228.38 832.623 1231.63 834.797 1235.52 836.07C1239.41 837.342 1243.96 837.977 1249.15 837.977C1258.23 837.977 1265.54 836.97 1271.05 834.956C1276.57 832.942 1280.41 831.51 1282.57 830.662L1288.41 855.152C1285.38 856.636 1280.08 858.492 1272.51 860.719C1264.94 862.945 1256.29 864.058 1246.55 864.058C1235.09 864.058 1225.62 862.627 1218.16 859.764C1210.7 856.901 1204.69 852.607 1200.15 846.882C1195.61 841.157 1192.42 834.106 1190.58 825.731C1188.74 817.355 1187.82 807.655 1187.82 796.629V649.048L1218 643.959V695.167H1218ZM1307.56 778.182C1307.56 763.551 1309.72 750.775 1314.05 739.855C1318.38 728.935 1324.11 719.871 1331.25 712.66C1338.39 705.451 1346.61 700.044 1355.91 696.44C1365.21 692.835 1374.73 691.033 1384.46 691.033C1407.18 691.033 1424.59 697.978 1436.71 711.866C1448.82 725.755 1454.88 746.906 1454.88 775.319C1454.88 776.591 1454.88 778.234 1454.88 780.249C1454.88 782.263 1454.77 784.118 1454.56 785.815H1339.04C1340.33 802.99 1345.42 816.031 1354.29 824.937C1363.16 833.842 1377 838.295 1395.82 838.295C1406.42 838.295 1415.35 837.393 1422.59 835.591C1429.84 833.789 1435.3 832.04 1438.98 830.343L1443.2 855.152C1439.52 857.061 1433.09 859.076 1423.89 861.196C1414.7 863.316 1404.26 864.377 1392.58 864.377C1377.87 864.377 1365.16 862.203 1354.45 857.856C1343.74 853.509 1334.93 847.519 1328 839.885C1321.08 832.252 1315.94 823.188 1312.59 812.691C1309.24 802.195 1307.56 790.691 1307.56 778.182H1307.56ZM1423.4 761.961C1423.62 748.602 1420.21 737.629 1413.18 729.041C1406.15 720.453 1396.47 716.159 1384.14 716.159C1377.22 716.159 1371.11 717.485 1365.81 720.136C1360.51 722.786 1356.02 726.232 1352.34 730.473C1348.66 734.713 1345.79 739.59 1343.74 745.103C1341.68 750.616 1340.33 756.235 1339.68 761.96H1423.4L1423.4 761.961ZM1571.7 864.377C1558.07 864.377 1546.12 862.256 1535.84 858.015C1525.57 853.774 1516.91 847.837 1509.88 840.204C1502.85 832.571 1497.61 823.505 1494.14 813.009C1490.68 802.513 1488.95 790.905 1488.95 778.182C1488.95 765.459 1490.85 753.797 1494.63 743.195C1498.42 732.593 1503.77 723.422 1510.69 715.682C1517.62 707.943 1526.11 701.9 1536.17 697.553C1546.23 693.206 1557.42 691.032 1569.75 691.032C1577.32 691.032 1584.9 691.668 1592.47 692.941C1600.04 694.213 1607.29 696.227 1614.21 698.983L1607.39 724.11C1602.85 721.99 1597.6 720.293 1591.66 719.021C1585.71 717.748 1579.38 717.113 1572.67 717.113C1555.8 717.113 1542.87 722.308 1533.89 732.698C1524.92 743.088 1520.43 758.249 1520.43 778.182C1520.43 787.087 1521.46 795.25 1523.51 802.673C1525.56 810.094 1528.81 816.455 1533.25 821.757C1537.68 827.058 1543.36 831.14 1550.28 834.002C1557.2 836.865 1565.64 838.296 1575.59 838.296C1583.6 838.296 1590.84 837.554 1597.33 836.07C1603.82 834.586 1608.91 832.996 1612.59 831.299L1616.8 856.108C1615.07 857.169 1612.59 858.176 1609.34 859.13C1606.09 860.085 1602.42 860.932 1598.31 861.675C1594.2 862.417 1589.82 863.053 1585.16 863.582C1580.51 864.113 1576.02 864.378 1571.7 864.378L1571.7 864.377ZM1649.25 860.559V618.832L1679.43 613.744V698.348C1685.06 696.228 1691.06 694.584 1697.44 693.418C1703.82 692.252 1710.15 691.669 1716.43 691.669C1729.84 691.669 1740.98 693.524 1749.85 697.236C1758.72 700.946 1765.8 706.141 1771.1 712.82C1776.4 719.5 1780.13 727.505 1782.3 736.834C1784.46 746.164 1785.54 756.448 1785.54 767.686V860.559H1755.36V774.046C1755.36 763.868 1754.66 755.174 1753.26 747.965C1751.85 740.756 1749.52 734.924 1746.28 730.473C1743.03 726.02 1738.71 722.786 1733.3 720.771C1727.89 718.757 1721.18 717.749 1713.18 717.749C1709.93 717.749 1706.58 717.962 1703.12 718.386C1699.66 718.81 1696.36 719.287 1693.22 719.817C1690.09 720.348 1687.27 720.931 1684.79 721.566C1682.3 722.203 1680.51 722.733 1679.43 723.156V860.559H1649.25V860.559Z" fill="#49E087"/>
<path d="M574.283 941.347C573.601 939.578 572.959 937.839 572.358 936.129C571.756 934.419 571.135 932.68 570.493 930.911H551.604L547.814 941.347H541.738C543.342 937.023 544.846 933.024 546.249 929.348C547.654 925.672 549.026 922.183 550.371 918.882C551.714 915.58 553.048 912.425 554.372 909.418C555.695 906.411 557.078 903.433 558.522 900.485H563.876C565.32 903.433 566.703 906.411 568.027 909.418C569.351 912.425 570.684 915.58 572.028 918.882C573.372 922.184 574.745 925.673 576.149 929.348C577.553 933.024 579.057 937.023 580.661 941.347H574.284H574.283ZM568.809 926.193C567.525 922.773 566.252 919.461 564.989 916.258C563.725 913.054 562.412 909.978 561.048 907.03C559.644 909.978 558.311 913.054 557.047 916.258C555.784 919.461 554.531 922.773 553.287 926.193H568.808H568.809ZM607.669 926.075C607.669 922.498 606.767 919.746 604.963 917.82C603.158 915.895 600.752 914.931 597.743 914.931C596.06 914.931 594.746 914.99 593.803 915.108C592.86 915.226 592.109 915.364 591.548 915.521V934.861C592.229 935.411 593.211 935.942 594.495 936.453C595.779 936.964 597.182 937.219 598.707 937.219C600.31 937.219 601.684 936.934 602.828 936.364C603.971 935.794 604.903 935.008 605.625 934.005C606.347 933.003 606.869 931.824 607.189 930.467C607.509 929.111 607.669 927.648 607.669 926.075V926.075ZM613.505 926.075C613.505 928.394 613.194 930.537 612.572 932.502C611.951 934.468 611.039 936.159 609.836 937.574C608.632 938.989 607.159 940.089 605.413 940.875C603.669 941.662 601.674 942.055 599.428 942.055C597.623 942.055 596.029 941.819 594.645 941.347C593.261 940.875 592.229 940.423 591.548 939.991V952.255H585.953V911.629C587.277 911.315 588.931 910.971 590.916 910.597C592.901 910.223 595.197 910.037 597.804 910.037C600.21 910.037 602.375 910.41 604.301 911.157C606.225 911.905 607.87 912.965 609.234 914.341C610.597 915.718 611.649 917.398 612.392 919.382C613.134 921.368 613.505 923.599 613.505 926.075V926.075ZM630.77 941.937C627.321 941.858 624.875 941.131 623.431 939.756C621.986 938.379 621.265 936.237 621.265 933.328V896.535L626.86 895.591V932.443C626.86 933.348 626.939 934.095 627.1 934.684C627.26 935.274 627.521 935.746 627.882 936.099C628.243 936.453 628.725 936.719 629.326 936.896C629.928 937.073 630.671 937.22 631.552 937.338L630.77 941.937V941.937ZM643.403 941.347H637.808V910.686H643.403V941.347ZM640.576 905.143C639.573 905.143 638.721 904.818 638.019 904.17C637.317 903.521 636.966 902.647 636.966 901.546C636.966 900.445 637.317 899.571 638.019 898.922C638.721 898.274 639.573 897.949 640.576 897.949C641.578 897.949 642.43 898.274 643.132 898.922C643.834 899.571 644.185 900.445 644.185 901.546C644.185 902.647 643.834 903.521 643.132 904.17C642.43 904.818 641.578 905.143 640.576 905.143ZM666.624 942.054C664.097 942.054 661.882 941.661 659.976 940.874C658.072 940.088 656.467 938.988 655.164 937.573C653.86 936.157 652.888 934.477 652.246 932.531C651.604 930.585 651.283 928.433 651.283 926.075C651.283 923.716 651.634 921.554 652.337 919.589C653.038 917.623 654.031 915.923 655.314 914.488C656.598 913.053 658.172 911.933 660.036 911.127C661.9 910.321 663.977 909.918 666.262 909.918C667.666 909.918 669.07 910.036 670.474 910.272C671.878 910.508 673.221 910.882 674.505 911.393L673.241 916.051C672.398 915.657 671.426 915.343 670.323 915.106C669.22 914.871 668.047 914.753 666.804 914.753C663.676 914.753 661.28 915.716 659.615 917.642C657.951 919.568 657.119 922.378 657.119 926.074C657.119 927.724 657.309 929.238 657.69 930.614C658.072 931.99 658.673 933.169 659.495 934.152C660.317 935.134 661.369 935.891 662.653 936.422C663.937 936.953 665.5 937.218 667.345 937.218C668.829 937.218 670.172 937.08 671.376 936.805C672.579 936.53 673.521 936.235 674.203 935.92L674.986 940.519C674.665 940.716 674.203 940.902 673.601 941.08C672.999 941.256 672.317 941.413 671.556 941.551C670.794 941.689 669.982 941.806 669.12 941.905C668.258 942.003 667.426 942.052 666.624 942.052V942.054ZM691.59 937.396C692.914 937.396 694.086 937.367 695.11 937.308C696.132 937.249 696.984 937.14 697.666 936.984V927.844C697.265 927.648 696.613 927.48 695.712 927.343C694.808 927.205 693.716 927.137 692.433 927.137C691.59 927.137 690.699 927.195 689.756 927.313C688.813 927.431 687.952 927.677 687.169 928.05C686.386 928.424 685.735 928.935 685.214 929.583C684.693 930.232 684.432 931.086 684.432 932.148C684.432 934.113 685.074 935.48 686.356 936.246C687.641 937.013 689.384 937.396 691.59 937.396V937.396ZM691.109 909.919C693.355 909.919 695.25 910.204 696.793 910.774C698.338 911.344 699.581 912.151 700.523 913.191C701.466 914.233 702.137 915.471 702.538 916.907C702.94 918.342 703.14 919.923 703.14 921.653V940.815C702.658 940.894 701.987 941.002 701.125 941.14C700.262 941.278 699.291 941.405 698.208 941.523C697.125 941.641 695.952 941.749 694.688 941.848C693.424 941.946 692.172 941.995 690.928 941.995C689.164 941.995 687.539 941.818 686.056 941.464C684.572 941.111 683.289 940.55 682.205 939.784C681.122 939.018 680.281 938.006 679.679 936.747C679.077 935.489 678.777 933.976 678.777 932.208C678.777 930.518 679.128 929.063 679.829 927.844C680.531 926.625 681.483 925.643 682.687 924.896C683.891 924.149 685.294 923.598 686.898 923.245C688.502 922.891 690.187 922.714 691.951 922.714C692.513 922.714 693.095 922.744 693.696 922.803C694.298 922.861 694.869 922.94 695.409 923.039C695.951 923.137 696.422 923.225 696.824 923.304C697.225 923.383 697.506 923.442 697.666 923.481V921.948C697.666 921.044 697.566 920.15 697.365 919.265C697.165 918.381 696.803 917.595 696.282 916.907C695.76 916.219 695.049 915.669 694.146 915.256C693.244 914.844 692.071 914.637 690.627 914.637C688.783 914.637 687.169 914.765 685.785 915.021C684.401 915.276 683.369 915.541 682.687 915.817L682.025 911.277C682.747 910.963 683.95 910.658 685.634 910.362C687.319 910.068 689.144 909.921 691.109 909.921V909.919ZM717.637 910.686H729.489V915.284H717.637V929.436C717.637 930.968 717.758 932.236 717.999 933.239C718.239 934.242 718.601 935.028 719.082 935.598C719.563 936.168 720.165 936.57 720.886 936.806C721.608 937.043 722.45 937.16 723.412 937.16C725.097 937.16 726.451 936.973 727.473 936.6C728.497 936.227 729.208 935.961 729.609 935.804L730.692 940.344C730.13 940.619 729.148 940.963 727.744 941.376C726.34 941.789 724.736 941.995 722.932 941.995C720.807 941.995 719.052 941.73 717.668 941.199C716.284 940.668 715.172 939.872 714.33 938.811C713.487 937.749 712.896 936.443 712.555 934.89C712.214 933.337 712.044 931.538 712.044 929.495V902.135L717.638 901.191V910.685L717.637 910.686ZM742.182 941.347H736.587V910.686H742.182V941.347ZM739.355 905.143C738.351 905.143 737.5 904.818 736.798 904.17C736.096 903.521 735.745 902.647 735.745 901.546C735.745 900.445 736.096 899.571 736.798 898.922C737.5 898.274 738.351 897.949 739.355 897.949C740.357 897.949 741.209 898.274 741.911 898.922C742.613 899.571 742.964 900.445 742.964 901.546C742.964 902.647 742.613 903.521 741.911 904.17C741.209 904.818 740.357 905.143 739.355 905.143ZM776.231 910.686C774.667 916.425 772.833 921.928 770.727 927.195C768.622 932.463 766.586 937.18 764.621 941.346H759.568C757.604 937.179 755.567 932.463 753.462 927.195C751.357 921.928 749.522 916.425 747.958 910.686H753.974C754.455 912.611 755.026 914.666 755.687 916.848C756.349 919.029 757.052 921.191 757.793 923.334C758.535 925.476 759.287 927.55 760.048 929.554C760.811 931.559 761.533 933.348 762.215 934.92C762.896 933.348 763.618 931.559 764.38 929.554C765.142 927.55 765.893 925.476 766.635 923.334C767.377 921.191 768.08 919.029 768.741 916.848C769.403 914.666 769.974 912.611 770.455 910.686H776.229H776.231ZM808.776 926.016C808.776 928.453 808.414 930.655 807.692 932.62C806.97 934.586 805.958 936.277 804.655 937.691C803.351 939.107 801.797 940.197 799.992 940.963C798.189 941.731 796.223 942.114 794.097 942.114C791.972 942.114 790.006 941.731 788.202 940.963C786.398 940.197 784.843 939.107 783.54 937.691C782.237 936.276 781.225 934.586 780.502 932.62C779.78 930.655 779.419 928.453 779.419 926.016C779.419 923.619 779.78 921.428 780.502 919.441C781.225 917.457 782.237 915.756 783.54 914.341C784.844 912.926 786.398 911.835 788.202 911.069C790.006 910.302 791.972 909.919 794.097 909.919C796.223 909.919 798.189 910.302 799.992 911.069C801.797 911.835 803.352 912.926 804.655 914.341C805.958 915.757 806.97 917.457 807.692 919.441C808.414 921.427 808.776 923.619 808.776 926.016ZM802.941 926.016C802.941 922.557 802.148 919.816 800.564 917.791C798.98 915.766 796.825 914.755 794.097 914.755C791.371 914.755 789.215 915.766 787.63 917.791C786.047 919.816 785.255 922.557 785.255 926.016C785.255 929.476 786.047 932.217 787.63 934.242C789.214 936.266 791.371 937.278 794.097 937.278C796.825 937.278 798.98 936.266 800.564 934.242C802.148 932.217 802.941 929.476 802.941 926.016ZM852.27 926.075C852.27 922.498 851.368 919.746 849.564 917.82C847.759 915.895 845.352 914.931 842.344 914.931C840.66 914.931 839.347 914.99 838.404 915.108C837.461 915.226 836.71 915.364 836.148 915.521V934.861C836.83 935.411 837.812 935.942 839.096 936.453C840.379 936.964 841.783 937.219 843.307 937.219C844.911 937.219 846.285 936.934 847.429 936.364C848.571 935.794 849.504 935.008 850.226 934.005C850.948 933.003 851.469 931.824 851.789 930.467C852.11 929.111 852.27 927.648 852.27 926.075V926.075ZM858.106 926.075C858.106 928.394 857.795 930.537 857.173 932.502C856.551 934.468 855.639 936.159 854.436 937.574C853.233 938.989 851.759 940.089 850.014 940.875C848.27 941.662 846.274 942.055 844.029 942.055C842.224 942.055 840.629 941.819 839.246 941.347C837.862 940.875 836.83 940.423 836.148 939.991V952.255H830.554V911.629C831.878 911.315 833.531 910.971 835.517 910.597C837.502 910.223 839.798 910.037 842.405 910.037C844.811 910.037 846.976 910.41 848.902 911.157C850.826 911.905 852.471 912.965 853.834 914.341C855.198 915.718 856.25 917.398 856.992 919.382C857.735 921.368 858.106 923.599 858.106 926.075V926.075ZM876.574 937.396C877.898 937.396 879.07 937.367 880.094 937.308C881.116 937.249 881.968 937.14 882.65 936.984V927.844C882.248 927.648 881.597 927.48 880.695 927.343C879.792 927.205 878.7 927.137 877.417 927.137C876.574 927.137 875.682 927.195 874.739 927.313C873.797 927.431 872.935 927.677 872.153 928.05C871.37 928.424 870.719 928.935 870.198 929.583C869.677 930.232 869.416 931.086 869.416 932.148C869.416 934.113 870.058 935.48 871.34 936.246C872.624 937.013 874.368 937.396 876.574 937.396V937.396ZM876.093 909.919C878.338 909.919 880.234 910.204 881.777 910.774C883.321 911.344 884.565 912.151 885.507 913.191C886.45 914.233 887.121 915.471 887.522 916.907C887.923 918.342 888.124 919.923 888.124 921.653V940.815C887.642 940.894 886.971 941.002 886.109 941.14C885.246 941.278 884.275 941.405 883.191 941.523C882.109 941.641 880.936 941.749 879.672 941.848C878.408 941.946 877.156 941.995 875.912 941.995C874.148 941.995 872.523 941.818 871.04 941.464C869.556 941.111 868.272 940.55 867.189 939.784C866.106 939.018 865.265 938.006 864.663 936.747C864.061 935.489 863.761 933.976 863.761 932.208C863.761 930.518 864.111 929.063 864.813 927.844C865.515 926.625 866.467 925.643 867.671 924.896C868.874 924.149 870.278 923.598 871.882 923.245C873.486 922.891 875.171 922.714 876.935 922.714C877.497 922.714 878.078 922.744 878.68 922.803C879.281 922.861 879.852 922.94 880.393 923.039C880.935 923.137 881.406 923.225 881.807 923.304C882.209 923.383 882.49 923.442 882.65 923.481V921.948C882.65 921.044 882.55 920.15 882.349 919.265C882.148 918.381 881.787 917.595 881.266 916.907C880.744 916.219 880.033 915.669 879.13 915.256C878.228 914.844 877.055 914.637 875.611 914.637C873.766 914.637 872.152 914.765 870.769 915.021C869.385 915.276 868.353 915.541 867.671 915.817L867.009 911.277C867.731 910.963 868.934 910.658 870.618 910.362C872.303 910.068 874.128 909.921 876.093 909.921V909.919ZM908.938 910.037C909.42 910.037 909.971 910.066 910.592 910.125C911.214 910.184 911.825 910.263 912.426 910.361C913.028 910.46 913.58 910.558 914.08 910.656C914.582 910.754 914.953 910.843 915.194 910.921L914.231 915.697C913.789 915.54 913.058 915.353 912.035 915.137C911.012 914.921 909.7 914.813 908.095 914.813C907.052 914.813 906.02 914.921 904.997 915.137C903.974 915.353 903.303 915.501 902.982 915.579V941.346H897.387V911.983C898.711 911.51 900.355 911.068 902.32 910.655C904.285 910.242 906.491 910.036 908.937 910.036L908.938 910.037ZM931.197 937.396C932.521 937.396 933.693 937.367 934.716 937.308C935.739 937.249 936.591 937.14 937.272 936.984V927.844C936.871 927.648 936.22 927.48 935.318 927.343C934.415 927.205 933.322 927.137 932.039 927.137C931.197 927.137 930.305 927.195 929.362 927.313C928.42 927.431 927.558 927.677 926.776 928.05C925.993 928.424 925.342 928.935 924.821 929.583C924.299 930.232 924.039 931.086 924.039 932.148C924.039 934.113 924.68 935.48 925.963 936.246C927.247 937.013 928.991 937.396 931.197 937.396V937.396ZM930.715 909.919C932.961 909.919 934.857 910.204 936.4 910.774C937.944 911.344 939.187 912.151 940.13 913.191C941.073 914.233 941.744 915.471 942.145 916.907C942.546 918.342 942.747 919.923 942.747 921.653V940.815C942.265 940.894 941.593 941.002 940.731 941.14C939.869 941.278 938.897 941.405 937.814 941.523C936.731 941.641 935.558 941.749 934.295 941.848C933.031 941.946 931.778 941.995 930.535 941.995C928.771 941.995 927.146 941.818 925.662 941.464C924.178 941.111 922.895 940.55 921.812 939.784C920.729 939.018 919.887 938.006 919.286 936.747C918.684 935.489 918.383 933.976 918.383 932.208C918.383 930.518 918.734 929.063 919.436 927.844C920.138 926.625 921.09 925.643 922.293 924.896C923.497 924.149 924.9 923.598 926.505 923.245C928.109 922.891 929.793 922.714 931.557 922.714C932.119 922.714 932.701 922.744 933.302 922.803C933.904 922.861 934.475 922.94 935.016 923.039C935.558 923.137 936.029 923.225 936.43 923.304C936.831 923.383 937.112 923.442 937.272 923.481V921.948C937.272 921.044 937.172 920.15 936.972 919.265C936.771 918.381 936.41 917.595 935.888 916.907C935.367 916.219 934.655 915.669 933.753 915.256C932.85 914.844 931.678 914.637 930.234 914.637C928.389 914.637 926.775 914.765 925.392 915.021C924.008 915.276 922.976 915.541 922.293 915.817L921.631 911.277C922.353 910.963 923.556 910.658 925.241 910.362C926.925 910.068 928.75 909.921 930.715 909.921V909.919ZM966.268 941.346V900.484H991.715V905.378H972.105V917.525H989.55V922.301H972.105V936.452H993.22V941.346H966.269L966.268 941.346ZM1019.51 941.346C1019.07 940.481 1018.52 939.518 1017.88 938.457C1017.24 937.395 1016.54 936.305 1015.78 935.184C1015.02 934.064 1014.23 932.954 1013.43 931.853C1012.63 930.752 1011.85 929.711 1011.09 928.728C1010.32 929.711 1009.54 930.762 1008.74 931.882C1007.94 933.003 1007.17 934.123 1006.42 935.243C1005.68 936.364 1004.99 937.454 1004.35 938.516C1003.71 939.577 1003.17 940.521 1002.73 941.346H996.95C998.354 938.673 1000.03 935.951 1001.97 933.18C1003.92 930.409 1005.85 927.765 1007.78 925.25L997.431 910.686H1003.75L1011.21 921.416L1018.73 910.686H1024.68L1014.58 924.896C1016.5 927.451 1018.48 930.153 1020.5 933.003C1022.53 935.853 1024.24 938.634 1025.64 941.346H1019.51H1019.51ZM1053.25 926.075C1053.25 922.497 1052.35 919.745 1050.55 917.82C1048.74 915.894 1046.34 914.931 1043.33 914.931C1041.64 914.931 1040.33 914.989 1039.39 915.107C1038.45 915.225 1037.69 915.363 1037.13 915.52V934.86C1037.81 935.411 1038.8 935.942 1040.08 936.452C1041.36 936.963 1042.77 937.218 1044.29 937.218C1045.9 937.218 1047.27 936.933 1048.41 936.363C1049.56 935.793 1050.49 935.007 1051.21 934.005C1051.93 933.002 1052.45 931.823 1052.77 930.467C1053.09 929.11 1053.25 927.647 1053.25 926.074V926.075ZM1059.09 926.075C1059.09 928.394 1058.78 930.536 1058.16 932.502C1057.54 934.467 1056.62 936.158 1055.42 937.573C1054.22 938.988 1052.74 940.088 1051 940.874C1049.25 941.661 1047.26 942.054 1045.01 942.054C1043.21 942.054 1041.61 941.818 1040.23 941.346C1038.85 940.874 1037.81 940.422 1037.13 939.99V952.255H1031.54V911.628C1032.86 911.314 1034.52 910.97 1036.5 910.597C1038.49 910.222 1040.78 910.036 1043.39 910.036C1045.8 910.036 1047.96 910.409 1049.89 911.156C1051.81 911.904 1053.46 912.964 1054.82 914.341C1056.18 915.717 1057.23 917.397 1057.98 919.382C1058.72 921.367 1059.09 923.598 1059.09 926.075V926.075ZM1065.23 926.075C1065.23 923.362 1065.63 920.994 1066.43 918.969C1067.23 916.945 1068.29 915.264 1069.62 913.927C1070.94 912.591 1072.47 911.589 1074.19 910.921C1075.91 910.253 1077.68 909.918 1079.48 909.918C1083.69 909.918 1086.92 911.206 1089.17 913.78C1091.42 916.355 1092.54 920.276 1092.54 925.544C1092.54 925.78 1092.54 926.084 1092.54 926.458C1092.54 926.832 1092.52 927.176 1092.48 927.49H1071.06C1071.3 930.674 1072.25 933.091 1073.89 934.743C1075.53 936.394 1078.1 937.219 1081.59 937.219C1083.55 937.219 1085.21 937.052 1086.55 936.718C1087.9 936.384 1088.91 936.059 1089.59 935.745L1090.37 940.344C1089.69 940.698 1088.5 941.071 1086.79 941.464C1085.09 941.857 1083.15 942.054 1080.99 942.054C1078.26 942.054 1075.9 941.651 1073.92 940.845C1071.93 940.039 1070.3 938.929 1069.02 937.513C1067.73 936.098 1066.78 934.418 1066.16 932.472C1065.54 930.526 1065.23 928.394 1065.23 926.075H1065.23ZM1086.7 923.068C1086.74 920.591 1086.11 918.557 1084.81 916.965C1083.5 915.373 1081.71 914.576 1079.42 914.576C1078.14 914.576 1077.01 914.822 1076.03 915.313C1075.04 915.805 1074.21 916.444 1073.53 917.23C1072.85 918.016 1072.32 918.92 1071.93 919.942C1071.55 920.964 1071.3 922.006 1071.18 923.068H1086.7H1086.7ZM1112.15 910.036C1112.63 910.036 1113.18 910.066 1113.8 910.124C1114.43 910.183 1115.04 910.262 1115.64 910.36C1116.24 910.459 1116.79 910.557 1117.29 910.655C1117.79 910.753 1118.17 910.842 1118.41 910.921L1117.44 915.696C1117 915.539 1116.27 915.353 1115.25 915.136C1114.22 914.92 1112.91 914.812 1111.31 914.812C1110.26 914.812 1109.23 914.92 1108.21 915.136C1107.19 915.353 1106.52 915.5 1106.19 915.579V941.346H1100.6V911.982C1101.92 911.51 1103.57 911.067 1105.53 910.655C1107.5 910.241 1109.7 910.035 1112.15 910.035L1112.15 910.036ZM1129.42 941.346H1123.82V910.684H1129.42V941.346ZM1126.59 905.142C1125.59 905.142 1124.73 904.817 1124.03 904.168C1123.33 903.519 1122.98 902.646 1122.98 901.545C1122.98 900.444 1123.33 899.57 1124.03 898.921C1124.73 898.272 1125.59 897.947 1126.59 897.947C1127.59 897.947 1128.44 898.272 1129.14 898.921C1129.85 899.57 1130.2 900.444 1130.2 901.545C1130.2 902.646 1129.85 903.519 1129.14 904.168C1128.44 904.817 1127.59 905.142 1126.59 905.142ZM1139.04 911.569C1140.32 911.254 1142.02 910.92 1144.12 910.566C1146.23 910.212 1148.67 910.035 1151.43 910.035C1153.44 910.035 1155.12 910.3 1156.49 910.831C1157.85 911.362 1158.99 912.139 1159.92 913.16C1160.2 912.963 1160.64 912.689 1161.24 912.334C1161.84 911.981 1162.58 911.637 1163.46 911.303C1164.35 910.968 1165.33 910.673 1166.41 910.417C1167.5 910.162 1168.66 910.034 1169.9 910.034C1172.31 910.034 1174.27 910.378 1175.8 911.066C1177.32 911.755 1178.51 912.727 1179.38 913.986C1180.24 915.243 1180.82 916.737 1181.12 918.466C1181.42 920.195 1181.57 922.083 1181.57 924.126V941.344H1175.98V925.306C1175.98 923.498 1175.89 921.944 1175.71 920.647C1175.53 919.35 1175.19 918.269 1174.68 917.404C1174.18 916.54 1173.5 915.901 1172.64 915.489C1171.78 915.075 1170.66 914.869 1169.3 914.869C1167.42 914.869 1165.86 915.115 1164.64 915.606C1163.42 916.098 1162.58 916.54 1162.14 916.934C1162.46 917.956 1162.7 919.076 1162.86 920.295C1163.02 921.514 1163.11 922.791 1163.11 924.127V941.345H1157.51V925.306C1157.51 923.498 1157.41 921.945 1157.21 920.648C1157.01 919.351 1156.66 918.27 1156.16 917.405C1155.66 916.54 1154.97 915.902 1154.11 915.489C1153.25 915.076 1152.16 914.87 1150.83 914.87C1150.27 914.87 1149.67 914.89 1149.03 914.929C1148.39 914.968 1147.77 915.017 1147.19 915.076C1146.61 915.135 1146.08 915.204 1145.6 915.282C1145.12 915.361 1144.8 915.42 1144.64 915.46V941.345H1139.04V911.568L1139.04 911.569ZM1189.09 926.074C1189.09 923.361 1189.49 920.993 1190.29 918.968C1191.1 916.944 1192.16 915.263 1193.48 913.927C1194.81 912.59 1196.33 911.588 1198.05 910.92C1199.78 910.252 1201.54 909.917 1203.35 909.917C1207.56 909.917 1210.79 911.205 1213.03 913.779C1215.28 916.354 1216.4 920.276 1216.4 925.543C1216.4 925.779 1216.4 926.083 1216.4 926.457C1216.4 926.831 1216.38 927.175 1216.34 927.489H1194.93C1195.17 930.674 1196.11 933.091 1197.75 934.742C1199.4 936.393 1201.97 937.218 1205.45 937.218C1207.42 937.218 1209.07 937.051 1210.42 936.717C1211.76 936.383 1212.77 936.059 1213.45 935.744L1214.24 940.343C1213.55 940.697 1212.36 941.07 1210.66 941.463C1208.95 941.857 1207.02 942.053 1204.85 942.053C1202.12 942.053 1199.77 941.65 1197.78 940.844C1195.8 940.038 1194.16 938.929 1192.88 937.512C1191.6 936.097 1190.64 934.417 1190.02 932.471C1189.4 930.526 1189.09 928.393 1189.09 926.074H1189.09ZM1210.57 923.067C1210.61 920.59 1209.98 918.556 1208.67 916.964C1207.37 915.372 1205.58 914.575 1203.29 914.575C1202.01 914.575 1200.87 914.822 1199.89 915.313C1198.91 915.805 1198.08 916.443 1197.39 917.229C1196.71 918.015 1196.18 918.919 1195.8 919.941C1195.42 920.963 1195.17 922.005 1195.05 923.067H1210.57H1210.57ZM1224.46 911.569C1225.75 911.254 1227.45 910.92 1229.58 910.566C1231.7 910.212 1234.15 910.035 1236.92 910.035C1239.4 910.035 1241.47 910.379 1243.11 911.067C1244.76 911.756 1246.07 912.718 1247.05 913.957C1248.04 915.195 1248.73 916.679 1249.13 918.408C1249.53 920.137 1249.73 922.045 1249.73 924.127V941.345H1244.14V925.306C1244.14 923.419 1244.01 921.807 1243.75 920.471C1243.48 919.135 1243.05 918.054 1242.45 917.228C1241.85 916.403 1241.05 915.803 1240.05 915.431C1239.04 915.056 1237.8 914.87 1236.32 914.87C1235.71 914.87 1235.09 914.89 1234.45 914.929C1233.81 914.968 1233.2 915.017 1232.62 915.076C1232.03 915.135 1231.51 915.204 1231.05 915.282C1230.59 915.361 1230.26 915.42 1230.06 915.46V941.345H1224.46V911.568L1224.46 911.569ZM1264.23 910.684H1276.08V915.282H1264.23V929.434C1264.23 930.967 1264.35 932.235 1264.59 933.237C1264.83 934.24 1265.19 935.026 1265.67 935.596C1266.15 936.166 1266.76 936.569 1267.48 936.805C1268.2 937.041 1269.04 937.159 1270 937.159C1271.69 937.159 1273.04 936.972 1274.06 936.598C1275.09 936.225 1275.8 935.96 1276.2 935.802L1277.28 940.342C1276.72 940.617 1275.74 940.961 1274.34 941.374C1272.93 941.787 1271.33 941.994 1269.52 941.994C1267.4 941.994 1265.64 941.728 1264.26 941.197C1262.88 940.666 1261.76 939.87 1260.92 938.809C1260.08 937.748 1259.49 936.441 1259.15 934.888C1258.81 933.336 1258.64 931.537 1258.64 929.493V902.133L1264.23 901.19V910.683L1264.23 910.684ZM1309.95 926.015C1309.95 928.452 1309.59 930.653 1308.87 932.619C1308.14 934.584 1307.13 936.275 1305.83 937.69C1304.52 939.105 1302.97 940.195 1301.17 940.962C1299.36 941.729 1297.4 942.112 1295.27 942.112C1293.14 942.112 1291.18 941.729 1289.38 940.962C1287.57 940.195 1286.02 939.105 1284.71 937.69C1283.41 936.274 1282.4 934.584 1281.68 932.619C1280.95 930.654 1280.59 928.452 1280.59 926.015C1280.59 923.617 1280.95 921.426 1281.68 919.44C1282.4 917.455 1283.41 915.755 1284.71 914.34C1286.02 912.924 1287.57 911.834 1289.38 911.067C1291.18 910.3 1293.14 909.917 1295.27 909.917C1297.4 909.917 1299.36 910.3 1301.17 911.067C1302.97 911.834 1304.52 912.924 1305.83 914.34C1307.13 915.755 1308.14 917.455 1308.87 919.44C1309.59 921.425 1309.95 923.617 1309.95 926.015ZM1304.11 926.015C1304.11 922.556 1303.32 919.814 1301.74 917.789C1300.15 915.765 1298 914.753 1295.27 914.753C1292.54 914.753 1290.39 915.765 1288.8 917.789C1287.22 919.814 1286.43 922.556 1286.43 926.015C1286.43 929.474 1287.22 932.216 1288.8 934.24C1290.39 936.264 1292.54 937.277 1295.27 937.277C1298 937.277 1300.15 936.264 1301.74 934.24C1303.32 932.216 1304.11 929.474 1304.11 926.015ZM1329.98 926.074C1329.98 923.361 1330.38 920.993 1331.18 918.968C1331.99 916.944 1333.05 915.263 1334.37 913.927C1335.7 912.59 1337.22 911.588 1338.94 910.92C1340.67 910.252 1342.43 909.917 1344.24 909.917C1348.45 909.917 1351.68 911.205 1353.92 913.779C1356.17 916.354 1357.29 920.276 1357.29 925.543C1357.29 925.779 1357.29 926.083 1357.29 926.457C1357.29 926.831 1357.27 927.175 1357.23 927.489H1335.82C1336.06 930.674 1337 933.091 1338.64 934.742C1340.29 936.393 1342.85 937.218 1346.34 937.218C1348.31 937.218 1349.96 937.051 1351.31 936.717C1352.65 936.383 1353.66 936.059 1354.34 935.744L1355.13 940.343C1354.44 940.697 1353.25 941.07 1351.55 941.463C1349.84 941.857 1347.91 942.053 1345.74 942.053C1343.01 942.053 1340.66 941.65 1338.67 940.844C1336.69 940.038 1335.05 938.929 1333.77 937.512C1332.49 936.097 1331.53 934.417 1330.91 932.471C1330.29 930.526 1329.98 928.393 1329.98 926.074H1329.98ZM1351.46 923.067C1351.5 920.59 1350.87 918.556 1349.56 916.964C1348.26 915.372 1346.46 914.575 1344.18 914.575C1342.89 914.575 1341.76 914.822 1340.78 915.313C1339.8 915.805 1338.97 916.443 1338.28 917.229C1337.6 918.015 1337.07 918.919 1336.69 919.941C1336.31 920.963 1336.06 922.005 1335.94 923.067H1351.46H1351.46ZM1407.46 941.346C1406.78 939.577 1406.14 937.837 1405.54 936.127C1404.94 934.418 1404.32 932.678 1403.67 930.909H1384.79L1381 941.346H1374.92C1376.52 937.021 1378.03 933.022 1379.43 929.347C1380.84 925.671 1382.21 922.182 1383.55 918.881C1384.9 915.579 1386.23 912.424 1387.55 909.417C1388.88 906.41 1390.26 903.432 1391.7 900.484H1397.06C1398.5 903.432 1399.88 906.41 1401.21 909.417C1402.53 912.424 1403.87 915.579 1405.21 918.881C1406.55 922.182 1407.93 925.672 1409.33 929.347C1410.73 933.022 1412.24 937.021 1413.84 941.346H1407.47H1407.46ZM1401.99 926.192C1400.71 922.771 1399.43 919.46 1398.17 916.256C1396.91 913.053 1395.59 909.976 1394.23 907.028C1392.83 909.976 1391.49 913.053 1390.23 916.256C1388.97 919.46 1387.71 922.771 1386.47 926.192H1401.99H1401.99Z" fill="#49E087"/>
<path d="M1419.13 911.57C1420.42 911.256 1422.12 910.922 1424.25 910.568C1426.37 910.214 1428.82 910.037 1431.58 910.037C1434.07 910.037 1436.14 910.381 1437.78 911.069C1439.43 911.757 1440.74 912.72 1441.72 913.959C1442.71 915.197 1443.4 916.681 1443.8 918.41C1444.2 920.139 1444.4 922.046 1444.4 924.129V941.347H1438.8V925.308C1438.8 923.421 1438.67 921.809 1438.41 920.473C1438.15 919.137 1437.72 918.056 1437.12 917.23C1436.52 916.404 1435.72 915.805 1434.71 915.432C1433.71 915.058 1432.47 914.872 1430.98 914.872C1430.38 914.872 1429.76 914.892 1429.12 914.931C1428.48 914.97 1427.87 915.019 1427.28 915.078C1426.7 915.137 1426.18 915.206 1425.72 915.284C1425.26 915.363 1424.93 915.422 1424.73 915.462V941.347H1419.13V911.57L1419.13 911.57ZM1464.25 937.396C1465.57 937.396 1466.75 937.367 1467.77 937.308C1468.79 937.249 1469.64 937.141 1470.33 936.984V927.844C1469.93 927.648 1469.27 927.481 1468.37 927.343C1467.47 927.205 1466.38 927.137 1465.09 927.137C1464.25 927.137 1463.36 927.196 1462.42 927.313C1461.47 927.431 1460.61 927.677 1459.83 928.051C1459.05 928.424 1458.4 928.935 1457.87 929.583C1457.35 930.232 1457.09 931.086 1457.09 932.148C1457.09 934.113 1457.73 935.48 1459.02 936.247C1460.3 937.013 1462.04 937.396 1464.25 937.396ZM1463.77 909.919C1466.01 909.919 1467.91 910.204 1469.45 910.774C1471 911.344 1472.24 912.151 1473.18 913.191C1474.13 914.233 1474.8 915.471 1475.2 916.907C1475.6 918.342 1475.8 919.923 1475.8 921.653V940.816C1475.32 940.894 1474.65 941.003 1473.79 941.14C1472.92 941.278 1471.95 941.405 1470.87 941.523C1469.79 941.641 1468.61 941.749 1467.35 941.848C1466.08 941.946 1464.83 941.995 1463.59 941.995C1461.82 941.995 1460.2 941.819 1458.72 941.464C1457.23 941.111 1455.95 940.55 1454.87 939.785C1453.78 939.018 1452.94 938.006 1452.34 936.747C1451.74 935.49 1451.44 933.976 1451.44 932.208C1451.44 930.518 1451.79 929.063 1452.49 927.844C1453.19 926.625 1454.14 925.643 1455.35 924.896C1456.55 924.149 1457.95 923.598 1459.56 923.245C1461.16 922.891 1462.85 922.714 1464.61 922.714C1465.17 922.714 1465.76 922.744 1466.36 922.803C1466.96 922.862 1467.53 922.94 1468.07 923.039C1468.61 923.137 1469.08 923.225 1469.48 923.304C1469.89 923.383 1470.17 923.442 1470.33 923.481V921.948C1470.33 921.044 1470.23 920.15 1470.03 919.266C1469.83 918.381 1469.46 917.595 1468.94 916.907C1468.42 916.219 1467.71 915.669 1466.81 915.256C1465.9 914.844 1464.73 914.637 1463.29 914.637C1461.44 914.637 1459.83 914.765 1458.45 915.021C1457.06 915.276 1456.03 915.541 1455.35 915.817L1454.69 911.277C1455.41 910.963 1456.61 910.658 1458.29 910.363C1459.98 910.068 1461.8 909.921 1463.77 909.921V909.919ZM1471.95 899.07L1463.47 907.148L1460.64 904.671L1468.34 895.591L1471.95 899.07V899.07ZM1494.45 941.936C1491 941.858 1488.55 941.13 1487.11 939.755C1485.66 938.379 1484.94 936.236 1484.94 933.327V896.534L1490.54 895.591V932.443C1490.54 933.347 1490.62 934.094 1490.78 934.683C1490.94 935.273 1491.2 935.745 1491.56 936.099C1491.92 936.453 1492.4 936.718 1493 936.895C1493.61 937.072 1494.35 937.219 1495.23 937.337L1494.45 941.936V941.936ZM1507.08 941.347H1501.49V910.685H1507.08V941.347ZM1504.26 905.143C1503.25 905.143 1502.4 904.818 1501.7 904.169C1501 903.52 1500.65 902.647 1500.65 901.546C1500.65 900.445 1501 899.571 1501.7 898.922C1502.4 898.273 1503.25 897.948 1504.26 897.948C1505.26 897.948 1506.11 898.273 1506.81 898.922C1507.51 899.571 1507.86 900.445 1507.86 901.546C1507.86 902.647 1507.51 903.52 1506.81 904.169C1506.11 904.818 1505.26 905.143 1504.26 905.143ZM1523.99 937.395C1526.27 937.395 1527.97 937.101 1529.07 936.511C1530.17 935.921 1530.72 934.978 1530.72 933.681C1530.72 932.344 1530.18 931.283 1529.1 930.496C1528.02 929.711 1526.23 928.826 1523.75 927.844C1522.54 927.372 1521.39 926.89 1520.29 926.398C1519.18 925.907 1518.23 925.327 1517.43 924.659C1516.63 923.991 1515.99 923.186 1515.5 922.241C1515.02 921.298 1514.78 920.139 1514.78 918.762C1514.78 916.051 1515.81 913.898 1517.85 912.306C1519.9 910.715 1522.68 909.918 1526.21 909.918C1527.09 909.918 1527.98 909.967 1528.86 910.066C1529.74 910.164 1530.56 910.282 1531.32 910.419C1532.09 910.557 1532.76 910.704 1533.34 910.862C1533.92 911.019 1534.37 911.156 1534.69 911.275L1533.67 915.991C1533.07 915.677 1532.13 915.353 1530.84 915.018C1529.56 914.684 1528.02 914.517 1526.21 914.517C1524.65 914.517 1523.28 914.822 1522.12 915.432C1520.96 916.041 1520.38 916.993 1520.38 918.291C1520.38 918.959 1520.51 919.549 1520.77 920.059C1521.03 920.57 1521.43 921.033 1521.97 921.445C1522.51 921.859 1523.18 922.241 1523.99 922.596C1524.79 922.949 1525.75 923.323 1526.87 923.717C1528.36 924.267 1529.68 924.807 1530.84 925.338C1532.01 925.869 1533 926.488 1533.82 927.195C1534.64 927.903 1535.28 928.757 1535.72 929.759C1536.16 930.762 1536.38 931.99 1536.38 933.445C1536.38 936.275 1535.31 938.417 1533.16 939.872C1531.02 941.327 1527.96 942.053 1523.99 942.053C1521.22 942.053 1519.05 941.827 1517.49 941.375C1515.93 940.923 1514.86 940.579 1514.3 940.343L1515.32 935.626C1515.97 935.862 1516.99 936.216 1518.39 936.688C1519.8 937.16 1521.66 937.395 1523.99 937.395V937.395ZM1541.79 926.075C1541.79 923.362 1542.19 920.994 1543 918.969C1543.8 916.945 1544.86 915.264 1546.19 913.928C1547.51 912.591 1549.03 911.589 1550.76 910.921C1552.48 910.253 1554.25 909.918 1556.05 909.918C1560.26 909.918 1563.49 911.206 1565.74 913.78C1567.98 916.355 1569.1 920.277 1569.1 925.544C1569.1 925.78 1569.1 926.084 1569.1 926.458C1569.1 926.832 1569.08 927.176 1569.04 927.49H1547.63C1547.87 930.675 1548.81 933.092 1550.46 934.743C1552.1 936.394 1554.67 937.219 1558.15 937.219C1560.12 937.219 1561.77 937.052 1563.12 936.718C1564.46 936.384 1565.47 936.06 1566.16 935.745L1566.94 940.344C1566.26 940.698 1565.06 941.071 1563.36 941.464C1561.65 941.858 1559.72 942.054 1557.55 942.054C1554.83 942.054 1552.47 941.651 1550.49 940.845C1548.5 940.039 1546.86 938.93 1545.58 937.513C1544.3 936.098 1543.35 934.418 1542.73 932.472C1542.1 930.527 1541.79 928.394 1541.79 926.075H1541.79ZM1563.27 923.068C1563.31 920.591 1562.68 918.557 1561.37 916.965C1560.07 915.373 1558.28 914.576 1555.99 914.576C1554.71 914.576 1553.57 914.822 1552.59 915.314C1551.61 915.806 1550.78 916.444 1550.1 917.23C1549.41 918.017 1548.88 918.92 1548.5 919.942C1548.12 920.964 1547.87 922.006 1547.75 923.068H1563.27H1563.27ZM1611.27 917.171C1610.59 916.621 1609.61 916.09 1608.33 915.58C1607.04 915.069 1605.64 914.813 1604.12 914.813C1602.51 914.813 1601.14 915.098 1599.99 915.668C1598.85 916.238 1597.92 917.025 1597.2 918.026C1596.48 919.029 1595.95 920.218 1595.63 921.594C1595.31 922.97 1595.15 924.443 1595.15 926.016C1595.15 929.593 1596.06 932.354 1597.86 934.3C1599.66 936.246 1602.07 937.219 1605.08 937.219C1606.6 937.219 1607.88 937.15 1608.9 937.012C1609.92 936.875 1610.71 936.727 1611.27 936.57V917.171V917.171ZM1611.27 896.533L1616.87 895.59V940.462C1615.59 940.816 1613.94 941.17 1611.94 941.523C1609.93 941.878 1607.63 942.054 1605.02 942.054C1602.61 942.054 1600.45 941.681 1598.52 940.933C1596.6 940.187 1594.95 939.125 1593.59 937.75C1592.22 936.373 1591.17 934.693 1590.43 932.709C1589.69 930.723 1589.32 928.492 1589.32 926.016C1589.32 923.658 1589.63 921.495 1590.25 919.53C1590.87 917.564 1591.78 915.873 1592.99 914.459C1594.19 913.043 1595.66 911.943 1597.41 911.156C1599.15 910.371 1601.15 909.977 1603.39 909.977C1605.2 909.977 1606.79 910.213 1608.18 910.685C1609.56 911.156 1610.59 911.609 1611.27 912.042V896.533V896.533ZM1624.75 926.075C1624.75 923.362 1625.15 920.994 1625.95 918.969C1626.76 916.945 1627.82 915.264 1629.14 913.928C1630.47 912.591 1631.99 911.589 1633.71 910.921C1635.44 910.253 1637.2 909.918 1639.01 909.918C1643.22 909.918 1646.45 911.206 1648.69 913.78C1650.94 916.355 1652.06 920.277 1652.06 925.544C1652.06 925.78 1652.06 926.084 1652.06 926.458C1652.06 926.832 1652.04 927.176 1652 927.49H1630.59C1630.83 930.675 1631.77 933.092 1633.41 934.743C1635.06 936.394 1637.62 937.219 1641.11 937.219C1643.08 937.219 1644.73 937.052 1646.08 936.718C1647.42 936.384 1648.43 936.06 1649.11 935.745L1649.9 940.344C1649.21 940.698 1648.02 941.071 1646.32 941.464C1644.61 941.858 1642.68 942.054 1640.51 942.054C1637.78 942.054 1635.43 941.651 1633.44 940.845C1631.46 940.039 1629.82 938.93 1628.54 937.513C1627.26 936.098 1626.3 934.418 1625.68 932.472C1625.06 930.527 1624.75 928.394 1624.75 926.075H1624.75ZM1646.23 923.068C1646.27 920.591 1645.64 918.557 1644.33 916.965C1643.03 915.373 1641.24 914.576 1638.95 914.576C1637.66 914.576 1636.53 914.822 1635.55 915.314C1634.57 915.806 1633.74 916.444 1633.05 917.23C1632.37 918.017 1631.84 918.92 1631.46 919.942C1631.08 920.964 1630.83 922.006 1630.71 923.068H1646.23H1646.23ZM1684.07 937.278C1690.16 937.278 1693.21 935.234 1693.21 931.145C1693.21 929.887 1692.94 928.817 1692.4 927.932C1691.86 927.047 1691.12 926.281 1690.2 925.632C1689.28 924.983 1688.23 924.424 1687.04 923.952C1685.86 923.48 1684.61 923.009 1683.28 922.537C1681.76 922.026 1680.32 921.445 1678.95 920.797C1677.59 920.148 1676.41 919.382 1675.4 918.498C1674.4 917.614 1673.61 916.563 1673.03 915.344C1672.45 914.124 1672.15 912.651 1672.15 910.922C1672.15 907.345 1673.4 904.553 1675.88 902.549C1678.37 900.544 1681.8 899.542 1686.17 899.542C1688.7 899.542 1690.99 899.807 1693.06 900.338C1695.13 900.869 1696.64 901.449 1697.6 902.077L1695.74 906.735C1694.89 906.224 1693.64 905.722 1691.98 905.232C1690.31 904.741 1688.38 904.495 1686.17 904.495C1685.05 904.495 1684.01 904.612 1683.04 904.848C1682.08 905.084 1681.24 905.438 1680.52 905.91C1679.8 906.382 1679.22 906.982 1678.8 907.708C1678.38 908.435 1678.17 909.29 1678.17 910.273C1678.17 911.374 1678.39 912.297 1678.83 913.044C1679.27 913.792 1679.9 914.45 1680.7 915.019C1681.5 915.589 1682.43 916.111 1683.49 916.581C1684.56 917.053 1685.73 917.525 1687.01 917.997C1688.82 918.704 1690.47 919.412 1691.98 920.119C1693.48 920.827 1694.78 921.671 1695.89 922.655C1696.99 923.638 1697.84 924.807 1698.44 926.163C1699.05 927.52 1699.35 929.16 1699.35 931.086C1699.35 934.664 1698.01 937.415 1695.35 939.341C1692.68 941.267 1688.92 942.23 1684.07 942.23C1682.42 942.23 1680.91 942.122 1679.53 941.906C1678.14 941.69 1676.91 941.434 1675.83 941.14C1674.74 940.844 1673.81 940.53 1673.03 940.195C1672.25 939.862 1671.63 939.576 1671.19 939.34L1672.94 934.623C1673.86 935.134 1675.26 935.705 1677.15 936.333C1679.03 936.962 1681.34 937.277 1684.07 937.277L1684.07 937.278ZM1733.64 926.016C1733.64 928.453 1733.27 930.654 1732.55 932.62C1731.83 934.585 1730.82 936.276 1729.51 937.691C1728.21 939.106 1726.66 940.196 1724.85 940.963C1723.05 941.73 1721.08 942.113 1718.96 942.113C1716.83 942.113 1714.87 941.73 1713.06 940.963C1711.26 940.196 1709.7 939.106 1708.4 937.691C1707.1 936.275 1706.08 934.585 1705.36 932.62C1704.64 930.655 1704.28 928.453 1704.28 926.016C1704.28 923.618 1704.64 921.427 1705.36 919.441C1706.08 917.456 1707.1 915.756 1708.4 914.341C1709.7 912.925 1711.26 911.835 1713.06 911.068C1714.87 910.301 1716.83 909.918 1718.96 909.918C1721.08 909.918 1723.05 910.301 1724.85 911.068C1726.66 911.835 1728.21 912.925 1729.51 914.341C1730.82 915.756 1731.83 917.456 1732.55 919.441C1733.27 921.426 1733.64 923.618 1733.64 926.016ZM1727.8 926.016C1727.8 922.557 1727.01 919.815 1725.42 917.79C1723.84 915.766 1721.68 914.754 1718.96 914.754C1716.23 914.754 1714.07 915.766 1712.49 917.79C1710.91 919.815 1710.11 922.557 1710.11 926.016C1710.11 929.475 1710.91 932.217 1712.49 934.241C1714.07 936.265 1716.23 937.278 1718.96 937.278C1721.68 937.278 1723.84 936.265 1725.42 934.241C1727.01 932.217 1727.8 929.475 1727.8 926.016ZM1750.9 941.936C1747.45 941.858 1745.01 941.13 1743.56 939.755C1742.12 938.379 1741.4 936.236 1741.4 933.327V896.534L1746.99 895.591V932.443C1746.99 933.347 1747.07 934.094 1747.23 934.683C1747.39 935.273 1747.65 935.745 1748.01 936.099C1748.37 936.453 1748.86 936.718 1749.46 936.895C1750.06 937.072 1750.8 937.219 1751.68 937.337L1750.9 941.936V941.936ZM1785.55 926.016C1785.55 928.453 1785.19 930.654 1784.47 932.62C1783.75 934.585 1782.73 936.276 1781.43 937.691C1780.13 939.106 1778.57 940.196 1776.77 940.963C1774.96 941.73 1773 942.113 1770.87 942.113C1768.75 942.113 1766.78 941.73 1764.98 940.963C1763.17 940.196 1761.62 939.106 1760.31 937.691C1759.01 936.275 1758 934.585 1757.28 932.62C1756.55 930.655 1756.19 928.453 1756.19 926.016C1756.19 923.618 1756.55 921.427 1757.28 919.441C1758 917.456 1759.01 915.756 1760.31 914.341C1761.62 912.925 1763.17 911.835 1764.98 911.068C1766.78 910.301 1768.75 909.918 1770.87 909.918C1773 909.918 1774.96 910.301 1776.77 911.068C1778.57 911.835 1780.13 912.925 1781.43 914.341C1782.73 915.756 1783.75 917.456 1784.47 919.441C1785.19 921.426 1785.55 923.618 1785.55 926.016ZM1779.72 926.016C1779.72 922.557 1778.92 919.815 1777.34 917.79C1775.75 915.766 1773.6 914.754 1770.87 914.754C1768.15 914.754 1765.99 915.766 1764.4 917.79C1762.82 919.815 1762.03 922.557 1762.03 926.016C1762.03 929.475 1762.82 932.217 1764.4 934.241C1765.99 936.265 1768.15 937.278 1770.87 937.278C1773.6 937.278 1775.75 936.265 1777.34 934.241C1778.92 932.217 1779.72 929.475 1779.72 926.016Z" fill="#49E087"/>
</svg>
