<svg width="1786" height="430" viewBox="0 0 1786 430" fill="none" xmlns="http://www.w3.org/2000/svg">
<path fill-rule="evenodd" clip-rule="evenodd" d="M219.351 149.004C256.538 149.004 286.682 178.55 286.682 215C286.682 251.45 256.538 280.996 219.351 280.996C182.164 280.996 152.021 251.45 152.021 215C152.021 178.55 182.164 149.004 219.351 149.004Z" fill="#49E087"/>
<path fill-rule="evenodd" clip-rule="evenodd" d="M219.35 57.3915C239.362 57.3915 255.584 73.2915 255.584 92.9053C255.584 112.52 239.362 128.419 219.35 128.419C199.34 128.419 183.118 112.52 183.118 92.9053C183.118 73.2915 199.34 57.3915 219.35 57.3915V57.3915Z" fill="#49E087"/>
<path fill-rule="evenodd" clip-rule="evenodd" d="M219.349 0C229.72 0 238.127 8.23895 238.127 18.4045C238.127 28.57 229.72 36.8098 219.349 36.8098C208.978 36.8098 200.572 28.57 200.572 18.4045C200.572 8.23895 208.978 0 219.349 0Z" fill="#49E087"/>
<path fill-rule="evenodd" clip-rule="evenodd" d="M58.5518 215C58.5518 195.386 74.7734 179.487 94.7841 179.487C114.796 179.487 131.017 195.386 131.017 215C131.017 234.614 114.796 250.514 94.7841 250.514C74.7734 250.514 58.5518 234.614 58.5518 215V215Z" fill="#49E087"/>
<path fill-rule="evenodd" clip-rule="evenodd" d="M0 215C0 204.834 8.40647 196.595 18.7769 196.595C29.1481 196.595 37.5546 204.834 37.5546 215C37.5546 225.165 29.1481 233.405 18.7769 233.405C8.40647 233.405 0 225.165 0 215Z" fill="#49E087"/>
<path fill-rule="evenodd" clip-rule="evenodd" d="M380.147 215C380.147 195.386 363.926 179.487 343.915 179.487C323.904 179.487 307.683 195.386 307.683 215C307.683 234.614 323.904 250.514 343.915 250.514C363.926 250.514 380.147 234.614 380.147 215Z" fill="#49E087"/>
<path fill-rule="evenodd" clip-rule="evenodd" d="M438.702 215C438.702 204.834 430.295 196.595 419.924 196.595C409.553 196.595 401.146 204.834 401.146 215C401.146 225.165 409.553 233.405 419.924 233.405C430.295 233.405 438.702 225.165 438.702 215Z" fill="#49E087"/>
<path fill-rule="evenodd" clip-rule="evenodd" d="M219.35 372.608C199.34 372.608 183.118 356.708 183.118 337.094C183.118 317.48 199.34 301.581 219.35 301.581C239.362 301.581 255.584 317.48 255.584 337.094C255.584 356.708 239.362 372.608 219.35 372.608Z" fill="#49E087"/>
<path fill-rule="evenodd" clip-rule="evenodd" d="M219.349 430C208.978 430 200.572 421.761 200.572 411.595C200.572 401.43 208.978 393.19 219.349 393.19C229.72 393.19 238.127 401.43 238.127 411.595C238.127 421.761 229.72 430 219.349 430Z" fill="#49E087"/>
<path fill-rule="evenodd" clip-rule="evenodd" d="M105.65 103.554C119.8 89.685 142.74 89.685 156.89 103.554C171.04 117.424 171.04 139.909 156.89 153.778C142.74 167.648 119.8 167.648 105.65 153.778C91.4995 139.909 91.4995 117.424 105.65 103.554V103.554Z" fill="#49E087"/>
<path fill-rule="evenodd" clip-rule="evenodd" d="M64.2462 62.9725C71.5798 55.7844 83.4682 55.7844 90.8009 62.9725C98.1345 70.1606 98.1345 81.8132 90.8009 89.0005C83.4674 96.1886 71.579 96.1886 64.2462 89.0005C56.9127 81.8124 56.9127 70.1598 64.2462 62.9725Z" fill="#49E087"/>
<path fill-rule="evenodd" clip-rule="evenodd" d="M105.65 326.446C91.4995 312.576 91.4995 290.091 105.65 276.222C119.8 262.352 142.74 262.352 156.89 276.222C171.04 290.091 171.04 312.576 156.89 326.446C142.74 340.315 119.8 340.315 105.65 326.446V326.446Z" fill="#49E087"/>
<path fill-rule="evenodd" clip-rule="evenodd" d="M64.2462 367.028C56.9127 359.84 56.9127 348.187 64.2462 341C71.5798 333.812 83.4682 333.812 90.8009 341C98.1345 348.188 98.1345 359.84 90.8009 367.028C83.4674 374.216 71.579 374.216 64.2462 367.028Z" fill="#49E087"/>
<path fill-rule="evenodd" clip-rule="evenodd" d="M333.05 103.554C318.9 89.685 295.959 89.685 281.81 103.554C267.66 117.424 267.66 139.909 281.81 153.778C295.959 167.648 318.9 167.648 333.05 153.778C347.2 139.909 347.2 117.424 333.05 103.554Z" fill="#49E087"/>
<path fill-rule="evenodd" clip-rule="evenodd" d="M374.455 62.9724C367.122 55.7843 355.232 55.7843 347.9 62.9724C340.566 70.1605 340.566 81.8132 347.9 89.0005C355.233 96.1886 367.122 96.1886 374.455 89.0005C381.788 81.8124 381.788 70.1597 374.455 62.9724Z" fill="#49E087"/>
<path fill-rule="evenodd" clip-rule="evenodd" d="M333.05 326.446C318.9 340.315 295.959 340.315 281.81 326.446C267.66 312.576 267.66 290.091 281.81 276.222C295.959 262.352 318.9 262.352 333.05 276.222C347.2 290.091 347.2 312.576 333.05 326.446Z" fill="#49E087"/>
<path fill-rule="evenodd" clip-rule="evenodd" d="M374.455 367.028C367.122 374.216 355.232 374.216 347.9 367.028C340.566 359.84 340.566 348.187 347.9 341C355.233 333.812 367.122 333.812 374.455 341C381.788 348.188 381.788 359.841 374.455 367.028Z" fill="#49E087"/>
<path d="M541.747 210.182C541.747 195.338 544.072 182.351 548.724 171.219C553.375 160.087 559.486 150.81 567.058 143.388C574.63 135.967 583.338 130.347 593.18 126.531C603.023 122.714 613.136 120.806 623.521 120.806C647.75 120.806 666.895 128.069 680.957 142.594C695.018 157.118 702.049 178.482 702.049 206.683C702.049 209.439 701.941 212.461 701.724 215.747C701.508 219.035 701.291 221.95 701.075 224.494H591.396C592.477 234.248 597.128 241.987 605.349 247.713C613.569 253.438 624.602 256.301 638.447 256.301C647.317 256.301 656.025 255.504 664.569 253.915C673.115 252.325 680.092 250.363 685.499 248.031L691.99 286.516C689.394 287.789 685.932 289.061 681.605 290.334C677.278 291.606 672.465 292.719 667.165 293.673C661.865 294.628 656.186 295.422 650.13 296.058C644.072 296.694 638.015 297.013 631.958 297.013C616.598 297.013 603.24 294.786 591.882 290.334C580.525 285.881 571.114 279.784 563.65 272.044C556.187 264.305 550.67 255.134 547.101 244.532C543.532 233.93 541.747 222.48 541.747 210.182V210.182ZM655.321 192.052C655.104 188.023 654.401 184.1 653.212 180.284C652.022 176.467 650.183 173.074 647.695 170.106C645.208 167.137 642.072 164.698 638.285 162.789C634.499 160.881 629.794 159.927 624.169 159.927C618.762 159.927 614.11 160.829 610.217 162.63C606.323 164.433 603.078 166.818 600.482 169.787C597.886 172.756 595.885 176.201 594.479 180.124C593.072 184.047 592.045 188.022 591.396 192.051H655.322L655.321 192.052ZM739.366 130.984C747.586 128.652 758.186 126.479 771.166 124.464C784.146 122.45 797.775 121.443 812.052 121.443C826.546 121.443 838.607 123.297 848.234 127.008C857.86 130.719 865.486 135.967 871.11 142.753C876.735 149.538 880.737 157.596 883.117 166.925C885.496 176.256 886.687 186.645 886.687 198.095V292.559H838.336V203.82C838.336 188.553 836.281 177.74 832.171 171.378C828.06 165.017 820.381 161.836 809.132 161.836C805.67 161.836 801.993 161.995 798.099 162.313C794.205 162.631 790.743 163.003 787.715 163.426V292.559H739.365V130.984H739.366ZM1058.67 157.065C1054.78 161.306 1049.53 167.032 1042.88 174.241C1036.28 181.45 1029.19 189.402 1021.62 198.095C1014 206.789 1006.37 215.907 998.692 225.449C990.959 234.991 983.982 244.215 977.708 253.12H1060.29V292.56H919.136V264.571C923.679 256.938 929.142 248.721 935.523 239.921C941.905 231.121 948.611 222.268 955.642 213.363C962.673 204.457 969.649 195.817 976.572 187.441C983.495 179.066 989.877 171.485 995.718 164.7H923.03V125.26H1058.67V157.066V157.065ZM1141.09 292.559H1092.74V125.259H1141.09V292.559ZM1145.63 76.9137C1145.63 85.6072 1142.77 92.4458 1137.04 97.4287C1131.3 102.412 1124.54 104.903 1116.75 104.903C1108.97 104.903 1102.21 102.412 1096.47 97.4287C1090.74 92.4458 1087.87 85.6072 1087.87 76.9137C1087.87 68.2201 1090.74 61.3815 1096.47 56.3987C1102.21 51.4158 1108.97 48.9248 1116.75 48.9248C1124.54 48.9248 1131.3 51.4158 1137.04 56.3987C1142.77 61.3815 1145.63 68.2201 1145.63 76.9137ZM1218 127.167H1281.92V151.977H1218V228.311C1218 236.581 1218.65 243.42 1219.94 248.826C1221.24 254.233 1223.19 258.474 1225.79 261.549C1228.38 264.623 1231.63 266.797 1235.52 268.07C1239.41 269.342 1243.96 269.977 1249.15 269.977C1258.23 269.977 1265.54 268.97 1271.05 266.956C1276.57 264.942 1280.41 263.51 1282.57 262.662L1288.41 287.152C1285.38 288.636 1280.08 290.492 1272.51 292.719C1264.94 294.945 1256.29 296.058 1246.55 296.058C1235.09 296.058 1225.62 294.627 1218.16 291.764C1210.7 288.901 1204.69 284.607 1200.15 278.882C1195.61 273.157 1192.42 266.106 1190.58 257.731C1188.74 249.355 1187.82 239.655 1187.82 228.629V81.0479L1218 75.9591V127.167H1218ZM1307.56 210.182C1307.56 195.551 1309.72 182.775 1314.05 171.855C1318.38 160.935 1324.11 151.871 1331.25 144.66C1338.39 137.451 1346.61 132.044 1355.91 128.44C1365.21 124.835 1374.73 123.033 1384.46 123.033C1407.18 123.033 1424.59 129.978 1436.71 143.866C1448.82 157.755 1454.88 178.906 1454.88 207.319C1454.88 208.591 1454.88 210.234 1454.88 212.249C1454.88 214.263 1454.77 216.118 1454.56 217.815H1339.04C1340.33 234.99 1345.42 248.031 1354.29 256.937C1363.16 265.842 1377 270.295 1395.82 270.295C1406.42 270.295 1415.35 269.393 1422.59 267.591C1429.84 265.789 1435.3 264.04 1438.98 262.343L1443.2 287.152C1439.52 289.061 1433.09 291.076 1423.89 293.196C1414.7 295.316 1404.26 296.377 1392.58 296.377C1377.87 296.377 1365.16 294.203 1354.45 289.856C1343.74 285.509 1334.93 279.519 1328 271.885C1321.08 264.252 1315.94 255.188 1312.59 244.691C1309.24 234.195 1307.56 222.691 1307.56 210.182H1307.56ZM1423.4 193.961C1423.62 180.602 1420.21 169.629 1413.18 161.041C1406.15 152.453 1396.47 148.159 1384.14 148.159C1377.22 148.159 1371.11 149.485 1365.81 152.136C1360.51 154.786 1356.02 158.232 1352.34 162.473C1348.66 166.713 1345.79 171.59 1343.74 177.103C1341.68 182.616 1340.33 188.235 1339.68 193.96H1423.4L1423.4 193.961ZM1571.7 296.377C1558.07 296.377 1546.12 294.256 1535.84 290.015C1525.57 285.774 1516.91 279.837 1509.88 272.204C1502.85 264.571 1497.61 255.505 1494.14 245.009C1490.68 234.513 1488.95 222.905 1488.95 210.182C1488.95 197.459 1490.85 185.797 1494.63 175.195C1498.42 164.593 1503.77 155.422 1510.69 147.682C1517.62 139.943 1526.11 133.9 1536.17 129.553C1546.23 125.206 1557.42 123.032 1569.75 123.032C1577.32 123.032 1584.9 123.668 1592.47 124.941C1600.04 126.213 1607.29 128.227 1614.21 130.983L1607.39 156.11C1602.85 153.99 1597.6 152.293 1591.66 151.021C1585.71 149.748 1579.38 149.113 1572.67 149.113C1555.8 149.113 1542.87 154.308 1533.89 164.698C1524.92 175.088 1520.43 190.249 1520.43 210.182C1520.43 219.087 1521.46 227.25 1523.51 234.673C1525.56 242.094 1528.81 248.455 1533.25 253.757C1537.68 259.058 1543.36 263.14 1550.28 266.002C1557.2 268.865 1565.64 270.296 1575.59 270.296C1583.6 270.296 1590.84 269.554 1597.33 268.07C1603.82 266.586 1608.91 264.996 1612.59 263.299L1616.8 288.108C1615.07 289.169 1612.59 290.176 1609.34 291.13C1606.09 292.085 1602.42 292.932 1598.31 293.675C1594.2 294.417 1589.82 295.053 1585.16 295.582C1580.51 296.113 1576.02 296.378 1571.7 296.378L1571.7 296.377ZM1649.25 292.559V50.8323L1679.43 45.7435V130.348C1685.06 128.228 1691.06 126.584 1697.44 125.418C1703.82 124.252 1710.15 123.669 1716.43 123.669C1729.84 123.669 1740.98 125.524 1749.85 129.236C1758.72 132.946 1765.8 138.141 1771.1 144.82C1776.4 151.5 1780.13 159.505 1782.3 168.834C1784.46 178.164 1785.54 188.448 1785.54 199.686V292.559H1755.36V206.046C1755.36 195.868 1754.66 187.174 1753.26 179.965C1751.85 172.756 1749.52 166.924 1746.28 162.473C1743.03 158.02 1738.71 154.786 1733.3 152.771C1727.89 150.757 1721.18 149.749 1713.18 149.749C1709.93 149.749 1706.58 149.962 1703.12 150.386C1699.66 150.81 1696.36 151.287 1693.22 151.817C1690.09 152.348 1687.27 152.931 1684.79 153.566C1682.3 154.203 1680.51 154.733 1679.43 155.156V292.559H1649.25V292.559Z" fill="#49E087"/>
<path d="M574.283 373.347C573.601 371.578 572.959 369.839 572.358 368.129C571.756 366.419 571.135 364.68 570.493 362.911H551.604L547.814 373.347H541.738C543.342 369.023 544.846 365.024 546.249 361.348C547.654 357.672 549.026 354.183 550.371 350.882C551.714 347.58 553.048 344.425 554.372 341.418C555.695 338.411 557.078 335.433 558.522 332.485H563.876C565.32 335.433 566.703 338.411 568.027 341.418C569.351 344.425 570.684 347.58 572.028 350.882C573.372 354.184 574.745 357.673 576.149 361.348C577.553 365.024 579.057 369.023 580.661 373.347H574.284H574.283ZM568.809 358.193C567.525 354.773 566.252 351.461 564.989 348.258C563.725 345.054 562.412 341.978 561.048 339.03C559.644 341.978 558.311 345.054 557.047 348.258C555.784 351.461 554.531 354.773 553.287 358.193H568.808H568.809ZM607.669 358.075C607.669 354.498 606.767 351.746 604.963 349.82C603.158 347.895 600.752 346.931 597.743 346.931C596.06 346.931 594.746 346.99 593.803 347.108C592.86 347.226 592.109 347.364 591.548 347.521V366.861C592.229 367.411 593.211 367.942 594.495 368.453C595.779 368.964 597.182 369.219 598.707 369.219C600.31 369.219 601.684 368.934 602.828 368.364C603.971 367.794 604.903 367.008 605.625 366.005C606.347 365.003 606.869 363.824 607.189 362.467C607.509 361.111 607.669 359.648 607.669 358.075V358.075ZM613.505 358.075C613.505 360.394 613.194 362.537 612.572 364.502C611.951 366.468 611.039 368.159 609.836 369.574C608.632 370.989 607.159 372.089 605.413 372.875C603.669 373.662 601.674 374.055 599.428 374.055C597.623 374.055 596.029 373.819 594.645 373.347C593.261 372.875 592.229 372.423 591.548 371.991V384.255H585.953V343.629C587.277 343.315 588.931 342.971 590.916 342.597C592.901 342.223 595.197 342.037 597.804 342.037C600.21 342.037 602.375 342.41 604.301 343.157C606.225 343.905 607.87 344.965 609.234 346.341C610.597 347.718 611.649 349.398 612.392 351.382C613.134 353.368 613.505 355.599 613.505 358.075V358.075ZM630.77 373.937C627.321 373.858 624.875 373.131 623.431 371.756C621.986 370.379 621.265 368.237 621.265 365.328V328.535L626.86 327.591V364.443C626.86 365.348 626.939 366.095 627.1 366.684C627.26 367.274 627.521 367.746 627.882 368.099C628.243 368.453 628.725 368.719 629.326 368.896C629.928 369.073 630.671 369.22 631.552 369.338L630.77 373.937V373.937ZM643.403 373.347H637.808V342.686H643.403V373.347ZM640.576 337.143C639.573 337.143 638.721 336.818 638.019 336.17C637.317 335.521 636.966 334.647 636.966 333.546C636.966 332.445 637.317 331.571 638.019 330.922C638.721 330.274 639.573 329.949 640.576 329.949C641.578 329.949 642.43 330.274 643.132 330.922C643.834 331.571 644.185 332.445 644.185 333.546C644.185 334.647 643.834 335.521 643.132 336.17C642.43 336.818 641.578 337.143 640.576 337.143ZM666.624 374.054C664.097 374.054 661.882 373.661 659.976 372.874C658.072 372.088 656.467 370.988 655.164 369.573C653.86 368.157 652.888 366.477 652.246 364.531C651.604 362.585 651.283 360.433 651.283 358.075C651.283 355.716 651.634 353.554 652.337 351.589C653.038 349.623 654.031 347.923 655.314 346.488C656.598 345.053 658.172 343.933 660.036 343.127C661.9 342.321 663.977 341.918 666.262 341.918C667.666 341.918 669.07 342.036 670.474 342.272C671.878 342.508 673.221 342.882 674.505 343.393L673.241 348.051C672.398 347.657 671.426 347.343 670.323 347.106C669.22 346.871 668.047 346.753 666.804 346.753C663.676 346.753 661.28 347.716 659.615 349.642C657.951 351.568 657.119 354.378 657.119 358.074C657.119 359.724 657.309 361.238 657.69 362.614C658.072 363.99 658.673 365.169 659.495 366.152C660.317 367.134 661.369 367.891 662.653 368.422C663.937 368.953 665.5 369.218 667.345 369.218C668.829 369.218 670.172 369.08 671.376 368.805C672.579 368.53 673.521 368.235 674.203 367.92L674.986 372.519C674.665 372.716 674.203 372.902 673.601 373.08C672.999 373.256 672.317 373.413 671.556 373.551C670.794 373.689 669.982 373.806 669.12 373.905C668.258 374.003 667.426 374.052 666.624 374.052V374.054ZM691.59 369.396C692.914 369.396 694.086 369.367 695.11 369.308C696.132 369.249 696.984 369.14 697.666 368.984V359.844C697.265 359.648 696.613 359.48 695.712 359.343C694.808 359.205 693.716 359.137 692.433 359.137C691.59 359.137 690.699 359.195 689.756 359.313C688.813 359.431 687.952 359.677 687.169 360.05C686.386 360.424 685.735 360.935 685.214 361.583C684.693 362.232 684.432 363.086 684.432 364.148C684.432 366.113 685.074 367.48 686.356 368.246C687.641 369.013 689.384 369.396 691.59 369.396V369.396ZM691.109 341.919C693.355 341.919 695.25 342.204 696.793 342.774C698.338 343.344 699.581 344.151 700.523 345.191C701.466 346.233 702.137 347.471 702.538 348.907C702.94 350.342 703.14 351.923 703.14 353.653V372.815C702.658 372.894 701.987 373.002 701.125 373.14C700.262 373.278 699.291 373.405 698.208 373.523C697.125 373.641 695.952 373.749 694.688 373.848C693.424 373.946 692.172 373.995 690.928 373.995C689.164 373.995 687.539 373.818 686.056 373.464C684.572 373.111 683.289 372.55 682.205 371.784C681.122 371.018 680.281 370.006 679.679 368.747C679.077 367.489 678.777 365.976 678.777 364.208C678.777 362.518 679.128 361.063 679.829 359.844C680.531 358.625 681.483 357.643 682.687 356.896C683.891 356.149 685.294 355.598 686.898 355.245C688.502 354.891 690.187 354.714 691.951 354.714C692.513 354.714 693.095 354.744 693.696 354.803C694.298 354.861 694.869 354.94 695.409 355.039C695.951 355.137 696.422 355.225 696.824 355.304C697.225 355.383 697.506 355.442 697.666 355.481V353.948C697.666 353.044 697.566 352.15 697.365 351.265C697.165 350.381 696.803 349.595 696.282 348.907C695.76 348.219 695.049 347.669 694.146 347.256C693.244 346.844 692.071 346.637 690.627 346.637C688.783 346.637 687.169 346.765 685.785 347.021C684.401 347.276 683.369 347.541 682.687 347.817L682.025 343.277C682.747 342.963 683.95 342.658 685.634 342.362C687.319 342.068 689.144 341.921 691.109 341.921V341.919ZM717.637 342.686H729.489V347.284H717.637V361.436C717.637 362.968 717.758 364.236 717.999 365.239C718.239 366.242 718.601 367.028 719.082 367.598C719.563 368.168 720.165 368.57 720.886 368.806C721.608 369.043 722.45 369.16 723.412 369.16C725.097 369.16 726.451 368.973 727.473 368.6C728.497 368.227 729.208 367.961 729.609 367.804L730.692 372.344C730.13 372.619 729.148 372.963 727.744 373.376C726.34 373.789 724.736 373.995 722.932 373.995C720.807 373.995 719.052 373.73 717.668 373.199C716.284 372.668 715.172 371.872 714.33 370.811C713.487 369.749 712.896 368.443 712.555 366.89C712.214 365.337 712.044 363.538 712.044 361.495V334.135L717.638 333.191V342.685L717.637 342.686ZM742.182 373.347H736.587V342.686H742.182V373.347ZM739.355 337.143C738.351 337.143 737.5 336.818 736.798 336.17C736.096 335.521 735.745 334.647 735.745 333.546C735.745 332.445 736.096 331.571 736.798 330.922C737.5 330.274 738.351 329.949 739.355 329.949C740.357 329.949 741.209 330.274 741.911 330.922C742.613 331.571 742.964 332.445 742.964 333.546C742.964 334.647 742.613 335.521 741.911 336.17C741.209 336.818 740.357 337.143 739.355 337.143ZM776.231 342.686C774.667 348.425 772.833 353.928 770.727 359.195C768.622 364.463 766.586 369.18 764.621 373.346H759.568C757.604 369.179 755.567 364.463 753.462 359.195C751.357 353.928 749.522 348.425 747.958 342.686H753.974C754.455 344.611 755.026 346.666 755.687 348.848C756.349 351.029 757.052 353.191 757.793 355.334C758.535 357.476 759.287 359.55 760.048 361.554C760.811 363.559 761.533 365.348 762.215 366.92C762.896 365.348 763.618 363.559 764.38 361.554C765.142 359.55 765.893 357.476 766.635 355.334C767.377 353.191 768.08 351.029 768.741 348.848C769.403 346.666 769.974 344.611 770.455 342.686H776.229H776.231ZM808.776 358.016C808.776 360.453 808.414 362.655 807.692 364.62C806.97 366.586 805.958 368.277 804.655 369.691C803.351 371.107 801.797 372.197 799.992 372.963C798.189 373.731 796.223 374.114 794.097 374.114C791.972 374.114 790.006 373.731 788.202 372.963C786.398 372.197 784.843 371.107 783.54 369.691C782.237 368.276 781.225 366.586 780.502 364.62C779.78 362.655 779.419 360.453 779.419 358.016C779.419 355.619 779.78 353.428 780.502 351.441C781.225 349.457 782.237 347.756 783.54 346.341C784.844 344.926 786.398 343.835 788.202 343.069C790.006 342.302 791.972 341.919 794.097 341.919C796.223 341.919 798.189 342.302 799.992 343.069C801.797 343.835 803.352 344.926 804.655 346.341C805.958 347.757 806.97 349.457 807.692 351.441C808.414 353.427 808.776 355.619 808.776 358.016ZM802.941 358.016C802.941 354.557 802.148 351.816 800.564 349.791C798.98 347.766 796.825 346.755 794.097 346.755C791.371 346.755 789.215 347.766 787.63 349.791C786.047 351.816 785.255 354.557 785.255 358.016C785.255 361.476 786.047 364.217 787.63 366.242C789.214 368.266 791.371 369.278 794.097 369.278C796.825 369.278 798.98 368.266 800.564 366.242C802.148 364.217 802.941 361.476 802.941 358.016ZM852.27 358.075C852.27 354.498 851.368 351.746 849.564 349.82C847.759 347.895 845.352 346.931 842.344 346.931C840.66 346.931 839.347 346.99 838.404 347.108C837.461 347.226 836.71 347.364 836.148 347.521V366.861C836.83 367.411 837.812 367.942 839.096 368.453C840.379 368.964 841.783 369.219 843.307 369.219C844.911 369.219 846.285 368.934 847.429 368.364C848.571 367.794 849.504 367.008 850.226 366.005C850.948 365.003 851.469 363.824 851.789 362.467C852.11 361.111 852.27 359.648 852.27 358.075V358.075ZM858.106 358.075C858.106 360.394 857.795 362.537 857.173 364.502C856.551 366.468 855.639 368.159 854.436 369.574C853.233 370.989 851.759 372.089 850.014 372.875C848.27 373.662 846.274 374.055 844.029 374.055C842.224 374.055 840.629 373.819 839.246 373.347C837.862 372.875 836.83 372.423 836.148 371.991V384.255H830.554V343.629C831.878 343.315 833.531 342.971 835.517 342.597C837.502 342.223 839.798 342.037 842.405 342.037C844.811 342.037 846.976 342.41 848.902 343.157C850.826 343.905 852.471 344.965 853.834 346.341C855.198 347.718 856.25 349.398 856.992 351.382C857.735 353.368 858.106 355.599 858.106 358.075V358.075ZM876.574 369.396C877.898 369.396 879.07 369.367 880.094 369.308C881.116 369.249 881.968 369.14 882.65 368.984V359.844C882.248 359.648 881.597 359.48 880.695 359.343C879.792 359.205 878.7 359.137 877.417 359.137C876.574 359.137 875.682 359.195 874.739 359.313C873.797 359.431 872.935 359.677 872.153 360.05C871.37 360.424 870.719 360.935 870.198 361.583C869.677 362.232 869.416 363.086 869.416 364.148C869.416 366.113 870.058 367.48 871.34 368.246C872.624 369.013 874.368 369.396 876.574 369.396V369.396ZM876.093 341.919C878.338 341.919 880.234 342.204 881.777 342.774C883.321 343.344 884.565 344.151 885.507 345.191C886.45 346.233 887.121 347.471 887.522 348.907C887.923 350.342 888.124 351.923 888.124 353.653V372.815C887.642 372.894 886.971 373.002 886.109 373.14C885.246 373.278 884.275 373.405 883.191 373.523C882.109 373.641 880.936 373.749 879.672 373.848C878.408 373.946 877.156 373.995 875.912 373.995C874.148 373.995 872.523 373.818 871.04 373.464C869.556 373.111 868.272 372.55 867.189 371.784C866.106 371.018 865.265 370.006 864.663 368.747C864.061 367.489 863.761 365.976 863.761 364.208C863.761 362.518 864.111 361.063 864.813 359.844C865.515 358.625 866.467 357.643 867.671 356.896C868.874 356.149 870.278 355.598 871.882 355.245C873.486 354.891 875.171 354.714 876.935 354.714C877.497 354.714 878.078 354.744 878.68 354.803C879.281 354.861 879.852 354.94 880.393 355.039C880.935 355.137 881.406 355.225 881.807 355.304C882.209 355.383 882.49 355.442 882.65 355.481V353.948C882.65 353.044 882.55 352.15 882.349 351.265C882.148 350.381 881.787 349.595 881.266 348.907C880.744 348.219 880.033 347.669 879.13 347.256C878.228 346.844 877.055 346.637 875.611 346.637C873.766 346.637 872.152 346.765 870.769 347.021C869.385 347.276 868.353 347.541 867.671 347.817L867.009 343.277C867.731 342.963 868.934 342.658 870.618 342.362C872.303 342.068 874.128 341.921 876.093 341.921V341.919ZM908.938 342.037C909.42 342.037 909.971 342.066 910.592 342.125C911.214 342.184 911.825 342.263 912.426 342.361C913.028 342.46 913.58 342.558 914.08 342.656C914.582 342.754 914.953 342.843 915.194 342.921L914.231 347.697C913.789 347.54 913.058 347.353 912.035 347.137C911.012 346.921 909.7 346.813 908.095 346.813C907.052 346.813 906.02 346.921 904.997 347.137C903.974 347.353 903.303 347.501 902.982 347.579V373.346H897.387V343.983C898.711 343.51 900.355 343.068 902.32 342.655C904.285 342.242 906.491 342.036 908.937 342.036L908.938 342.037ZM931.197 369.396C932.521 369.396 933.693 369.367 934.716 369.308C935.739 369.249 936.591 369.14 937.272 368.984V359.844C936.871 359.648 936.22 359.48 935.318 359.343C934.415 359.205 933.322 359.137 932.039 359.137C931.197 359.137 930.305 359.195 929.362 359.313C928.42 359.431 927.558 359.677 926.776 360.05C925.993 360.424 925.342 360.935 924.821 361.583C924.299 362.232 924.039 363.086 924.039 364.148C924.039 366.113 924.68 367.48 925.963 368.246C927.247 369.013 928.991 369.396 931.197 369.396V369.396ZM930.715 341.919C932.961 341.919 934.857 342.204 936.4 342.774C937.944 343.344 939.187 344.151 940.13 345.191C941.073 346.233 941.744 347.471 942.145 348.907C942.546 350.342 942.747 351.923 942.747 353.653V372.815C942.265 372.894 941.593 373.002 940.731 373.14C939.869 373.278 938.897 373.405 937.814 373.523C936.731 373.641 935.558 373.749 934.295 373.848C933.031 373.946 931.778 373.995 930.535 373.995C928.771 373.995 927.146 373.818 925.662 373.464C924.178 373.111 922.895 372.55 921.812 371.784C920.729 371.018 919.887 370.006 919.286 368.747C918.684 367.489 918.383 365.976 918.383 364.208C918.383 362.518 918.734 361.063 919.436 359.844C920.138 358.625 921.09 357.643 922.293 356.896C923.497 356.149 924.9 355.598 926.505 355.245C928.109 354.891 929.793 354.714 931.557 354.714C932.119 354.714 932.701 354.744 933.302 354.803C933.904 354.861 934.475 354.94 935.016 355.039C935.558 355.137 936.029 355.225 936.43 355.304C936.831 355.383 937.112 355.442 937.272 355.481V353.948C937.272 353.044 937.172 352.15 936.972 351.265C936.771 350.381 936.41 349.595 935.888 348.907C935.367 348.219 934.655 347.669 933.753 347.256C932.85 346.844 931.678 346.637 930.234 346.637C928.389 346.637 926.775 346.765 925.392 347.021C924.008 347.276 922.976 347.541 922.293 347.817L921.631 343.277C922.353 342.963 923.556 342.658 925.241 342.362C926.925 342.068 928.75 341.921 930.715 341.921V341.919ZM966.268 373.346V332.484H991.715V337.378H972.105V349.525H989.55V354.301H972.105V368.452H993.22V373.346H966.269L966.268 373.346ZM1019.51 373.346C1019.07 372.481 1018.52 371.518 1017.88 370.457C1017.24 369.395 1016.54 368.305 1015.78 367.184C1015.02 366.064 1014.23 364.954 1013.43 363.853C1012.63 362.752 1011.85 361.711 1011.09 360.728C1010.32 361.711 1009.54 362.762 1008.74 363.882C1007.94 365.003 1007.17 366.123 1006.42 367.243C1005.68 368.364 1004.99 369.454 1004.35 370.516C1003.71 371.577 1003.17 372.521 1002.73 373.346H996.95C998.354 370.673 1000.03 367.951 1001.97 365.18C1003.92 362.409 1005.85 359.765 1007.78 357.25L997.431 342.686H1003.75L1011.21 353.416L1018.73 342.686H1024.68L1014.58 356.896C1016.5 359.451 1018.48 362.153 1020.5 365.003C1022.53 367.853 1024.24 370.634 1025.64 373.346H1019.51H1019.51ZM1053.25 358.075C1053.25 354.497 1052.35 351.745 1050.55 349.82C1048.74 347.894 1046.34 346.931 1043.33 346.931C1041.64 346.931 1040.33 346.989 1039.39 347.107C1038.45 347.225 1037.69 347.363 1037.13 347.52V366.86C1037.81 367.411 1038.8 367.942 1040.08 368.452C1041.36 368.963 1042.77 369.218 1044.29 369.218C1045.9 369.218 1047.27 368.933 1048.41 368.363C1049.56 367.793 1050.49 367.007 1051.21 366.005C1051.93 365.002 1052.45 363.823 1052.77 362.467C1053.09 361.11 1053.25 359.647 1053.25 358.074V358.075ZM1059.09 358.075C1059.09 360.394 1058.78 362.536 1058.16 364.502C1057.54 366.467 1056.62 368.158 1055.42 369.573C1054.22 370.988 1052.74 372.088 1051 372.874C1049.25 373.661 1047.26 374.054 1045.01 374.054C1043.21 374.054 1041.61 373.818 1040.23 373.346C1038.85 372.874 1037.81 372.422 1037.13 371.99V384.255H1031.54V343.628C1032.86 343.314 1034.52 342.97 1036.5 342.597C1038.49 342.222 1040.78 342.036 1043.39 342.036C1045.8 342.036 1047.96 342.409 1049.89 343.156C1051.81 343.904 1053.46 344.964 1054.82 346.341C1056.18 347.717 1057.23 349.397 1057.98 351.382C1058.72 353.367 1059.09 355.598 1059.09 358.075V358.075ZM1065.23 358.075C1065.23 355.362 1065.63 352.994 1066.43 350.969C1067.23 348.945 1068.29 347.264 1069.62 345.927C1070.94 344.591 1072.47 343.589 1074.19 342.921C1075.91 342.253 1077.68 341.918 1079.48 341.918C1083.69 341.918 1086.92 343.206 1089.17 345.78C1091.42 348.355 1092.54 352.276 1092.54 357.544C1092.54 357.78 1092.54 358.084 1092.54 358.458C1092.54 358.832 1092.52 359.176 1092.48 359.49H1071.06C1071.3 362.674 1072.25 365.091 1073.89 366.743C1075.53 368.394 1078.1 369.219 1081.59 369.219C1083.55 369.219 1085.21 369.052 1086.55 368.718C1087.9 368.384 1088.91 368.059 1089.59 367.745L1090.37 372.344C1089.69 372.698 1088.5 373.071 1086.79 373.464C1085.09 373.857 1083.15 374.054 1080.99 374.054C1078.26 374.054 1075.9 373.651 1073.92 372.845C1071.93 372.039 1070.3 370.929 1069.02 369.513C1067.73 368.098 1066.78 366.418 1066.16 364.472C1065.54 362.526 1065.23 360.394 1065.23 358.075H1065.23ZM1086.7 355.068C1086.74 352.591 1086.11 350.557 1084.81 348.965C1083.5 347.373 1081.71 346.576 1079.42 346.576C1078.14 346.576 1077.01 346.822 1076.03 347.313C1075.04 347.805 1074.21 348.444 1073.53 349.23C1072.85 350.016 1072.32 350.92 1071.93 351.942C1071.55 352.964 1071.3 354.006 1071.18 355.068H1086.7H1086.7ZM1112.15 342.036C1112.63 342.036 1113.18 342.066 1113.8 342.124C1114.43 342.183 1115.04 342.262 1115.64 342.36C1116.24 342.459 1116.79 342.557 1117.29 342.655C1117.79 342.753 1118.17 342.842 1118.41 342.921L1117.44 347.696C1117 347.539 1116.27 347.353 1115.25 347.136C1114.22 346.92 1112.91 346.812 1111.31 346.812C1110.26 346.812 1109.23 346.92 1108.21 347.136C1107.19 347.353 1106.52 347.5 1106.19 347.579V373.346H1100.6V343.982C1101.92 343.51 1103.57 343.067 1105.53 342.655C1107.5 342.241 1109.7 342.035 1112.15 342.035L1112.15 342.036ZM1129.42 373.346H1123.82V342.684H1129.42V373.346ZM1126.59 337.142C1125.59 337.142 1124.73 336.817 1124.03 336.168C1123.33 335.519 1122.98 334.646 1122.98 333.545C1122.98 332.444 1123.33 331.57 1124.03 330.921C1124.73 330.272 1125.59 329.947 1126.59 329.947C1127.59 329.947 1128.44 330.272 1129.14 330.921C1129.85 331.57 1130.2 332.444 1130.2 333.545C1130.2 334.646 1129.85 335.519 1129.14 336.168C1128.44 336.817 1127.59 337.142 1126.59 337.142ZM1139.04 343.569C1140.32 343.254 1142.02 342.92 1144.12 342.566C1146.23 342.212 1148.67 342.035 1151.43 342.035C1153.44 342.035 1155.12 342.3 1156.49 342.831C1157.85 343.362 1158.99 344.139 1159.92 345.16C1160.2 344.963 1160.64 344.689 1161.24 344.334C1161.84 343.981 1162.58 343.637 1163.46 343.303C1164.35 342.968 1165.33 342.673 1166.41 342.417C1167.5 342.162 1168.66 342.034 1169.9 342.034C1172.31 342.034 1174.27 342.378 1175.8 343.066C1177.32 343.755 1178.51 344.727 1179.38 345.986C1180.24 347.243 1180.82 348.737 1181.12 350.466C1181.42 352.195 1181.57 354.083 1181.57 356.126V373.344H1175.98V357.306C1175.98 355.498 1175.89 353.944 1175.71 352.647C1175.53 351.35 1175.19 350.269 1174.68 349.404C1174.18 348.54 1173.5 347.901 1172.64 347.489C1171.78 347.075 1170.66 346.869 1169.3 346.869C1167.42 346.869 1165.86 347.115 1164.64 347.606C1163.42 348.098 1162.58 348.54 1162.14 348.934C1162.46 349.956 1162.7 351.076 1162.86 352.295C1163.02 353.514 1163.11 354.791 1163.11 356.127V373.345H1157.51V357.306C1157.51 355.498 1157.41 353.945 1157.21 352.648C1157.01 351.351 1156.66 350.27 1156.16 349.405C1155.66 348.54 1154.97 347.902 1154.11 347.489C1153.25 347.076 1152.16 346.87 1150.83 346.87C1150.27 346.87 1149.67 346.89 1149.03 346.929C1148.39 346.968 1147.77 347.017 1147.19 347.076C1146.61 347.135 1146.08 347.204 1145.6 347.282C1145.12 347.361 1144.8 347.42 1144.64 347.46V373.345H1139.04V343.568L1139.04 343.569ZM1189.09 358.074C1189.09 355.361 1189.49 352.993 1190.29 350.968C1191.1 348.944 1192.16 347.263 1193.48 345.927C1194.81 344.59 1196.33 343.588 1198.05 342.92C1199.78 342.252 1201.54 341.917 1203.35 341.917C1207.56 341.917 1210.79 343.205 1213.03 345.779C1215.28 348.354 1216.4 352.276 1216.4 357.543C1216.4 357.779 1216.4 358.083 1216.4 358.457C1216.4 358.831 1216.38 359.175 1216.34 359.489H1194.93C1195.17 362.674 1196.11 365.091 1197.75 366.742C1199.4 368.393 1201.97 369.218 1205.45 369.218C1207.42 369.218 1209.07 369.051 1210.42 368.717C1211.76 368.383 1212.77 368.059 1213.45 367.744L1214.24 372.343C1213.55 372.697 1212.36 373.07 1210.66 373.463C1208.95 373.857 1207.02 374.053 1204.85 374.053C1202.12 374.053 1199.77 373.65 1197.78 372.844C1195.8 372.038 1194.16 370.929 1192.88 369.512C1191.6 368.097 1190.64 366.417 1190.02 364.471C1189.4 362.526 1189.09 360.393 1189.09 358.074H1189.09ZM1210.57 355.067C1210.61 352.59 1209.98 350.556 1208.67 348.964C1207.37 347.372 1205.58 346.575 1203.29 346.575C1202.01 346.575 1200.87 346.822 1199.89 347.313C1198.91 347.805 1198.08 348.443 1197.39 349.229C1196.71 350.015 1196.18 350.919 1195.8 351.941C1195.42 352.963 1195.17 354.005 1195.05 355.067H1210.57H1210.57ZM1224.46 343.569C1225.75 343.254 1227.45 342.92 1229.58 342.566C1231.7 342.212 1234.15 342.035 1236.92 342.035C1239.4 342.035 1241.47 342.379 1243.11 343.067C1244.76 343.756 1246.07 344.718 1247.05 345.957C1248.04 347.195 1248.73 348.679 1249.13 350.408C1249.53 352.137 1249.73 354.045 1249.73 356.127V373.345H1244.14V357.306C1244.14 355.419 1244.01 353.807 1243.75 352.471C1243.48 351.135 1243.05 350.054 1242.45 349.228C1241.85 348.403 1241.05 347.803 1240.05 347.431C1239.04 347.056 1237.8 346.87 1236.32 346.87C1235.71 346.87 1235.09 346.89 1234.45 346.929C1233.81 346.968 1233.2 347.017 1232.62 347.076C1232.03 347.135 1231.51 347.204 1231.05 347.282C1230.59 347.361 1230.26 347.42 1230.06 347.46V373.345H1224.46V343.568L1224.46 343.569ZM1264.23 342.684H1276.08V347.282H1264.23V361.434C1264.23 362.967 1264.35 364.235 1264.59 365.237C1264.83 366.24 1265.19 367.026 1265.67 367.596C1266.15 368.166 1266.76 368.569 1267.48 368.805C1268.2 369.041 1269.04 369.159 1270 369.159C1271.69 369.159 1273.04 368.972 1274.06 368.598C1275.09 368.225 1275.8 367.96 1276.2 367.802L1277.28 372.342C1276.72 372.617 1275.74 372.961 1274.34 373.374C1272.93 373.787 1271.33 373.994 1269.52 373.994C1267.4 373.994 1265.64 373.728 1264.26 373.197C1262.88 372.666 1261.76 371.87 1260.92 370.809C1260.08 369.748 1259.49 368.441 1259.15 366.888C1258.81 365.336 1258.64 363.537 1258.64 361.493V334.133L1264.23 333.19V342.683L1264.23 342.684ZM1309.95 358.015C1309.95 360.452 1309.59 362.653 1308.87 364.619C1308.14 366.584 1307.13 368.275 1305.83 369.69C1304.52 371.105 1302.97 372.195 1301.17 372.962C1299.36 373.729 1297.4 374.112 1295.27 374.112C1293.14 374.112 1291.18 373.729 1289.38 372.962C1287.57 372.195 1286.02 371.105 1284.71 369.69C1283.41 368.274 1282.4 366.584 1281.68 364.619C1280.95 362.654 1280.59 360.452 1280.59 358.015C1280.59 355.617 1280.95 353.426 1281.68 351.44C1282.4 349.455 1283.41 347.755 1284.71 346.34C1286.02 344.924 1287.57 343.834 1289.38 343.067C1291.18 342.3 1293.14 341.917 1295.27 341.917C1297.4 341.917 1299.36 342.3 1301.17 343.067C1302.97 343.834 1304.52 344.924 1305.83 346.34C1307.13 347.755 1308.14 349.455 1308.87 351.44C1309.59 353.425 1309.95 355.617 1309.95 358.015ZM1304.11 358.015C1304.11 354.556 1303.32 351.814 1301.74 349.789C1300.15 347.765 1298 346.753 1295.27 346.753C1292.54 346.753 1290.39 347.765 1288.8 349.789C1287.22 351.814 1286.43 354.556 1286.43 358.015C1286.43 361.474 1287.22 364.216 1288.8 366.24C1290.39 368.264 1292.54 369.277 1295.27 369.277C1298 369.277 1300.15 368.264 1301.74 366.24C1303.32 364.216 1304.11 361.474 1304.11 358.015ZM1329.98 358.074C1329.98 355.361 1330.38 352.993 1331.18 350.968C1331.99 348.944 1333.05 347.263 1334.37 345.927C1335.7 344.59 1337.22 343.588 1338.94 342.92C1340.67 342.252 1342.43 341.917 1344.24 341.917C1348.45 341.917 1351.68 343.205 1353.92 345.779C1356.17 348.354 1357.29 352.276 1357.29 357.543C1357.29 357.779 1357.29 358.083 1357.29 358.457C1357.29 358.831 1357.27 359.175 1357.23 359.489H1335.82C1336.06 362.674 1337 365.091 1338.64 366.742C1340.29 368.393 1342.85 369.218 1346.34 369.218C1348.31 369.218 1349.96 369.051 1351.31 368.717C1352.65 368.383 1353.66 368.059 1354.34 367.744L1355.13 372.343C1354.44 372.697 1353.25 373.07 1351.55 373.463C1349.84 373.857 1347.91 374.053 1345.74 374.053C1343.01 374.053 1340.66 373.65 1338.67 372.844C1336.69 372.038 1335.05 370.929 1333.77 369.512C1332.49 368.097 1331.53 366.417 1330.91 364.471C1330.29 362.526 1329.98 360.393 1329.98 358.074H1329.98ZM1351.46 355.067C1351.5 352.59 1350.87 350.556 1349.56 348.964C1348.26 347.372 1346.46 346.575 1344.18 346.575C1342.89 346.575 1341.76 346.822 1340.78 347.313C1339.8 347.805 1338.97 348.443 1338.28 349.229C1337.6 350.015 1337.07 350.919 1336.69 351.941C1336.31 352.963 1336.06 354.005 1335.94 355.067H1351.46H1351.46ZM1407.46 373.346C1406.78 371.577 1406.14 369.837 1405.54 368.127C1404.94 366.418 1404.32 364.678 1403.67 362.909H1384.79L1381 373.346H1374.92C1376.52 369.021 1378.03 365.022 1379.43 361.347C1380.84 357.671 1382.21 354.182 1383.55 350.881C1384.9 347.579 1386.23 344.424 1387.55 341.417C1388.88 338.41 1390.26 335.432 1391.7 332.484H1397.06C1398.5 335.432 1399.88 338.41 1401.21 341.417C1402.53 344.424 1403.87 347.579 1405.21 350.881C1406.55 354.182 1407.93 357.672 1409.33 361.347C1410.73 365.022 1412.24 369.021 1413.84 373.346H1407.47H1407.46ZM1401.99 358.192C1400.71 354.771 1399.43 351.46 1398.17 348.256C1396.91 345.053 1395.59 341.976 1394.23 339.028C1392.83 341.976 1391.49 345.053 1390.23 348.256C1388.97 351.46 1387.71 354.771 1386.47 358.192H1401.99H1401.99Z" fill="#49E087"/>
<path d="M1419.13 343.57C1420.42 343.256 1422.12 342.922 1424.25 342.568C1426.37 342.214 1428.82 342.037 1431.58 342.037C1434.07 342.037 1436.14 342.381 1437.78 343.069C1439.43 343.757 1440.74 344.72 1441.72 345.959C1442.71 347.197 1443.4 348.681 1443.8 350.41C1444.2 352.139 1444.4 354.046 1444.4 356.129V373.347H1438.8V357.308C1438.8 355.421 1438.67 353.809 1438.41 352.473C1438.15 351.137 1437.72 350.056 1437.12 349.23C1436.52 348.404 1435.72 347.805 1434.71 347.432C1433.71 347.058 1432.47 346.872 1430.98 346.872C1430.38 346.872 1429.76 346.892 1429.12 346.931C1428.48 346.97 1427.87 347.019 1427.28 347.078C1426.7 347.137 1426.18 347.206 1425.72 347.284C1425.26 347.363 1424.93 347.422 1424.73 347.462V373.347H1419.13V343.57L1419.13 343.57ZM1464.25 369.396C1465.57 369.396 1466.75 369.367 1467.77 369.308C1468.79 369.249 1469.64 369.141 1470.33 368.984V359.844C1469.93 359.648 1469.27 359.481 1468.37 359.343C1467.47 359.205 1466.38 359.137 1465.09 359.137C1464.25 359.137 1463.36 359.196 1462.42 359.313C1461.47 359.431 1460.61 359.677 1459.83 360.051C1459.05 360.424 1458.4 360.935 1457.87 361.583C1457.35 362.232 1457.09 363.086 1457.09 364.148C1457.09 366.113 1457.73 367.48 1459.02 368.247C1460.3 369.013 1462.04 369.396 1464.25 369.396ZM1463.77 341.919C1466.01 341.919 1467.91 342.204 1469.45 342.774C1471 343.344 1472.24 344.151 1473.18 345.191C1474.13 346.233 1474.8 347.471 1475.2 348.907C1475.6 350.342 1475.8 351.923 1475.8 353.653V372.816C1475.32 372.894 1474.65 373.003 1473.79 373.14C1472.92 373.278 1471.95 373.405 1470.87 373.523C1469.79 373.641 1468.61 373.749 1467.35 373.848C1466.08 373.946 1464.83 373.995 1463.59 373.995C1461.82 373.995 1460.2 373.819 1458.72 373.464C1457.23 373.111 1455.95 372.55 1454.87 371.785C1453.78 371.018 1452.94 370.006 1452.34 368.747C1451.74 367.49 1451.44 365.976 1451.44 364.208C1451.44 362.518 1451.79 361.063 1452.49 359.844C1453.19 358.625 1454.14 357.643 1455.35 356.896C1456.55 356.149 1457.95 355.598 1459.56 355.245C1461.16 354.891 1462.85 354.714 1464.61 354.714C1465.17 354.714 1465.76 354.744 1466.36 354.803C1466.96 354.862 1467.53 354.94 1468.07 355.039C1468.61 355.137 1469.08 355.225 1469.48 355.304C1469.89 355.383 1470.17 355.442 1470.33 355.481V353.948C1470.33 353.044 1470.23 352.15 1470.03 351.266C1469.83 350.381 1469.46 349.595 1468.94 348.907C1468.42 348.219 1467.71 347.669 1466.81 347.256C1465.9 346.844 1464.73 346.637 1463.29 346.637C1461.44 346.637 1459.83 346.765 1458.45 347.021C1457.06 347.276 1456.03 347.541 1455.35 347.817L1454.69 343.277C1455.41 342.963 1456.61 342.658 1458.29 342.363C1459.98 342.068 1461.8 341.921 1463.77 341.921V341.919ZM1471.95 331.07L1463.47 339.148L1460.64 336.671L1468.34 327.591L1471.95 331.07V331.07ZM1494.45 373.936C1491 373.858 1488.55 373.13 1487.11 371.755C1485.66 370.379 1484.94 368.236 1484.94 365.327V328.534L1490.54 327.591V364.443C1490.54 365.347 1490.62 366.094 1490.78 366.683C1490.94 367.273 1491.2 367.745 1491.56 368.099C1491.92 368.453 1492.4 368.718 1493 368.895C1493.61 369.072 1494.35 369.219 1495.23 369.337L1494.45 373.936V373.936ZM1507.08 373.347H1501.49V342.685H1507.08V373.347ZM1504.26 337.143C1503.25 337.143 1502.4 336.818 1501.7 336.169C1501 335.52 1500.65 334.647 1500.65 333.546C1500.65 332.445 1501 331.571 1501.7 330.922C1502.4 330.273 1503.25 329.948 1504.26 329.948C1505.26 329.948 1506.11 330.273 1506.81 330.922C1507.51 331.571 1507.86 332.445 1507.86 333.546C1507.86 334.647 1507.51 335.52 1506.81 336.169C1506.11 336.818 1505.26 337.143 1504.26 337.143ZM1523.99 369.395C1526.27 369.395 1527.97 369.101 1529.07 368.511C1530.17 367.921 1530.72 366.978 1530.72 365.681C1530.72 364.344 1530.18 363.283 1529.1 362.496C1528.02 361.711 1526.23 360.826 1523.75 359.844C1522.54 359.372 1521.39 358.89 1520.29 358.398C1519.18 357.907 1518.23 357.327 1517.43 356.659C1516.63 355.991 1515.99 355.186 1515.5 354.241C1515.02 353.298 1514.78 352.139 1514.78 350.762C1514.78 348.051 1515.81 345.898 1517.85 344.306C1519.9 342.715 1522.68 341.918 1526.21 341.918C1527.09 341.918 1527.98 341.967 1528.86 342.066C1529.74 342.164 1530.56 342.282 1531.32 342.419C1532.09 342.557 1532.76 342.704 1533.34 342.862C1533.92 343.019 1534.37 343.156 1534.69 343.275L1533.67 347.991C1533.07 347.677 1532.13 347.353 1530.84 347.018C1529.56 346.684 1528.02 346.517 1526.21 346.517C1524.65 346.517 1523.28 346.822 1522.12 347.432C1520.96 348.041 1520.38 348.993 1520.38 350.291C1520.38 350.959 1520.51 351.549 1520.77 352.059C1521.03 352.57 1521.43 353.033 1521.97 353.445C1522.51 353.859 1523.18 354.241 1523.99 354.596C1524.79 354.949 1525.75 355.323 1526.87 355.717C1528.36 356.267 1529.68 356.807 1530.84 357.338C1532.01 357.869 1533 358.488 1533.82 359.195C1534.64 359.903 1535.28 360.757 1535.72 361.759C1536.16 362.762 1536.38 363.99 1536.38 365.445C1536.38 368.275 1535.31 370.417 1533.16 371.872C1531.02 373.327 1527.96 374.053 1523.99 374.053C1521.22 374.053 1519.05 373.827 1517.49 373.375C1515.93 372.923 1514.86 372.579 1514.3 372.343L1515.32 367.626C1515.97 367.862 1516.99 368.216 1518.39 368.688C1519.8 369.16 1521.66 369.395 1523.99 369.395V369.395ZM1541.79 358.075C1541.79 355.362 1542.19 352.994 1543 350.969C1543.8 348.945 1544.86 347.264 1546.19 345.928C1547.51 344.591 1549.03 343.589 1550.76 342.921C1552.48 342.253 1554.25 341.918 1556.05 341.918C1560.26 341.918 1563.49 343.206 1565.74 345.78C1567.98 348.355 1569.1 352.277 1569.1 357.544C1569.1 357.78 1569.1 358.084 1569.1 358.458C1569.1 358.832 1569.08 359.176 1569.04 359.49H1547.63C1547.87 362.675 1548.81 365.092 1550.46 366.743C1552.1 368.394 1554.67 369.219 1558.15 369.219C1560.12 369.219 1561.77 369.052 1563.12 368.718C1564.46 368.384 1565.47 368.06 1566.16 367.745L1566.94 372.344C1566.26 372.698 1565.06 373.071 1563.36 373.464C1561.65 373.858 1559.72 374.054 1557.55 374.054C1554.83 374.054 1552.47 373.651 1550.49 372.845C1548.5 372.039 1546.86 370.93 1545.58 369.513C1544.3 368.098 1543.35 366.418 1542.73 364.472C1542.1 362.527 1541.79 360.394 1541.79 358.075H1541.79ZM1563.27 355.068C1563.31 352.591 1562.68 350.557 1561.37 348.965C1560.07 347.373 1558.28 346.576 1555.99 346.576C1554.71 346.576 1553.57 346.822 1552.59 347.314C1551.61 347.806 1550.78 348.444 1550.1 349.23C1549.41 350.017 1548.88 350.92 1548.5 351.942C1548.12 352.964 1547.87 354.006 1547.75 355.068H1563.27H1563.27ZM1611.27 349.171C1610.59 348.621 1609.61 348.09 1608.33 347.58C1607.04 347.069 1605.64 346.813 1604.12 346.813C1602.51 346.813 1601.14 347.098 1599.99 347.668C1598.85 348.238 1597.92 349.025 1597.2 350.026C1596.48 351.029 1595.95 352.218 1595.63 353.594C1595.31 354.97 1595.15 356.443 1595.15 358.016C1595.15 361.593 1596.06 364.354 1597.86 366.3C1599.66 368.246 1602.07 369.219 1605.08 369.219C1606.6 369.219 1607.88 369.15 1608.9 369.012C1609.92 368.875 1610.71 368.727 1611.27 368.57V349.171V349.171ZM1611.27 328.533L1616.87 327.59V372.462C1615.59 372.816 1613.94 373.17 1611.94 373.523C1609.93 373.878 1607.63 374.054 1605.02 374.054C1602.61 374.054 1600.45 373.681 1598.52 372.933C1596.6 372.187 1594.95 371.125 1593.59 369.75C1592.22 368.373 1591.17 366.693 1590.43 364.709C1589.69 362.723 1589.32 360.492 1589.32 358.016C1589.32 355.658 1589.63 353.495 1590.25 351.53C1590.87 349.564 1591.78 347.873 1592.99 346.459C1594.19 345.043 1595.66 343.943 1597.41 343.156C1599.15 342.371 1601.15 341.977 1603.39 341.977C1605.2 341.977 1606.79 342.213 1608.18 342.685C1609.56 343.156 1610.59 343.609 1611.27 344.042V328.533V328.533ZM1624.75 358.075C1624.75 355.362 1625.15 352.994 1625.95 350.969C1626.76 348.945 1627.82 347.264 1629.14 345.928C1630.47 344.591 1631.99 343.589 1633.71 342.921C1635.44 342.253 1637.2 341.918 1639.01 341.918C1643.22 341.918 1646.45 343.206 1648.69 345.78C1650.94 348.355 1652.06 352.277 1652.06 357.544C1652.06 357.78 1652.06 358.084 1652.06 358.458C1652.06 358.832 1652.04 359.176 1652 359.49H1630.59C1630.83 362.675 1631.77 365.092 1633.41 366.743C1635.06 368.394 1637.62 369.219 1641.11 369.219C1643.08 369.219 1644.73 369.052 1646.08 368.718C1647.42 368.384 1648.43 368.06 1649.11 367.745L1649.9 372.344C1649.21 372.698 1648.02 373.071 1646.32 373.464C1644.61 373.858 1642.68 374.054 1640.51 374.054C1637.78 374.054 1635.43 373.651 1633.44 372.845C1631.46 372.039 1629.82 370.93 1628.54 369.513C1627.26 368.098 1626.3 366.418 1625.68 364.472C1625.06 362.527 1624.75 360.394 1624.75 358.075H1624.75ZM1646.23 355.068C1646.27 352.591 1645.64 350.557 1644.33 348.965C1643.03 347.373 1641.24 346.576 1638.95 346.576C1637.66 346.576 1636.53 346.822 1635.55 347.314C1634.57 347.806 1633.74 348.444 1633.05 349.23C1632.37 350.017 1631.84 350.92 1631.46 351.942C1631.08 352.964 1630.83 354.006 1630.71 355.068H1646.23H1646.23ZM1684.07 369.278C1690.16 369.278 1693.21 367.234 1693.21 363.145C1693.21 361.887 1692.94 360.817 1692.4 359.932C1691.86 359.047 1691.12 358.281 1690.2 357.632C1689.28 356.983 1688.23 356.424 1687.04 355.952C1685.86 355.48 1684.61 355.009 1683.28 354.537C1681.76 354.026 1680.32 353.445 1678.95 352.797C1677.59 352.148 1676.41 351.382 1675.4 350.498C1674.4 349.614 1673.61 348.563 1673.03 347.344C1672.45 346.124 1672.15 344.651 1672.15 342.922C1672.15 339.345 1673.4 336.553 1675.88 334.549C1678.37 332.544 1681.8 331.542 1686.17 331.542C1688.7 331.542 1690.99 331.807 1693.06 332.338C1695.13 332.869 1696.64 333.449 1697.6 334.077L1695.74 338.735C1694.89 338.224 1693.64 337.722 1691.98 337.232C1690.31 336.741 1688.38 336.495 1686.17 336.495C1685.05 336.495 1684.01 336.612 1683.04 336.848C1682.08 337.084 1681.24 337.438 1680.52 337.91C1679.8 338.382 1679.22 338.982 1678.8 339.708C1678.38 340.435 1678.17 341.29 1678.17 342.273C1678.17 343.374 1678.39 344.297 1678.83 345.044C1679.27 345.792 1679.9 346.45 1680.7 347.019C1681.5 347.589 1682.43 348.111 1683.49 348.581C1684.56 349.053 1685.73 349.525 1687.01 349.997C1688.82 350.704 1690.47 351.412 1691.98 352.119C1693.48 352.827 1694.78 353.671 1695.89 354.655C1696.99 355.638 1697.84 356.807 1698.44 358.163C1699.05 359.52 1699.35 361.16 1699.35 363.086C1699.35 366.664 1698.01 369.415 1695.35 371.341C1692.68 373.267 1688.92 374.23 1684.07 374.23C1682.42 374.23 1680.91 374.122 1679.53 373.906C1678.14 373.69 1676.91 373.434 1675.83 373.14C1674.74 372.844 1673.81 372.53 1673.03 372.195C1672.25 371.862 1671.63 371.576 1671.19 371.34L1672.94 366.623C1673.86 367.134 1675.26 367.705 1677.15 368.333C1679.03 368.962 1681.34 369.277 1684.07 369.277L1684.07 369.278ZM1733.64 358.016C1733.64 360.453 1733.27 362.654 1732.55 364.62C1731.83 366.585 1730.82 368.276 1729.51 369.691C1728.21 371.106 1726.66 372.196 1724.85 372.963C1723.05 373.73 1721.08 374.113 1718.96 374.113C1716.83 374.113 1714.87 373.73 1713.06 372.963C1711.26 372.196 1709.7 371.106 1708.4 369.691C1707.1 368.275 1706.08 366.585 1705.36 364.62C1704.64 362.655 1704.28 360.453 1704.28 358.016C1704.28 355.618 1704.64 353.427 1705.36 351.441C1706.08 349.456 1707.1 347.756 1708.4 346.341C1709.7 344.925 1711.26 343.835 1713.06 343.068C1714.87 342.301 1716.83 341.918 1718.96 341.918C1721.08 341.918 1723.05 342.301 1724.85 343.068C1726.66 343.835 1728.21 344.925 1729.51 346.341C1730.82 347.756 1731.83 349.456 1732.55 351.441C1733.27 353.426 1733.64 355.618 1733.64 358.016ZM1727.8 358.016C1727.8 354.557 1727.01 351.815 1725.42 349.79C1723.84 347.766 1721.68 346.754 1718.96 346.754C1716.23 346.754 1714.07 347.766 1712.49 349.79C1710.91 351.815 1710.11 354.557 1710.11 358.016C1710.11 361.475 1710.91 364.217 1712.49 366.241C1714.07 368.265 1716.23 369.278 1718.96 369.278C1721.68 369.278 1723.84 368.265 1725.42 366.241C1727.01 364.217 1727.8 361.475 1727.8 358.016ZM1750.9 373.936C1747.45 373.858 1745.01 373.13 1743.56 371.755C1742.12 370.379 1741.4 368.236 1741.4 365.327V328.534L1746.99 327.591V364.443C1746.99 365.347 1747.07 366.094 1747.23 366.683C1747.39 367.273 1747.65 367.745 1748.01 368.099C1748.37 368.453 1748.86 368.718 1749.46 368.895C1750.06 369.072 1750.8 369.219 1751.68 369.337L1750.9 373.936V373.936ZM1785.55 358.016C1785.55 360.453 1785.19 362.654 1784.47 364.62C1783.75 366.585 1782.73 368.276 1781.43 369.691C1780.13 371.106 1778.57 372.196 1776.77 372.963C1774.96 373.73 1773 374.113 1770.87 374.113C1768.75 374.113 1766.78 373.73 1764.98 372.963C1763.17 372.196 1761.62 371.106 1760.31 369.691C1759.01 368.275 1758 366.585 1757.28 364.62C1756.55 362.655 1756.19 360.453 1756.19 358.016C1756.19 355.618 1756.55 353.427 1757.28 351.441C1758 349.456 1759.01 347.756 1760.31 346.341C1761.62 344.925 1763.17 343.835 1764.98 343.068C1766.78 342.301 1768.75 341.918 1770.87 341.918C1773 341.918 1774.96 342.301 1776.77 343.068C1778.57 343.835 1780.13 344.925 1781.43 346.341C1782.73 347.756 1783.75 349.456 1784.47 351.441C1785.19 353.426 1785.55 355.618 1785.55 358.016ZM1779.72 358.016C1779.72 354.557 1778.92 351.815 1777.34 349.79C1775.75 347.766 1773.6 346.754 1770.87 346.754C1768.15 346.754 1765.99 347.766 1764.4 349.79C1762.82 351.815 1762.03 354.557 1762.03 358.016C1762.03 361.475 1762.82 364.217 1764.4 366.241C1765.99 368.265 1768.15 369.278 1770.87 369.278C1773.6 369.278 1775.75 368.265 1777.34 366.241C1778.92 364.217 1779.72 361.475 1779.72 358.016Z" fill="#49E087"/>
</svg>
