<svg width="500" height="373" viewBox="0 0 500 373" fill="none" xmlns="http://www.w3.org/2000/svg">
<path d="M500 327.4H0V327.65H500V327.4Z" fill="#09251E"/>
<path d="M449.9 343.49H394.67V343.74H449.9V343.49Z" fill="#09251E"/>
<path d="M330.5 338.25H321.81V338.5H330.5V338.25Z" fill="#09251E"/>
<path d="M391.66 334.21H372.47V334.46H391.66V334.21Z" fill="#09251E"/>
<path d="M95.65 335.89H52.46V336.14H95.65V335.89Z" fill="#09251E"/>
<path d="M261.05 342.35H215.33V342.6H261.05V342.35Z" fill="#09251E"/>
<path d="M234.14 338.12H140.46V338.37H234.14V338.12Z" fill="#09251E"/>
<path d="M43.91 282.8H237C238.514 282.8 239.967 282.198 241.038 281.128C242.108 280.057 242.71 278.604 242.71 277.09V5.66C242.697 4.15429 242.089 2.71475 241.02 1.65471C239.951 0.594662 238.506 -5.77259e-05 237 4.20255e-09H43.91C42.3973 0.00264914 40.9475 0.605407 39.8788 1.67595C38.8102 2.7465 38.21 4.19734 38.21 5.71V277.09C38.21 278.603 38.8102 280.054 39.8788 281.124C40.9475 282.195 42.3973 282.797 43.91 282.8V282.8ZM38.46 5.66C38.46 4.21365 39.0338 2.82639 40.0556 1.80273C41.0774 0.779065 42.4636 0.20265 43.91 0.200001H237C238.447 0.202644 239.834 0.77874 240.858 1.80212C241.881 2.82549 242.457 4.21273 242.46 5.66V277.09C242.457 278.537 241.881 279.924 240.858 280.948C239.834 281.971 238.447 282.547 237 282.55H43.91C42.4636 282.547 41.0774 281.971 40.0556 280.947C39.0338 279.924 38.46 278.536 38.46 277.09V5.66Z" fill="#09251E"/>
<path d="M260.21 282.8H453.31C454.824 282.8 456.277 282.198 457.348 281.128C458.418 280.057 459.02 278.604 459.02 277.09V5.66C459.007 4.15429 458.399 2.71475 457.33 1.65471C456.261 0.594662 454.816 -5.77259e-05 453.31 4.20255e-09H260.21C258.696 0.00264381 257.246 0.605079 256.175 1.67534C255.105 2.7456 254.503 4.19642 254.5 5.71V277.09C254.503 278.604 255.105 280.054 256.175 281.125C257.246 282.195 258.696 282.797 260.21 282.8V282.8ZM254.75 5.66C254.753 4.21273 255.329 2.82549 256.352 1.80212C257.375 0.77874 258.763 0.202644 260.21 0.200001H453.31C454.757 0.202644 456.145 0.77874 457.168 1.80212C458.191 2.82549 458.767 4.21273 458.77 5.66V277.09C458.767 278.537 458.191 279.924 457.168 280.948C456.145 281.971 454.757 282.547 453.31 282.55H260.21C258.763 282.547 257.375 281.971 256.352 280.948C255.329 279.924 254.753 278.537 254.75 277.09V5.66Z" fill="#09251E"/>
<path d="M425.2 13.46H196.92V144.7H425.2V13.46Z" fill="#08351B"/>
<path d="M418.47 23.23H314.4V136.69H418.47V23.23Z" fill="#2E523D"/>
<path d="M404.37 31.1699H386.39L377.4 46.7399L386.39 62.3099H404.37L413.36 46.7399L404.37 31.1699Z" fill="#49DF86"/>
<path d="M377.4 77.8701H359.43L350.44 93.4401L359.43 109.01H377.4L386.39 93.4401L377.4 77.8701Z" fill="#C9BCA4"/>
<path d="M377.4 46.74H359.43L350.44 62.31L359.43 77.87H377.4L386.39 62.31L377.4 46.74Z" fill="#09251E"/>
<path d="M295.87 114.97H210.87V134.51H295.87V114.97Z" fill="#2E523D"/>
<path d="M246.61 38.7599C246.358 40.1613 245.697 41.4566 244.709 42.4821C243.722 43.5076 242.452 44.2173 241.061 44.5214C239.67 44.8256 238.22 44.7105 236.895 44.1907C235.569 43.6709 234.428 42.7698 233.614 41.6013C232.801 40.4328 232.352 39.0494 232.325 37.6258C232.297 36.2023 232.693 34.8027 233.461 33.6038C234.229 32.4049 235.335 31.4606 236.639 30.8904C237.944 30.3201 239.388 30.1494 240.79 30.3999C242.669 30.7385 244.338 31.8089 245.429 33.3762C246.52 34.9436 246.945 36.8798 246.61 38.7599V38.7599Z" fill="#09251E"/>
<path d="M233.86 80.65C233.608 82.0514 232.947 83.3467 231.959 84.3723C230.972 85.3978 229.702 86.1075 228.311 86.4116C226.92 86.7157 225.47 86.6006 224.145 86.0808C222.819 85.5611 221.678 84.66 220.864 83.4915C220.051 82.323 219.602 80.9395 219.575 79.516C219.547 78.0925 219.943 76.6928 220.711 75.4939C221.479 74.295 222.585 73.3508 223.889 72.7805C225.194 72.2102 226.638 72.0396 228.04 72.29C228.971 72.4565 229.86 72.8048 230.657 73.3151C231.454 73.8254 232.142 74.4876 232.682 75.264C233.223 76.0404 233.605 76.9157 233.807 77.8398C234.009 78.764 234.027 79.7189 233.86 80.65V80.65Z" fill="#09251E"/>
<path d="M271.49 105.047C275.465 104.952 278.61 101.653 278.515 97.6774C278.42 93.7021 275.121 90.5565 271.145 90.6516C267.17 90.7467 264.024 94.0464 264.119 98.0217C264.214 101.997 267.514 105.143 271.49 105.047Z" fill="#09251E"/>
<path d="M287.821 57.9166C289.935 54.5488 288.919 50.1047 285.551 47.9905C282.183 45.8762 277.739 46.8924 275.625 50.2602C273.511 53.628 274.527 58.0721 277.895 60.1864C281.263 62.3006 285.707 61.2844 287.821 57.9166Z" fill="#09251E"/>
<path d="M298.66 52C298.55 52.5799 298.271 53.1143 297.859 53.5365C297.446 53.9587 296.919 54.2499 296.342 54.3736C295.764 54.4973 295.164 54.448 294.614 54.2319C294.065 54.0158 293.592 53.6425 293.254 53.1587C292.916 52.6749 292.728 52.1022 292.714 51.5121C292.7 50.9221 292.86 50.341 293.174 49.8416C293.489 49.3421 293.944 48.9466 294.482 48.7044C295.02 48.4622 295.618 48.3842 296.2 48.48C296.992 48.6239 297.694 49.0745 298.155 49.7337C298.615 50.3929 298.797 51.2075 298.66 52V52Z" fill="#09251E"/>
<path d="M281.72 55.2701C281.423 55.2707 281.137 55.1604 280.917 54.9606C280.697 54.7609 280.56 54.4862 280.532 54.1905C280.505 53.8948 280.589 53.5995 280.768 53.3626C280.947 53.1257 281.208 52.9643 281.5 52.9101L295.45 50.3101C295.604 50.2812 295.762 50.2828 295.915 50.3149C296.068 50.347 296.213 50.409 296.342 50.4972C296.471 50.5854 296.581 50.6982 296.667 50.8291C296.752 50.96 296.811 51.1064 296.84 51.2601C296.869 51.4137 296.867 51.5715 296.835 51.7245C296.803 51.8775 296.741 52.0227 296.653 52.1518C296.565 52.2809 296.452 52.3913 296.321 52.4768C296.19 52.5623 296.044 52.6212 295.89 52.6501L281.94 55.2501C281.868 55.2666 281.794 55.2733 281.72 55.2701V55.2701Z" fill="#09251E"/>
<path d="M220.39 59.4899C220.978 59.5401 221.538 59.7626 222 60.1296C222.462 60.4965 222.806 60.9916 222.988 61.5528C223.17 62.1141 223.183 62.7166 223.024 63.285C222.866 63.8534 222.543 64.3624 222.097 64.7484C221.651 65.1343 221.1 65.3801 220.515 65.4548C219.93 65.5296 219.335 65.4301 218.806 65.1687C218.277 64.9074 217.837 64.4958 217.54 63.9856C217.244 63.4753 217.105 62.8889 217.14 62.2999C217.164 61.9002 217.268 61.5094 217.445 61.1504C217.622 60.7914 217.87 60.4715 218.173 60.2096C218.476 59.9478 218.828 59.7492 219.209 59.6255C219.589 59.5019 219.991 59.4558 220.39 59.4899V59.4899Z" fill="#09251E"/>
<path d="M226.77 80.57C226.53 80.5674 226.297 80.4938 226.099 80.3585C225.902 80.2232 225.749 80.0323 225.66 79.81L219.06 63C219.003 62.8542 218.975 62.6986 218.978 62.5421C218.981 62.3856 219.015 62.2312 219.077 62.0877C219.14 61.9442 219.23 61.8145 219.343 61.706C219.456 61.5974 219.589 61.5121 219.735 61.455C219.88 61.3979 220.036 61.37 220.193 61.373C220.349 61.376 220.504 61.4098 220.647 61.4725C220.79 61.5352 220.92 61.6255 221.029 61.7383C221.137 61.8511 221.223 61.9842 221.28 62.13L227.88 78.99C227.994 79.2858 227.987 79.6149 227.86 79.9053C227.732 80.1958 227.495 80.4239 227.2 80.54C227.059 80.5737 226.914 80.5838 226.77 80.57Z" fill="#09251E"/>
<path d="M269.73 69.77C269.456 71.2964 268.736 72.7074 267.66 73.8245C266.585 74.9415 265.202 75.7145 263.687 76.0456C262.172 76.3767 260.593 76.2511 259.149 75.6847C257.706 75.1182 256.462 74.1364 255.577 72.8633C254.691 71.5903 254.203 70.0832 254.174 68.5327C254.145 66.9823 254.577 65.458 255.414 64.1528C256.252 62.8476 257.457 61.82 258.879 61.2001C260.3 60.5802 261.873 60.3957 263.4 60.67C265.446 61.0378 267.262 62.203 268.449 63.9095C269.636 65.6159 270.097 67.724 269.73 69.77V69.77Z" fill="#09251E"/>
<path d="M226.77 80.5701C226.516 80.5701 226.269 80.4884 226.066 80.3371C225.862 80.1858 225.713 79.9729 225.64 79.73C225.546 79.429 225.575 79.103 225.722 78.8237C225.868 78.5443 226.119 78.3344 226.42 78.2401L260.08 67.7501L238.56 38.1901C238.457 38.0648 238.381 37.9199 238.337 37.7643C238.292 37.6087 238.28 37.4455 238.3 37.2849C238.321 37.1243 238.374 36.9696 238.456 36.8302C238.539 36.6908 238.648 36.5697 238.779 36.4743C238.91 36.3789 239.059 36.3112 239.217 36.2754C239.375 36.2395 239.538 36.2363 239.698 36.2658C239.857 36.2954 240.008 36.3571 240.143 36.4473C240.277 36.5374 240.392 36.654 240.48 36.7901L262.98 67.6901C263.09 67.8426 263.163 68.0189 263.193 68.2048C263.222 68.3906 263.208 68.5809 263.15 68.7601C263.091 68.9401 262.989 69.1031 262.853 69.2354C262.717 69.3677 262.551 69.4653 262.37 69.5201L227.12 80.5201C227.007 80.5574 226.889 80.5743 226.77 80.5701Z" fill="#09251E"/>
<path d="M271.31 98.9999C271.057 99.0005 270.811 98.9203 270.608 98.7709C270.405 98.6215 270.254 98.4109 270.18 98.1699L260.88 68.6999C260.807 68.4614 260.81 68.2062 260.889 67.9696C260.968 67.733 261.118 67.5269 261.32 67.3799L281.02 53.0799C281.275 52.9149 281.584 52.8539 281.883 52.9094C282.181 52.9649 282.448 53.1327 282.627 53.3783C282.806 53.6239 282.884 53.9288 282.846 54.2303C282.807 54.5319 282.655 54.8072 282.42 54.9999L263.42 68.8099L272.42 97.4599C272.511 97.7609 272.48 98.0857 272.334 98.3644C272.188 98.6431 271.939 98.8533 271.64 98.9499C271.533 98.9829 271.421 98.9998 271.31 98.9999V98.9999Z" fill="#09251E"/>
<path d="M425.21 144.69H428.21V13.45H425.21V144.69Z" fill="#172E28"/>
<path d="M135.6 252.67H63.3604C61.0697 252.67 58.8611 253.523 57.1655 255.063C55.47 256.603 54.4093 258.72 54.1904 261L47.9004 327.4H151.06L144.77 261C144.552 258.72 143.491 256.603 141.795 255.063C140.1 253.523 137.891 252.67 135.6 252.67V252.67Z" fill="#09251E"/>
<path d="M135.72 46.74H63.2305V252.67H135.72V46.74Z" fill="#08351B"/>
<path d="M136.55 37.49H62.3998C60.8037 37.49 59.5098 38.7839 59.5098 40.38V43.85C59.5098 45.4461 60.8037 46.74 62.3998 46.74H136.55C138.146 46.74 139.44 45.4461 139.44 43.85V40.38C139.44 38.7839 138.146 37.49 136.55 37.49Z" fill="#09251E"/>
<path d="M99.4801 7.3501C90.7651 7.3501 82.407 10.8121 76.2446 16.9746C70.0821 23.137 66.6201 31.4951 66.6201 40.2101H132.33C132.33 31.4968 128.869 23.1403 122.709 16.9781C116.549 10.8159 108.193 7.35275 99.4801 7.3501V7.3501Z" fill="#09251E"/>
<path d="M90.6699 217C96.7451 217 101.67 212.075 101.67 206C101.67 199.925 96.7451 195 90.6699 195C84.5948 195 79.6699 199.925 79.6699 206C79.6699 212.075 84.5948 217 90.6699 217Z" fill="#2E523D"/>
<path d="M106.82 180.17C110.222 180.17 112.98 177.412 112.98 174.01C112.98 170.608 110.222 167.85 106.82 167.85C103.418 167.85 100.66 170.608 100.66 174.01C100.66 177.412 103.418 180.17 106.82 180.17Z" fill="#2E523D"/>
<path d="M108.89 86.97C114.965 86.97 119.89 82.0451 119.89 75.97C119.89 69.8948 114.965 64.97 108.89 64.97C102.815 64.97 97.8896 69.8948 97.8896 75.97C97.8896 82.0451 102.815 86.97 108.89 86.97Z" fill="#2E523D"/>
<path d="M83.0702 141.56C84.2885 141.56 85.4795 141.921 86.4925 142.598C87.5055 143.275 88.295 144.237 88.7613 145.363C89.2275 146.488 89.3495 147.727 89.1118 148.922C88.8741 150.117 88.2874 151.214 87.4259 152.076C86.5644 152.937 85.4668 153.524 84.2719 153.762C83.077 153.999 81.8384 153.877 80.7128 153.411C79.5872 152.945 78.6252 152.155 77.9483 151.142C77.2714 150.129 76.9102 148.938 76.9102 147.72C76.9102 146.086 77.5592 144.52 78.7144 143.364C79.8696 142.209 81.4364 141.56 83.0702 141.56Z" fill="#2E523D"/>
<path d="M101.67 121.05C103.879 121.05 105.67 119.259 105.67 117.05C105.67 114.841 103.879 113.05 101.67 113.05C99.4608 113.05 97.6699 114.841 97.6699 117.05C97.6699 119.259 99.4608 121.05 101.67 121.05Z" fill="#2E523D"/>
<path d="M262.33 327.4V184.45H185.7V327.4H262.33Z" fill="#49DF86"/>
<path d="M250.65 230.52V188.62H197.4V230.52H250.65Z" fill="#08351B"/>
<path d="M250.65 276.18V234.28H197.4V276.18H250.65Z" fill="#08351B"/>
<path d="M250.65 321.85V279.95H197.4V321.85H250.65Z" fill="#08351B"/>
<path d="M232.22 188.07H215.82C215.82 188.641 215.933 189.206 216.152 189.733C216.37 190.26 216.691 190.739 217.095 191.142C217.499 191.546 217.979 191.865 218.506 192.083C219.034 192.3 219.6 192.411 220.17 192.41H227.88C229.031 192.41 230.135 191.953 230.949 191.139C231.763 190.325 232.22 189.221 232.22 188.07Z" fill="#172E28"/>
<path d="M232.22 233.73H215.82C215.82 234.301 215.933 234.867 216.151 235.395C216.37 235.922 216.69 236.402 217.094 236.806C217.498 237.21 217.978 237.53 218.506 237.749C219.033 237.967 219.599 238.08 220.17 238.08H227.88C228.451 238.08 229.016 237.967 229.543 237.749C230.071 237.53 230.55 237.209 230.953 236.805C231.356 236.401 231.675 235.922 231.893 235.394C232.11 234.866 232.222 234.301 232.22 233.73V233.73Z" fill="#172E28"/>
<path d="M232.22 279.39H215.82C215.82 280.544 216.279 281.65 217.094 282.466C217.91 283.282 219.017 283.74 220.17 283.74H227.88C228.451 283.74 229.016 283.627 229.543 283.409C230.071 283.19 230.55 282.869 230.953 282.465C231.356 282.061 231.675 281.582 231.893 281.054C232.11 280.526 232.222 279.961 232.22 279.39Z" fill="#172E28"/>
<path d="M283.78 327.39V184.44H262.34V327.39H283.78Z" fill="#172E28"/>
<path d="M412.7 327.39V184.44H267.27V327.39H412.7Z" fill="#49DF86"/>
<path d="M388.59 170.6V163.3C388.674 163.277 388.748 163.227 388.802 163.159C388.856 163.091 388.887 163.007 388.89 162.92C388.89 162.814 388.848 162.712 388.773 162.637C388.698 162.562 388.596 162.52 388.49 162.52H384.64C384.546 162.523 384.457 162.56 384.387 162.622C384.317 162.685 384.271 162.771 384.258 162.864C384.245 162.957 384.265 163.052 384.315 163.131C384.365 163.211 384.441 163.271 384.53 163.3V170.6C382.904 171.087 381.508 172.143 380.597 173.575C379.685 175.007 379.319 176.719 379.565 178.398C379.811 180.078 380.654 181.612 381.938 182.722C383.222 183.832 384.863 184.442 386.56 184.442C388.258 184.442 389.898 183.832 391.183 182.722C392.467 181.612 393.309 180.078 393.555 178.398C393.802 176.719 393.436 175.007 392.524 173.575C391.612 172.143 390.216 171.087 388.59 170.6V170.6Z" fill="#49DF86"/>
<path d="M378.08 172.91V170C378.159 169.98 378.228 169.932 378.274 169.865C378.319 169.797 378.338 169.715 378.327 169.635C378.316 169.554 378.275 169.48 378.213 169.428C378.151 169.375 378.072 169.348 377.99 169.35H374.78C374.693 169.35 374.609 169.385 374.547 169.447C374.485 169.509 374.45 169.592 374.45 169.68C374.448 169.753 374.471 169.824 374.514 169.882C374.558 169.94 374.62 169.982 374.69 170V172.92C373.334 173.327 372.169 174.208 371.408 175.403C370.648 176.598 370.342 178.026 370.548 179.428C370.754 180.829 371.456 182.11 372.528 183.036C373.6 183.962 374.969 184.471 376.385 184.471C377.802 184.471 379.171 183.962 380.243 183.036C381.314 182.11 382.017 180.829 382.223 179.428C382.428 178.026 382.123 176.598 381.363 175.403C380.602 174.208 379.437 173.327 378.08 172.92V172.91Z" fill="#49DF86"/>
<path d="M405.67 172V158.12C405.773 158.097 405.864 158.04 405.929 157.958C405.995 157.876 406.03 157.775 406.03 157.67C406.028 157.543 405.976 157.423 405.887 157.333C405.797 157.244 405.677 157.192 405.55 157.19H401C400.873 157.19 400.751 157.241 400.661 157.331C400.571 157.421 400.52 157.543 400.52 157.67C400.52 157.773 400.554 157.874 400.617 157.956C400.681 158.037 400.77 158.095 400.87 158.12V172C400.85 173.143 400.575 174.267 400.067 175.291C399.558 176.315 398.829 177.213 397.93 177.92C396.864 178.798 396.03 179.924 395.5 181.2C395.357 181.56 395.305 181.95 395.349 182.334C395.392 182.719 395.53 183.088 395.749 183.407C395.968 183.726 396.263 183.986 396.607 184.165C396.951 184.343 397.333 184.434 397.72 184.43H408.87C409.258 184.433 409.64 184.342 409.984 184.164C410.327 183.985 410.622 183.725 410.842 183.407C411.062 183.088 411.201 182.72 411.246 182.335C411.291 181.951 411.241 181.561 411.1 181.2C410.567 179.924 409.729 178.798 408.66 177.92C407.754 177.216 407.016 176.32 406.499 175.296C405.982 174.273 405.699 173.147 405.67 172V172Z" fill="#49DF86"/>
<path d="M401.01 230.52V188.62H278.96V230.52H401.01Z" fill="#08351B"/>
<path d="M401.02 276.19V234.29H278.97V276.19H401.02Z" fill="#08351B"/>
<path d="M401.02 321.85V279.95H278.97V321.85H401.02Z" fill="#08351B"/>
<path d="M348.19 188.07H331.79C331.79 188.641 331.903 189.206 332.121 189.733C332.34 190.26 332.661 190.739 333.065 191.142C333.469 191.546 333.948 191.865 334.476 192.083C335.004 192.3 335.569 192.411 336.14 192.41H343.85C345.001 192.41 346.105 191.953 346.919 191.139C347.733 190.325 348.19 189.221 348.19 188.07V188.07Z" fill="#172E28"/>
<path d="M348.19 233.73H331.79C331.79 234.301 331.903 234.867 332.121 235.395C332.34 235.922 332.66 236.402 333.064 236.806C333.468 237.21 333.948 237.53 334.475 237.749C335.003 237.967 335.569 238.08 336.14 238.08H343.85C344.421 238.08 344.986 237.967 345.513 237.749C346.04 237.53 346.519 237.209 346.922 236.805C347.326 236.401 347.645 235.922 347.863 235.394C348.08 234.866 348.191 234.301 348.19 233.73V233.73Z" fill="#172E28"/>
<path d="M348.19 279.39H331.79C331.79 280.544 332.248 281.65 333.064 282.466C333.88 283.282 334.986 283.74 336.14 283.74H343.85C344.421 283.74 344.986 283.627 345.513 283.409C346.04 283.19 346.519 282.869 346.922 282.465C347.326 282.061 347.645 281.582 347.863 281.054C348.08 280.526 348.191 279.961 348.19 279.39V279.39Z" fill="#172E28"/>
<path d="M434.14 327.4V184.45H412.7V327.4H434.14Z" fill="#172E28"/>
<path d="M249.999 372.56C357.082 372.56 443.889 367.492 443.889 361.24C443.889 354.988 357.082 349.92 249.999 349.92C142.917 349.92 56.1094 354.988 56.1094 361.24C56.1094 367.492 142.917 372.56 249.999 372.56Z" fill="#05523E"/>
<path d="M306.5 56.78C301.07 54.17 287.96 58.33 290.85 68.56C293.3 77.25 286.29 82.06 292.24 87C298.19 91.94 286.92 103.17 311.73 102.17C332.23 101.33 339.9 93.08 338.48 86.04C336.7 77.18 329.06 79.79 329.64 73.84C330.22 67.89 306.5 56.78 306.5 56.78Z" fill="#263238"/>
<path d="M306.27 119C305.98 119.8 305.76 120.38 305.49 121.06C305.22 121.74 304.96 122.34 304.68 122.97C304.14 124.24 303.53 125.48 302.92 126.71C301.67 129.206 300.274 131.627 298.74 133.96C297.153 136.409 295.367 138.724 293.4 140.88C292.351 142.038 291.225 143.124 290.03 144.13C289.42 144.65 288.75 145.13 288.08 145.64L287.01 146.36L286.31 146.79C286.05 146.95 285.79 147.08 285.53 147.22C283.68 148.126 281.674 148.672 279.62 148.83C277.955 148.969 276.28 148.942 274.62 148.75C271.708 148.382 268.843 147.712 266.07 146.75C260.913 144.954 255.991 142.543 251.41 139.57L254.5 133C259.169 134.303 263.906 135.344 268.69 136.12C270.862 136.466 273.061 136.62 275.26 136.58C276.149 136.569 277.034 136.462 277.9 136.26C278.406 136.162 278.884 135.954 279.3 135.65C279.3 135.65 279.3 135.65 279.3 135.59L279.4 135.5L279.88 135.08C280.2 134.77 280.53 134.47 280.88 134.08C281.53 133.39 282.18 132.62 282.82 131.8C284.14 130.035 285.352 128.191 286.45 126.28C287.58 124.28 288.68 122.23 289.7 120.11C290.22 119.11 290.7 117.98 291.2 116.91L291.92 115.31L292.57 113.81L306.27 119Z" fill="#06BC67"/>
<path opacity="0.8" d="M306.27 119C305.98 119.8 305.76 120.38 305.49 121.06C305.22 121.74 304.96 122.34 304.68 122.97C304.14 124.24 303.53 125.48 302.92 126.71C301.67 129.206 300.274 131.627 298.74 133.96C297.153 136.409 295.367 138.724 293.4 140.88C292.351 142.038 291.225 143.124 290.03 144.13C289.42 144.65 288.75 145.13 288.08 145.64L287.01 146.36L286.31 146.79C286.05 146.95 285.79 147.08 285.53 147.22C283.68 148.126 281.674 148.672 279.62 148.83C277.955 148.969 276.28 148.942 274.62 148.75C271.708 148.382 268.843 147.712 266.07 146.75C260.913 144.954 255.991 142.543 251.41 139.57L254.5 133C259.169 134.303 263.906 135.344 268.69 136.12C270.862 136.466 273.061 136.62 275.26 136.58C276.149 136.569 277.034 136.462 277.9 136.26C278.406 136.162 278.884 135.954 279.3 135.65C279.3 135.65 279.3 135.65 279.3 135.59L279.4 135.5L279.88 135.08C280.2 134.77 280.53 134.47 280.88 134.08C281.53 133.39 282.18 132.62 282.82 131.8C284.14 130.035 285.352 128.191 286.45 126.28C287.58 124.28 288.68 122.23 289.7 120.11C290.22 119.11 290.7 117.98 291.2 116.91L291.92 115.31L292.57 113.81L306.27 119Z" fill="white"/>
<path d="M254.221 138.61L248.391 139.35V131.5C248.391 131.5 254.171 132.17 256.601 135.07L254.221 138.61Z" fill="#FFB573"/>
<path d="M241.24 138.88L242.04 133.51L248.41 131.5L248.39 139.35L241.24 138.88Z" fill="#FFB573"/>
<path opacity="0.2" d="M249.72 140.52V130.52C249.862 130.5 249.99 130.425 250.076 130.31C250.163 130.196 250.2 130.052 250.18 129.91C250.16 129.768 250.085 129.64 249.97 129.554C249.856 129.467 249.712 129.43 249.57 129.45H244.29C244.151 129.438 244.013 129.479 243.904 129.566C243.795 129.654 243.724 129.78 243.706 129.918C243.688 130.056 243.724 130.196 243.807 130.308C243.89 130.421 244.013 130.496 244.15 130.52V140.52C241.922 141.189 240.009 142.636 238.76 144.599C237.511 146.561 237.01 148.907 237.348 151.209C237.686 153.51 238.84 155.613 240.6 157.134C242.361 158.654 244.609 159.491 246.935 159.491C249.261 159.491 251.51 158.654 253.27 157.134C255.03 155.613 256.185 153.51 256.522 151.209C256.86 148.907 256.359 146.561 255.11 144.599C253.861 142.636 251.948 141.189 249.72 140.52V140.52Z" fill="#06BC67"/>
<path opacity="0.5" d="M255.57 151.31C255.317 153.421 254.301 155.367 252.712 156.78C251.124 158.193 249.074 158.977 246.947 158.983C244.821 158.989 242.766 158.218 241.17 156.813C239.573 155.409 238.546 153.47 238.28 151.36C244.05 153.38 249.82 149.29 255.57 151.31Z" fill="#06BC67"/>
<path opacity="0.7" d="M238.28 151.31C238.533 153.421 239.55 155.367 241.138 156.78C242.727 158.193 244.777 158.977 246.903 158.983C249.029 158.989 251.084 158.218 252.681 156.813C254.277 155.409 255.305 153.47 255.57 151.36C249.81 153.38 244 149.29 238.28 151.31Z" fill="#06BC67"/>
<path d="M330.18 349.18L320.9 350.06L320.21 328.8L329.5 327.93L330.18 349.18Z" fill="#FFB573"/>
<path d="M382.421 337.88L373.911 341.61L366.311 321.69L374.821 317.95L382.421 337.88Z" fill="#FFB573"/>
<path d="M372.69 340L381.07 333.77C381.212 333.647 381.397 333.585 381.585 333.598C381.772 333.612 381.947 333.698 382.07 333.84L387.73 339.84C387.869 340 387.972 340.186 388.035 340.388C388.097 340.59 388.117 340.803 388.092 341.012C388.068 341.222 388 341.425 387.893 341.607C387.786 341.789 387.642 341.947 387.47 342.07C384.52 344.19 382.99 345.07 379.3 347.8C377.03 349.49 372.25 353.55 369.12 355.88C365.99 358.21 363.63 355.21 364.73 353.96C369.73 348.35 371.01 344.55 371.81 341.42C371.927 340.858 372.239 340.355 372.69 340V340Z" fill="#263238"/>
<path d="M320.13 347.3H331.13C331.325 347.301 331.514 347.366 331.667 347.485C331.821 347.604 331.931 347.771 331.98 347.96L334.12 356.64C334.17 356.849 334.172 357.067 334.125 357.276C334.079 357.486 333.985 357.682 333.851 357.85C333.717 358.018 333.546 358.153 333.352 358.245C333.157 358.337 332.945 358.383 332.73 358.38C328.87 358.38 327.03 358.1 322.21 358.1C319.21 358.1 311.57 358.39 307.47 358.39C303.37 358.39 302.74 354.34 304.41 353.97C311.89 352.33 316.24 350.06 318.59 347.9C319.013 347.519 319.56 347.305 320.13 347.3V347.3Z" fill="#263238"/>
<path opacity="0.2" d="M320.21 328.81L320.56 339.76H329.88L329.5 327.93L320.21 328.81Z" fill="black"/>
<path opacity="0.2" d="M374.821 317.96L366.311 321.69L370.231 331.96L378.741 328.23L374.821 317.96Z" fill="black"/>
<path d="M345.34 153.71L308.92 162.94C300.01 140.77 295.7 127.83 293.67 120.29C292.911 117.462 293.202 114.454 294.489 111.824C295.775 109.193 297.971 107.117 300.67 105.98C301.85 105.48 303.09 104.98 304.34 104.49C305.26 104.13 306.2 103.78 307.12 103.49C312.527 101.702 318.055 100.299 323.66 99.2902C324.48 99.1202 325.31 98.9702 326.13 98.8302H326.34C328.003 98.5561 329.706 98.6321 331.338 99.0532C332.971 99.4744 334.497 100.232 335.82 101.276C337.144 102.321 338.234 103.63 339.023 105.12C339.811 106.61 340.28 108.249 340.4 109.93C341.32 122.74 343.02 142.36 345.4 153.78" fill="#06BC67"/>
<path d="M318.52 88.5101C319.29 93.0601 320.8 97.6201 323.63 99.2601C323.63 99.2601 324.36 103.06 315.19 111.1C314.458 111.752 313.511 112.113 312.53 112.113C311.549 112.113 310.603 111.752 309.87 111.1C304.58 106.23 307.09 103.47 307.09 103.47C312.71 100.54 311.94 96.5601 308.86 90.3601L313.17 87.3601C313.513 86.8944 313.983 86.5377 314.523 86.3328C315.064 86.1278 315.652 86.0834 316.217 86.2049C316.782 86.3264 317.3 86.6086 317.709 87.0176C318.117 87.4265 318.399 87.9448 318.52 88.5101Z" fill="#FFB573"/>
<path opacity="0.2" d="M313.18 87.32C313.504 86.8822 313.941 86.5407 314.443 86.3321C314.946 86.1234 315.496 86.0556 316.035 86.1357C316.573 86.2159 317.08 86.441 317.5 86.7871C317.92 87.1331 318.238 87.587 318.42 88.1C317.026 91.8215 314.519 95.0232 311.24 97.27C310.884 94.8324 310.077 92.4824 308.86 90.34L313.18 87.32Z" fill="black"/>
<path d="M319.4 69.7302C321.29 78.7902 322.29 82.5802 319.14 88.4702C314.4 97.3202 303.14 97.8602 298.6 89.5902C294.54 82.1502 292.12 68.5902 299.67 62.4802C307.22 56.3702 317.5 60.6602 319.4 69.7302Z" fill="#FFB573"/>
<path d="M297.74 85.36C297.276 85.3228 296.825 85.1941 296.411 84.9813C295.997 84.7684 295.63 84.4757 295.33 84.12C294.308 82.9449 293.554 81.562 293.119 80.0668C292.684 78.5716 292.579 76.9999 292.81 75.46C292.795 74.8776 292.974 74.3067 293.317 73.8362C293.661 73.3657 294.15 73.0221 294.71 72.8589C295.269 72.6957 295.866 72.722 296.409 72.9339C296.952 73.1457 297.409 73.5311 297.71 74.03C298.76 75.189 299.521 76.5803 299.93 78.09V78.09C300.394 79.5813 300.497 81.1613 300.23 82.7C300.18 83.2641 299.975 83.8034 299.638 84.2585C299.301 84.7137 298.845 85.0671 298.32 85.28C298.131 85.3324 297.936 85.3593 297.74 85.36V85.36ZM295.3 73.28C295.148 73.2796 294.997 73.2998 294.85 73.34C294.414 73.5351 294.039 73.8444 293.764 74.2352C293.49 74.626 293.326 75.0837 293.29 75.56C293.075 77.0214 293.177 78.512 293.59 79.9304C294.002 81.3487 294.715 82.6617 295.68 83.78C295.917 84.2137 296.295 84.5535 296.751 84.7434C297.207 84.9332 297.714 84.9617 298.189 84.8241C298.663 84.6865 299.077 84.3911 299.361 83.9867C299.645 83.5823 299.782 83.0931 299.75 82.6C300 81.1376 299.9 79.6368 299.46 78.22V78.22C299.071 76.7902 298.351 75.4716 297.36 74.37C296.843 73.75 296.103 73.3585 295.3 73.28Z" fill="white"/>
<path d="M316.18 70.72C314.57 72.06 316.83 80.47 321.09 79.12C325.35 77.77 321.46 66.33 316.18 70.72Z" fill="#263238"/>
<path d="M320.076 73.7699L309.276 75.0864L309.337 75.5828L320.137 74.2662L320.076 73.7699Z" fill="white"/>
<path d="M306.001 83.0002C304.958 82.9601 303.962 82.5609 303.181 81.8702C301.923 80.7614 301.019 79.308 300.581 77.6902C299.581 74.1202 300.701 70.6302 303.161 69.9102C305.621 69.1902 308.481 71.5202 309.521 75.0902C310.521 78.6702 309.401 82.1602 306.931 82.8702C306.629 82.9587 306.315 83.0025 306.001 83.0002ZM304.091 70.2802C303.824 70.2823 303.558 70.3193 303.301 70.3902C301.111 71.0302 300.101 74.2402 301.061 77.5502C301.469 79.0719 302.318 80.439 303.501 81.4802C303.93 81.893 304.456 82.1923 305.031 82.3512C305.605 82.5101 306.21 82.5235 306.791 82.3902C308.991 81.7502 310.001 78.5402 309.041 75.2302C308.171 72.2702 306.071 70.2402 304.071 70.2402L304.091 70.2802Z" fill="white"/>
<path d="M323.631 77.42C323.687 79.2139 323.045 80.9597 321.841 82.29C320.231 84.03 318.251 82.88 317.711 80.69C317.221 78.69 317.471 75.46 319.561 74.53C321.651 73.6 323.551 75.22 323.631 77.42Z" fill="#FFB573"/>
<path d="M306.5 55.6701C294.74 60.7301 297.58 68.6701 309.4 71.3401C315.96 72.8001 322.87 76.3401 323.16 80.1501C323.45 83.9601 334.76 71.0801 328.01 67.5601C321.26 64.0401 321.25 49.3201 306.5 55.6701Z" fill="#263238"/>
<path d="M301.08 61.1701C301.49 65.5901 294.33 77.2801 285.92 70.4601C290.55 70.6501 291.19 67.5701 293.12 62.7501C294.9 58.3301 300.6 56.0001 301.08 61.1701Z" fill="#263238"/>
<path d="M308.92 162.94C308.92 162.94 309.14 210.01 309.06 246.17C309 274.92 317.47 335.47 317.47 335.47L330.92 334.13C330.92 334.13 330.92 268.93 328.34 248.41C336.73 207.97 350.06 169.48 338.17 155.32L308.92 162.94Z" fill="#263238"/>
<path d="M333.11 330.85L315.38 331.39L316.35 337.45L332.94 337.2L333.11 330.85Z" fill="#06BC67"/>
<path opacity="0.3" d="M327.75 189.66L342.5 180.27C341.14 194.61 336.44 212.77 331.95 232.14C327 217.18 324.28 201.44 327.75 189.66Z" fill="black"/>
<path d="M316.9 161C316.9 161 331.59 205.36 338.51 240.19C340.295 249.21 342.615 258.116 345.46 266.86C354.46 294.55 366.22 327.7 366.22 327.7L377.78 322.27C377.78 322.27 368.29 265.53 360.3 246.27C359.99 205.81 360.67 167.08 345.3 153.69L316.9 161Z" fill="#263238"/>
<path d="M324.44 98.94C324.44 98.94 322.67 142.14 335.12 197.56C351.12 195.83 360.77 190.91 360.77 190.91C360.77 190.91 351.77 154.44 348.77 139.78C346.55 129.02 343.58 111.84 342.16 103.45C341.905 101.979 341.17 100.634 340.071 99.6246C338.971 98.6152 337.568 97.9983 336.08 97.87C333 97.61 328.75 98.2 324.44 98.94Z" fill="#06BC67"/>
<path opacity="0.8" d="M324.44 98.94C324.44 98.94 322.67 142.14 335.12 197.56C351.12 195.83 360.77 190.91 360.77 190.91C360.77 190.91 351.77 154.44 348.77 139.78C346.55 129.02 343.58 111.84 342.16 103.45C341.905 101.979 341.17 100.634 340.071 99.6246C338.971 98.6152 337.568 97.9983 336.08 97.87C333 97.61 328.75 98.2 324.44 98.94Z" fill="white"/>
<path d="M306.93 102.9C306.93 102.9 305.81 123.39 322.61 199.22C317.56 202.22 306.42 201.82 306.42 201.82C306.42 201.82 302.2 168.33 298.82 151.94C296.22 139.38 293.47 122.86 292.32 115.82C292.139 114.697 292.246 113.546 292.628 112.474C293.011 111.403 293.658 110.445 294.51 109.69C297.28 107.21 301.88 103.79 306.93 102.9Z" fill="#06BC67"/>
<path opacity="0.8" d="M306.93 102.9C306.93 102.9 305.81 123.39 322.61 199.22C317.56 202.22 306.42 201.82 306.42 201.82C306.42 201.82 302.2 168.33 298.82 151.94C296.22 139.38 293.47 122.86 292.32 115.82C292.139 114.697 292.246 113.546 292.628 112.474C293.011 111.403 293.658 110.445 294.51 109.69C297.28 107.21 301.88 103.79 306.93 102.9Z" fill="white"/>
<path d="M326.89 132C316.98 136.16 307.54 140 300.89 141.85C300.634 141.928 300.398 142.059 300.197 142.235C299.995 142.41 299.834 142.627 299.722 142.87C299.611 143.113 299.552 143.376 299.55 143.644C299.548 143.911 299.602 144.176 299.71 144.42L316 178.32C316.279 178.811 316.727 179.184 317.261 179.368C317.795 179.552 318.378 179.535 318.9 179.32C328.2 175.32 341.81 170.82 344.54 167.5C337.08 153.9 330.12 140.87 326.89 132Z" fill="white"/>
<path d="M328.85 132.82C318.66 136.24 308.97 139.36 302.17 140.74C301.909 140.798 301.665 140.911 301.451 141.071C301.238 141.231 301.061 141.435 300.932 141.668C300.804 141.902 300.726 142.16 300.705 142.426C300.684 142.692 300.72 142.959 300.81 143.21L314.64 178.21C314.878 178.724 315.297 179.133 315.817 179.36C316.336 179.586 316.921 179.615 317.46 179.44C327.03 176.11 340.93 172.63 343.89 169.52C337.41 155.42 331.43 141.91 328.85 132.82Z" fill="white"/>
<path d="M342.18 172.57L317 180.7C316.461 180.889 315.871 180.877 315.34 180.665C314.809 180.454 314.372 180.058 314.11 179.55L299.16 144.91C299.065 144.659 299.023 144.391 299.04 144.124C299.056 143.856 299.128 143.594 299.253 143.357C299.378 143.12 299.552 142.911 299.764 142.746C299.975 142.581 300.219 142.463 300.48 142.4L325.62 134.27C326.16 134.081 326.749 134.093 327.28 134.305C327.811 134.516 328.248 134.912 328.51 135.42L343.46 170.06C343.558 170.308 343.602 170.574 343.589 170.84C343.576 171.106 343.507 171.366 343.386 171.604C343.265 171.841 343.095 172.05 342.887 172.216C342.679 172.383 342.438 172.504 342.18 172.57V172.57Z" fill="#06BC67"/>
<path opacity="0.3" d="M342.18 172.57L317 180.7C316.461 180.889 315.871 180.877 315.34 180.665C314.809 180.454 314.372 180.058 314.11 179.55L299.16 144.91C299.065 144.659 299.023 144.391 299.04 144.124C299.056 143.856 299.128 143.594 299.253 143.357C299.378 143.12 299.552 142.911 299.764 142.746C299.975 142.581 300.219 142.463 300.48 142.4L325.62 134.27C326.16 134.081 326.749 134.093 327.28 134.305C327.811 134.516 328.248 134.912 328.51 135.42L343.46 170.06C343.558 170.308 343.602 170.574 343.589 170.84C343.576 171.106 343.507 171.366 343.386 171.604C343.265 171.841 343.095 172.05 342.887 172.216C342.679 172.383 342.438 172.504 342.18 172.57V172.57Z" fill="black"/>
<path d="M365.77 330.82L380.56 324.54L379.06 318.31L362.66 325.85L365.77 330.82Z" fill="#06BC67"/>
<path d="M305.52 76.81C305.72 77.53 305.52 78.23 305.04 78.37C304.56 78.51 304.04 78.03 303.84 77.31C303.64 76.59 303.84 75.88 304.32 75.75C304.8 75.62 305.32 76.08 305.52 76.81Z" fill="#263238"/>
<path d="M297.5 79.2001C297.7 79.9201 297.5 80.6201 297.02 80.7601C296.54 80.9001 296.02 80.4301 295.82 79.7001C295.62 78.9701 295.82 78.2801 296.3 78.1401C296.78 78.0001 297.3 78.4701 297.5 79.2001Z" fill="#263238"/>
<path d="M296.52 78.1201H294.68C294.68 78.1201 295.93 79.2201 296.52 78.1201Z" fill="#263238"/>
<path d="M300.47 79.4502C300.409 81.5025 300.072 83.5374 299.47 85.5002C299.964 85.6368 300.482 85.6619 300.987 85.5737C301.492 85.4855 301.971 85.2862 302.39 84.9902L300.47 79.4502Z" fill="#ED893E"/>
<path d="M311.854 84.1152C311.918 84.1436 311.972 84.191 312.008 84.251C312.045 84.311 312.062 84.3808 312.057 84.4507C312.054 84.547 312.014 84.6385 311.945 84.7061C311.877 84.7737 311.785 84.8123 311.689 84.8139C310.166 84.7652 308.654 85.0732 307.272 85.7133C305.89 86.3533 304.676 87.3077 303.729 88.5002C303.677 88.5786 303.596 88.6333 303.504 88.6526C303.412 88.6719 303.316 88.6542 303.237 88.6033C303.162 88.5454 303.112 88.4614 303.096 88.3681C303.081 88.2749 303.102 88.1792 303.154 88.1004C304.155 86.8065 305.447 85.7672 306.926 85.0674C308.404 84.3675 310.027 84.0268 311.663 84.0729L311.854 84.1152Z" fill="#263238"/>
<path d="M307.3 73.0701C307.223 73.068 307.149 73.0398 307.09 72.9901C306.675 72.6554 306.187 72.4238 305.666 72.3143C305.144 72.2047 304.604 72.2205 304.09 72.3601C304.036 72.3807 303.979 72.3903 303.921 72.3884C303.864 72.3864 303.807 72.3729 303.755 72.3486C303.703 72.3244 303.656 72.2899 303.617 72.2472C303.578 72.2045 303.549 72.1545 303.53 72.1001C303.491 71.9887 303.498 71.8665 303.548 71.7599C303.599 71.6533 303.689 71.5708 303.8 71.5301C304.457 71.3263 305.154 71.2881 305.829 71.4189C306.504 71.5498 307.137 71.8456 307.67 72.2801C307.761 72.3529 307.82 72.4583 307.835 72.5739C307.85 72.6896 307.819 72.8065 307.75 72.9001C307.7 72.9701 307.631 73.0236 307.551 73.0539C307.471 73.0842 307.383 73.0899 307.3 73.0701Z" fill="#263238"/>
<path d="M293.3 76.2701L293.24 76.2101C293.158 76.1277 293.112 76.0163 293.112 75.9001C293.112 75.784 293.158 75.6726 293.24 75.5901C293.72 75.0916 294.314 74.718 294.971 74.5018C295.628 74.2857 296.328 74.2336 297.01 74.3501C297.122 74.3829 297.217 74.4569 297.276 74.5571C297.336 74.6573 297.355 74.7763 297.33 74.8901C297.302 75.0009 297.232 75.0967 297.135 75.158C297.039 75.2193 296.922 75.2415 296.81 75.2201C296.266 75.1296 295.709 75.1734 295.186 75.3477C294.663 75.522 294.191 75.8215 293.81 76.2201C293.742 76.2821 293.655 76.3204 293.563 76.3294C293.471 76.3384 293.379 76.3176 293.3 76.2701V76.2701Z" fill="#263238"/>
<path d="M369.51 343.84H369.36C369.143 343.82 368.935 343.741 368.759 343.613C368.583 343.484 368.445 343.31 368.36 343.11C368.297 342.993 368.264 342.863 368.264 342.73C368.264 342.597 368.297 342.467 368.36 342.35C368.95 341.35 372.26 341.1 372.63 341.08C372.671 341.077 372.713 341.086 372.749 341.108C372.785 341.129 372.813 341.162 372.83 341.2C372.854 341.235 372.867 341.277 372.867 341.32C372.867 341.363 372.854 341.405 372.83 341.44C372.07 342.34 370.64 343.82 369.51 343.84ZM372.16 341.55C370.84 341.68 369.09 342.01 368.78 342.55C368.75 342.6 368.734 342.657 368.734 342.715C368.734 342.773 368.75 342.83 368.78 342.88C368.829 343.013 368.914 343.129 369.025 343.218C369.136 343.306 369.269 343.362 369.41 343.38C370 343.46 371.05 342.78 372.16 341.55V341.55Z" fill="#06BC67"/>
<path d="M372.46 341.53C371.35 341.53 369.17 340.95 368.78 340.05C368.708 339.889 368.693 339.709 368.736 339.538C368.78 339.368 368.88 339.217 369.02 339.11C369.139 338.991 369.284 338.9 369.443 338.845C369.603 338.789 369.773 338.771 369.94 338.79C371.26 338.91 372.79 341.07 372.86 341.16C372.883 341.192 372.898 341.229 372.902 341.268C372.906 341.307 372.899 341.347 372.883 341.382C372.867 341.418 372.841 341.449 372.809 341.471C372.777 341.494 372.739 341.507 372.7 341.51L372.46 341.53ZM369.8 339.23C369.617 339.23 369.441 339.302 369.31 339.43C369.11 339.63 369.13 339.76 369.17 339.86C369.43 340.45 371.17 341.04 372.25 341.08C371.7 340.39 370.68 339.3 369.89 339.23H369.8Z" fill="#06BC67"/>
<path d="M315.22 349.11C314.473 349.164 313.728 348.982 313.09 348.59C312.934 348.473 312.805 348.322 312.714 348.149C312.622 347.976 312.57 347.786 312.56 347.59C312.552 347.472 312.576 347.355 312.628 347.249C312.681 347.144 312.761 347.054 312.86 346.99C313.86 346.32 317.56 347.99 318.28 348.36C318.324 348.378 318.361 348.411 318.383 348.453C318.405 348.495 318.411 348.544 318.4 348.59C318.393 348.635 318.373 348.676 318.343 348.71C318.312 348.743 318.274 348.768 318.23 348.78C317.24 348.989 316.232 349.1 315.22 349.11V349.11ZM313.52 347.21C313.37 347.2 313.22 347.235 313.09 347.31C313.057 347.331 313.031 347.361 313.015 347.397C312.999 347.432 312.994 347.472 313 347.51C312.999 347.651 313.032 347.791 313.094 347.918C313.157 348.044 313.248 348.155 313.36 348.24C313.99 348.73 315.51 348.8 317.48 348.43C316.231 347.822 314.895 347.41 313.52 347.21V347.21Z" fill="#06BC67"/>
<path d="M318.18 348.73C318.155 348.74 318.126 348.74 318.1 348.73C316.87 348.23 314.43 346.23 314.6 345.19C314.6 344.97 314.8 344.68 315.37 344.61C317.56 344.36 318.37 348.31 318.37 348.48C318.38 348.521 318.378 348.563 318.364 348.602C318.349 348.641 318.324 348.675 318.29 348.7C318.257 348.719 318.219 348.729 318.18 348.73V348.73ZM315.56 345H315.41C315.18 345 315.05 345.09 315.04 345.2C314.94 345.8 316.62 347.38 317.86 348.07C317.6 347.15 316.87 345 315.56 345Z" fill="#06BC67"/>
<path d="M304.53 75.72H302.69C302.69 75.72 303.94 76.83 304.53 75.72Z" fill="#263238"/>
<path d="M339.85 99.52C342.46 101.69 344.85 103.86 347.2 106.14C349.55 108.42 351.89 110.76 354.13 113.23C356.452 115.737 358.632 118.371 360.66 121.12C361.778 122.614 362.8 124.177 363.72 125.8C364.248 126.734 364.718 127.699 365.13 128.69C365.684 129.991 366.064 131.36 366.26 132.76L366.4 133.82L366.26 134.62C365.909 136.559 365.197 138.414 364.16 140.09C363.29 141.504 362.264 142.816 361.1 144C359.084 145.996 356.819 147.724 354.36 149.14C352.117 150.455 349.777 151.599 347.36 152.56C344.981 153.518 342.534 154.3 340.04 154.9L337.34 148.18C339.13 146.96 341.08 145.65 342.86 144.32C344.627 143.039 346.326 141.667 347.95 140.21C349.412 138.931 350.733 137.499 351.89 135.94C352.644 135.053 353.099 133.951 353.19 132.79V134.65C353.19 134.81 353.11 134.55 352.9 134.18C352.69 133.81 352.41 133.35 352.07 132.86C351.39 131.86 350.57 130.79 349.66 129.72C347.83 127.57 345.77 125.39 343.66 123.24C341.55 121.09 339.32 118.97 337.07 116.86C334.82 114.75 332.51 112.63 330.32 110.62L339.85 99.52Z" fill="#06BC67"/>
<path opacity="0.8" d="M339.85 99.52C342.46 101.69 344.85 103.86 347.2 106.14C349.55 108.42 351.89 110.76 354.13 113.23C356.452 115.737 358.632 118.371 360.66 121.12C361.778 122.614 362.8 124.177 363.72 125.8C364.248 126.734 364.718 127.699 365.13 128.69C365.684 129.991 366.064 131.36 366.26 132.76L366.4 133.82L366.26 134.62C365.909 136.559 365.197 138.414 364.16 140.09C363.29 141.504 362.264 142.816 361.1 144C359.084 145.996 356.819 147.724 354.36 149.14C352.117 150.455 349.777 151.599 347.36 152.56C344.981 153.518 342.534 154.3 340.04 154.9L337.34 148.18C339.13 146.96 341.08 145.65 342.86 144.32C344.627 143.039 346.326 141.667 347.95 140.21C349.412 138.931 350.733 137.499 351.89 135.94C352.644 135.053 353.099 133.951 353.19 132.79V134.65C353.19 134.81 353.11 134.55 352.9 134.18C352.69 133.81 352.41 133.35 352.07 132.86C351.39 131.86 350.57 130.79 349.66 129.72C347.83 127.57 345.77 125.39 343.66 123.24C341.55 121.09 339.32 118.97 337.07 116.86C334.82 114.75 332.51 112.63 330.32 110.62L339.85 99.52Z" fill="white"/>
<path d="M340.7 153.28L336.82 156.54L334.49 149.07C336.581 148.265 338.892 148.24 341 149L340.7 153.28Z" fill="#FFB573"/>
<path opacity="0.7" d="M324.25 98.83C324.25 98.83 322.49 119.71 325.25 129.34C326.15 120.16 328.94 111.28 328.72 108.41C327.764 107.961 326.841 107.443 325.96 106.86C326.944 105.961 328.032 105.182 329.2 104.54C329.2 103.23 329.2 98.44 328.98 98.05C326.43 98.4 324.25 98.83 324.25 98.83Z" fill="#06BC67"/>
<path opacity="0.7" d="M307.09 102.74C307.09 102.74 307.91 119.25 309.92 133.17C306.69 125.17 302.64 117.58 302.83 114.51C304.25 113.2 305.49 111.77 305.49 111.77C304.519 111.229 303.459 110.863 302.36 110.69C302.296 108.412 302.359 106.131 302.55 103.86C305 103.18 307.09 102.74 307.09 102.74Z" fill="#06BC67"/>
<path d="M333.74 158.35L330.65 153.16L334.49 149.07L336.82 156.54L333.74 158.35Z" fill="#FFB573"/>
<g opacity="0.2">
<path d="M157.811 155.78V177.14C157.853 177.85 158.165 178.517 158.683 179.004C159.2 179.492 159.884 179.763 160.596 179.763C161.307 179.763 161.991 179.492 162.508 179.004C163.026 178.517 163.338 177.85 163.381 177.14V155.78H157.811Z" fill="#06BC67"/>
<path d="M163.24 156.33H158C157.854 156.33 157.714 156.272 157.611 156.169C157.508 156.066 157.45 155.926 157.45 155.78V155.78C157.45 155.634 157.508 155.494 157.611 155.391C157.714 155.288 157.854 155.23 158 155.23H163.28C163.426 155.23 163.566 155.288 163.669 155.391C163.772 155.494 163.83 155.634 163.83 155.78V155.78C163.83 155.856 163.815 155.931 163.785 156C163.755 156.07 163.711 156.132 163.655 156.184C163.6 156.236 163.534 156.275 163.463 156.3C163.392 156.325 163.316 156.336 163.24 156.33V156.33Z" fill="#06BC67"/>
</g>
<g opacity="0.2">
<path d="M168.921 155.78V177.14C168.963 177.85 169.275 178.517 169.793 179.004C170.311 179.492 170.995 179.763 171.706 179.763C172.417 179.763 173.101 179.492 173.619 179.004C174.136 178.517 174.448 177.85 174.491 177.14V155.78H168.921Z" fill="#06BC67"/>
<path d="M174.341 156.33H169.061C168.915 156.33 168.775 156.272 168.672 156.169C168.569 156.066 168.511 155.926 168.511 155.78V155.78C168.511 155.634 168.569 155.494 168.672 155.391C168.775 155.288 168.915 155.23 169.061 155.23H174.341C174.487 155.23 174.627 155.288 174.73 155.391C174.833 155.494 174.891 155.634 174.891 155.78V155.78C174.891 155.926 174.833 156.066 174.73 156.169C174.627 156.272 174.487 156.33 174.341 156.33V156.33Z" fill="#06BC67"/>
</g>
<g opacity="0.2">
<path d="M180 155.78V177.14C180.043 177.85 180.355 178.517 180.872 179.004C181.39 179.492 182.074 179.763 182.785 179.763C183.496 179.763 184.18 179.492 184.698 179.004C185.216 178.517 185.527 177.85 185.57 177.14V155.78H180Z" fill="#06BC67"/>
<path d="M185.45 156.33H180.16C180.088 156.33 180.017 156.316 179.95 156.288C179.883 156.261 179.823 156.22 179.771 156.169C179.72 156.118 179.68 156.057 179.652 155.991C179.625 155.924 179.61 155.852 179.61 155.78V155.78C179.61 155.708 179.625 155.636 179.652 155.57C179.68 155.503 179.72 155.442 179.771 155.391C179.823 155.34 179.883 155.3 179.95 155.272C180.017 155.244 180.088 155.23 180.16 155.23H185.45C185.596 155.23 185.736 155.288 185.839 155.391C185.942 155.494 186 155.634 186 155.78V155.78C186 155.926 185.942 156.066 185.839 156.169C185.736 156.272 185.596 156.33 185.45 156.33V156.33Z" fill="#06BC67"/>
</g>
<path d="M191.761 160.07H151.641C151.487 160.07 151.339 160.009 151.23 159.9C151.122 159.791 151.061 159.644 151.061 159.49V159.49C151.061 159.414 151.076 159.338 151.105 159.268C151.134 159.198 151.177 159.134 151.23 159.08C151.284 159.026 151.348 158.983 151.419 158.954C151.489 158.925 151.564 158.91 151.641 158.91H191.761C191.837 158.91 191.912 158.925 191.982 158.954C192.053 158.983 192.117 159.026 192.171 159.08C192.225 159.134 192.267 159.198 192.296 159.268C192.326 159.338 192.341 159.414 192.341 159.49V159.49C192.341 159.644 192.279 159.791 192.171 159.9C192.062 160.009 191.914 160.07 191.761 160.07V160.07Z" fill="#06BC67"/>
<path d="M155.601 187.23V158.01H154.441V187.23H155.601Z" fill="#06BC67"/>
<path d="M188.98 187.23V158.01H187.82V187.23H188.98Z" fill="#06BC67"/>
<path d="M231.421 142.14H208.051C207.897 142.14 207.749 142.079 207.641 141.97C207.532 141.861 207.471 141.714 207.471 141.56V141.56C207.471 141.406 207.532 141.259 207.641 141.15C207.749 141.041 207.897 140.98 208.051 140.98H231.421C231.575 140.98 231.722 141.041 231.831 141.15C231.94 141.259 232.001 141.406 232.001 141.56V141.56C232.001 141.714 231.94 141.861 231.831 141.97C231.722 142.079 231.575 142.14 231.421 142.14V142.14Z" fill="#06BC67"/>
<path d="M230.461 140.46H223.391C223.137 140.46 222.931 140.666 222.931 140.92V142.21C222.931 142.464 223.137 142.67 223.391 142.67H230.461C230.715 142.67 230.921 142.464 230.921 142.21V140.92C230.921 140.666 230.715 140.46 230.461 140.46Z" fill="#06BC67"/>
<path d="M212 187.24V140.09H210.84V187.24H212Z" fill="#06BC67"/>
<path opacity="0.1" d="M274.12 170.22V164.22C274.274 164.181 274.409 164.086 274.499 163.954C274.588 163.822 274.626 163.662 274.605 163.504C274.584 163.346 274.505 163.202 274.385 163.098C274.264 162.994 274.109 162.937 273.95 162.94H267.64C267.466 162.943 267.299 163.013 267.176 163.136C267.053 163.259 266.983 163.426 266.98 163.6C266.982 163.743 267.031 163.881 267.12 163.993C267.209 164.105 267.332 164.185 267.47 164.22V170.22C267.444 171.783 267.072 173.322 266.38 174.724C265.688 176.126 264.695 177.358 263.47 178.33C262.005 179.53 260.858 181.072 260.13 182.82C259.937 183.311 259.866 183.841 259.924 184.366C259.982 184.89 260.166 185.393 260.461 185.83C260.757 186.267 261.154 186.625 261.619 186.875C262.084 187.124 262.603 187.256 263.13 187.26H278.42C278.948 187.256 279.466 187.124 279.931 186.875C280.396 186.625 280.793 186.267 281.089 185.83C281.384 185.393 281.569 184.89 281.626 184.366C281.684 183.841 281.613 183.311 281.42 182.82C280.692 181.072 279.545 179.53 278.08 178.33C276.863 177.354 275.877 176.121 275.192 174.718C274.507 173.316 274.141 171.78 274.12 170.22Z" fill="#06BC67"/>
<path opacity="0.6" d="M230.56 179.24H223.3C221.544 179.24 220.12 180.664 220.12 182.42V184.05C220.12 185.806 221.544 187.23 223.3 187.23H230.56C232.316 187.23 233.74 185.806 233.74 184.05V182.42C233.74 180.664 232.316 179.24 230.56 179.24Z" fill="#06BC67"/>
<path opacity="0.8" d="M230.33 176.32H223.52C222.858 176.32 222.32 176.857 222.32 177.52V178.04C222.32 178.703 222.858 179.24 223.52 179.24H230.33C230.993 179.24 231.53 178.703 231.53 178.04V177.52C231.53 176.857 230.993 176.32 230.33 176.32Z" fill="#06BC67"/>
<path d="M227.101 177.08H226.771C226.632 177.08 226.521 177.192 226.521 177.33V178.24C226.521 178.378 226.632 178.49 226.771 178.49H227.101C227.239 178.49 227.351 178.378 227.351 178.24V177.33C227.351 177.192 227.239 177.08 227.101 177.08Z" fill="#06BC67"/>
<path d="M228.58 177.08H228.25C228.112 177.08 228 177.192 228 177.33V178.24C228 178.378 228.112 178.49 228.25 178.49H228.58C228.718 178.49 228.83 178.378 228.83 178.24V177.33C228.83 177.192 228.718 177.08 228.58 177.08Z" fill="#06BC67"/>
<path d="M230.06 177.08H229.73C229.592 177.08 229.48 177.192 229.48 177.33V178.24C229.48 178.378 229.592 178.49 229.73 178.49H230.06C230.199 178.49 230.31 178.378 230.31 178.24V177.33C230.31 177.192 230.199 177.08 230.06 177.08Z" fill="#06BC67"/>
<path d="M231.54 177.08H231.21C231.072 177.08 230.96 177.192 230.96 177.33V178.24C230.96 178.378 231.072 178.49 231.21 178.49H231.54C231.678 178.49 231.79 178.378 231.79 178.24V177.33C231.79 177.192 231.678 177.08 231.54 177.08Z" fill="#06BC67"/>
<path d="M225.62 177.08H225.29C225.152 177.08 225.04 177.192 225.04 177.33V178.24C225.04 178.378 225.152 178.49 225.29 178.49H225.62C225.758 178.49 225.87 178.378 225.87 178.24V177.33C225.87 177.192 225.758 177.08 225.62 177.08Z" fill="#06BC67"/>
<path d="M224.131 177.08H223.801C223.663 177.08 223.551 177.192 223.551 177.33V178.24C223.551 178.378 223.663 178.49 223.801 178.49H224.131C224.269 178.49 224.381 178.378 224.381 178.24V177.33C224.381 177.192 224.269 177.08 224.131 177.08Z" fill="#06BC67"/>
<path d="M222.65 177.08H222.32C222.182 177.08 222.07 177.192 222.07 177.33V178.24C222.07 178.378 222.182 178.49 222.32 178.49H222.65C222.788 178.49 222.9 178.378 222.9 178.24V177.33C222.9 177.192 222.788 177.08 222.65 177.08Z" fill="#06BC67"/>
<path opacity="0.6" d="M226.931 175.77C225.531 176.05 224.991 172.87 226.931 170.06C227.441 171.1 229.871 175.19 226.931 175.77Z" fill="#06BC67"/>
<path opacity="0.6" d="M227 175.65C226.19 175.81 225.88 173.98 227 172.36C227.26 173 228.66 175.32 227 175.65Z" fill="#06BC67"/>
<path d="M323.69 194.66H124.58V361.23H323.69V194.66Z" fill="#06BC67"/>
<path opacity="0.7" d="M323.69 194.66H124.58V361.23H323.69V194.66Z" fill="white"/>
<path opacity="0.2" d="M323.69 194.66H280.86V361.23H323.69V194.66Z" fill="#06BC67"/>
<path opacity="0.3" d="M270.24 349.88H135.24V206H270.24V349.88ZM136.24 348.88H269.24V207.06H136.25L136.24 348.88Z" fill="#06BC67"/>
<g opacity="0.3">
<path d="M173.28 330.3L172.48 329.5C180.17 321.82 181.32 309.03 182.48 296.67C183.57 284.61 184.59 273.22 191.32 266.49C199.32 258.49 212.32 257.35 224.85 256.22C236.7 255.15 247.85 254.15 254.32 247.71L255.12 248.51C248.4 255.24 237.01 256.26 224.95 257.35C212.59 258.46 199.8 259.61 192.12 267.29C185.68 273.73 184.67 284.92 183.61 296.77C182.43 309.33 181.26 322.33 173.28 330.3Z" fill="#06BC67"/>
<path d="M151.17 308.19L150.37 307.39C158.37 299.39 171.37 298.25 183.9 297.12C195.75 296.05 206.9 295.04 213.38 288.61C221.06 280.92 222.21 268.14 223.38 255.77C224.46 243.71 225.49 232.33 232.21 225.6L233.01 226.4C226.58 232.83 225.57 244.03 224.5 255.87C223.37 268.44 222.2 281.43 214.23 289.41C207.5 296.13 196.11 297.16 184.06 298.24C171.64 299.35 158.86 300.51 151.17 308.19Z" fill="#06BC67"/>
<path d="M196.355 270.769L195.556 271.568L209.111 285.124L209.91 284.325L196.355 270.769Z" fill="#06BC67"/>
<path d="M188.948 283.087L188.149 283.886L196.79 292.527L197.589 291.728L188.948 283.087Z" fill="#06BC67"/>
<path d="M237.237 229.875L236.438 230.674L249.994 244.229L250.793 243.43L237.237 229.875Z" fill="#06BC67"/>
<path d="M229.839 242.186L229.04 242.985L237.681 251.626L238.48 250.827L229.839 242.186Z" fill="#06BC67"/>
<path d="M208.658 263.383L207.859 264.182L216.5 272.823L217.299 272.024L208.658 263.383Z" fill="#06BC67"/>
<path d="M155.447 311.664L154.648 312.463L168.204 326.018L169.003 325.219L155.447 311.664Z" fill="#06BC67"/>
<path d="M167.769 304.27L166.97 305.069L175.611 313.71L176.41 312.911L167.769 304.27Z" fill="#06BC67"/>
</g>
<path d="M326.74 194.66H121.53C120.547 194.657 119.605 194.266 118.91 193.571C118.215 192.875 117.823 191.933 117.82 190.95V190.95C117.823 189.966 118.214 189.023 118.909 188.326C119.604 187.629 120.546 187.235 121.53 187.23H326.74C327.725 187.235 328.668 187.629 329.365 188.325C330.061 189.022 330.455 189.965 330.46 190.95V190.95C330.455 191.934 330.061 192.876 329.364 193.571C328.668 194.266 327.724 194.657 326.74 194.66V194.66Z" fill="#06BC67"/>
<path opacity="0.3" d="M326.74 194.66H277.79C276.806 194.657 275.863 194.266 275.166 193.571C274.47 192.876 274.076 191.934 274.07 190.95C274.076 189.965 274.469 189.022 275.166 188.325C275.862 187.629 276.805 187.235 277.79 187.23H326.74C327.725 187.235 328.668 187.629 329.365 188.325C330.061 189.022 330.455 189.965 330.46 190.95V190.95C330.455 191.934 330.061 192.876 329.364 193.571C328.668 194.266 327.724 194.657 326.74 194.66V194.66Z" fill="black"/>
</svg>
