<svg width="261" height="64" viewBox="0 0 261 64" fill="none" xmlns="http://www.w3.org/2000/svg">
<path fill-rule="evenodd" clip-rule="evenodd" d="M32 22.1758C37.4251 22.1758 41.8227 26.5733 41.8227 31.9984C41.8227 37.4235 37.4251 41.8211 32 41.8211C26.575 41.8211 22.1775 37.4235 22.1775 31.9984C22.1775 26.5733 26.575 22.1758 32 22.1758Z" fill="#06BC67"/>
<path fill-rule="evenodd" clip-rule="evenodd" d="M31.9999 8.54297C34.9192 8.54297 37.2857 10.9095 37.2857 13.8287C37.2857 16.7481 34.9192 19.1145 31.9999 19.1145C29.0806 19.1145 26.7141 16.7481 26.7141 13.8287C26.7141 10.9095 29.0806 8.54297 31.9999 8.54297Z" fill="#06BC67"/>
<path fill-rule="evenodd" clip-rule="evenodd" d="M32 0C33.513 0 34.7394 1.22626 34.7394 2.73927C34.7394 4.25228 33.513 5.47866 32 5.47866C30.487 5.47866 29.2607 4.25228 29.2607 2.73927C29.2607 1.22626 30.487 0 32 0Z" fill="#06BC67"/>
<path fill-rule="evenodd" clip-rule="evenodd" d="M8.54199 31.9967C8.54199 29.0774 10.9085 26.7109 13.8278 26.7109C16.7471 26.7109 19.1136 29.0774 19.1136 31.9967C19.1136 34.916 16.7471 37.2825 13.8278 37.2825C10.9085 37.2825 8.54199 34.916 8.54199 31.9967Z" fill="#06BC67"/>
<path fill-rule="evenodd" clip-rule="evenodd" d="M0 32.0011C0 30.4881 1.22638 29.2617 2.73927 29.2617C4.25228 29.2617 5.47866 30.4881 5.47866 32.0011C5.47866 33.5141 4.25228 34.7405 2.73927 34.7405C1.22638 34.7405 0 33.5141 0 32.0011Z" fill="#06BC67"/>
<path fill-rule="evenodd" clip-rule="evenodd" d="M55.4578 31.9967C55.4578 29.0774 53.0912 26.7109 50.172 26.7109C47.2527 26.7109 44.8862 29.0774 44.8862 31.9967C44.8862 34.916 47.2527 37.2825 50.172 37.2825C53.0912 37.2825 55.4578 34.916 55.4578 31.9967Z" fill="#06BC67"/>
<path fill-rule="evenodd" clip-rule="evenodd" d="M64 32.0011C64 30.4881 62.7736 29.2617 61.2606 29.2617C59.7476 29.2617 58.5212 30.4881 58.5212 32.0011C58.5212 33.5141 59.7476 34.7405 61.2606 34.7405C62.7736 34.7405 64 33.5141 64 32.0011Z" fill="#06BC67"/>
<path fill-rule="evenodd" clip-rule="evenodd" d="M31.9999 55.4582C29.0806 55.4582 26.7141 53.0917 26.7141 50.1725C26.7141 47.2531 29.0806 44.8867 31.9999 44.8867C34.9192 44.8867 37.2857 47.2531 37.2857 50.1725C37.2857 53.0917 34.9192 55.4582 31.9999 55.4582Z" fill="#06BC67"/>
<path fill-rule="evenodd" clip-rule="evenodd" d="M32 63.9982C30.487 63.9982 29.2607 62.7719 29.2607 61.2589C29.2607 59.7459 30.487 58.5195 32 58.5195C33.513 58.5195 34.7394 59.7459 34.7394 61.2589C34.7394 62.7719 33.513 63.9982 32 63.9982Z" fill="#06BC67"/>
<path fill-rule="evenodd" clip-rule="evenodd" d="M15.4133 15.4075C17.4775 13.3433 20.8241 13.3433 22.8885 15.4075C24.9527 17.4719 24.9527 20.8186 22.8885 22.8828C20.8241 24.9471 17.4775 24.9471 15.4133 22.8828C13.3489 20.8186 13.3489 17.4719 15.4133 15.4075Z" fill="#06BC67"/>
<path fill-rule="evenodd" clip-rule="evenodd" d="M9.37295 9.3688C10.4428 8.29894 12.1772 8.29894 13.2469 9.3688C14.3167 10.4387 14.3167 12.173 13.2469 13.2427C12.177 14.3126 10.4427 14.3126 9.37295 13.2427C8.30309 12.1729 8.30309 10.4385 9.37295 9.3688Z" fill="#06BC67"/>
<path fill-rule="evenodd" clip-rule="evenodd" d="M15.4133 48.586C13.3489 46.5216 13.3489 43.175 15.4133 41.1108C17.4775 39.0464 20.8241 39.0464 22.8885 41.1108C24.9527 43.175 24.9527 46.5216 22.8885 48.586C20.8241 50.6502 17.4775 50.6502 15.4133 48.586Z" fill="#06BC67"/>
<path fill-rule="evenodd" clip-rule="evenodd" d="M9.37295 54.6255C8.30309 53.5557 8.30309 51.8213 9.37295 50.7516C10.4428 49.6818 12.1772 49.6818 13.2469 50.7516C14.3167 51.8215 14.3167 53.5558 13.2469 54.6255C12.177 55.6954 10.4427 55.6954 9.37295 54.6255Z" fill="#06BC67"/>
<path fill-rule="evenodd" clip-rule="evenodd" d="M48.5874 15.4075C46.5231 13.3433 43.1764 13.3433 41.1121 15.4075C39.0479 17.4719 39.0479 20.8186 41.1121 22.8828C43.1764 24.9471 46.5231 24.9471 48.5874 22.8828C50.6516 20.8186 50.6516 17.4719 48.5874 15.4075Z" fill="#06BC67"/>
<path fill-rule="evenodd" clip-rule="evenodd" d="M54.6281 9.3688C53.5583 8.29894 51.8238 8.29894 50.7541 9.3688C49.6842 10.4387 49.6842 12.173 50.7541 13.2427C51.8239 14.3126 53.5584 14.3126 54.6281 13.2427C55.6978 12.1729 55.6978 10.4385 54.6281 9.3688Z" fill="#06BC67"/>
<path fill-rule="evenodd" clip-rule="evenodd" d="M48.5874 48.586C46.5231 50.6502 43.1764 50.6502 41.1121 48.586C39.0479 46.5216 39.0479 43.175 41.1121 41.1108C43.1764 39.0464 46.5231 39.0464 48.5874 41.1108C50.6516 43.175 50.6516 46.5216 48.5874 48.586Z" fill="#06BC67"/>
<path fill-rule="evenodd" clip-rule="evenodd" d="M54.6281 54.6255C53.5583 55.6954 51.8238 55.6954 50.7541 54.6255C49.6842 53.5557 49.6842 51.8213 50.7541 50.7516C51.8239 49.6818 53.5584 49.6818 54.6281 50.7516C55.6978 51.8215 55.6978 53.5558 54.6281 54.6255Z" fill="#06BC67"/>
<path d="M79.0327 31.2831C79.0327 29.0739 79.372 27.1408 80.0506 25.4839C80.729 23.8271 81.6206 22.4464 82.7252 21.3417C83.8298 20.2372 85.1002 19.4007 86.536 18.8328C87.972 18.2646 89.4474 17.9806 90.9623 17.9806C94.497 17.9806 97.29 19.0616 99.3413 21.2235C101.393 23.3852 102.418 26.5649 102.418 30.7624C102.418 31.1726 102.403 31.6224 102.371 32.1115C102.34 32.6007 102.308 33.0347 102.276 33.4133H86.2757C86.4335 34.8651 87.112 36.017 88.3113 36.8691C89.5105 37.7212 91.1201 38.1473 93.1399 38.1473C94.4338 38.1473 95.7041 38.0288 96.9507 37.7922C98.1973 37.5556 99.2152 37.2636 100.004 36.9164L100.951 42.6445C100.572 42.834 100.067 43.0232 99.4359 43.2127C98.8047 43.402 98.1025 43.5677 97.3294 43.7097C96.5562 43.8518 95.7277 43.9701 94.8441 44.0647C93.9604 44.1594 93.0767 44.2068 92.1931 44.2068C89.9524 44.2068 88.0037 43.8754 86.3467 43.2127C84.6898 42.5499 83.3169 41.6425 82.2281 40.4906C81.1392 39.3387 80.3345 37.9737 79.8138 36.3956C79.293 34.8177 79.0327 33.1136 79.0327 31.2831ZM95.6015 28.5847C95.5699 27.985 95.4673 27.4012 95.2938 26.8332C95.1202 26.265 94.852 25.76 94.489 25.3183C94.1262 24.8764 93.6686 24.5135 93.1162 24.2294C92.5639 23.9453 91.8775 23.8034 91.0569 23.8034C90.268 23.8034 89.5894 23.9375 89.0215 24.2057C88.4533 24.4739 87.98 24.829 87.6013 25.2709C87.2226 25.7127 86.9306 26.2256 86.7255 26.8094C86.5203 27.3933 86.3704 27.9849 86.2757 28.5846H95.6016L95.6015 28.5847ZM107.862 19.4955C109.062 19.1485 110.608 18.825 112.502 18.5251C114.395 18.2253 116.383 18.0754 118.466 18.0754C120.581 18.0754 122.34 18.3515 123.745 18.9038C125.149 19.4561 126.262 20.2372 127.082 21.2472C127.903 22.2571 128.486 23.4563 128.834 24.8449C129.181 26.2336 129.354 27.7799 129.354 29.4842V43.544H122.301V30.3363C122.301 28.064 122.001 26.4545 121.401 25.5076C120.802 24.5609 119.681 24.0874 118.04 24.0874C117.535 24.0874 116.999 24.1111 116.431 24.1585C115.863 24.2058 115.358 24.2611 114.916 24.3242V43.544H107.862V19.4955H107.862ZM154.444 23.3774C153.876 24.0086 153.111 24.8608 152.14 25.9337C151.178 27.0068 150.144 28.1903 149.04 29.4842C147.927 30.7781 146.815 32.1352 145.694 33.5554C144.566 34.9757 143.548 36.3485 142.633 37.6739H154.681V43.5441H134.088V39.3783C134.751 38.2422 135.548 37.0191 136.479 35.7095C137.41 34.3997 138.388 33.0821 139.414 31.7566C140.44 30.4311 141.457 29.1451 142.467 27.8984C143.477 26.6519 144.408 25.5235 145.26 24.5137H134.656V18.6436H154.444V23.3775V23.3774ZM166.468 43.544H159.415V18.6435H166.468V43.544ZM167.131 11.4479C167.131 12.7418 166.713 13.7596 165.877 14.5013C165.04 15.2429 164.054 15.6136 162.918 15.6136C161.782 15.6136 160.796 15.2429 159.959 14.5013C159.123 13.7596 158.705 12.7418 158.705 11.4479C158.705 10.1539 159.123 9.13611 159.959 8.39448C160.796 7.65284 161.782 7.28208 162.918 7.28208C164.054 7.28208 165.04 7.65284 165.877 8.39448C166.713 9.13611 167.131 10.1539 167.131 11.4479ZM177.688 18.9275H187.014V22.62H177.688V33.9814C177.688 35.2123 177.782 36.2301 177.972 37.0348C178.161 37.8396 178.445 38.4708 178.824 38.9284C179.203 39.386 179.676 39.7095 180.244 39.8989C180.812 40.0883 181.475 40.1828 182.232 40.1828C183.558 40.1828 184.623 40.033 185.428 39.7332C186.232 39.4334 186.793 39.2204 187.108 39.094L187.96 42.7392C187.518 42.96 186.745 43.2362 185.641 43.5677C184.536 43.899 183.274 44.0647 181.854 44.0647C180.181 44.0647 178.8 43.8517 177.711 43.4256C176.622 42.9995 175.747 42.3604 175.084 41.5083C174.421 40.6562 173.956 39.6067 173.687 38.3602C173.419 37.1136 173.285 35.6698 173.285 34.0287V12.0632L177.688 11.3058V18.9275H177.688ZM190.753 31.2831C190.753 29.1055 191.069 27.204 191.7 25.5787C192.331 23.9534 193.168 22.6043 194.209 21.5311C195.251 20.458 196.45 19.6534 197.807 19.1168C199.164 18.5803 200.553 18.3122 201.973 18.3122C205.286 18.3122 207.827 19.3458 209.594 21.4128C211.362 23.48 212.245 26.6281 212.245 30.857C212.245 31.0464 212.245 31.2909 212.245 31.5907C212.245 31.8905 212.23 32.1667 212.198 32.4192H195.345C195.535 34.9755 196.276 36.9164 197.57 38.242C198.864 39.5674 200.884 40.2301 203.63 40.2301C205.176 40.2301 206.478 40.096 207.535 39.8277C208.593 39.5596 209.389 39.2991 209.926 39.0466L210.541 42.7392C210.005 43.0232 209.066 43.3231 207.725 43.6386C206.383 43.9542 204.861 44.1121 203.156 44.1121C201.01 44.1121 199.156 43.7886 197.594 43.1416C196.032 42.4946 194.746 41.6031 193.736 40.4669C192.726 39.3308 191.976 37.9816 191.487 36.4193C190.998 34.8572 190.754 33.145 190.754 31.2831H190.753ZM207.653 28.8689C207.685 26.8806 207.188 25.2473 206.162 23.9692C205.137 22.691 203.724 22.0519 201.925 22.0519C200.916 22.0519 200.024 22.2491 199.251 22.6437C198.478 23.0382 197.823 23.551 197.286 24.1822C196.749 24.8134 196.331 25.5393 196.032 26.3597C195.732 27.1803 195.534 28.0166 195.44 28.8688H207.653L207.653 28.8689ZM229.288 44.1121C227.299 44.1121 225.556 43.7965 224.057 43.1653C222.557 42.5341 221.295 41.6504 220.269 40.5143C219.244 39.3782 218.478 38.0289 217.973 36.4667C217.468 34.9046 217.216 33.1767 217.216 31.2831C217.216 29.3895 217.492 27.6537 218.044 26.0758C218.597 24.4979 219.378 23.1328 220.388 21.9809C221.398 20.829 222.636 19.9296 224.104 19.2825C225.571 18.6355 227.205 18.312 229.004 18.312C230.108 18.312 231.213 18.4067 232.317 18.5961C233.422 18.7854 234.479 19.0852 235.489 19.4954L234.495 23.2352C233.832 22.9197 233.067 22.6671 232.199 22.4778C231.331 22.2884 230.408 22.1938 229.43 22.1938C226.968 22.1938 225.082 22.967 223.772 24.5135C222.463 26.0598 221.808 28.3163 221.808 31.2831C221.808 32.6086 221.958 33.8236 222.257 34.9283C222.557 36.0328 223.031 36.9796 223.678 37.7687C224.325 38.5576 225.153 39.1653 226.163 39.5912C227.173 40.0173 228.404 40.2304 229.855 40.2304C231.023 40.2304 232.081 40.1199 233.027 39.8991C233.974 39.6782 234.716 39.4415 235.252 39.1889L235.868 42.8815C235.615 43.0393 235.252 43.1892 234.779 43.3313C234.305 43.4733 233.769 43.5994 233.169 43.71C232.57 43.8204 231.931 43.9151 231.252 43.9939C230.574 44.0729 229.919 44.1124 229.287 44.1124L229.288 44.1121ZM240.602 43.544V7.56599L245.004 6.80859V19.4009C245.825 19.0853 246.701 18.8406 247.632 18.6672C248.563 18.4936 249.486 18.4068 250.401 18.4068C252.358 18.4068 253.983 18.6829 255.277 19.2353C256.571 19.7876 257.605 20.5608 258.378 21.5549C259.151 22.549 259.695 23.7405 260.011 25.1291C260.326 26.5177 260.484 28.0483 260.484 29.7209V43.544H256.082V30.6676C256.082 29.1527 255.979 27.8587 255.774 26.7858C255.569 25.7127 255.23 24.8448 254.756 24.1822C254.283 23.5195 253.652 23.0382 252.863 22.7383C252.074 22.4385 251.095 22.2885 249.928 22.2885C249.454 22.2885 248.965 22.3201 248.46 22.3833C247.955 22.4464 247.474 22.5174 247.016 22.5963C246.559 22.6752 246.148 22.7621 245.785 22.8566C245.422 22.9513 245.162 23.0302 245.004 23.0933V43.5438H240.602V43.544Z" fill="#06BC67"/>
<path d="M83.7791 55.568C83.6795 55.3047 83.5859 55.0458 83.4982 54.7912C83.4104 54.5368 83.3198 54.2779 83.2262 54.0147H80.4706L79.9176 55.568H79.0312C79.2652 54.9243 79.4846 54.3291 79.6893 53.7821C79.8942 53.235 80.0945 52.7156 80.2906 52.2244C80.4866 51.7329 80.6811 51.2633 80.8743 50.8158C81.0673 50.3682 81.2691 49.925 81.4797 49.4862H82.2608C82.4715 49.925 82.6733 50.3682 82.8664 50.8158C83.0596 51.2633 83.254 51.7329 83.45 52.2244C83.6461 52.7158 83.8465 53.2351 84.0512 53.7821C84.2561 54.3291 84.4754 54.9243 84.7095 55.568H83.7792H83.7791ZM82.9804 53.3125C82.7931 52.8034 82.6074 52.3105 82.4232 51.8337C82.2388 51.3569 82.0472 50.8991 81.8483 50.4603C81.6434 50.8991 81.4489 51.3569 81.2646 51.8337C81.0803 52.3105 80.8975 52.8034 80.7161 53.3125H82.9803H82.9804ZM88.6496 53.2949C88.6496 52.7625 88.518 52.3529 88.2548 52.0663C87.9915 51.7797 87.6404 51.6363 87.2016 51.6363C86.9559 51.6363 86.7643 51.6451 86.6268 51.6626C86.4892 51.6802 86.3796 51.7007 86.2977 51.7241V54.6026C86.3971 54.6845 86.5404 54.7635 86.7277 54.8395C86.9149 54.9155 87.1197 54.9536 87.3421 54.9536C87.576 54.9536 87.7765 54.9112 87.9433 54.8263C88.11 54.7415 88.2461 54.6244 88.3514 54.4752C88.4567 54.3261 88.5328 54.1506 88.5795 53.9487C88.6263 53.7468 88.6496 53.529 88.6496 53.2948V53.2949ZM89.501 53.2949C89.501 53.6401 89.4556 53.959 89.3648 54.2515C89.2742 54.5441 89.1411 54.7958 88.9656 55.0063C88.79 55.217 88.5751 55.3807 88.3205 55.4977C88.0661 55.6148 87.7749 55.6733 87.4473 55.6733C87.184 55.6733 86.9514 55.6382 86.7496 55.568C86.5477 55.4977 86.3971 55.4304 86.2977 55.3661V57.1915H85.4815V51.1448C85.6747 51.098 85.9159 51.0468 86.2055 50.9913C86.4951 50.9356 86.8301 50.9078 87.2104 50.9078C87.5614 50.9078 87.8773 50.9634 88.1582 51.0745C88.439 51.1858 88.6789 51.3436 88.8778 51.5485C89.0768 51.7534 89.2302 52.0034 89.3385 52.2988C89.4468 52.5943 89.501 52.9263 89.501 53.2949ZM92.0196 55.6558C91.5165 55.644 91.1596 55.5357 90.9489 55.3311C90.7383 55.1262 90.6331 54.8074 90.6331 54.3744V48.8982L91.4492 48.7578V54.2428C91.4492 54.3774 91.4608 54.4885 91.4843 54.5762C91.5076 54.664 91.5457 54.7343 91.5984 54.7869C91.651 54.8396 91.7213 54.8791 91.8091 54.9055C91.8969 54.9318 92.0052 54.9537 92.1337 54.9712L92.0196 55.6558ZM93.8626 55.568H93.0465V51.0044H93.8626V55.568ZM93.4502 50.1795C93.3038 50.1795 93.1795 50.1311 93.0772 50.0346C92.9748 49.938 92.9236 49.808 92.9236 49.6441C92.9236 49.4803 92.9748 49.3502 93.0772 49.2536C93.1795 49.157 93.3038 49.1087 93.4502 49.1087C93.5964 49.1087 93.7207 49.157 93.8231 49.2536C93.9256 49.3502 93.9767 49.4803 93.9767 49.6441C93.9767 49.808 93.9256 49.938 93.8231 50.0346C93.7207 50.1311 93.5964 50.1795 93.4502 50.1795ZM97.2502 55.6732C96.8815 55.6732 96.5584 55.6146 96.2804 55.4976C96.0026 55.3806 95.7684 55.2169 95.5784 55.0062C95.3882 54.7955 95.2464 54.5454 95.1528 54.2558C95.059 53.9662 95.0122 53.6458 95.0122 53.2948C95.0122 52.9439 95.0634 52.622 95.1659 52.3295C95.2683 52.0369 95.4131 51.7838 95.6003 51.5703C95.7876 51.3568 96.0172 51.1901 96.2892 51.07C96.5611 50.9501 96.864 50.8902 97.1974 50.8902C97.4023 50.8902 97.6071 50.9077 97.8118 50.9428C98.0167 50.978 98.2127 51.0335 98.3999 51.1096L98.2155 51.8029C98.0926 51.7444 97.9508 51.6976 97.7899 51.6624C97.629 51.6273 97.4579 51.6098 97.2765 51.6098C96.8202 51.6098 96.4706 51.7531 96.2277 52.0398C95.9849 52.3264 95.8636 52.7447 95.8636 53.2947C95.8636 53.5403 95.8913 53.7657 95.9469 53.9705C96.0026 54.1752 96.0903 54.3507 96.2102 54.497C96.3301 54.6433 96.4837 54.7558 96.6709 54.8349C96.8582 54.9139 97.0863 54.9533 97.3554 54.9533C97.5719 54.9533 97.7679 54.9328 97.9435 54.8919C98.1189 54.851 98.2564 54.807 98.3559 54.7602L98.4702 55.4447C98.4232 55.474 98.3559 55.5017 98.2681 55.5281C98.1803 55.5544 98.0808 55.5778 97.9698 55.5983C97.8586 55.6188 97.7401 55.6363 97.6144 55.651C97.4886 55.6656 97.3672 55.6729 97.2502 55.6729V55.6732ZM100.892 54.9799C101.086 54.9799 101.257 54.9755 101.406 54.9667C101.555 54.958 101.679 54.9419 101.779 54.9185V53.5582C101.72 53.529 101.625 53.5041 101.494 53.4836C101.362 53.4631 101.203 53.4529 101.015 53.4529C100.892 53.4529 100.762 53.4617 100.625 53.4792C100.487 53.4967 100.362 53.5334 100.248 53.5889C100.133 53.6445 100.038 53.7206 99.9623 53.817C99.8862 53.9136 99.8482 54.0407 99.8482 54.1988C99.8482 54.4912 99.9418 54.6947 100.129 54.8088C100.316 54.9229 100.571 54.9799 100.892 54.9799ZM100.822 50.8903C101.15 50.8903 101.426 50.9327 101.652 51.0176C101.877 51.1024 102.058 51.2224 102.196 51.3773C102.333 51.5324 102.431 51.7167 102.49 51.9303C102.548 52.1439 102.577 52.3792 102.577 52.6367V55.4888C102.507 55.5005 102.409 55.5167 102.283 55.5372C102.158 55.5577 102.016 55.5766 101.858 55.5941C101.7 55.6117 101.529 55.6278 101.344 55.6425C101.16 55.6571 100.977 55.6644 100.796 55.6644C100.539 55.6644 100.301 55.6381 100.085 55.5854C99.8686 55.5328 99.6814 55.4493 99.5233 55.3354C99.3654 55.2213 99.2426 55.0707 99.1548 54.8833C99.067 54.6961 99.0231 54.4708 99.0231 54.2077C99.0231 53.9561 99.0743 53.7396 99.1767 53.5582C99.2791 53.3767 99.418 53.2306 99.5936 53.1193C99.7692 53.0082 99.9739 52.9262 100.208 52.8737C100.442 52.821 100.688 52.7947 100.945 52.7947C101.027 52.7947 101.112 52.7991 101.2 52.8078C101.287 52.8166 101.371 52.8283 101.45 52.843C101.529 52.8576 101.597 52.8708 101.656 52.8825C101.714 52.8942 101.755 52.903 101.779 52.9088V52.6807C101.779 52.5461 101.764 52.413 101.735 52.2814C101.706 52.1497 101.653 52.0328 101.577 51.9304C101.501 51.8279 101.397 51.746 101.265 51.6847C101.134 51.6233 100.963 51.5925 100.752 51.5925C100.483 51.5925 100.247 51.6116 100.046 51.6496C99.8437 51.6876 99.6931 51.7271 99.5936 51.7681L99.497 51.0924C99.6023 51.0456 99.7778 51.0003 100.024 50.9563C100.269 50.9125 100.536 50.8905 100.822 50.8905V50.8903ZM104.692 51.0044H106.421V51.6888H104.692V53.7951C104.692 54.0232 104.71 54.2119 104.745 54.3611C104.78 54.5104 104.833 54.6274 104.903 54.7122C104.973 54.7971 105.061 54.857 105.166 54.8921C105.272 54.9273 105.394 54.9448 105.535 54.9448C105.781 54.9448 105.978 54.917 106.127 54.8614C106.277 54.8058 106.38 54.7664 106.439 54.7429L106.597 55.4187C106.515 55.4595 106.372 55.5107 106.167 55.5722C105.962 55.6337 105.728 55.6644 105.465 55.6644C105.155 55.6644 104.899 55.625 104.697 55.5459C104.495 55.4669 104.333 55.3484 104.21 55.1904C104.087 55.0325 104.001 54.8381 103.951 54.6069C103.901 54.3758 103.876 54.108 103.876 53.8039V49.7317L104.692 49.5913V51.0043L104.692 51.0044ZM108.273 55.568H107.457V51.0044H108.273V55.568ZM107.861 50.1795C107.714 50.1795 107.59 50.1311 107.488 50.0346C107.385 49.938 107.334 49.808 107.334 49.6441C107.334 49.4803 107.385 49.3502 107.488 49.2536C107.59 49.157 107.714 49.1087 107.861 49.1087C108.007 49.1087 108.131 49.157 108.233 49.2536C108.336 49.3502 108.387 49.4803 108.387 49.6441C108.387 49.808 108.336 49.938 108.233 50.0346C108.131 50.1311 108.007 50.1795 107.861 50.1795ZM113.24 51.0044C113.012 51.8586 112.745 52.6776 112.437 53.4617C112.13 54.2456 111.833 54.9478 111.547 55.5678H110.809C110.523 54.9477 110.226 54.2456 109.919 53.4617C109.611 52.6776 109.344 51.8586 109.116 51.0044H109.993C110.064 51.291 110.147 51.5969 110.243 51.9215C110.34 52.2462 110.442 52.568 110.55 52.8869C110.659 53.2057 110.768 53.5144 110.879 53.8128C110.991 54.1111 111.096 54.3774 111.195 54.6114C111.295 54.3774 111.4 54.1111 111.511 53.8128C111.623 53.5144 111.732 53.2057 111.84 52.8869C111.949 52.568 112.051 52.2462 112.148 51.9215C112.244 51.5969 112.327 51.291 112.398 51.0044H113.24H113.24ZM117.988 53.2862C117.988 53.6489 117.935 53.9765 117.83 54.2691C117.725 54.5616 117.577 54.8133 117.387 55.0239C117.197 55.2345 116.97 55.3967 116.707 55.5108C116.444 55.6251 116.157 55.6821 115.847 55.6821C115.537 55.6821 115.25 55.6251 114.987 55.5108C114.723 55.3967 114.497 55.2345 114.307 55.0239C114.116 54.8132 113.969 54.5616 113.863 54.2691C113.758 53.9766 113.705 53.6489 113.705 53.2862C113.705 52.9293 113.758 52.6032 113.863 52.3076C113.969 52.0122 114.116 51.7591 114.307 51.5485C114.497 51.3378 114.723 51.1755 114.987 51.0614C115.25 50.9473 115.537 50.8903 115.847 50.8903C116.157 50.8903 116.444 50.9473 116.707 51.0614C116.97 51.1755 117.197 51.3378 117.387 51.5485C117.577 51.7592 117.725 52.0122 117.83 52.3076C117.935 52.6031 117.988 52.9293 117.988 53.2862ZM117.137 53.2862C117.137 52.7713 117.021 52.3633 116.79 52.0619C116.559 51.7606 116.245 51.61 115.847 51.61C115.449 51.61 115.134 51.7606 114.903 52.0619C114.672 52.3633 114.557 52.7713 114.557 53.2862C114.557 53.801 114.672 54.2091 114.903 54.5104C115.134 54.8116 115.449 54.9623 115.847 54.9623C116.245 54.9623 116.559 54.8116 116.79 54.5104C117.021 54.2091 117.137 53.801 117.137 53.2862ZM124.333 53.2949C124.333 52.7625 124.202 52.3529 123.938 52.0663C123.675 51.7797 123.324 51.6363 122.885 51.6363C122.64 51.6363 122.448 51.6451 122.31 51.6626C122.173 51.6802 122.063 51.7007 121.981 51.7241V54.6026C122.081 54.6845 122.224 54.7635 122.411 54.8395C122.599 54.9155 122.803 54.9536 123.026 54.9536C123.26 54.9536 123.46 54.9112 123.627 54.8263C123.794 54.7415 123.93 54.6244 124.035 54.4752C124.14 54.3261 124.216 54.1506 124.263 53.9487C124.31 53.7468 124.333 53.529 124.333 53.2948V53.2949ZM125.185 53.2949C125.185 53.6401 125.139 53.959 125.048 54.2515C124.958 54.5441 124.825 54.7958 124.649 55.0063C124.474 55.217 124.259 55.3807 124.004 55.4977C123.75 55.6148 123.459 55.6733 123.131 55.6733C122.868 55.6733 122.635 55.6382 122.433 55.568C122.231 55.4977 122.081 55.4304 121.981 55.3661V57.1915H121.165V51.1448C121.358 51.098 121.6 51.0468 121.889 50.9913C122.179 50.9356 122.514 50.9078 122.894 50.9078C123.245 50.9078 123.561 50.9634 123.842 51.0745C124.123 51.1858 124.363 51.3436 124.561 51.5485C124.76 51.7534 124.914 52.0034 125.022 52.2988C125.13 52.5943 125.185 52.9263 125.185 53.2949ZM127.879 54.9799C128.072 54.9799 128.243 54.9755 128.392 54.9667C128.541 54.958 128.666 54.9419 128.765 54.9185V53.5582C128.707 53.529 128.612 53.5041 128.48 53.4836C128.348 53.4631 128.189 53.4529 128.002 53.4529C127.879 53.4529 127.749 53.4617 127.611 53.4792C127.474 53.4967 127.348 53.5334 127.234 53.5889C127.12 53.6445 127.025 53.7206 126.949 53.817C126.873 53.9136 126.835 54.0407 126.835 54.1988C126.835 54.4912 126.928 54.6947 127.115 54.8088C127.303 54.9229 127.557 54.9799 127.879 54.9799ZM127.809 50.8903C128.136 50.8903 128.413 50.9327 128.638 51.0176C128.863 51.1024 129.045 51.2224 129.182 51.3773C129.32 51.5324 129.417 51.7167 129.476 51.9303C129.535 52.1439 129.564 52.3792 129.564 52.6367V55.4888C129.494 55.5005 129.396 55.5167 129.27 55.5372C129.144 55.5577 129.002 55.5766 128.844 55.5941C128.686 55.6117 128.515 55.6278 128.331 55.6425C128.146 55.6571 127.964 55.6644 127.782 55.6644C127.525 55.6644 127.288 55.6381 127.071 55.5854C126.855 55.5328 126.668 55.4493 126.51 55.3354C126.352 55.2213 126.229 55.0707 126.141 54.8833C126.053 54.6961 126.01 54.4708 126.01 54.2077C126.01 53.9561 126.061 53.7396 126.163 53.5582C126.266 53.3767 126.404 53.2306 126.58 53.1193C126.756 53.0082 126.96 52.9262 127.194 52.8737C127.428 52.821 127.674 52.7947 127.931 52.7947C128.013 52.7947 128.098 52.7991 128.186 52.8078C128.274 52.8166 128.357 52.8283 128.436 52.843C128.515 52.8576 128.584 52.8708 128.642 52.8825C128.701 52.8942 128.742 52.903 128.765 52.9088V52.6807C128.765 52.5461 128.751 52.413 128.721 52.2814C128.692 52.1497 128.639 52.0328 128.563 51.9304C128.487 51.8279 128.383 51.746 128.252 51.6847C128.12 51.6233 127.949 51.5925 127.738 51.5925C127.469 51.5925 127.234 51.6116 127.032 51.6496C126.83 51.6876 126.68 51.7271 126.58 51.7681L126.483 51.0924C126.589 51.0456 126.764 51.0003 127.01 50.9563C127.256 50.9125 127.522 50.8905 127.809 50.8905V50.8903ZM132.6 50.9078C132.671 50.9078 132.751 50.9122 132.842 50.921C132.932 50.9298 133.022 50.9415 133.109 50.9561C133.197 50.9707 133.277 50.9853 133.35 51C133.424 51.0146 133.478 51.0277 133.513 51.0395L133.372 51.7503C133.308 51.7268 133.201 51.6991 133.052 51.6669C132.903 51.6348 132.711 51.6187 132.477 51.6187C132.325 51.6187 132.175 51.6348 132.025 51.6669C131.876 51.6991 131.778 51.721 131.731 51.7328V55.5678H130.915V51.1974C131.108 51.1272 131.348 51.0613 131.635 50.9999C131.921 50.9384 132.243 50.9077 132.6 50.9077L132.6 50.9078ZM135.848 54.9799C136.041 54.9799 136.212 54.9755 136.361 54.9667C136.51 54.958 136.634 54.9419 136.734 54.9185V53.5582C136.675 53.529 136.58 53.5041 136.449 53.4836C136.317 53.4631 136.158 53.4529 135.97 53.4529C135.848 53.4529 135.717 53.4617 135.58 53.4792C135.442 53.4967 135.317 53.5334 135.203 53.5889C135.088 53.6445 134.993 53.7206 134.917 53.817C134.841 53.9136 134.803 54.0407 134.803 54.1988C134.803 54.4912 134.897 54.6947 135.084 54.8088C135.271 54.9229 135.526 54.9799 135.848 54.9799ZM135.777 50.8903C136.105 50.8903 136.381 50.9327 136.607 51.0176C136.832 51.1024 137.013 51.2224 137.151 51.3773C137.288 51.5324 137.386 51.7167 137.445 51.9303C137.503 52.1439 137.532 52.3792 137.532 52.6367V55.4888C137.462 55.5005 137.364 55.5167 137.238 55.5372C137.113 55.5577 136.971 55.5766 136.813 55.5941C136.655 55.6117 136.484 55.6278 136.299 55.6425C136.115 55.6571 135.932 55.6644 135.751 55.6644C135.494 55.6644 135.256 55.6381 135.04 55.5854C134.824 55.5328 134.636 55.4493 134.478 55.3354C134.32 55.2213 134.198 55.0707 134.11 54.8833C134.022 54.6961 133.978 54.4708 133.978 54.2077C133.978 53.9561 134.029 53.7396 134.132 53.5582C134.234 53.3767 134.373 53.2306 134.549 53.1193C134.724 53.0082 134.929 52.9262 135.163 52.8737C135.397 52.821 135.643 52.7947 135.9 52.7947C135.982 52.7947 136.067 52.7991 136.155 52.8078C136.242 52.8166 136.326 52.8283 136.405 52.843C136.484 52.8576 136.552 52.8708 136.611 52.8825C136.669 52.8942 136.71 52.903 136.734 52.9088V52.6807C136.734 52.5461 136.719 52.413 136.69 52.2814C136.661 52.1497 136.608 52.0328 136.532 51.9304C136.456 51.8279 136.352 51.746 136.22 51.6847C136.089 51.6233 135.918 51.5925 135.707 51.5925C135.438 51.5925 135.202 51.6116 135.001 51.6496C134.799 51.6876 134.648 51.7271 134.549 51.7681L134.452 51.0924C134.557 51.0456 134.733 51.0003 134.979 50.9563C135.224 50.9125 135.491 50.8905 135.777 50.8905V50.8903ZM140.964 55.5678V49.4861H144.676V50.2144H141.815V52.0224H144.36V52.7332H141.815V54.8394H144.896V55.5677H140.964L140.964 55.5678ZM148.731 55.5678C148.666 55.439 148.587 55.2958 148.494 55.1378C148.4 54.9798 148.298 54.8176 148.187 54.6507C148.076 54.484 147.961 54.3187 147.844 54.1548C147.727 53.991 147.613 53.8361 147.502 53.6898C147.391 53.8361 147.277 53.9925 147.16 54.1592C147.043 54.3261 146.93 54.4928 146.822 54.6595C146.714 54.8263 146.613 54.9885 146.519 55.1466C146.426 55.3046 146.347 55.445 146.283 55.5678H145.44C145.645 55.1699 145.889 54.7648 146.173 54.3524C146.456 53.9399 146.739 53.5465 147.02 53.1721L145.51 51.0044H146.432L147.52 52.6015L148.617 51.0044H149.486L148.011 53.1193C148.292 53.4997 148.58 53.9019 148.876 54.3261C149.171 54.7503 149.421 55.1641 149.626 55.5678H148.731H148.731ZM153.654 53.2948C153.654 52.7623 153.522 52.3528 153.259 52.0662C152.996 51.7796 152.645 51.6362 152.206 51.6362C151.96 51.6362 151.769 51.645 151.631 51.6625C151.494 51.68 151.384 51.7005 151.302 51.724V54.6025C151.401 54.6844 151.545 54.7634 151.732 54.8394C151.919 54.9154 152.124 54.9535 152.346 54.9535C152.58 54.9535 152.781 54.911 152.948 54.8262C153.114 54.7414 153.25 54.6243 153.356 54.4751C153.461 54.3259 153.537 54.1505 153.584 53.9485C153.631 53.7466 153.654 53.5288 153.654 53.2947V53.2948ZM154.505 53.2948C154.505 53.64 154.46 53.9588 154.369 54.2514C154.279 54.544 154.145 54.7956 153.97 55.0062C153.794 55.2169 153.579 55.3806 153.325 55.4976C153.07 55.6146 152.779 55.6732 152.452 55.6732C152.188 55.6732 151.956 55.6381 151.754 55.5678C151.552 55.4976 151.401 55.4303 151.302 55.3659V57.1914H150.486V51.1447C150.679 51.0979 150.92 51.0467 151.21 50.9911C151.499 50.9354 151.834 50.9077 152.215 50.9077C152.566 50.9077 152.882 50.9633 153.163 51.0744C153.443 51.1857 153.683 51.3435 153.882 51.5484C154.081 51.7533 154.235 52.0033 154.343 52.2987C154.451 52.5942 154.505 52.9262 154.505 53.2948ZM155.4 53.2948C155.4 52.8911 155.459 52.5386 155.576 52.2373C155.693 51.936 155.848 51.6858 156.041 51.4869C156.234 51.288 156.457 51.1389 156.708 51.0394C156.96 50.9399 157.217 50.8902 157.48 50.8902C158.095 50.8902 158.566 51.0818 158.893 51.465C159.221 51.8482 159.385 52.4319 159.385 53.2158C159.385 53.251 159.385 53.2963 159.385 53.3519C159.385 53.4075 159.382 53.4587 159.376 53.5055H156.252C156.287 53.9795 156.424 54.3392 156.664 54.585C156.904 54.8307 157.279 54.9536 157.787 54.9536C158.074 54.9536 158.316 54.9287 158.511 54.8789C158.708 54.8293 158.855 54.7809 158.955 54.7341L159.069 55.4187C158.969 55.4713 158.795 55.5268 158.547 55.5854C158.298 55.6439 158.016 55.6732 157.7 55.6732C157.302 55.6732 156.958 55.6132 156.668 55.4932C156.379 55.3733 156.14 55.2081 155.953 54.9973C155.766 54.7866 155.627 54.5366 155.536 54.247C155.446 53.9574 155.4 53.64 155.4 53.2948H155.4ZM158.534 52.8473C158.539 52.4787 158.447 52.1759 158.257 51.9389C158.067 51.7021 157.805 51.5835 157.472 51.5835C157.284 51.5835 157.119 51.6201 156.976 51.6932C156.832 51.7664 156.711 51.8614 156.612 51.9784C156.512 52.0955 156.435 52.23 156.379 52.3821C156.324 52.5342 156.287 52.6892 156.269 52.8473H158.534H158.534ZM162.246 50.9077C162.316 50.9077 162.397 50.9121 162.487 50.9209C162.578 50.9296 162.667 50.9414 162.755 50.9559C162.843 50.9706 162.923 50.9852 162.996 50.9999C163.069 51.0145 163.124 51.0276 163.159 51.0394L163.018 51.7502C162.954 51.7267 162.847 51.699 162.698 51.6668C162.549 51.6347 162.357 51.6185 162.123 51.6185C161.971 51.6185 161.82 51.6347 161.671 51.6668C161.522 51.699 161.424 51.7209 161.377 51.7326V55.5677H160.561V51.1973C160.754 51.127 160.994 51.0612 161.281 50.9998C161.567 50.9383 161.889 50.9076 162.246 50.9076L162.246 50.9077ZM164.765 55.5677H163.949V51.0042H164.765V55.5677ZM164.352 50.1792C164.206 50.1792 164.082 50.1309 163.979 50.0343C163.877 49.9377 163.826 49.8078 163.826 49.6439C163.826 49.48 163.877 49.3499 163.979 49.2533C164.082 49.1568 164.206 49.1084 164.352 49.1084C164.498 49.1084 164.623 49.1568 164.725 49.2533C164.828 49.3499 164.879 49.48 164.879 49.6439C164.879 49.8078 164.828 49.9377 164.725 50.0343C164.623 50.1309 164.498 50.1792 164.352 50.1792ZM166.169 51.1358C166.356 51.089 166.603 51.0392 166.91 50.9866C167.218 50.9339 167.573 50.9076 167.977 50.9076C168.269 50.9076 168.515 50.9471 168.714 51.0261C168.913 51.1051 169.08 51.2206 169.214 51.3727C169.255 51.3434 169.32 51.3025 169.407 51.2498C169.495 51.1972 169.603 51.146 169.732 51.0962C169.861 51.0465 170.004 51.0025 170.162 50.9645C170.32 50.9264 170.49 50.9075 170.671 50.9075C171.022 50.9075 171.309 50.9587 171.531 51.061C171.753 51.1635 171.928 51.3082 172.053 51.4955C172.179 51.6828 172.264 51.905 172.308 52.1624C172.352 52.4198 172.374 52.7007 172.374 53.0049V55.5675H171.557V53.1804C171.557 52.9113 171.544 52.6801 171.518 52.4871C171.492 52.2939 171.442 52.1331 171.369 52.0043C171.296 51.8757 171.196 51.7806 171.07 51.7193C170.945 51.6578 170.782 51.6271 170.583 51.6271C170.308 51.6271 170.082 51.6637 169.903 51.7368C169.725 51.8099 169.603 51.8758 169.539 51.9343C169.586 52.0865 169.621 52.2532 169.644 52.4346C169.668 52.616 169.68 52.8061 169.68 53.005V55.5676H168.863V53.1805C168.863 52.9114 168.849 52.6802 168.819 52.4872C168.79 52.2941 168.739 52.1333 168.666 52.0045C168.593 51.8758 168.493 51.7808 168.367 51.7194C168.242 51.6579 168.082 51.6272 167.889 51.6272C167.807 51.6272 167.719 51.6301 167.626 51.636C167.532 51.6418 167.443 51.6491 167.358 51.6579C167.273 51.6666 167.196 51.677 167.126 51.6886C167.056 51.7003 167.009 51.7091 166.985 51.715V55.5676H166.169V51.1357L166.169 51.1358ZM173.47 53.2947C173.47 52.891 173.529 52.5385 173.646 52.2372C173.763 51.9359 173.918 51.6857 174.111 51.4868C174.304 51.2878 174.527 51.1388 174.778 51.0392C175.03 50.9398 175.287 50.8901 175.55 50.8901C176.165 50.8901 176.636 51.0817 176.963 51.4649C177.291 51.8481 177.455 52.4317 177.455 53.2157C177.455 53.2509 177.455 53.2961 177.455 53.3518C177.455 53.4074 177.452 53.4586 177.446 53.5054H174.322C174.357 53.9793 174.494 54.3391 174.734 54.5848C174.974 54.8306 175.349 54.9535 175.857 54.9535C176.144 54.9535 176.386 54.9286 176.581 54.8788C176.778 54.8292 176.925 54.7808 177.025 54.734L177.139 55.4185C177.039 55.4711 176.865 55.5267 176.617 55.5853C176.368 55.6438 176.086 55.6731 175.77 55.6731C175.372 55.6731 175.028 55.6131 174.739 55.4931C174.449 55.3732 174.21 55.208 174.023 54.9972C173.836 54.7865 173.697 54.5365 173.607 54.2469C173.516 53.9573 173.47 53.6399 173.47 53.2947H173.47ZM176.604 52.8472C176.609 52.4785 176.517 52.1758 176.327 51.9388C176.137 51.702 175.875 51.5833 175.542 51.5833C175.354 51.5833 175.189 51.62 175.046 51.6931C174.903 51.7663 174.781 51.8613 174.682 51.9783C174.582 52.0953 174.505 52.2298 174.449 52.382C174.394 52.5341 174.357 52.6891 174.34 52.8472H176.604H176.604ZM178.631 51.1358C178.818 51.089 179.067 51.0392 179.377 50.9866C179.687 50.9339 180.044 50.9076 180.448 50.9076C180.81 50.9076 181.112 50.9588 181.352 51.0612C181.591 51.1637 181.783 51.3069 181.926 51.4913C182.07 51.6755 182.171 51.8964 182.229 52.1538C182.288 52.4111 182.317 52.695 182.317 53.005V55.5676H181.501V53.1805C181.501 52.8997 181.482 52.6597 181.444 52.4609C181.406 52.2619 181.343 52.101 181.255 51.9782C181.167 51.8553 181.05 51.7661 180.904 51.7106C180.758 51.6549 180.576 51.6272 180.36 51.6272C180.272 51.6272 180.181 51.6301 180.088 51.636C179.994 51.6418 179.905 51.6491 179.82 51.6579C179.735 51.6666 179.659 51.677 179.592 51.6886C179.525 51.7003 179.477 51.7091 179.447 51.715V55.5676H178.631V51.1357L178.631 51.1358ZM184.432 51.0042H186.161V51.6886H184.432V53.7949C184.432 54.023 184.45 54.2117 184.485 54.3609C184.52 54.5102 184.572 54.6271 184.643 54.712C184.713 54.7968 184.801 54.8568 184.906 54.8919C185.011 54.927 185.134 54.9446 185.274 54.9446C185.52 54.9446 185.718 54.9167 185.867 54.8612C186.016 54.8056 186.12 54.7661 186.178 54.7427L186.336 55.4184C186.254 55.4593 186.111 55.5105 185.906 55.572C185.702 55.6335 185.468 55.6642 185.204 55.6642C184.894 55.6642 184.638 55.6247 184.436 55.5457C184.235 55.4666 184.072 55.3482 183.949 55.1902C183.826 55.0323 183.74 54.8378 183.691 54.6066C183.641 54.3756 183.616 54.1078 183.616 53.8036V49.7315L184.432 49.591V51.004L184.432 51.0042ZM191.102 53.2859C191.102 53.6486 191.049 53.9763 190.944 54.2688C190.838 54.5614 190.691 54.8131 190.501 55.0236C190.31 55.2343 190.084 55.3965 189.82 55.5106C189.557 55.6248 189.271 55.6818 188.96 55.6818C188.65 55.6818 188.364 55.6248 188.1 55.5106C187.837 55.3965 187.61 55.2343 187.42 55.0236C187.23 54.8129 187.082 54.5614 186.977 54.2688C186.872 53.9764 186.819 53.6486 186.819 53.2859C186.819 52.929 186.872 52.603 186.977 52.3073C187.082 52.0119 187.23 51.7588 187.42 51.5483C187.61 51.3376 187.837 51.1753 188.1 51.0612C188.364 50.9471 188.65 50.8901 188.96 50.8901C189.271 50.8901 189.557 50.9471 189.82 51.0612C190.084 51.1753 190.311 51.3376 190.501 51.5483C190.691 51.7589 190.838 52.0119 190.944 52.3073C191.049 52.6028 191.102 52.929 191.102 53.2859ZM190.251 53.2859C190.251 52.7711 190.135 52.363 189.904 52.0617C189.673 51.7604 189.358 51.6098 188.96 51.6098C188.563 51.6098 188.248 51.7604 188.017 52.0617C187.786 52.363 187.67 52.7711 187.67 53.2859C187.67 53.8008 187.786 54.2089 188.017 54.5102C188.248 54.8114 188.563 54.9621 188.96 54.9621C189.358 54.9621 189.673 54.8114 189.904 54.5102C190.135 54.2089 190.251 53.8008 190.251 53.2859ZM194.024 53.2947C194.024 52.891 194.083 52.5385 194.2 52.2372C194.317 51.9359 194.472 51.6857 194.665 51.4868C194.858 51.2878 195.08 51.1388 195.332 51.0392C195.583 50.9398 195.841 50.8901 196.104 50.8901C196.718 50.8901 197.189 51.0817 197.517 51.4649C197.845 51.8481 198.009 52.4317 198.009 53.2157C198.009 53.2509 198.009 53.2961 198.009 53.3518C198.009 53.4074 198.006 53.4586 198 53.5054H194.876C194.911 53.9793 195.048 54.3391 195.288 54.5848C195.528 54.8306 195.902 54.9535 196.411 54.9535C196.698 54.9535 196.939 54.9286 197.135 54.8788C197.331 54.8292 197.479 54.7808 197.578 54.734L197.693 55.4185C197.593 55.4711 197.419 55.5267 197.17 55.5853C196.922 55.6438 196.639 55.6731 196.323 55.6731C195.926 55.6731 195.582 55.6131 195.292 55.4931C195.003 55.3732 194.764 55.208 194.577 54.9972C194.39 54.7865 194.251 54.5365 194.16 54.2469C194.069 53.9573 194.024 53.6399 194.024 53.2947H194.024ZM197.157 52.8472C197.163 52.4785 197.071 52.1758 196.881 51.9388C196.691 51.702 196.429 51.5833 196.095 51.5833C195.908 51.5833 195.743 51.62 195.6 51.6931C195.456 51.7663 195.335 51.8613 195.235 51.9783C195.136 52.0953 195.058 52.2298 195.003 52.382C194.947 52.5341 194.911 52.6891 194.893 52.8472H197.157H197.157ZM205.328 55.5677C205.228 55.3044 205.135 55.0455 205.047 54.791C204.959 54.5366 204.869 54.2777 204.775 54.0144H202.019L201.466 55.5677H200.58C200.814 54.9241 201.034 54.3289 201.238 53.7818C201.443 53.2348 201.643 52.7154 201.839 52.2241C202.035 51.7326 202.23 51.2631 202.423 50.8155C202.616 50.368 202.818 49.9247 203.029 49.4859H203.81C204.02 49.9247 204.222 50.368 204.415 50.8155C204.608 51.2631 204.803 51.7326 204.999 52.2241C205.195 52.7155 205.395 53.2349 205.6 53.7818C205.805 54.3289 206.024 54.9241 206.258 55.5677H205.328H205.328ZM204.529 53.3122C204.342 52.8032 204.156 52.3103 203.972 51.8335C203.788 51.3567 203.596 50.8988 203.397 50.4601C203.192 50.8988 202.998 51.3567 202.813 51.8335C202.629 52.3103 202.446 52.8032 202.265 53.3122H204.529H204.529Z" fill="#06BC67"/>
<path d="M207.031 51.1363C207.218 51.0895 207.466 51.0397 207.776 50.9871C208.087 50.9344 208.443 50.9081 208.847 50.9081C209.21 50.9081 209.511 50.9593 209.751 51.0616C209.991 51.1641 210.183 51.3074 210.326 51.4918C210.469 51.676 210.57 51.8969 210.629 52.1542C210.687 52.4116 210.716 52.6955 210.716 53.0055V55.5681H209.9V53.181C209.9 52.9001 209.881 52.6602 209.843 52.4614C209.805 52.2624 209.742 52.1015 209.655 51.9786C209.567 51.8558 209.45 51.7665 209.304 51.7111C209.157 51.6554 208.976 51.6277 208.759 51.6277C208.672 51.6277 208.581 51.6306 208.487 51.6364C208.394 51.6422 208.304 51.6496 208.22 51.6584C208.135 51.6671 208.059 51.6774 207.992 51.689C207.924 51.7008 207.876 51.7095 207.847 51.7155V55.5681H207.031V51.1362L207.031 51.1363ZM213.613 54.9801C213.806 54.9801 213.977 54.9757 214.126 54.967C214.275 54.9582 214.399 54.9421 214.499 54.9187V53.5585C214.44 53.5292 214.345 53.5043 214.214 53.4838C214.082 53.4633 213.923 53.4531 213.735 53.4531C213.613 53.4531 213.482 53.4619 213.345 53.4794C213.207 53.497 213.082 53.5336 212.968 53.5892C212.853 53.6447 212.758 53.7208 212.682 53.8173C212.606 53.9138 212.568 54.041 212.568 54.199C212.568 54.4915 212.662 54.6949 212.849 54.809C213.036 54.9231 213.291 54.9801 213.613 54.9801ZM213.542 50.8905C213.87 50.8905 214.146 50.9329 214.372 51.0178C214.597 51.1026 214.778 51.2227 214.916 51.3775C215.053 51.5326 215.151 51.7169 215.21 51.9305C215.268 52.1442 215.298 52.3795 215.298 52.637V55.489C215.227 55.5008 215.129 55.5169 215.004 55.5374C214.878 55.5579 214.736 55.5768 214.578 55.5944C214.42 55.6119 214.249 55.628 214.065 55.6427C213.88 55.6573 213.697 55.6646 213.516 55.6646C213.259 55.6646 213.022 55.6383 212.805 55.5856C212.589 55.533 212.401 55.4496 212.243 55.3356C212.085 55.2215 211.963 55.0709 211.875 54.8836C211.787 54.6963 211.743 54.4711 211.743 54.2079C211.743 53.9564 211.794 53.7399 211.897 53.5585C211.999 53.3769 212.138 53.2308 212.314 53.1196C212.489 53.0084 212.694 52.9264 212.928 52.8739C213.162 52.8212 213.408 52.7949 213.665 52.7949C213.747 52.7949 213.832 52.7993 213.92 52.8081C214.008 52.8168 214.091 52.8286 214.17 52.8433C214.249 52.8578 214.317 52.871 214.376 52.8827C214.435 52.8944 214.476 52.9032 214.499 52.909V52.6809C214.499 52.5463 214.484 52.4133 214.455 52.2816C214.426 52.15 214.373 52.033 214.297 51.9306C214.221 51.8281 214.117 51.7463 213.985 51.6849C213.854 51.6235 213.683 51.5927 213.472 51.5927C213.203 51.5927 212.968 51.6118 212.766 51.6498C212.564 51.6879 212.413 51.7273 212.314 51.7683L212.217 51.0927C212.322 51.0459 212.498 51.0005 212.744 50.9565C212.989 50.9127 213.256 50.8908 213.542 50.8908V50.8905ZM214.736 49.2757L213.498 50.4781L213.086 50.1094L214.209 48.7579L214.736 49.2757ZM218.018 55.6559C217.515 55.6441 217.158 55.5358 216.947 55.3312C216.737 55.1263 216.631 54.8075 216.631 54.3745V48.8983L217.448 48.7579V54.2429C217.448 54.3775 217.459 54.4886 217.483 54.5763C217.506 54.6641 217.544 54.7344 217.597 54.787C217.649 54.8397 217.72 54.8792 217.807 54.9056C217.895 54.9319 218.003 54.9538 218.132 54.9714L218.018 55.6559ZM219.861 55.5681H219.045V51.0045H219.861V55.5681ZM219.449 50.1796C219.302 50.1796 219.178 50.1312 219.076 50.0347C218.973 49.9381 218.922 49.8081 218.922 49.6442C218.922 49.4804 218.973 49.3503 219.076 49.2537C219.178 49.1571 219.302 49.1088 219.449 49.1088C219.595 49.1088 219.719 49.1571 219.821 49.2537C219.924 49.3503 219.975 49.4804 219.975 49.6442C219.975 49.8081 219.924 49.9381 219.821 50.0347C219.719 50.1312 219.595 50.1796 219.449 50.1796ZM222.327 54.98C222.661 54.98 222.908 54.9362 223.069 54.8484C223.23 54.7606 223.31 54.6203 223.31 54.4271C223.31 54.2282 223.231 54.0702 223.073 53.9532C222.915 53.8362 222.655 53.7046 222.292 53.5584C222.116 53.4881 221.948 53.4164 221.787 53.3432C221.626 53.2701 221.488 53.1838 221.371 53.0844C221.253 52.9849 221.16 52.8651 221.09 52.7245C221.019 52.5841 220.984 52.4116 220.984 52.2067C220.984 51.8031 221.134 51.4827 221.432 51.2458C221.73 51.0089 222.137 50.8904 222.652 50.8904C222.781 50.8904 222.909 50.8976 223.038 50.9123C223.167 50.9269 223.287 50.9446 223.398 50.9649C223.509 50.9854 223.607 51.0074 223.692 51.0308C223.776 51.0543 223.842 51.0747 223.889 51.0923L223.74 51.7943C223.652 51.7475 223.515 51.6992 223.328 51.6495C223.14 51.5997 222.915 51.5748 222.652 51.5748C222.424 51.5748 222.225 51.6202 222.055 51.711C221.885 51.8016 221.801 51.9434 221.801 52.1366C221.801 52.236 221.82 52.3238 221.858 52.3998C221.896 52.4758 221.954 52.5447 222.033 52.606C222.112 52.6675 222.21 52.7245 222.327 52.7773C222.444 52.8299 222.584 52.8856 222.748 52.9441C222.965 53.026 223.158 53.1064 223.328 53.1853C223.497 53.2644 223.642 53.3566 223.762 53.4618C223.882 53.5671 223.974 53.6943 224.038 53.8434C224.103 53.9927 224.135 54.1755 224.135 54.3921C224.135 54.8133 223.978 55.132 223.665 55.3486C223.353 55.5651 222.906 55.6733 222.327 55.6733C221.923 55.6733 221.608 55.6396 221.379 55.5723C221.151 55.505 220.996 55.4538 220.914 55.4188L221.063 54.7167C221.157 54.7518 221.306 54.8045 221.511 54.8747C221.716 54.9449 221.988 54.98 222.327 54.98ZM224.925 53.2951C224.925 52.8914 224.983 52.5389 225.1 52.2375C225.217 51.9362 225.372 51.6861 225.566 51.4871C225.759 51.2882 225.981 51.1391 226.232 51.0396C226.484 50.9402 226.741 50.8904 227.005 50.8904C227.619 50.8904 228.09 51.082 228.418 51.4652C228.745 51.8484 228.909 52.4321 228.909 53.216C228.909 53.2512 228.909 53.2965 228.909 53.3522C228.909 53.4078 228.906 53.4589 228.9 53.5057H225.776C225.811 53.9797 225.949 54.3394 226.189 54.5852C226.428 54.8309 226.803 54.9538 227.312 54.9538C227.599 54.9538 227.84 54.9289 228.036 54.8792C228.232 54.8295 228.38 54.7812 228.479 54.7344L228.593 55.4189C228.494 55.4715 228.32 55.5271 228.071 55.5856C227.822 55.6441 227.54 55.6734 227.224 55.6734C226.826 55.6734 226.482 55.6135 226.193 55.4934C225.903 55.3735 225.665 55.2083 225.478 54.9975C225.29 54.7869 225.151 54.5369 225.061 54.2473C224.97 53.9577 224.925 53.6402 224.925 53.2951H224.925ZM228.058 52.8475C228.064 52.4789 227.972 52.1762 227.781 51.9392C227.591 51.7023 227.33 51.5837 226.996 51.5837C226.809 51.5837 226.644 51.6203 226.5 51.6934C226.357 51.7667 226.236 51.8617 226.136 51.9786C226.036 52.0957 225.959 52.2302 225.904 52.3823C225.848 52.5345 225.811 52.6895 225.794 52.8475H228.058H228.058ZM235.061 51.9699C234.962 51.888 234.819 51.809 234.631 51.733C234.444 51.6569 234.239 51.6189 234.017 51.6189C233.783 51.6189 233.582 51.6613 233.416 51.7462C233.249 51.831 233.113 51.9481 233.008 52.0971C232.902 52.2464 232.826 52.4233 232.779 52.6282C232.733 52.833 232.709 53.0523 232.709 53.2863C232.709 53.8187 232.841 54.2297 233.104 54.5193C233.367 54.8089 233.718 54.9537 234.157 54.9537C234.38 54.9537 234.565 54.9435 234.715 54.923C234.864 54.9025 234.979 54.8806 235.061 54.8571V51.9699ZM235.061 48.8982L235.877 48.7578V55.4364C235.69 55.489 235.45 55.5418 235.158 55.5944C234.865 55.6471 234.529 55.6734 234.149 55.6734C233.798 55.6734 233.482 55.6178 233.201 55.5066C232.92 55.3954 232.68 55.2375 232.481 55.0327C232.282 54.8279 232.129 54.5778 232.02 54.2824C231.912 53.9869 231.858 53.6548 231.858 53.2863C231.858 52.9353 231.903 52.6135 231.994 52.321C232.085 52.0284 232.218 51.7767 232.393 51.5662C232.569 51.3555 232.784 51.1917 233.038 51.0747C233.293 50.9577 233.584 50.8992 233.912 50.8992C234.175 50.8992 234.407 50.9343 234.609 51.0045C234.811 51.0747 234.962 51.142 235.061 51.2064V48.8982ZM237.027 53.2951C237.027 52.8914 237.086 52.5389 237.203 52.2375C237.32 51.9362 237.475 51.6861 237.668 51.4871C237.861 51.2882 238.083 51.1391 238.335 51.0396C238.586 50.9402 238.844 50.8904 239.107 50.8904C239.721 50.8904 240.192 51.082 240.52 51.4652C240.848 51.8484 241.012 52.4321 241.012 53.216C241.012 53.2512 241.012 53.2965 241.012 53.3522C241.012 53.4078 241.009 53.4589 241.003 53.5057H237.878C237.914 53.9797 238.051 54.3394 238.291 54.5852C238.531 54.8309 238.905 54.9538 239.414 54.9538C239.701 54.9538 239.942 54.9289 240.138 54.8792C240.334 54.8295 240.482 54.7812 240.581 54.7344L240.696 55.4189C240.596 55.4715 240.422 55.5271 240.173 55.5856C239.925 55.6441 239.642 55.6734 239.327 55.6734C238.929 55.6734 238.585 55.6135 238.295 55.4934C238.006 55.3735 237.767 55.2083 237.58 54.9975C237.393 54.7869 237.254 54.5369 237.163 54.2473C237.072 53.9577 237.027 53.6402 237.027 53.2951H237.027ZM240.16 52.8475C240.166 52.4789 240.074 52.1762 239.884 51.9392C239.694 51.7023 239.432 51.5837 239.098 51.5837C238.911 51.5837 238.746 51.6203 238.603 51.6934C238.459 51.7667 238.338 51.8617 238.238 51.9786C238.139 52.0957 238.061 52.2302 238.006 52.3823C237.95 52.5345 237.914 52.6895 237.896 52.8475H240.16H240.16ZM245.68 54.9625C246.57 54.9625 247.014 54.6583 247.014 54.0497C247.014 53.8625 246.975 53.7031 246.896 53.5715C246.817 53.4397 246.71 53.3258 246.576 53.2292C246.441 53.1326 246.287 53.0493 246.115 52.9792C245.942 52.9089 245.76 52.8388 245.566 52.7685C245.344 52.6924 245.133 52.606 244.934 52.5096C244.736 52.413 244.563 52.2989 244.417 52.1674C244.27 52.0357 244.155 51.8793 244.07 51.6979C243.985 51.5164 243.943 51.2971 243.943 51.0397C243.943 50.5073 244.124 50.0919 244.487 49.7935C244.85 49.4952 245.35 49.346 245.988 49.346C246.356 49.346 246.691 49.3855 246.993 49.4645C247.294 49.5435 247.515 49.6298 247.655 49.7233L247.383 50.4166C247.26 50.3405 247.077 50.2658 246.834 50.1929C246.592 50.1198 246.309 50.0831 245.988 50.0831C245.824 50.0831 245.672 50.1007 245.531 50.1357C245.391 50.1709 245.268 50.2235 245.163 50.2938C245.057 50.3641 244.974 50.4533 244.913 50.5615C244.851 50.6697 244.82 50.7968 244.82 50.9431C244.82 51.107 244.853 51.2445 244.917 51.3556C244.981 51.4669 245.072 51.5649 245.189 51.6496C245.306 51.7344 245.442 51.812 245.597 51.8821C245.752 51.9523 245.923 52.0226 246.11 52.0927C246.374 52.1981 246.615 52.3034 246.834 52.4086C247.054 52.514 247.244 52.6397 247.405 52.786C247.566 52.9324 247.69 53.1063 247.778 53.3082C247.866 53.5101 247.91 53.7543 247.91 54.041C247.91 54.5735 247.715 54.983 247.326 55.2696C246.937 55.5562 246.388 55.6996 245.68 55.6996C245.441 55.6996 245.22 55.6835 245.018 55.6514C244.816 55.6191 244.636 55.5811 244.478 55.5373C244.32 55.4933 244.184 55.4465 244.07 55.3967C243.956 55.3471 243.867 55.3046 243.803 55.2695L244.057 54.5674C244.192 54.6435 244.396 54.7285 244.671 54.8219C244.946 54.9155 245.283 54.9623 245.681 54.9623L245.68 54.9625ZM252.912 53.2863C252.912 53.649 252.859 53.9766 252.754 54.2692C252.648 54.5617 252.501 54.8134 252.311 55.024C252.12 55.2346 251.894 55.3969 251.63 55.511C251.367 55.6252 251.081 55.6822 250.77 55.6822C250.46 55.6822 250.174 55.6252 249.91 55.511C249.647 55.3969 249.42 55.2346 249.23 55.024C249.04 54.8133 248.893 54.5617 248.787 54.2692C248.682 53.9767 248.629 53.649 248.629 53.2863C248.629 52.9294 248.682 52.6033 248.787 52.3077C248.893 52.0123 249.04 51.7592 249.23 51.5486C249.421 51.338 249.647 51.1756 249.91 51.0615C250.174 50.9474 250.46 50.8904 250.77 50.8904C251.081 50.8904 251.367 50.9474 251.63 51.0615C251.894 51.1756 252.121 51.338 252.311 51.5486C252.501 51.7593 252.648 52.0123 252.754 52.3077C252.859 52.6032 252.912 52.9294 252.912 53.2863ZM252.061 53.2863C252.061 52.7715 251.945 52.3634 251.714 52.0621C251.483 51.7607 251.168 51.6101 250.77 51.6101C250.373 51.6101 250.058 51.7607 249.827 52.0621C249.596 52.3634 249.48 52.7715 249.48 53.2863C249.48 53.8011 249.596 54.2092 249.827 54.5105C250.058 54.8117 250.373 54.9625 250.77 54.9625C251.168 54.9625 251.483 54.8117 251.714 54.5105C251.945 54.2092 252.061 53.8011 252.061 53.2863ZM255.431 55.6559C254.927 55.6441 254.57 55.5358 254.36 55.3312C254.149 55.1263 254.044 54.8075 254.044 54.3745V48.8983L254.86 48.7579V54.2429C254.86 54.3775 254.872 54.4886 254.895 54.5763C254.919 54.6641 254.957 54.7344 255.009 54.787C255.062 54.8397 255.132 54.8792 255.22 54.9056C255.308 54.9319 255.416 54.9538 255.545 54.9714L255.431 55.6559ZM260.486 53.2863C260.486 53.649 260.433 53.9766 260.327 54.2692C260.222 54.5617 260.075 54.8134 259.884 55.024C259.694 55.2346 259.467 55.3969 259.204 55.511C258.941 55.6252 258.654 55.6822 258.344 55.6822C258.034 55.6822 257.747 55.6252 257.484 55.511C257.221 55.3969 256.994 55.2346 256.804 55.024C256.614 54.8133 256.466 54.5617 256.361 54.2692C256.255 53.9767 256.203 53.649 256.203 53.2863C256.203 52.9294 256.255 52.6033 256.361 52.3077C256.466 52.0123 256.614 51.7592 256.804 51.5486C256.994 51.338 257.221 51.1756 257.484 51.0615C257.747 50.9474 258.034 50.8904 258.344 50.8904C258.654 50.8904 258.941 50.9474 259.204 51.0615C259.467 51.1756 259.694 51.338 259.884 51.5486C260.075 51.7593 260.222 52.0123 260.327 52.3077C260.433 52.6032 260.486 52.9294 260.486 53.2863ZM259.634 53.2863C259.634 52.7715 259.519 52.3634 259.288 52.0621C259.056 51.7607 258.742 51.6101 258.344 51.6101C257.946 51.6101 257.632 51.7607 257.401 52.0621C257.17 52.3634 257.054 52.7715 257.054 53.2863C257.054 53.8011 257.17 54.2092 257.401 54.5105C257.632 54.8117 257.946 54.9625 258.344 54.9625C258.742 54.9625 259.056 54.8117 259.288 54.5105C259.519 54.2092 259.634 53.8011 259.634 53.2863Z" fill="#06BC67"/>
</svg>
