<svg width="64" height="64" viewBox="0 0 64 64" fill="none" xmlns="http://www.w3.org/2000/svg">
<path fill-rule="evenodd" clip-rule="evenodd" d="M32.0003 22.1758C37.4254 22.1758 41.8229 26.5733 41.8229 31.9984C41.8229 37.4235 37.4254 41.8211 32.0003 41.8211C26.5753 41.8211 22.1777 37.4235 22.1777 31.9984C22.1777 26.5733 26.5753 22.1758 32.0003 22.1758Z" fill="#06BC67"/>
<path fill-rule="evenodd" clip-rule="evenodd" d="M31.9996 8.54297C34.919 8.54297 37.2855 10.9095 37.2855 13.8287C37.2855 16.7481 34.919 19.1145 31.9996 19.1145C29.0804 19.1145 26.7139 16.7481 26.7139 13.8287C26.7139 10.9095 29.0804 8.54297 31.9996 8.54297Z" fill="#06BC67"/>
<path fill-rule="evenodd" clip-rule="evenodd" d="M32 0C33.513 0 34.7394 1.22626 34.7394 2.73927C34.7394 4.25228 33.513 5.47866 32 5.47866C30.487 5.47866 29.2607 4.25228 29.2607 2.73927C29.2607 1.22626 30.487 0 32 0Z" fill="#06BC67"/>
<path fill-rule="evenodd" clip-rule="evenodd" d="M8.54199 31.9967C8.54199 29.0774 10.9085 26.7109 13.8278 26.7109C16.7471 26.7109 19.1136 29.0774 19.1136 31.9967C19.1136 34.916 16.7471 37.2825 13.8278 37.2825C10.9085 37.2825 8.54199 34.916 8.54199 31.9967Z" fill="#06BC67"/>
<path fill-rule="evenodd" clip-rule="evenodd" d="M0 32.0011C0 30.4881 1.22638 29.2617 2.73927 29.2617C4.25228 29.2617 5.47866 30.4881 5.47866 32.0011C5.47866 33.5141 4.25228 34.7405 2.73927 34.7405C1.22638 34.7405 0 33.5141 0 32.0011Z" fill="#06BC67"/>
<path fill-rule="evenodd" clip-rule="evenodd" d="M55.4578 31.9967C55.4578 29.0774 53.0912 26.7109 50.172 26.7109C47.2527 26.7109 44.8862 29.0774 44.8862 31.9967C44.8862 34.916 47.2527 37.2825 50.172 37.2825C53.0912 37.2825 55.4578 34.916 55.4578 31.9967Z" fill="#06BC67"/>
<path fill-rule="evenodd" clip-rule="evenodd" d="M64.0003 32.0011C64.0003 30.4881 62.7739 29.2617 61.2609 29.2617C59.7479 29.2617 58.5215 30.4881 58.5215 32.0011C58.5215 33.5141 59.7479 34.7405 61.2609 34.7405C62.7739 34.7405 64.0003 33.5141 64.0003 32.0011Z" fill="#06BC67"/>
<path fill-rule="evenodd" clip-rule="evenodd" d="M31.9996 55.4582C29.0804 55.4582 26.7139 53.0917 26.7139 50.1725C26.7139 47.2531 29.0804 44.8867 31.9996 44.8867C34.919 44.8867 37.2855 47.2531 37.2855 50.1725C37.2855 53.0917 34.919 55.4582 31.9996 55.4582Z" fill="#06BC67"/>
<path fill-rule="evenodd" clip-rule="evenodd" d="M32 63.9982C30.487 63.9982 29.2607 62.7719 29.2607 61.2589C29.2607 59.7459 30.487 58.5195 32 58.5195C33.513 58.5195 34.7394 59.7459 34.7394 61.2589C34.7394 62.7719 33.513 63.9982 32 63.9982Z" fill="#06BC67"/>
<path fill-rule="evenodd" clip-rule="evenodd" d="M15.4135 15.4075C17.4777 13.3433 20.8244 13.3433 22.8887 15.4075C24.953 17.4719 24.953 20.8186 22.8887 22.8828C20.8244 24.9471 17.4777 24.9471 15.4135 22.8828C13.3491 20.8186 13.3491 17.4719 15.4135 15.4075Z" fill="#06BC67"/>
<path fill-rule="evenodd" clip-rule="evenodd" d="M9.37319 9.3688C10.443 8.29894 12.1774 8.29894 13.2471 9.3688C14.317 10.4387 14.317 12.173 13.2471 13.2427C12.1773 14.3126 10.4429 14.3126 9.37319 13.2427C8.30334 12.1729 8.30334 10.4385 9.37319 9.3688Z" fill="#06BC67"/>
<path fill-rule="evenodd" clip-rule="evenodd" d="M15.4135 48.586C13.3491 46.5216 13.3491 43.175 15.4135 41.1108C17.4777 39.0464 20.8244 39.0464 22.8887 41.1108C24.953 43.175 24.953 46.5216 22.8887 48.586C20.8244 50.6502 17.4777 50.6502 15.4135 48.586Z" fill="#06BC67"/>
<path fill-rule="evenodd" clip-rule="evenodd" d="M9.37319 54.6255C8.30334 53.5557 8.30334 51.8213 9.37319 50.7516C10.443 49.6818 12.1774 49.6818 13.2471 50.7516C14.317 51.8215 14.317 53.5558 13.2471 54.6255C12.1773 55.6954 10.4429 55.6954 9.37319 54.6255Z" fill="#06BC67"/>
<path fill-rule="evenodd" clip-rule="evenodd" d="M48.5874 15.4075C46.5231 13.3433 43.1764 13.3433 41.1121 15.4075C39.0479 17.4719 39.0479 20.8186 41.1121 22.8828C43.1764 24.9471 46.5231 24.9471 48.5874 22.8828C50.6516 20.8186 50.6516 17.4719 48.5874 15.4075Z" fill="#06BC67"/>
<path fill-rule="evenodd" clip-rule="evenodd" d="M54.6281 9.3688C53.5583 8.29894 51.8238 8.29894 50.7541 9.3688C49.6842 10.4387 49.6842 12.173 50.7541 13.2427C51.8239 14.3126 53.5584 14.3126 54.6281 13.2427C55.6978 12.1729 55.6978 10.4385 54.6281 9.3688Z" fill="#06BC67"/>
<path fill-rule="evenodd" clip-rule="evenodd" d="M48.5874 48.586C46.5231 50.6502 43.1764 50.6502 41.1121 48.586C39.0479 46.5216 39.0479 43.175 41.1121 41.1108C43.1764 39.0464 46.5231 39.0464 48.5874 41.1108C50.6516 43.175 50.6516 46.5216 48.5874 48.586Z" fill="#06BC67"/>
<path fill-rule="evenodd" clip-rule="evenodd" d="M54.6281 54.6255C53.5583 55.6954 51.8238 55.6954 50.7541 54.6255C49.6842 53.5557 49.6842 51.8213 50.7541 50.7516C51.8239 49.6818 53.5584 49.6818 54.6281 50.7516C55.6978 51.8215 55.6978 53.5558 54.6281 54.6255Z" fill="#06BC67"/>
</svg>
