<svg width="265" height="265" viewBox="0 0 265 265" fill="none" xmlns="http://www.w3.org/2000/svg">
<path fill-rule="evenodd" clip-rule="evenodd" d="M132.365 91.7348C154.805 91.7348 172.995 109.925 172.995 132.365C172.995 154.805 154.805 172.995 132.365 172.995C109.926 172.995 91.7354 154.805 91.7354 132.365C91.7354 109.925 109.926 91.7348 132.365 91.7348Z" fill="#006D39"/>
<path fill-rule="evenodd" clip-rule="evenodd" d="M132.366 35.3333C144.442 35.3333 154.23 45.1217 154.23 57.1974C154.23 69.2735 144.442 79.0615 132.366 79.0615C120.29 79.0615 110.501 69.2735 110.501 57.1974C110.501 45.1217 120.29 35.3333 132.366 35.3333Z" fill="#006D39"/>
<path fill-rule="evenodd" clip-rule="evenodd" d="M132.365 0C138.623 0 143.696 5.07241 143.696 11.3306C143.696 17.5887 138.623 22.6616 132.365 22.6616C126.107 22.6616 121.035 17.5887 121.035 11.3306C121.035 5.07241 126.107 0 132.365 0Z" fill="#006D39"/>
<path fill-rule="evenodd" clip-rule="evenodd" d="M35.3333 132.366C35.3333 120.29 45.1217 110.501 57.1974 110.501C69.2735 110.501 79.062 120.29 79.062 132.366C79.062 144.441 69.2735 154.23 57.1974 154.23C45.1217 154.23 35.3333 144.441 35.3333 132.366Z" fill="#006D39"/>
<path fill-rule="evenodd" clip-rule="evenodd" d="M0 132.365C0 126.107 5.07289 121.034 11.3306 121.034C17.5887 121.034 22.6616 126.107 22.6616 132.365C22.6616 138.624 17.5887 143.697 11.3306 143.697C5.07289 143.697 0 138.624 0 132.365Z" fill="#006D39"/>
<path fill-rule="evenodd" clip-rule="evenodd" d="M229.397 132.366C229.397 120.29 219.609 110.501 207.533 110.501C195.457 110.501 185.669 120.29 185.669 132.366C185.669 144.441 195.457 154.23 207.533 154.23C219.609 154.23 229.397 144.441 229.397 132.366Z" fill="#006D39"/>
<path fill-rule="evenodd" clip-rule="evenodd" d="M264.731 132.365C264.731 126.107 259.658 121.034 253.4 121.034C247.142 121.034 242.069 126.107 242.069 132.365C242.069 138.624 247.142 143.697 253.4 143.697C259.658 143.697 264.731 138.624 264.731 132.365Z" fill="#006D39"/>
<path fill-rule="evenodd" clip-rule="evenodd" d="M132.366 229.397C120.29 229.397 110.501 219.609 110.501 207.533C110.501 195.457 120.29 185.669 132.366 185.669C144.442 185.669 154.23 195.457 154.23 207.533C154.23 219.609 144.442 229.397 132.366 229.397Z" fill="#006D39"/>
<path fill-rule="evenodd" clip-rule="evenodd" d="M132.365 264.73C126.107 264.73 121.035 259.658 121.035 253.4C121.035 247.142 126.107 242.069 132.365 242.069C138.623 242.069 143.696 247.142 143.696 253.4C143.696 259.658 138.623 264.73 132.365 264.73Z" fill="#006D39"/>
<path fill-rule="evenodd" clip-rule="evenodd" d="M63.7539 63.7531C72.2924 55.2146 86.1356 55.2146 94.6746 63.7531C103.213 72.2921 103.213 86.1354 94.6746 94.6738C86.1356 103.213 72.2924 103.213 63.7539 94.6738C55.2149 86.1354 55.2149 72.2921 63.7539 63.7531Z" fill="#006D39"/>
<path fill-rule="evenodd" clip-rule="evenodd" d="M38.7689 38.7689C43.1943 34.3436 50.3681 34.3436 54.793 38.7689C59.2183 43.1943 59.2183 50.3681 54.793 54.793C50.3676 59.2184 43.1938 59.2184 38.7689 54.793C34.3435 50.3677 34.3435 43.1938 38.7689 38.7689Z" fill="#006D39"/>
<path fill-rule="evenodd" clip-rule="evenodd" d="M63.7539 200.977C55.2149 192.438 55.2149 178.595 63.7539 170.057C72.2924 161.518 86.1356 161.518 94.6746 170.057C103.213 178.595 103.213 192.438 94.6746 200.977C86.1356 209.516 72.2924 209.516 63.7539 200.977Z" fill="#006D39"/>
<path fill-rule="evenodd" clip-rule="evenodd" d="M38.769 225.961C34.3436 221.536 34.3436 214.362 38.769 209.937C43.1943 205.512 50.3682 205.512 54.793 209.937C59.2184 214.363 59.2184 221.536 54.793 225.961C50.3677 230.387 43.1939 230.387 38.769 225.961Z" fill="#006D39"/>
<path fill-rule="evenodd" clip-rule="evenodd" d="M200.977 63.7531C192.439 55.2146 178.595 55.2146 170.057 63.7531C161.518 72.2921 161.518 86.1354 170.057 94.6738C178.595 103.213 192.439 103.213 200.977 94.6738C209.516 86.1354 209.516 72.2921 200.977 63.7531Z" fill="#006D39"/>
<path fill-rule="evenodd" clip-rule="evenodd" d="M225.962 38.7689C221.537 34.3435 214.362 34.3435 209.937 38.7689C205.512 43.1943 205.512 50.3681 209.937 54.793C214.363 59.2184 221.537 59.2184 225.962 54.793C230.387 50.3676 230.387 43.1938 225.962 38.7689Z" fill="#006D39"/>
<path fill-rule="evenodd" clip-rule="evenodd" d="M200.977 200.977C192.439 209.516 178.595 209.516 170.057 200.977C161.518 192.438 161.518 178.595 170.057 170.057C178.595 161.518 192.439 161.518 200.977 170.057C209.516 178.595 209.516 192.438 200.977 200.977Z" fill="#006D39"/>
<path fill-rule="evenodd" clip-rule="evenodd" d="M225.962 225.961C221.537 230.387 214.362 230.387 209.937 225.961C205.512 221.536 205.512 214.362 209.937 209.937C214.363 205.512 221.537 205.512 225.962 209.937C230.387 214.363 230.387 221.536 225.962 225.961Z" fill="#006D39"/>
</svg>
