<svg width="777" height="1921" viewBox="0 0 777 1921" fill="none" xmlns="http://www.w3.org/2000/svg">
<path fill-rule="evenodd" clip-rule="evenodd" d="M776.989 1920.49C776.989 1705.93 603.054 1532 388.494 1532C173.935 1532 0 1705.93 0 1920.49H776.989Z" fill="white"/>
<path d="M269.68 1592.98C269.308 1592.68 268.772 1592.38 268.071 1592.1C267.37 1591.82 266.604 1591.67 265.772 1591.67C264.897 1591.67 264.141 1591.84 263.506 1592.17C262.893 1592.47 262.39 1592.91 261.996 1593.48C261.602 1594.02 261.317 1594.68 261.142 1595.44C260.967 1596.2 260.879 1597.02 260.879 1597.9C260.879 1599.88 261.372 1601.42 262.357 1602.51C263.342 1603.58 264.656 1604.12 266.298 1604.12C267.13 1604.12 267.819 1604.09 268.367 1604.02C268.936 1603.93 269.374 1603.85 269.68 1603.76V1592.98ZM269.68 1581.52L272.734 1581V1605.92C272.034 1606.12 271.136 1606.31 270.041 1606.51C268.947 1606.7 267.688 1606.8 266.265 1606.8C264.951 1606.8 263.769 1606.6 262.718 1606.18C261.667 1605.77 260.77 1605.18 260.026 1604.41C259.281 1603.65 258.701 1602.72 258.285 1601.63C257.891 1600.52 257.694 1599.27 257.694 1597.9C257.694 1596.59 257.858 1595.39 258.187 1594.29C258.537 1593.2 259.04 1592.26 259.697 1591.48C260.354 1590.69 261.153 1590.08 262.094 1589.64C263.058 1589.21 264.152 1588.99 265.378 1588.99C266.363 1588.99 267.228 1589.12 267.973 1589.38C268.739 1589.64 269.308 1589.9 269.68 1590.14V1581.52Z" fill="#006D39"/>
<path d="M277.032 1597.93C277.032 1596.42 277.251 1595.11 277.688 1594C278.126 1592.86 278.706 1591.93 279.429 1591.18C280.151 1590.44 280.983 1589.88 281.925 1589.51C282.866 1589.14 283.829 1588.96 284.814 1588.96C287.113 1588.96 288.876 1589.68 290.102 1591.12C291.328 1592.54 291.941 1594.71 291.941 1597.63C291.941 1597.77 291.941 1597.94 291.941 1598.16C291.941 1598.35 291.93 1598.54 291.908 1598.72H280.217C280.348 1600.48 280.863 1601.83 281.76 1602.74C282.658 1603.66 284.059 1604.12 285.964 1604.12C287.037 1604.12 287.934 1604.03 288.657 1603.86C289.401 1603.66 289.959 1603.47 290.331 1603.3L290.758 1605.85C290.386 1606.05 289.729 1606.26 288.788 1606.48C287.868 1606.69 286.818 1606.8 285.635 1606.8C284.147 1606.8 282.855 1606.58 281.76 1606.15C280.688 1605.69 279.801 1605.07 279.101 1604.28C278.4 1603.5 277.875 1602.57 277.524 1601.5C277.196 1600.41 277.032 1599.22 277.032 1597.93ZM288.755 1596.26C288.777 1594.88 288.427 1593.76 287.704 1592.89C287.004 1591.99 286.03 1591.54 284.782 1591.54C284.081 1591.54 283.457 1591.69 282.91 1591.97C282.384 1592.23 281.936 1592.58 281.563 1593.02C281.191 1593.45 280.896 1593.96 280.677 1594.52C280.48 1595.09 280.348 1595.67 280.283 1596.26H288.755Z" fill="#006D39"/>
<path d="M300.301 1604.22C301.549 1604.22 302.468 1604.05 303.06 1603.72C303.673 1603.4 303.979 1602.87 303.979 1602.15C303.979 1601.41 303.683 1600.82 303.092 1600.38C302.501 1599.95 301.527 1599.46 300.17 1598.91C299.513 1598.65 298.878 1598.39 298.265 1598.13C297.674 1597.84 297.159 1597.51 296.722 1597.14C296.284 1596.77 295.934 1596.32 295.671 1595.8C295.408 1595.28 295.277 1594.63 295.277 1593.87C295.277 1592.36 295.835 1591.17 296.952 1590.3C298.068 1589.4 299.59 1588.96 301.516 1588.96C301.998 1588.96 302.479 1588.99 302.961 1589.06C303.443 1589.1 303.891 1589.16 304.307 1589.25C304.723 1589.32 305.085 1589.39 305.391 1589.48C305.719 1589.57 305.971 1589.64 306.146 1589.71L305.588 1592.33C305.26 1592.16 304.745 1591.98 304.045 1591.81C303.344 1591.61 302.501 1591.51 301.516 1591.51C300.662 1591.51 299.918 1591.69 299.283 1592.04C298.648 1592.36 298.331 1592.89 298.331 1593.61C298.331 1593.98 298.396 1594.31 298.528 1594.59C298.681 1594.87 298.9 1595.13 299.185 1595.38C299.491 1595.59 299.863 1595.8 300.301 1596C300.739 1596.19 301.264 1596.4 301.877 1596.62C302.687 1596.92 303.41 1597.23 304.045 1597.54C304.68 1597.82 305.216 1598.16 305.654 1598.55C306.114 1598.94 306.464 1599.42 306.705 1599.99C306.945 1600.54 307.066 1601.21 307.066 1602.02C307.066 1603.59 306.475 1604.78 305.293 1605.59C304.132 1606.4 302.468 1606.8 300.301 1606.8C298.79 1606.8 297.608 1606.67 296.754 1606.41C295.901 1606.17 295.321 1605.98 295.014 1605.85L295.572 1603.23C295.923 1603.36 296.481 1603.56 297.247 1603.82C298.013 1604.09 299.031 1604.22 300.301 1604.22Z" fill="#006D39"/>
<path d="M310.031 1597.93C310.031 1596.42 310.25 1595.11 310.688 1594C311.125 1592.86 311.706 1591.93 312.428 1591.18C313.151 1590.44 313.982 1589.88 314.924 1589.51C315.865 1589.14 316.828 1588.96 317.814 1588.96C320.112 1588.96 321.875 1589.68 323.101 1591.12C324.327 1592.54 324.94 1594.71 324.94 1597.63C324.94 1597.77 324.94 1597.94 324.94 1598.16C324.94 1598.35 324.929 1598.54 324.907 1598.72H313.216C313.348 1600.48 313.862 1601.83 314.76 1602.74C315.657 1603.66 317.058 1604.12 318.963 1604.12C320.036 1604.12 320.933 1604.03 321.656 1603.86C322.4 1603.66 322.958 1603.47 323.331 1603.3L323.757 1605.85C323.385 1606.05 322.729 1606.26 321.787 1606.48C320.868 1606.69 319.817 1606.8 318.635 1606.8C317.146 1606.8 315.854 1606.58 314.76 1606.15C313.687 1605.69 312.8 1605.07 312.1 1604.28C311.399 1603.5 310.874 1602.57 310.523 1601.5C310.195 1600.41 310.031 1599.22 310.031 1597.93ZM321.754 1596.26C321.776 1594.88 321.426 1593.76 320.703 1592.89C320.003 1591.99 319.029 1591.54 317.781 1591.54C317.08 1591.54 316.456 1591.69 315.909 1591.97C315.384 1592.23 314.935 1592.58 314.563 1593.02C314.19 1593.45 313.895 1593.96 313.676 1594.52C313.479 1595.09 313.348 1595.67 313.282 1596.26H321.754Z" fill="#006D39"/>
<path d="M329.327 1589.87C330.027 1589.7 330.958 1589.51 332.118 1589.32C333.278 1589.12 334.614 1589.02 336.124 1589.02C337.482 1589.02 338.609 1589.22 339.507 1589.61C340.404 1589.98 341.116 1590.52 341.641 1591.22C342.189 1591.89 342.572 1592.71 342.791 1593.67C343.01 1594.63 343.119 1595.69 343.119 1596.85V1606.41H340.065V1597.5C340.065 1596.46 339.988 1595.56 339.835 1594.82C339.704 1594.08 339.474 1593.48 339.146 1593.02C338.817 1592.56 338.379 1592.23 337.832 1592.04C337.285 1591.82 336.606 1591.71 335.796 1591.71C335.468 1591.71 335.128 1591.72 334.778 1591.74C334.428 1591.76 334.088 1591.79 333.76 1591.84C333.453 1591.86 333.169 1591.89 332.906 1591.94C332.665 1591.98 332.49 1592.01 332.381 1592.04V1606.41H329.327V1589.87Z" fill="#006D39"/>
<path d="M361.003 1589.38C360.149 1592.57 359.142 1595.63 357.982 1598.55C356.843 1601.48 355.738 1604.1 354.665 1606.41H351.907C350.834 1604.1 349.717 1601.48 348.557 1598.55C347.419 1595.63 346.422 1592.57 345.569 1589.38H348.853C349.115 1590.45 349.422 1591.6 349.772 1592.82C350.144 1594.02 350.527 1595.22 350.921 1596.42C351.337 1597.6 351.753 1598.75 352.169 1599.86C352.585 1600.97 352.979 1601.97 353.351 1602.84C353.724 1601.97 354.118 1600.97 354.534 1599.86C354.95 1598.75 355.355 1597.6 355.749 1596.42C356.165 1595.22 356.548 1594.02 356.898 1592.82C357.27 1591.6 357.588 1590.45 357.85 1589.38H361.003Z" fill="#006D39"/>
<path d="M378.778 1597.9C378.778 1599.25 378.581 1600.47 378.187 1601.56C377.793 1602.66 377.234 1603.59 376.512 1604.38C375.811 1605.17 374.969 1605.78 373.983 1606.21C372.998 1606.63 371.926 1606.84 370.765 1606.84C369.605 1606.84 368.532 1606.63 367.547 1606.21C366.562 1605.78 365.708 1605.17 364.986 1604.38C364.285 1603.59 363.738 1602.66 363.344 1601.56C362.95 1600.47 362.753 1599.25 362.753 1597.9C362.753 1596.56 362.95 1595.35 363.344 1594.26C363.738 1593.15 364.285 1592.2 364.986 1591.41C365.708 1590.63 366.562 1590.03 367.547 1589.61C368.532 1589.18 369.605 1588.96 370.765 1588.96C371.926 1588.96 372.998 1589.18 373.983 1589.61C374.969 1590.03 375.811 1590.63 376.512 1591.41C377.234 1592.2 377.793 1593.15 378.187 1594.26C378.581 1595.35 378.778 1596.56 378.778 1597.9ZM375.593 1597.9C375.593 1595.98 375.155 1594.46 374.279 1593.34C373.425 1592.21 372.254 1591.64 370.765 1591.64C369.277 1591.64 368.094 1592.21 367.219 1593.34C366.365 1594.46 365.938 1595.98 365.938 1597.9C365.938 1599.82 366.365 1601.35 367.219 1602.48C368.094 1603.59 369.277 1604.15 370.765 1604.15C372.254 1604.15 373.425 1603.59 374.279 1602.48C375.155 1601.35 375.593 1599.82 375.593 1597.9Z" fill="#006D39"/>
<path d="M388.198 1606.74C386.315 1606.69 384.979 1606.29 384.191 1605.53C383.403 1604.76 383.009 1603.57 383.009 1601.96V1581.52L386.063 1581V1601.47C386.063 1601.97 386.107 1602.38 386.194 1602.71C386.282 1603.04 386.424 1603.3 386.621 1603.5C386.818 1603.69 387.081 1603.85 387.409 1603.95C387.738 1604.04 388.143 1604.12 388.624 1604.18L388.198 1606.74Z" fill="#006D39"/>
<path d="M405.387 1589.38C404.533 1592.57 403.526 1595.63 402.365 1598.55C401.227 1601.48 400.121 1604.1 399.049 1606.41H396.29C395.218 1604.1 394.101 1601.48 392.941 1598.55C391.802 1595.63 390.806 1592.57 389.952 1589.38H393.236C393.499 1590.45 393.805 1591.6 394.156 1592.82C394.528 1594.02 394.911 1595.22 395.305 1596.42C395.721 1597.6 396.137 1598.75 396.553 1599.86C396.969 1600.97 397.363 1601.97 397.735 1602.84C398.107 1601.97 398.501 1600.97 398.917 1599.86C399.333 1598.75 399.738 1597.6 400.132 1596.42C400.548 1595.22 400.931 1594.02 401.282 1592.82C401.654 1591.6 401.971 1590.45 402.234 1589.38H405.387Z" fill="#006D39"/>
<path d="M411.592 1606.41H408.538V1589.38H411.592V1606.41ZM410.048 1586.3C409.501 1586.3 409.03 1586.13 408.636 1585.78C408.264 1585.41 408.078 1584.92 408.078 1584.31C408.078 1583.7 408.264 1583.22 408.636 1582.87C409.03 1582.5 409.501 1582.31 410.048 1582.31C410.595 1582.31 411.055 1582.5 411.427 1582.87C411.821 1583.22 412.018 1583.7 412.018 1584.31C412.018 1584.92 411.821 1585.41 411.427 1585.78C411.055 1586.13 410.595 1586.3 410.048 1586.3Z" fill="#006D39"/>
<path d="M427.877 1592.98C427.505 1592.68 426.969 1592.38 426.268 1592.1C425.568 1591.82 424.801 1591.67 423.97 1591.67C423.094 1591.67 422.339 1591.84 421.704 1592.17C421.091 1592.47 420.587 1592.91 420.193 1593.48C419.799 1594.02 419.514 1594.68 419.339 1595.44C419.164 1596.2 419.077 1597.02 419.077 1597.9C419.077 1599.88 419.569 1601.42 420.554 1602.51C421.539 1603.58 422.853 1604.12 424.495 1604.12C425.327 1604.12 426.016 1604.09 426.564 1604.02C427.133 1603.93 427.571 1603.85 427.877 1603.76V1592.98ZM427.877 1581.52L430.931 1581V1605.92C430.231 1606.12 429.333 1606.31 428.239 1606.51C427.144 1606.7 425.885 1606.8 424.462 1606.8C423.149 1606.8 421.966 1606.6 420.916 1606.18C419.865 1605.77 418.967 1605.18 418.223 1604.41C417.478 1603.65 416.898 1602.72 416.482 1601.63C416.088 1600.52 415.891 1599.27 415.891 1597.9C415.891 1596.59 416.055 1595.39 416.384 1594.29C416.734 1593.2 417.238 1592.26 417.894 1591.48C418.551 1590.69 419.35 1590.08 420.292 1589.64C421.255 1589.21 422.349 1588.99 423.575 1588.99C424.561 1588.99 425.425 1589.12 426.17 1589.38C426.936 1589.64 427.505 1589.9 427.877 1590.14V1581.52Z" fill="#006D39"/>
<path d="M451.254 1597.9C451.254 1599.25 451.057 1600.47 450.663 1601.56C450.269 1602.66 449.711 1603.59 448.988 1604.38C448.288 1605.17 447.445 1605.78 446.46 1606.21C445.475 1606.63 444.402 1606.84 443.242 1606.84C442.081 1606.84 441.009 1606.63 440.023 1606.21C439.038 1605.78 438.184 1605.17 437.462 1604.38C436.761 1603.59 436.214 1602.66 435.82 1601.56C435.426 1600.47 435.229 1599.25 435.229 1597.9C435.229 1596.56 435.426 1595.35 435.82 1594.26C436.214 1593.15 436.761 1592.2 437.462 1591.41C438.184 1590.63 439.038 1590.03 440.023 1589.61C441.009 1589.18 442.081 1588.96 443.242 1588.96C444.402 1588.96 445.475 1589.18 446.46 1589.61C447.445 1590.03 448.288 1590.63 448.988 1591.41C449.711 1592.2 450.269 1593.15 450.663 1594.26C451.057 1595.35 451.254 1596.56 451.254 1597.9ZM448.069 1597.9C448.069 1595.98 447.631 1594.46 446.755 1593.34C445.902 1592.21 444.73 1591.64 443.242 1591.64C441.753 1591.64 440.571 1592.21 439.695 1593.34C438.841 1594.46 438.414 1595.98 438.414 1597.9C438.414 1599.82 438.841 1601.35 439.695 1602.48C440.571 1603.59 441.753 1604.15 443.242 1604.15C444.73 1604.15 445.902 1603.59 446.755 1602.48C447.631 1601.35 448.069 1599.82 448.069 1597.9Z" fill="#006D39"/>
<path d="M475.006 1597.93C475.006 1595.94 474.514 1594.41 473.528 1593.34C472.543 1592.28 471.23 1591.74 469.588 1591.74C468.668 1591.74 467.946 1591.77 467.42 1591.84C466.917 1591.9 466.512 1591.98 466.205 1592.07V1602.81C466.578 1603.11 467.114 1603.41 467.815 1603.69C468.515 1603.98 469.281 1604.12 470.113 1604.12C470.989 1604.12 471.733 1603.97 472.346 1603.66C472.981 1603.33 473.496 1602.9 473.89 1602.35C474.284 1601.78 474.568 1601.13 474.743 1600.38C474.919 1599.62 475.006 1598.8 475.006 1597.93ZM478.192 1597.93C478.192 1599.22 478.016 1600.41 477.666 1601.5C477.338 1602.59 476.845 1603.53 476.188 1604.31C475.532 1605.1 474.722 1605.71 473.758 1606.15C472.817 1606.58 471.733 1606.8 470.507 1606.8C469.522 1606.8 468.646 1606.67 467.88 1606.41C467.136 1606.15 466.578 1605.9 466.205 1605.66V1612.47H463.151V1589.91C463.874 1589.73 464.771 1589.55 465.844 1589.35C466.939 1589.13 468.198 1589.02 469.621 1589.02C470.934 1589.02 472.116 1589.23 473.167 1589.64C474.218 1590.06 475.116 1590.65 475.86 1591.41C476.604 1592.18 477.174 1593.12 477.568 1594.23C477.984 1595.32 478.192 1596.55 478.192 1597.93Z" fill="#006D39"/>
<path d="M497.562 1597.9C497.562 1599.25 497.365 1600.47 496.971 1601.56C496.577 1602.66 496.019 1603.59 495.296 1604.38C494.596 1605.17 493.753 1605.78 492.768 1606.21C491.782 1606.63 490.71 1606.84 489.549 1606.84C488.389 1606.84 487.316 1606.63 486.331 1606.21C485.346 1605.78 484.492 1605.17 483.77 1604.38C483.069 1603.59 482.522 1602.66 482.128 1601.56C481.734 1600.47 481.537 1599.25 481.537 1597.9C481.537 1596.56 481.734 1595.35 482.128 1594.26C482.522 1593.15 483.069 1592.2 483.77 1591.41C484.492 1590.63 485.346 1590.03 486.331 1589.61C487.316 1589.18 488.389 1588.96 489.549 1588.96C490.71 1588.96 491.782 1589.18 492.768 1589.61C493.753 1590.03 494.596 1590.63 495.296 1591.41C496.019 1592.2 496.577 1593.15 496.971 1594.26C497.365 1595.35 497.562 1596.56 497.562 1597.9ZM494.377 1597.9C494.377 1595.98 493.939 1594.46 493.063 1593.34C492.209 1592.21 491.038 1591.64 489.549 1591.64C488.061 1591.64 486.879 1592.21 486.003 1593.34C485.149 1594.46 484.722 1595.98 484.722 1597.9C484.722 1599.82 485.149 1601.35 486.003 1602.48C486.879 1603.59 488.061 1604.15 489.549 1604.15C491.038 1604.15 492.209 1603.59 493.063 1602.48C493.939 1601.35 494.377 1599.82 494.377 1597.9Z" fill="#006D39"/>
<path d="M508.164 1589.02C508.427 1589.02 508.722 1589.04 509.051 1589.09C509.401 1589.11 509.74 1589.15 510.069 1589.22C510.397 1589.26 510.693 1589.32 510.955 1589.38C511.24 1589.43 511.448 1589.47 511.579 1589.51L511.054 1592.17C510.813 1592.08 510.408 1591.98 509.839 1591.87C509.291 1591.74 508.58 1591.67 507.704 1591.67C507.135 1591.67 506.566 1591.74 505.997 1591.87C505.449 1591.98 505.088 1592.06 504.913 1592.1V1606.41H501.859V1590.1C502.581 1589.84 503.479 1589.6 504.552 1589.38C505.624 1589.14 506.828 1589.02 508.164 1589.02Z" fill="#006D39"/>
<path d="M518.138 1604.64C518.138 1605.23 517.941 1605.74 517.547 1606.18C517.153 1606.62 516.617 1606.84 515.938 1606.84C515.26 1606.84 514.723 1606.62 514.329 1606.18C513.935 1605.74 513.738 1605.23 513.738 1604.64C513.738 1604.05 513.935 1603.54 514.329 1603.1C514.723 1602.67 515.26 1602.45 515.938 1602.45C516.617 1602.45 517.153 1602.67 517.547 1603.1C517.941 1603.54 518.138 1604.05 518.138 1604.64ZM518.138 1591.58C518.138 1592.17 517.941 1592.68 517.547 1593.12C517.153 1593.55 516.617 1593.77 515.938 1593.77C515.26 1593.77 514.723 1593.55 514.329 1593.12C513.935 1592.68 513.738 1592.17 513.738 1591.58C513.738 1590.99 513.935 1590.47 514.329 1590.04C514.723 1589.6 515.26 1589.38 515.938 1589.38C516.617 1589.38 517.153 1589.6 517.547 1590.04C517.941 1590.47 518.138 1590.99 518.138 1591.58Z" fill="#006D39"/>
<path d="M281.357 1858.93C279.386 1858.93 277.536 1858.57 275.807 1857.85C274.077 1857.12 272.549 1856.12 271.222 1854.8C269.894 1853.47 268.849 1851.95 268.125 1850.27C267.401 1848.54 266.999 1846.74 266.999 1844.77C266.999 1842.81 267.361 1840.92 268.085 1839.16C268.808 1837.39 269.814 1835.83 271.141 1834.5C272.468 1833.18 273.997 1832.14 275.726 1831.38C277.496 1830.61 279.346 1830.25 281.357 1830.25C283.207 1830.25 285.017 1830.57 286.706 1831.26C288.436 1831.9 289.843 1832.86 291.05 1834.06C291.533 1834.54 291.774 1835.11 291.774 1835.71C291.774 1836.27 291.533 1836.75 291.05 1837.11C290.648 1837.47 290.205 1837.63 289.763 1837.63C289.361 1837.63 288.878 1837.43 288.194 1836.95L287.35 1836.31C286.988 1836.03 286.747 1835.83 286.545 1835.75C285.701 1835.19 284.856 1834.79 283.971 1834.54C283.087 1834.3 282.161 1834.18 281.156 1834.18C279.748 1834.18 278.421 1834.46 277.134 1835.03C275.887 1835.59 274.761 1836.35 273.836 1837.35C272.911 1838.31 272.227 1839.4 271.704 1840.64C271.181 1841.88 270.94 1843.17 270.94 1844.53C270.94 1845.89 271.181 1847.18 271.704 1848.46C272.187 1849.74 272.911 1850.83 273.836 1851.79C274.761 1852.79 275.847 1853.55 277.094 1854.12C278.341 1854.68 279.708 1854.96 281.156 1854.96C282.564 1854.96 283.851 1854.72 285.017 1854.2C286.063 1853.75 287.31 1852.99 288.798 1851.83C289.2 1851.63 289.522 1851.55 289.763 1851.55C289.964 1851.55 290.165 1851.59 290.407 1851.67C290.648 1851.75 290.849 1851.87 291.01 1852.03C291.452 1852.43 291.694 1852.91 291.694 1853.43C291.694 1854.04 291.452 1854.6 290.97 1855.04C289.763 1856.24 288.355 1857.2 286.626 1857.85C284.896 1858.53 283.127 1858.85 281.277 1858.85L281.357 1858.93ZM309.069 1858.97C307.098 1858.97 305.288 1858.61 303.518 1857.85C301.789 1857.12 300.26 1856.08 298.893 1854.76C297.566 1853.43 296.52 1851.91 295.756 1850.19C294.992 1848.42 294.63 1846.62 294.63 1844.65C294.63 1842.69 294.992 1840.84 295.756 1839.08C296.52 1837.31 297.566 1835.79 298.893 1834.46C300.22 1833.14 301.749 1832.1 303.518 1831.38C305.248 1830.61 307.098 1830.25 309.069 1830.25C311.039 1830.25 312.889 1830.61 314.659 1831.38C316.429 1832.14 317.957 1833.14 319.284 1834.46C320.612 1835.79 321.617 1837.35 322.381 1839.08C323.145 1840.84 323.507 1842.69 323.507 1844.65C323.507 1846.62 323.145 1848.42 322.381 1850.19C321.657 1851.95 320.612 1853.47 319.284 1854.76C317.957 1856.08 316.429 1857.12 314.659 1857.85C312.889 1858.61 311.039 1858.97 309.069 1858.97ZM309.069 1855.08C310.516 1855.08 311.884 1854.8 313.171 1854.28C314.458 1853.71 315.584 1852.99 316.549 1851.99C317.515 1851.03 318.239 1849.9 318.762 1848.66C319.284 1847.38 319.566 1846.05 319.566 1844.69C319.566 1843.29 319.284 1841.92 318.762 1840.68C318.239 1839.4 317.474 1838.27 316.549 1837.31C315.584 1836.35 314.458 1835.59 313.171 1835.07C311.884 1834.5 310.516 1834.26 309.109 1834.26C307.661 1834.26 306.334 1834.54 305.047 1835.07C303.76 1835.63 302.674 1836.35 301.708 1837.31C300.743 1838.27 299.979 1839.4 299.456 1840.68C298.893 1841.96 298.652 1843.29 298.652 1844.69C298.652 1846.09 298.933 1847.42 299.456 1848.66C300.019 1849.94 300.743 1851.03 301.708 1851.99C302.674 1852.99 303.8 1853.71 305.047 1854.28C306.334 1854.84 307.661 1855.08 309.109 1855.08H309.069ZM336.257 1858.97C335.01 1858.97 333.804 1858.73 332.718 1858.25C331.592 1857.77 330.626 1857.12 329.742 1856.24C328.857 1855.36 328.213 1854.4 327.731 1853.27C327.248 1852.15 327.007 1850.95 327.007 1849.7V1832.1C327.007 1831.54 327.208 1831.06 327.57 1830.69C327.972 1830.33 328.414 1830.13 328.977 1830.13C329.5 1830.13 329.983 1830.33 330.345 1830.69C330.707 1831.06 330.908 1831.54 330.948 1832.1L330.988 1849.66V1849.82C330.988 1849.86 330.948 1849.94 330.948 1849.99C331.069 1851.31 331.632 1852.47 332.678 1853.43C333.16 1853.88 333.723 1854.24 334.327 1854.52C334.97 1854.76 335.614 1854.88 336.297 1854.88C337.021 1854.88 337.705 1854.72 338.349 1854.44C338.992 1854.16 339.595 1853.71 340.078 1853.23C340.561 1852.71 340.963 1852.11 341.204 1851.47C341.486 1850.79 341.606 1850.11 341.606 1849.38V1832.1C341.606 1831.54 341.807 1831.06 342.169 1830.65C342.531 1830.29 343.014 1830.09 343.577 1830.09C344.1 1830.09 344.583 1830.29 344.945 1830.65C345.347 1831.06 345.548 1831.54 345.548 1832.1V1849.7C345.548 1849.74 345.508 1849.78 345.508 1849.9C345.548 1850.59 345.709 1851.23 345.99 1851.83C346.272 1852.43 346.674 1852.95 347.157 1853.43C347.639 1853.92 348.202 1854.28 348.846 1854.52C349.449 1854.76 350.133 1854.92 350.817 1854.92C351.541 1854.92 352.224 1854.76 352.908 1854.52C353.592 1854.24 354.155 1853.84 354.638 1853.35C355.12 1852.87 355.522 1852.31 355.804 1851.67C356.086 1851.03 356.246 1850.39 356.287 1849.66V1832.1C356.287 1831.54 356.488 1831.06 356.85 1830.69C357.252 1830.33 357.694 1830.13 358.257 1830.13C358.78 1830.13 359.263 1830.33 359.665 1830.69C360.067 1831.06 360.268 1831.54 360.268 1832.1V1849.78C360.268 1851.03 360.027 1852.23 359.544 1853.31C359.062 1854.44 358.378 1855.4 357.493 1856.24C356.608 1857.08 355.603 1857.77 354.477 1858.21C353.31 1858.69 352.144 1858.93 350.897 1858.93C349.409 1858.93 348.042 1858.61 346.795 1857.97C345.548 1857.32 344.502 1856.48 343.658 1855.36C342.773 1856.48 341.687 1857.36 340.44 1858.01C339.153 1858.61 337.826 1858.93 336.338 1858.93L336.257 1858.97ZM376.598 1858.97C374.627 1858.97 372.817 1858.61 371.047 1857.85C369.318 1857.12 367.79 1856.08 366.422 1854.76C365.095 1853.43 364.049 1851.91 363.285 1850.19C362.521 1848.42 362.159 1846.62 362.159 1844.65C362.159 1842.69 362.521 1840.84 363.285 1839.08C364.049 1837.31 365.095 1835.79 366.422 1834.46C367.749 1833.14 369.278 1832.1 371.047 1831.38C372.777 1830.61 374.627 1830.25 376.598 1830.25C378.568 1830.25 380.419 1830.61 382.188 1831.38C383.958 1832.14 385.486 1833.14 386.813 1834.46C388.141 1835.79 389.146 1837.35 389.91 1839.08C390.675 1840.84 391.037 1842.69 391.037 1844.65C391.037 1846.62 390.675 1848.42 389.91 1850.19C389.186 1851.95 388.141 1853.47 386.813 1854.76C385.486 1856.08 383.958 1857.12 382.188 1857.85C380.419 1858.61 378.568 1858.97 376.598 1858.97ZM376.598 1855.08C378.046 1855.08 379.413 1854.8 380.7 1854.28C381.987 1853.71 383.113 1852.99 384.079 1851.99C385.044 1851.03 385.768 1849.9 386.291 1848.66C386.813 1847.38 387.095 1846.05 387.095 1844.69C387.095 1843.29 386.813 1841.92 386.291 1840.68C385.768 1839.4 385.004 1838.27 384.079 1837.31C383.113 1836.35 381.987 1835.59 380.7 1835.07C379.413 1834.5 378.046 1834.26 376.638 1834.26C375.19 1834.26 373.863 1834.54 372.576 1835.07C371.289 1835.63 370.203 1836.35 369.237 1837.31C368.272 1838.27 367.508 1839.4 366.985 1840.68C366.422 1841.96 366.181 1843.29 366.181 1844.69C366.181 1846.09 366.462 1847.42 366.985 1848.66C367.548 1849.94 368.272 1851.03 369.237 1851.99C370.203 1852.99 371.329 1853.71 372.576 1854.28C373.863 1854.84 375.19 1855.08 376.638 1855.08H376.598ZM396.949 1858.65C396.386 1858.65 395.903 1858.45 395.501 1858.09C395.099 1857.73 394.898 1857.24 394.898 1856.68V1845.29C394.898 1843.29 395.3 1841.36 396.064 1839.52C396.868 1837.67 397.914 1836.07 399.282 1834.71C400.689 1833.3 402.298 1832.22 404.108 1831.46C405.918 1830.65 407.808 1830.29 409.819 1830.29H410.061C410.704 1830.29 411.187 1830.49 411.549 1830.86C411.911 1831.22 412.112 1831.7 412.112 1832.3C412.112 1832.86 411.911 1833.34 411.549 1833.7C411.187 1834.06 410.664 1834.26 410.101 1834.26H409.859C408.412 1834.26 407.004 1834.54 405.677 1835.11C404.349 1835.67 403.143 1836.47 402.137 1837.51C401.092 1838.52 400.287 1839.72 399.724 1841.08C399.121 1842.45 398.839 1843.89 398.839 1845.37V1856.76C398.839 1857.32 398.638 1857.81 398.276 1858.17C397.914 1858.53 397.472 1858.73 396.949 1858.73V1858.65ZM417.823 1858.65C417.26 1858.65 416.777 1858.45 416.415 1858.09C416.013 1857.73 415.812 1857.24 415.812 1856.72V1822.07C415.812 1821.51 416.013 1821.03 416.415 1820.67C416.817 1820.31 417.3 1820.11 417.823 1820.11C418.386 1820.11 418.828 1820.31 419.231 1820.67C419.593 1821.03 419.794 1821.51 419.794 1822.07V1841.52L430.854 1831.26C431.216 1830.9 431.659 1830.77 432.181 1830.77C432.704 1830.77 433.187 1830.98 433.549 1831.38C433.951 1831.78 434.152 1832.22 434.152 1832.78C434.192 1833.3 433.991 1833.74 433.549 1834.18L423.092 1843.93L435.238 1855.44C435.6 1855.8 435.761 1856.2 435.761 1856.72C435.761 1857.24 435.56 1857.73 435.198 1858.13C434.796 1858.53 434.353 1858.73 433.83 1858.73C433.267 1858.73 432.785 1858.53 432.383 1858.13L419.834 1846.22V1856.84C419.834 1857.4 419.633 1857.85 419.271 1858.21C418.909 1858.57 418.426 1858.77 417.903 1858.77L417.823 1858.65ZM442.116 1826.28C441.432 1826.28 440.869 1826.04 440.427 1825.6C439.984 1825.12 439.743 1824.56 439.743 1823.92C439.743 1823.24 439.984 1822.67 440.427 1822.23C440.869 1821.79 441.432 1821.55 442.116 1821.55C442.8 1821.55 443.363 1821.75 443.805 1822.23C444.247 1822.67 444.489 1823.24 444.489 1823.92C444.489 1824.56 444.247 1825.12 443.805 1825.6C443.363 1826.04 442.759 1826.28 442.116 1826.28ZM442.116 1858.81C441.553 1858.81 441.11 1858.61 440.708 1858.25C440.306 1857.85 440.145 1857.4 440.145 1856.84V1832.3C440.145 1831.74 440.346 1831.26 440.708 1830.86C441.11 1830.45 441.593 1830.29 442.116 1830.29C442.679 1830.29 443.161 1830.49 443.523 1830.86C443.885 1831.22 444.087 1831.7 444.087 1832.3V1856.84C444.087 1857.4 443.885 1857.85 443.523 1858.25C443.121 1858.65 442.679 1858.81 442.156 1858.81H442.116ZM451.326 1858.65C450.763 1858.65 450.28 1858.45 449.878 1858.09C449.476 1857.73 449.275 1857.24 449.275 1856.72V1844.09C449.275 1842.2 449.597 1840.44 450.28 1838.76C450.964 1837.07 451.889 1835.59 453.136 1834.3C454.343 1833.02 455.791 1832.06 457.44 1831.34C459.089 1830.61 460.818 1830.29 462.708 1830.29C464.558 1830.29 466.328 1830.65 467.937 1831.34C469.586 1832.06 470.994 1833.02 472.2 1834.26C473.407 1835.55 474.332 1837.03 474.975 1838.68C475.619 1840.36 475.981 1842.12 475.981 1844.01V1856.68C475.981 1857.24 475.78 1857.73 475.418 1858.09C475.056 1858.45 474.573 1858.65 474.01 1858.65C473.447 1858.65 473.005 1858.45 472.602 1858.09C472.24 1857.73 472.039 1857.24 472.039 1856.68V1844.17C472.039 1842.81 471.798 1841.52 471.356 1840.32C470.913 1839.12 470.229 1838.03 469.425 1837.15C468.54 1836.23 467.535 1835.51 466.409 1834.99C465.242 1834.46 464.036 1834.22 462.668 1834.22C461.341 1834.22 460.094 1834.46 458.928 1834.99C457.761 1835.51 456.756 1836.19 455.911 1837.11C455.067 1837.99 454.423 1839.04 453.94 1840.24C453.458 1841.44 453.216 1842.73 453.216 1844.09V1856.68C453.216 1857.24 453.056 1857.73 452.694 1858.09C452.332 1858.45 451.889 1858.65 451.286 1858.65H451.326ZM487.363 1871C486.84 1871 486.358 1870.8 485.915 1870.44C485.473 1870.08 485.272 1869.6 485.272 1869.07C485.272 1867.95 486.237 1867.07 488.208 1866.43C488.932 1866.19 489.656 1866.03 490.46 1865.91C491.264 1865.79 491.948 1865.75 492.511 1865.75C493.316 1865.75 494.12 1865.79 494.884 1865.83C495.689 1865.91 496.493 1865.91 497.257 1865.91C499.63 1865.91 501.48 1865.35 502.807 1864.22C504.135 1863.1 504.778 1861.5 504.778 1859.45C504.778 1858.57 504.658 1857.81 504.416 1857.12C504.255 1856.68 503.974 1856.24 503.652 1855.76C502.405 1856.76 500.998 1857.56 499.429 1858.13C497.86 1858.69 496.252 1858.97 494.562 1858.97C492.592 1858.97 490.782 1858.61 489.012 1857.85C487.283 1857.12 485.754 1856.08 484.387 1854.76C483.06 1853.43 482.014 1851.91 481.25 1850.19C480.485 1848.42 480.124 1846.62 480.124 1844.65C480.124 1842.69 480.485 1840.84 481.25 1839.08C482.014 1837.31 483.06 1835.79 484.387 1834.46C485.714 1833.14 487.242 1832.1 489.012 1831.38C490.742 1830.61 492.592 1830.25 494.562 1830.25C496.533 1830.25 498.383 1830.61 500.153 1831.38C501.923 1832.14 503.451 1833.14 504.778 1834.46C506.106 1835.79 507.111 1837.35 507.875 1839.08C508.639 1840.84 509.001 1842.69 509.001 1844.65C509.001 1847.62 508.117 1850.35 506.387 1852.83C507.191 1853.71 507.795 1854.68 508.157 1855.76C508.519 1856.84 508.72 1858.09 508.72 1859.49C508.72 1861.09 508.438 1862.54 507.915 1863.82C507.393 1865.1 506.628 1866.23 505.623 1867.15C504.698 1868.03 503.612 1868.67 502.405 1869.16C501.199 1869.64 499.912 1869.88 498.584 1869.88C497.7 1869.88 496.775 1869.8 495.769 1869.6C494.683 1869.44 493.678 1869.36 492.793 1869.36C492.149 1869.36 491.425 1869.44 490.742 1869.6C489.857 1869.8 489.133 1870.12 488.57 1870.56C488.208 1870.88 487.806 1871 487.403 1871H487.363ZM494.603 1855.08C496.051 1855.08 497.418 1854.8 498.705 1854.28C499.992 1853.71 501.118 1852.99 502.084 1851.99C503.049 1851.03 503.813 1849.9 504.336 1848.66C504.859 1847.38 505.14 1846.05 505.14 1844.69C505.14 1843.29 504.859 1841.92 504.336 1840.68C503.813 1839.4 503.049 1838.27 502.084 1837.31C501.118 1836.35 499.992 1835.59 498.705 1835.07C497.418 1834.5 496.051 1834.26 494.643 1834.26C493.195 1834.26 491.868 1834.54 490.581 1835.07C489.294 1835.63 488.208 1836.35 487.242 1837.31C486.277 1838.27 485.513 1839.4 484.99 1840.68C484.427 1841.96 484.186 1843.29 484.186 1844.69C484.186 1846.09 484.467 1847.42 484.99 1848.66C485.553 1849.94 486.277 1851.03 487.242 1851.99C488.208 1852.99 489.334 1853.71 490.581 1854.28C491.868 1854.84 493.195 1855.08 494.643 1855.08H494.603Z" fill="#006D39"/>
<path fill-rule="evenodd" clip-rule="evenodd" d="M345.427 1696.54C334.045 1685.39 318.44 1678.54 301.226 1678.54C291.452 1678.54 282.202 1680.74 273.916 1684.71V1723.49C279.788 1714.67 289.803 1708.9 301.226 1708.9C313.814 1708.9 324.714 1715.95 330.224 1726.34C332.798 1715.11 338.107 1704.93 345.467 1696.54H345.427Z" fill="#006D39"/>
<path fill-rule="evenodd" clip-rule="evenodd" d="M364.371 1741.42C364.451 1723.45 379.091 1708.9 397.11 1708.9C406.199 1708.9 414.444 1712.59 420.397 1718.6L442.035 1697.27C430.573 1685.72 414.686 1678.58 397.11 1678.58C362.199 1678.58 333.924 1706.77 333.924 1741.58C333.924 1759.63 319.244 1774.23 301.185 1774.23C283.086 1774.23 268.446 1759.59 268.446 1741.58V1671.24C268.446 1654.55 254.772 1640.88 238 1640.88V1741.54C238 1776.35 266.275 1804.55 301.185 1804.55C336.096 1804.55 364.371 1776.35 364.371 1741.54V1741.42Z" fill="#006D39"/>
<path fill-rule="evenodd" clip-rule="evenodd" d="M397.15 1804.55C414.686 1804.55 430.532 1797.41 441.995 1785.94L420.397 1764.56C414.444 1770.54 406.24 1774.23 397.15 1774.23C384.561 1774.23 373.621 1767.17 368.151 1756.78C365.577 1768.01 360.268 1778.2 352.908 1786.58C364.29 1797.73 379.896 1804.59 397.11 1804.59L397.15 1804.55Z" fill="#006D39"/>
<path fill-rule="evenodd" clip-rule="evenodd" d="M493.074 1804.55C510.61 1804.55 526.457 1797.41 537.92 1785.94L516.321 1764.56C510.369 1770.54 502.164 1774.23 493.074 1774.23C474.976 1774.23 460.335 1759.59 460.335 1741.58C460.335 1723.53 475.016 1708.94 493.074 1708.94C502.164 1708.94 510.409 1712.63 516.362 1718.64L538 1697.31C526.537 1685.76 510.65 1678.62 493.074 1678.62C458.164 1678.62 429.889 1706.81 429.889 1741.62C429.889 1776.43 458.164 1804.63 493.074 1804.63V1804.55Z" fill="#006D39"/>
<path fill-rule="evenodd" clip-rule="evenodd" d="M389.321 844.144C404.768 844.144 417.288 856.665 417.288 872.111C417.288 887.558 404.768 900.078 389.321 900.078C373.875 900.078 361.354 887.558 361.354 872.111C361.354 856.665 373.875 844.144 389.321 844.144Z" fill="white"/>
<path fill-rule="evenodd" clip-rule="evenodd" d="M389.321 805.321C397.634 805.321 404.371 812.059 404.371 820.371C404.371 828.683 397.634 835.421 389.321 835.421C381.009 835.421 374.271 828.683 374.271 820.371C374.271 812.059 381.009 805.321 389.321 805.321V805.321Z" fill="white"/>
<path fill-rule="evenodd" clip-rule="evenodd" d="M389.322 781C393.629 781 397.121 784.492 397.121 788.799C397.121 793.107 393.629 796.599 389.322 796.599C385.014 796.599 381.522 793.107 381.522 788.799C381.522 784.492 385.014 781 389.322 781Z" fill="white"/>
<path fill-rule="evenodd" clip-rule="evenodd" d="M322.531 872.112C322.531 863.799 329.269 857.062 337.581 857.062C345.893 857.062 352.631 863.799 352.631 872.112C352.631 880.424 345.893 887.161 337.581 887.161C329.269 887.161 322.531 880.424 322.531 872.112Z" fill="white"/>
<path fill-rule="evenodd" clip-rule="evenodd" d="M298.21 872.112C298.21 867.804 301.702 864.312 306.009 864.312C310.317 864.312 313.809 867.804 313.809 872.112C313.809 876.419 310.317 879.911 306.009 879.911C301.702 879.911 298.21 876.419 298.21 872.112Z" fill="white"/>
<path fill-rule="evenodd" clip-rule="evenodd" d="M456.111 872.112C456.111 863.799 449.374 857.062 441.062 857.062C432.749 857.062 426.012 863.799 426.012 872.112C426.012 880.424 432.749 887.161 441.062 887.161C449.374 887.161 456.111 880.424 456.111 872.112Z" fill="white"/>
<path fill-rule="evenodd" clip-rule="evenodd" d="M480.433 872.112C480.433 867.804 476.941 864.312 472.634 864.312C468.326 864.312 464.834 867.804 464.834 872.112C464.834 876.419 468.326 879.911 472.634 879.911C476.941 879.911 480.433 876.419 480.433 872.112Z" fill="white"/>
<path fill-rule="evenodd" clip-rule="evenodd" d="M389.321 938.902C381.009 938.902 374.271 932.164 374.271 923.852C374.271 915.54 381.009 908.802 389.321 908.802C397.634 908.802 404.371 915.54 404.371 923.852C404.371 932.164 397.634 938.902 389.321 938.902Z" fill="white"/>
<path fill-rule="evenodd" clip-rule="evenodd" d="M389.322 963.223C385.014 963.223 381.522 959.731 381.522 955.423C381.522 951.116 385.014 947.624 389.322 947.624C393.629 947.624 397.121 951.116 397.121 955.423C397.121 959.731 393.629 963.223 389.322 963.223Z" fill="white"/>
<path fill-rule="evenodd" clip-rule="evenodd" d="M342.094 824.883C347.971 819.006 357.5 819.006 363.378 824.883C369.255 830.761 369.255 840.29 363.378 846.167C357.5 852.045 347.971 852.045 342.094 846.167C336.216 840.29 336.216 830.761 342.094 824.883Z" fill="white"/>
<path fill-rule="evenodd" clip-rule="evenodd" d="M324.896 807.686C327.942 804.64 332.88 804.64 335.926 807.686C338.972 810.732 338.972 815.67 335.926 818.716C332.88 821.762 327.942 821.762 324.896 818.716C321.85 815.67 321.85 810.732 324.896 807.686Z" fill="white"/>
<path fill-rule="evenodd" clip-rule="evenodd" d="M342.094 919.339C336.216 913.462 336.216 903.933 342.094 898.056C347.971 892.178 357.5 892.178 363.378 898.056C369.255 903.933 369.255 913.462 363.378 919.339C357.5 925.217 347.971 925.217 342.094 919.339Z" fill="white"/>
<path fill-rule="evenodd" clip-rule="evenodd" d="M324.896 936.537C321.85 933.491 321.85 928.553 324.896 925.507C327.942 922.461 332.88 922.461 335.926 925.507C338.972 928.553 338.972 933.491 335.926 936.537C332.88 939.583 327.942 939.583 324.896 936.537Z" fill="white"/>
<path fill-rule="evenodd" clip-rule="evenodd" d="M436.549 824.883C430.672 819.006 421.143 819.006 415.265 824.883C409.388 830.761 409.388 840.29 415.265 846.167C421.143 852.045 430.672 852.045 436.549 846.167C442.426 840.29 442.426 830.761 436.549 824.883Z" fill="white"/>
<path fill-rule="evenodd" clip-rule="evenodd" d="M453.747 807.686C450.701 804.64 445.763 804.64 442.717 807.686C439.671 810.732 439.671 815.67 442.717 818.716C445.763 821.762 450.702 821.762 453.747 818.716C456.793 815.67 456.793 810.732 453.747 807.686Z" fill="white"/>
<path fill-rule="evenodd" clip-rule="evenodd" d="M436.549 919.339C430.672 925.217 421.143 925.217 415.265 919.339C409.388 913.462 409.388 903.933 415.265 898.056C421.143 892.178 430.672 892.178 436.549 898.056C442.426 903.933 442.426 913.462 436.549 919.339Z" fill="white"/>
<path fill-rule="evenodd" clip-rule="evenodd" d="M453.747 936.537C450.701 939.583 445.763 939.583 442.717 936.537C439.671 933.491 439.671 928.553 442.717 925.507C445.763 922.461 450.702 922.461 453.747 925.507C456.793 928.553 456.793 933.491 453.747 936.537Z" fill="white"/>
<path d="M131.004 1065.16C131.004 1058.87 131.97 1053.37 133.902 1048.65C135.834 1043.94 138.373 1040 141.517 1036.86C144.662 1033.71 148.279 1031.33 152.368 1029.72C156.456 1028.1 160.657 1027.29 164.971 1027.29C175.034 1027.29 182.987 1030.37 188.828 1036.52C194.668 1042.68 197.589 1051.73 197.589 1063.68C197.589 1064.85 197.544 1066.13 197.454 1067.52C197.364 1068.92 197.274 1070.15 197.184 1071.23H151.626C152.075 1075.36 154.007 1078.64 157.422 1081.07C160.837 1083.5 165.42 1084.71 171.17 1084.71C174.855 1084.71 178.471 1084.37 182.02 1083.7C185.57 1083.02 188.468 1082.19 190.714 1081.2L193.41 1097.51C192.332 1098.05 190.894 1098.59 189.097 1099.13C187.3 1099.67 185.3 1100.14 183.099 1100.55C180.898 1100.95 178.539 1101.29 176.023 1101.56C173.507 1101.83 170.991 1101.96 168.475 1101.96C162.095 1101.96 156.546 1101.02 151.829 1099.13C147.111 1097.24 143.203 1094.66 140.102 1091.38C137.002 1088.1 134.711 1084.21 133.228 1079.72C131.746 1075.23 131.004 1070.38 131.004 1065.16L131.004 1065.16ZM178.179 1057.48C178.089 1055.77 177.797 1054.11 177.303 1052.49C176.809 1050.88 176.045 1049.44 175.012 1048.18C173.978 1046.92 172.676 1045.89 171.103 1045.08C169.53 1044.27 167.576 1043.87 165.24 1043.87C162.993 1043.87 161.061 1044.25 159.444 1045.01C157.827 1045.78 156.479 1046.79 155.401 1048.05C154.322 1049.31 153.491 1050.77 152.907 1052.43C152.323 1054.09 151.896 1055.77 151.626 1057.48H178.179L178.179 1057.48ZM213.089 1031.6C216.503 1030.61 220.906 1029.69 226.298 1028.84C231.689 1027.99 237.35 1027.56 243.281 1027.56C249.301 1027.56 254.311 1028.34 258.31 1029.92C262.308 1031.49 265.476 1033.71 267.812 1036.59C270.148 1039.46 271.811 1042.88 272.799 1046.83C273.788 1050.79 274.282 1055.19 274.282 1060.04V1100.07H254.199V1062.47C254.199 1056 253.345 1051.42 251.638 1048.72C249.93 1046.02 246.741 1044.68 242.068 1044.68C240.63 1044.68 239.102 1044.74 237.485 1044.88C235.868 1045.01 234.43 1045.17 233.172 1045.35V1100.07H213.089V1031.6V1031.6ZM345.718 1042.65C344.101 1044.45 341.922 1046.88 339.159 1049.93C336.418 1052.99 333.475 1056.36 330.33 1060.04C327.163 1063.73 323.995 1067.59 320.805 1071.63C317.593 1075.68 314.695 1079.59 312.089 1083.36H346.392V1100.07H287.76V1088.21C289.647 1084.98 291.916 1081.5 294.567 1077.77C297.218 1074.04 300.004 1070.29 302.924 1066.51C305.844 1062.74 308.742 1059.08 311.618 1055.53C314.493 1051.98 317.144 1048.77 319.57 1045.89H289.378V1029.18H345.718V1042.66V1042.65ZM379.954 1100.07H359.871V1029.18H379.954V1100.07ZM381.841 1008.69C381.841 1012.37 380.65 1015.27 378.269 1017.38C375.888 1019.49 373.08 1020.55 369.845 1020.55C366.61 1020.55 363.803 1019.49 361.421 1017.38C359.04 1015.27 357.85 1012.37 357.85 1008.69C357.85 1005 359.04 1002.11 361.421 999.995C363.803 997.883 366.61 996.828 369.845 996.828C373.08 996.828 375.888 997.884 378.269 999.995C380.65 1002.11 381.841 1005 381.841 1008.69ZM411.898 1029.99H438.452V1040.5H411.898V1072.85C411.898 1076.35 412.168 1079.25 412.707 1081.54C413.246 1083.83 414.055 1085.63 415.133 1086.93C416.212 1088.24 417.559 1089.16 419.177 1089.7C420.794 1090.23 422.681 1090.5 424.838 1090.5C428.612 1090.5 431.644 1090.08 433.936 1089.22C436.227 1088.37 437.823 1087.76 438.721 1087.4L441.147 1097.78C439.889 1098.41 437.688 1099.2 434.543 1100.14C431.398 1101.08 427.804 1101.56 423.76 1101.56C418.997 1101.56 415.066 1100.95 411.966 1099.74C408.866 1098.52 406.372 1096.7 404.485 1094.28C402.598 1091.85 401.273 1088.86 400.509 1085.31C399.745 1081.76 399.363 1077.65 399.363 1072.98V1010.44L411.898 1008.28V1029.98V1029.99ZM449.1 1065.16C449.1 1058.96 449.998 1053.55 451.795 1048.92C453.592 1044.29 455.974 1040.45 458.939 1037.4C461.905 1034.34 465.319 1032.05 469.183 1030.52C473.047 1029 477 1028.23 481.044 1028.23C490.479 1028.23 497.713 1031.18 502.744 1037.06C507.776 1042.95 510.292 1051.91 510.292 1063.95C510.292 1064.49 510.292 1065.19 510.292 1066.04C510.292 1066.89 510.247 1067.68 510.158 1068.4H462.173C462.712 1075.68 464.824 1081.2 468.508 1084.98C472.193 1088.75 477.943 1090.64 485.761 1090.64C490.164 1090.64 493.871 1090.26 496.881 1089.49C499.891 1088.73 502.16 1087.99 503.687 1087.27L505.44 1097.78C503.912 1098.59 501.239 1099.45 497.42 1100.34C493.601 1101.24 489.265 1101.69 484.413 1101.69C478.303 1101.69 473.023 1100.77 468.575 1098.93C464.128 1097.09 460.466 1094.55 457.59 1091.31C454.715 1088.08 452.581 1084.24 451.188 1079.79C449.795 1075.34 449.098 1070.47 449.098 1065.16H449.1ZM497.218 1058.29C497.308 1052.63 495.893 1047.98 492.972 1044.34C490.052 1040.7 486.031 1038.88 480.909 1038.88C478.034 1038.88 475.495 1039.44 473.294 1040.57C471.092 1041.69 469.228 1043.15 467.7 1044.95C466.173 1046.74 464.982 1048.81 464.128 1051.15C463.275 1053.48 462.713 1055.86 462.443 1058.29H497.218H497.218ZM558.815 1101.69C553.154 1101.69 548.19 1100.79 543.922 1099C539.653 1097.2 536.059 1094.68 533.139 1091.45C530.218 1088.21 528.039 1084.37 526.601 1079.92C525.164 1075.48 524.445 1070.56 524.445 1065.16C524.445 1059.77 525.231 1054.83 526.803 1050.34C528.376 1045.85 530.6 1041.96 533.475 1038.68C536.351 1035.4 539.877 1032.84 544.056 1031C548.234 1029.15 552.884 1028.23 558.006 1028.23C561.151 1028.23 564.296 1028.5 567.441 1029.04C570.586 1029.58 573.596 1030.43 576.472 1031.6L573.641 1042.25C571.754 1041.35 569.575 1040.63 567.104 1040.09C564.633 1039.56 562.005 1039.29 559.219 1039.29C552.21 1039.29 546.841 1041.49 543.112 1045.89C539.383 1050.29 537.518 1056.72 537.518 1065.16C537.518 1068.94 537.945 1072.4 538.799 1075.54C539.652 1078.69 541 1081.38 542.842 1083.63C544.684 1085.88 547.043 1087.61 549.919 1088.82C552.794 1090.03 556.298 1090.64 560.432 1090.64C563.756 1090.64 566.767 1090.32 569.463 1089.7C572.158 1089.07 574.27 1088.39 575.798 1087.67L577.55 1098.19C576.831 1098.64 575.798 1099.06 574.45 1099.47C573.102 1099.87 571.575 1100.23 569.867 1100.55C568.16 1100.86 566.34 1101.13 564.408 1101.35C562.476 1101.58 560.612 1101.69 558.814 1101.69H558.815ZM591.029 1100.07V997.637L603.565 995.48V1031.33C605.901 1030.43 608.395 1029.74 611.045 1029.24C613.696 1028.75 616.324 1028.5 618.93 1028.5C624.502 1028.5 629.129 1029.29 632.813 1030.86C636.497 1032.43 639.44 1034.64 641.642 1037.47C643.843 1040.3 645.394 1043.69 646.292 1047.64C647.191 1051.6 647.64 1055.95 647.64 1060.72V1100.07H635.105V1063.41C635.105 1059.1 634.812 1055.41 634.228 1052.36C633.644 1049.3 632.678 1046.83 631.33 1044.95C629.983 1043.06 628.185 1041.69 625.939 1040.83C623.692 1039.98 620.907 1039.55 617.582 1039.55C616.234 1039.55 614.841 1039.64 613.403 1039.82C611.966 1040 610.596 1040.21 609.293 1040.43C607.99 1040.66 606.822 1040.9 605.788 1041.17C604.755 1041.44 604.014 1041.67 603.565 1041.85V1100.07H591.029V1100.07Z" fill="white"/>
<path d="M144.518 1134.31C144.235 1133.56 143.968 1132.82 143.718 1132.1C143.468 1131.37 143.21 1130.64 142.944 1129.89H135.098L133.523 1134.31H131C131.666 1132.48 132.291 1130.78 132.874 1129.23C133.457 1127.67 134.028 1126.19 134.586 1124.79C135.143 1123.39 135.698 1122.05 136.247 1120.78C136.797 1119.51 137.372 1118.24 137.971 1116.99H140.195C140.795 1118.24 141.37 1119.51 141.919 1120.78C142.469 1122.05 143.023 1123.39 143.581 1124.79C144.139 1126.19 144.71 1127.67 145.292 1129.23C145.875 1130.78 146.5 1132.48 147.167 1134.31H144.518V1134.31ZM142.244 1127.89C141.711 1126.44 141.182 1125.04 140.658 1123.68C140.133 1122.32 139.587 1121.02 139.021 1119.77C138.438 1121.02 137.884 1122.32 137.359 1123.68C136.835 1125.04 136.314 1126.44 135.798 1127.89H142.244H142.244ZM158.386 1127.84C158.386 1126.32 158.011 1125.16 157.262 1124.34C156.512 1123.52 155.512 1123.12 154.263 1123.12C153.563 1123.12 153.018 1123.14 152.626 1123.19C152.234 1123.24 151.922 1123.3 151.689 1123.37V1131.56C151.972 1131.8 152.38 1132.02 152.914 1132.24C153.446 1132.45 154.03 1132.56 154.663 1132.56C155.329 1132.56 155.9 1132.44 156.375 1132.2C156.849 1131.96 157.237 1131.62 157.537 1131.2C157.837 1130.77 158.053 1130.27 158.186 1129.7C158.32 1129.13 158.386 1128.51 158.386 1127.84V1127.84ZM160.81 1127.84C160.81 1128.82 160.681 1129.73 160.422 1130.56C160.164 1131.4 159.785 1132.11 159.286 1132.71C158.786 1133.31 158.174 1133.78 157.449 1134.11C156.724 1134.44 155.895 1134.61 154.962 1134.61C154.213 1134.61 153.551 1134.51 152.976 1134.31C152.401 1134.11 151.972 1133.92 151.689 1133.74V1138.93H149.365V1121.72C149.915 1121.58 150.602 1121.44 151.427 1121.28C152.251 1121.12 153.205 1121.04 154.288 1121.04C155.287 1121.04 156.187 1121.2 156.987 1121.52C157.786 1121.83 158.469 1122.28 159.036 1122.87C159.602 1123.45 160.039 1124.16 160.348 1125C160.656 1125.84 160.81 1126.79 160.81 1127.84V1127.84ZM167.981 1134.56C166.549 1134.53 165.533 1134.22 164.933 1133.64C164.333 1133.05 164.033 1132.14 164.033 1130.91V1115.32L166.357 1114.92V1130.54C166.357 1130.92 166.39 1131.24 166.457 1131.49C166.523 1131.74 166.632 1131.94 166.782 1132.09C166.932 1132.24 167.132 1132.35 167.381 1132.42C167.631 1132.5 167.94 1132.56 168.306 1132.61L167.981 1134.56H167.981ZM173.229 1134.31H170.905V1121.32H173.229V1134.31ZM172.054 1118.97C171.638 1118.97 171.284 1118.83 170.992 1118.56C170.701 1118.28 170.555 1117.91 170.555 1117.44C170.555 1116.98 170.701 1116.61 170.992 1116.33C171.284 1116.06 171.638 1115.92 172.054 1115.92C172.471 1115.92 172.825 1116.06 173.116 1116.33C173.408 1116.61 173.554 1116.98 173.554 1117.44C173.554 1117.91 173.408 1118.28 173.116 1118.56C172.825 1118.83 172.471 1118.97 172.054 1118.97ZM182.874 1134.61C181.824 1134.61 180.904 1134.44 180.113 1134.11C179.322 1133.78 178.655 1133.31 178.114 1132.71C177.573 1132.11 177.168 1131.4 176.902 1130.57C176.635 1129.75 176.502 1128.84 176.502 1127.84C176.502 1126.84 176.647 1125.92 176.939 1125.09C177.231 1124.26 177.643 1123.54 178.176 1122.93C178.709 1122.32 179.363 1121.85 180.138 1121.5C180.912 1121.16 181.774 1120.99 182.724 1120.99C183.307 1120.99 183.89 1121.04 184.473 1121.14C185.056 1121.24 185.614 1121.4 186.147 1121.62L185.622 1123.59C185.273 1123.42 184.869 1123.29 184.41 1123.19C183.953 1123.09 183.465 1123.04 182.949 1123.04C181.649 1123.04 180.654 1123.45 179.963 1124.27C179.271 1125.08 178.926 1126.27 178.926 1127.84C178.926 1128.54 179.005 1129.18 179.163 1129.76C179.322 1130.35 179.571 1130.85 179.913 1131.26C180.254 1131.68 180.692 1132 181.225 1132.22C181.758 1132.45 182.408 1132.56 183.174 1132.56C183.79 1132.56 184.348 1132.5 184.848 1132.39C185.347 1132.27 185.739 1132.14 186.023 1132.01L186.348 1133.96C186.214 1134.04 186.023 1134.12 185.773 1134.2C185.523 1134.27 185.24 1134.34 184.923 1134.4C184.607 1134.46 184.269 1134.51 183.911 1134.55C183.553 1134.59 183.208 1134.61 182.874 1134.61L182.874 1134.61ZM193.244 1132.64C193.793 1132.64 194.281 1132.62 194.706 1132.6C195.13 1132.57 195.484 1132.53 195.767 1132.46V1128.59C195.601 1128.5 195.33 1128.43 194.956 1128.38C194.58 1128.32 194.127 1128.29 193.594 1128.29C193.244 1128.29 192.873 1128.31 192.482 1128.36C192.09 1128.41 191.732 1128.52 191.407 1128.68C191.082 1128.83 190.812 1129.05 190.595 1129.32C190.379 1129.6 190.27 1129.96 190.27 1130.41C190.27 1131.24 190.537 1131.82 191.07 1132.15C191.603 1132.47 192.327 1132.64 193.244 1132.64V1132.64ZM193.044 1120.99C193.977 1120.99 194.764 1121.11 195.405 1121.35C196.046 1121.6 196.563 1121.94 196.954 1122.38C197.346 1122.82 197.624 1123.34 197.791 1123.95C197.958 1124.56 198.041 1125.23 198.041 1125.96V1134.09C197.841 1134.12 197.562 1134.16 197.204 1134.22C196.846 1134.28 196.442 1134.34 195.992 1134.39C195.543 1134.43 195.055 1134.48 194.53 1134.52C194.006 1134.56 193.485 1134.59 192.969 1134.59C192.236 1134.59 191.561 1134.51 190.945 1134.36C190.329 1134.21 189.795 1133.97 189.345 1133.65C188.896 1133.32 188.546 1132.89 188.296 1132.36C188.046 1131.83 187.921 1131.19 187.921 1130.44C187.921 1129.72 188.067 1129.1 188.359 1128.59C188.65 1128.07 189.045 1127.66 189.546 1127.34C190.045 1127.02 190.629 1126.79 191.295 1126.64C191.961 1126.49 192.66 1126.41 193.394 1126.41C193.627 1126.41 193.868 1126.43 194.118 1126.45C194.368 1126.48 194.605 1126.51 194.83 1126.55C195.055 1126.59 195.251 1126.63 195.417 1126.66C195.584 1126.7 195.701 1126.72 195.767 1126.74V1126.09C195.767 1125.71 195.726 1125.33 195.642 1124.95C195.559 1124.58 195.409 1124.24 195.193 1123.95C194.976 1123.66 194.681 1123.43 194.306 1123.25C193.931 1123.08 193.444 1122.99 192.844 1122.99C192.078 1122.99 191.408 1123.04 190.833 1123.15C190.258 1123.26 189.829 1123.37 189.546 1123.49L189.271 1121.57C189.57 1121.43 190.07 1121.3 190.77 1121.18C191.469 1121.05 192.227 1120.99 193.043 1120.99H193.044ZM204.063 1121.32H208.985V1123.27H204.063V1129.26C204.063 1129.91 204.113 1130.45 204.213 1130.87C204.313 1131.3 204.463 1131.63 204.662 1131.87C204.863 1132.12 205.112 1132.29 205.412 1132.39C205.712 1132.49 206.062 1132.54 206.462 1132.54C207.161 1132.54 207.724 1132.46 208.148 1132.3C208.573 1132.14 208.869 1132.03 209.035 1131.96L209.485 1133.89C209.252 1134 208.844 1134.15 208.26 1134.32C207.678 1134.5 207.011 1134.58 206.261 1134.58C205.378 1134.58 204.65 1134.47 204.075 1134.25C203.5 1134.02 203.038 1133.69 202.688 1133.24C202.338 1132.79 202.093 1132.23 201.951 1131.57C201.809 1130.92 201.738 1130.15 201.738 1129.29V1117.69L204.062 1117.29V1121.32L204.063 1121.32ZM214.258 1134.31H211.934V1121.32H214.258V1134.31ZM213.083 1118.97C212.666 1118.97 212.313 1118.83 212.021 1118.55C211.729 1118.28 211.584 1117.91 211.584 1117.44C211.584 1116.98 211.729 1116.61 212.021 1116.33C212.313 1116.06 212.666 1115.92 213.083 1115.92C213.5 1115.92 213.853 1116.06 214.145 1116.33C214.437 1116.61 214.583 1116.98 214.583 1117.44C214.583 1117.91 214.437 1118.28 214.145 1118.55C213.853 1118.83 213.5 1118.97 213.083 1118.97ZM228.401 1121.32C227.751 1123.75 226.989 1126.08 226.115 1128.31C225.24 1130.54 224.395 1132.54 223.579 1134.31H221.48C220.663 1132.54 219.818 1130.54 218.943 1128.31C218.069 1126.08 217.307 1123.75 216.657 1121.32H219.156C219.356 1122.13 219.593 1123 219.868 1123.93C220.143 1124.85 220.434 1125.77 220.742 1126.68C221.051 1127.58 221.363 1128.46 221.679 1129.31C221.996 1130.16 222.296 1130.92 222.579 1131.59C222.862 1130.92 223.162 1130.16 223.479 1129.31C223.795 1128.46 224.107 1127.58 224.416 1126.68C224.724 1125.77 225.015 1124.85 225.29 1123.93C225.565 1123 225.802 1122.13 226.002 1121.32H228.401V1121.32ZM241.919 1127.81C241.919 1128.85 241.769 1129.78 241.469 1130.61C241.169 1131.44 240.749 1132.16 240.207 1132.76C239.666 1133.36 239.02 1133.82 238.271 1134.15C237.521 1134.47 236.705 1134.63 235.822 1134.63C234.939 1134.63 234.123 1134.47 233.374 1134.15C232.624 1133.82 231.978 1133.36 231.437 1132.76C230.896 1132.16 230.475 1131.44 230.175 1130.61C229.875 1129.78 229.725 1128.85 229.725 1127.81C229.725 1126.8 229.875 1125.87 230.175 1125.03C230.475 1124.19 230.895 1123.47 231.437 1122.87C231.978 1122.27 232.624 1121.8 233.374 1121.48C234.123 1121.15 234.939 1120.99 235.822 1120.99C236.705 1120.99 237.521 1121.15 238.271 1121.48C239.02 1121.8 239.666 1122.27 240.207 1122.87C240.749 1123.46 241.169 1124.19 241.469 1125.03C241.769 1125.87 241.919 1126.8 241.919 1127.81ZM239.496 1127.81C239.496 1126.35 239.166 1125.19 238.508 1124.33C237.85 1123.47 236.955 1123.04 235.822 1123.04C234.689 1123.04 233.794 1123.47 233.136 1124.33C232.478 1125.19 232.149 1126.35 232.149 1127.81C232.149 1129.28 232.478 1130.44 233.136 1131.3C233.794 1132.16 234.689 1132.59 235.822 1132.59C236.955 1132.59 237.85 1132.16 238.508 1131.3C239.166 1130.44 239.496 1129.28 239.496 1127.81ZM259.985 1127.84C259.985 1126.32 259.61 1125.16 258.861 1124.34C258.111 1123.52 257.112 1123.12 255.862 1123.12C255.162 1123.12 254.617 1123.14 254.225 1123.19C253.834 1123.24 253.522 1123.3 253.288 1123.37V1131.56C253.572 1131.79 253.979 1132.02 254.513 1132.24C255.046 1132.45 255.629 1132.56 256.262 1132.56C256.928 1132.56 257.499 1132.44 257.974 1132.2C258.448 1131.96 258.836 1131.62 259.136 1131.2C259.436 1130.77 259.652 1130.27 259.785 1129.7C259.919 1129.12 259.985 1128.5 259.985 1127.84V1127.84ZM262.409 1127.84C262.409 1128.82 262.28 1129.73 262.021 1130.56C261.763 1131.39 261.384 1132.11 260.885 1132.71C260.385 1133.31 259.772 1133.78 259.048 1134.11C258.323 1134.44 257.495 1134.61 256.562 1134.61C255.812 1134.61 255.15 1134.51 254.575 1134.31C254 1134.11 253.571 1133.92 253.288 1133.73V1138.93H250.964V1121.72C251.514 1121.58 252.201 1121.44 253.026 1121.28C253.851 1121.12 254.804 1121.04 255.887 1121.04C256.887 1121.04 257.786 1121.2 258.586 1121.52C259.385 1121.83 260.068 1122.28 260.635 1122.86C261.201 1123.45 261.638 1124.16 261.947 1125C262.255 1125.84 262.409 1126.79 262.409 1127.84V1127.84ZM270.08 1132.64C270.63 1132.64 271.117 1132.62 271.542 1132.6C271.966 1132.57 272.32 1132.53 272.603 1132.46V1128.59C272.437 1128.5 272.166 1128.43 271.792 1128.38C271.416 1128.32 270.963 1128.29 270.43 1128.29C270.08 1128.29 269.709 1128.31 269.318 1128.36C268.926 1128.41 268.568 1128.52 268.243 1128.68C267.918 1128.83 267.648 1129.05 267.431 1129.32C267.215 1129.6 267.106 1129.96 267.106 1130.41C267.106 1131.24 267.373 1131.82 267.906 1132.15C268.439 1132.47 269.164 1132.64 270.08 1132.64V1132.64ZM269.88 1120.99C270.813 1120.99 271.6 1121.11 272.241 1121.35C272.882 1121.6 273.399 1121.94 273.79 1122.38C274.182 1122.82 274.461 1123.34 274.628 1123.95C274.794 1124.56 274.878 1125.23 274.878 1125.96V1134.09C274.678 1134.12 274.399 1134.16 274.04 1134.22C273.682 1134.28 273.278 1134.34 272.828 1134.39C272.379 1134.43 271.891 1134.48 271.367 1134.52C270.842 1134.56 270.321 1134.59 269.805 1134.59C269.072 1134.59 268.397 1134.51 267.781 1134.36C267.165 1134.21 266.631 1133.97 266.182 1133.65C265.732 1133.32 265.382 1132.89 265.132 1132.36C264.882 1131.83 264.757 1131.19 264.757 1130.44C264.757 1129.72 264.903 1129.1 265.195 1128.59C265.486 1128.07 265.882 1127.66 266.382 1127.34C266.881 1127.02 267.465 1126.79 268.131 1126.64C268.797 1126.49 269.497 1126.41 270.23 1126.41C270.463 1126.41 270.705 1126.43 270.955 1126.45C271.205 1126.48 271.441 1126.51 271.666 1126.55C271.892 1126.59 272.087 1126.63 272.254 1126.66C272.42 1126.7 272.537 1126.72 272.603 1126.74V1126.09C272.603 1125.71 272.562 1125.33 272.479 1124.95C272.395 1124.58 272.245 1124.24 272.029 1123.95C271.812 1123.66 271.517 1123.43 271.142 1123.25C270.767 1123.08 270.28 1122.99 269.68 1122.99C268.914 1122.99 268.244 1123.04 267.669 1123.15C267.094 1123.26 266.665 1123.37 266.382 1123.49L266.107 1121.57C266.407 1121.43 266.906 1121.3 267.606 1121.18C268.306 1121.05 269.063 1120.99 269.88 1120.99H269.88ZM283.523 1121.04C283.723 1121.04 283.953 1121.05 284.21 1121.08C284.469 1121.1 284.723 1121.14 284.973 1121.18C285.223 1121.22 285.451 1121.26 285.659 1121.3C285.868 1121.35 286.022 1121.38 286.122 1121.42L285.722 1123.44C285.538 1123.37 285.235 1123.29 284.81 1123.2C284.385 1123.11 283.84 1123.07 283.173 1123.07C282.74 1123.07 282.311 1123.11 281.886 1123.2C281.461 1123.29 281.182 1123.36 281.049 1123.39V1134.31H278.725V1121.87C279.275 1121.67 279.958 1121.48 280.774 1121.3C281.591 1121.13 282.507 1121.04 283.523 1121.04L283.523 1121.04ZM292.769 1132.64C293.318 1132.64 293.806 1132.62 294.23 1132.6C294.655 1132.57 295.009 1132.53 295.292 1132.46V1128.59C295.126 1128.5 294.855 1128.43 294.48 1128.38C294.105 1128.32 293.651 1128.29 293.119 1128.29C292.769 1128.29 292.398 1128.31 292.006 1128.36C291.615 1128.41 291.257 1128.52 290.932 1128.68C290.607 1128.83 290.337 1129.05 290.12 1129.32C289.903 1129.6 289.795 1129.96 289.795 1130.41C289.795 1131.24 290.062 1131.82 290.594 1132.15C291.128 1132.47 291.852 1132.64 292.769 1132.64V1132.64ZM292.569 1120.99C293.502 1120.99 294.289 1121.11 294.93 1121.35C295.571 1121.6 296.088 1121.94 296.479 1122.38C296.871 1122.82 297.149 1123.34 297.316 1123.95C297.483 1124.56 297.566 1125.23 297.566 1125.96V1134.09C297.366 1134.12 297.087 1134.16 296.729 1134.22C296.371 1134.28 295.967 1134.34 295.517 1134.39C295.067 1134.43 294.58 1134.48 294.055 1134.52C293.531 1134.56 293.01 1134.59 292.494 1134.59C291.761 1134.59 291.086 1134.51 290.47 1134.36C289.853 1134.21 289.32 1133.97 288.87 1133.65C288.421 1133.32 288.071 1132.89 287.821 1132.36C287.571 1131.83 287.446 1131.19 287.446 1130.44C287.446 1129.72 287.592 1129.1 287.883 1128.59C288.175 1128.07 288.57 1127.66 289.07 1127.34C289.57 1127.02 290.153 1126.79 290.819 1126.64C291.486 1126.49 292.185 1126.41 292.919 1126.41C293.152 1126.41 293.393 1126.43 293.643 1126.45C293.893 1126.48 294.13 1126.51 294.355 1126.55C294.58 1126.59 294.776 1126.63 294.942 1126.66C295.109 1126.7 295.226 1126.72 295.292 1126.74V1126.09C295.292 1125.71 295.251 1125.33 295.167 1124.95C295.084 1124.58 294.934 1124.24 294.718 1123.95C294.501 1123.66 294.206 1123.43 293.831 1123.25C293.456 1123.08 292.968 1122.99 292.369 1122.99C291.603 1122.99 290.933 1123.04 290.358 1123.15C289.783 1123.26 289.354 1123.37 289.07 1123.49L288.795 1121.57C289.095 1121.43 289.595 1121.3 290.294 1121.18C290.994 1121.05 291.752 1120.99 292.568 1120.99H292.569ZM307.336 1134.31V1116.99H317.906V1119.07H309.76V1124.22H317.006V1126.24H309.76V1132.24H318.53V1134.31H307.336V1134.31ZM329.45 1134.31C329.267 1133.94 329.042 1133.54 328.775 1133.09C328.509 1132.64 328.217 1132.17 327.901 1131.7C327.584 1131.22 327.259 1130.75 326.926 1130.29C326.593 1129.82 326.268 1129.38 325.952 1128.96C325.635 1129.38 325.31 1129.82 324.977 1130.3C324.644 1130.77 324.323 1131.25 324.015 1131.72C323.707 1132.2 323.42 1132.66 323.153 1133.11C322.886 1133.56 322.662 1133.96 322.479 1134.31H320.08C320.663 1133.18 321.358 1132.02 322.166 1130.85C322.974 1129.67 323.778 1128.55 324.578 1127.49L320.28 1121.32H322.903L326.002 1125.86L329.125 1121.32H331.599L327.401 1127.34C328.2 1128.42 329.021 1129.57 329.862 1130.77C330.703 1131.98 331.415 1133.16 331.999 1134.31H329.45V1134.31ZM343.468 1127.84C343.468 1126.32 343.093 1125.16 342.344 1124.34C341.594 1123.52 340.594 1123.12 339.345 1123.12C338.645 1123.12 338.1 1123.14 337.708 1123.19C337.316 1123.24 337.004 1123.3 336.771 1123.37V1131.56C337.054 1131.79 337.462 1132.02 337.996 1132.24C338.528 1132.45 339.112 1132.56 339.745 1132.56C340.411 1132.56 340.982 1132.44 341.456 1132.2C341.931 1131.96 342.319 1131.62 342.618 1131.2C342.918 1130.77 343.135 1130.27 343.268 1129.7C343.401 1129.12 343.468 1128.5 343.468 1127.84V1127.84ZM345.892 1127.84C345.892 1128.82 345.762 1129.73 345.504 1130.56C345.246 1131.39 344.867 1132.11 344.367 1132.71C343.868 1133.31 343.255 1133.78 342.53 1134.11C341.806 1134.44 340.977 1134.61 340.044 1134.61C339.295 1134.61 338.633 1134.51 338.058 1134.31C337.483 1134.11 337.054 1133.92 336.771 1133.73V1138.93H334.447V1121.72C334.997 1121.58 335.684 1121.44 336.509 1121.28C337.333 1121.12 338.287 1121.04 339.37 1121.04C340.369 1121.04 341.269 1121.2 342.069 1121.52C342.868 1121.83 343.551 1122.28 344.118 1122.86C344.684 1123.45 345.121 1124.16 345.429 1125C345.738 1125.84 345.892 1126.79 345.892 1127.84V1127.84ZM348.44 1127.84C348.44 1126.69 348.607 1125.68 348.94 1124.83C349.273 1123.97 349.715 1123.26 350.264 1122.69C350.813 1122.12 351.447 1121.7 352.163 1121.42C352.879 1121.13 353.612 1120.99 354.362 1120.99C356.111 1120.99 357.452 1121.54 358.385 1122.63C359.318 1123.72 359.784 1125.38 359.784 1127.61C359.784 1127.71 359.784 1127.84 359.784 1128C359.784 1128.16 359.776 1128.3 359.759 1128.44H350.864C350.964 1129.79 351.355 1130.81 352.038 1131.51C352.721 1132.21 353.787 1132.56 355.236 1132.56C356.053 1132.56 356.74 1132.49 357.298 1132.35C357.856 1132.21 358.277 1132.07 358.56 1131.94L358.885 1133.88C358.602 1134.03 358.106 1134.19 357.398 1134.36C356.69 1134.53 355.887 1134.61 354.987 1134.61C353.854 1134.61 352.875 1134.44 352.051 1134.1C351.226 1133.76 350.548 1133.29 350.015 1132.69C349.481 1132.09 349.086 1131.37 348.827 1130.55C348.569 1129.72 348.44 1128.82 348.44 1127.84L348.44 1127.84ZM357.361 1126.56C357.377 1125.51 357.115 1124.65 356.574 1123.98C356.033 1123.3 355.287 1122.97 354.337 1122.97C353.805 1122.97 353.334 1123.07 352.926 1123.28C352.518 1123.49 352.172 1123.76 351.889 1124.09C351.605 1124.42 351.385 1124.81 351.227 1125.24C351.069 1125.67 350.964 1126.11 350.914 1126.56H357.361H357.361ZM367.931 1121.04C368.131 1121.04 368.36 1121.05 368.618 1121.08C368.876 1121.1 369.13 1121.14 369.38 1121.18C369.63 1121.22 369.859 1121.26 370.067 1121.3C370.275 1121.35 370.429 1121.38 370.529 1121.42L370.129 1123.44C369.946 1123.37 369.642 1123.29 369.217 1123.2C368.792 1123.11 368.247 1123.07 367.58 1123.07C367.147 1123.07 366.718 1123.11 366.293 1123.2C365.868 1123.29 365.59 1123.36 365.456 1123.39V1134.31H363.133V1121.87C363.682 1121.67 364.366 1121.48 365.182 1121.3C365.998 1121.13 366.914 1121.04 367.93 1121.04L367.931 1121.04ZM375.102 1134.31H372.778V1121.32H375.102V1134.31ZM373.928 1118.97C373.511 1118.97 373.157 1118.83 372.866 1118.55C372.574 1118.28 372.428 1117.91 372.428 1117.44C372.428 1116.98 372.574 1116.61 372.866 1116.33C373.157 1116.06 373.511 1115.92 373.928 1115.92C374.344 1115.92 374.698 1116.06 374.99 1116.33C375.281 1116.61 375.427 1116.98 375.427 1117.44C375.427 1117.91 375.281 1118.28 374.99 1118.55C374.698 1118.83 374.344 1118.97 373.928 1118.97ZM379.1 1121.69C379.633 1121.56 380.337 1121.42 381.212 1121.27C382.086 1121.12 383.098 1121.04 384.248 1121.04C385.081 1121.04 385.78 1121.15 386.347 1121.38C386.913 1121.6 387.388 1121.93 387.771 1122.37C387.888 1122.28 388.071 1122.17 388.321 1122.02C388.571 1121.87 388.879 1121.72 389.245 1121.58C389.612 1121.44 390.02 1121.31 390.47 1121.2C390.92 1121.09 391.403 1121.04 391.919 1121.04C392.919 1121.04 393.735 1121.19 394.368 1121.48C395.001 1121.77 395.497 1122.18 395.855 1122.72C396.213 1123.25 396.454 1123.88 396.579 1124.61C396.704 1125.35 396.767 1126.15 396.767 1127.01V1134.31H394.443V1127.51C394.443 1126.75 394.405 1126.09 394.33 1125.54C394.255 1124.99 394.114 1124.53 393.905 1124.16C393.697 1123.8 393.414 1123.53 393.056 1123.35C392.697 1123.18 392.235 1123.09 391.669 1123.09C390.886 1123.09 390.241 1123.19 389.732 1123.4C389.224 1123.61 388.879 1123.8 388.695 1123.96C388.829 1124.4 388.929 1124.87 388.995 1125.39C389.062 1125.9 389.095 1126.45 389.095 1127.01V1134.31H386.772V1127.51C386.772 1126.75 386.73 1126.09 386.646 1125.54C386.563 1124.99 386.417 1124.53 386.209 1124.16C386.001 1123.8 385.718 1123.53 385.359 1123.35C385.001 1123.18 384.547 1123.09 383.998 1123.09C383.765 1123.09 383.515 1123.1 383.248 1123.11C382.982 1123.13 382.728 1123.15 382.486 1123.18C382.244 1123.2 382.024 1123.23 381.824 1123.26C381.624 1123.3 381.491 1123.32 381.424 1123.34V1134.31H379.101V1121.69H379.1ZM399.89 1127.84C399.89 1126.69 400.056 1125.68 400.389 1124.83C400.723 1123.97 401.164 1123.26 401.714 1122.69C402.263 1122.12 402.896 1121.7 403.613 1121.42C404.329 1121.13 405.062 1120.99 405.811 1120.99C407.561 1120.99 408.901 1121.54 409.834 1122.63C410.767 1123.72 411.234 1125.38 411.234 1127.61C411.234 1127.71 411.234 1127.84 411.234 1128C411.234 1128.16 411.225 1128.3 411.209 1128.44H402.313C402.413 1129.79 402.804 1130.81 403.488 1131.51C404.171 1132.21 405.237 1132.56 406.686 1132.56C407.502 1132.56 408.189 1132.49 408.747 1132.35C409.305 1132.21 409.726 1132.07 410.01 1131.94L410.334 1133.88C410.051 1134.03 409.556 1134.19 408.848 1134.36C408.14 1134.53 407.336 1134.61 406.437 1134.61C405.304 1134.61 404.325 1134.44 403.501 1134.1C402.676 1133.76 401.997 1133.28 401.464 1132.68C400.931 1132.09 400.535 1131.37 400.277 1130.55C400.019 1129.72 399.889 1128.82 399.889 1127.84L399.89 1127.84ZM408.81 1126.56C408.827 1125.51 408.564 1124.65 408.023 1123.98C407.482 1123.3 406.736 1122.96 405.787 1122.96C405.254 1122.96 404.783 1123.07 404.375 1123.28C403.967 1123.49 403.622 1123.76 403.338 1124.09C403.055 1124.42 402.835 1124.81 402.676 1125.24C402.518 1125.67 402.414 1126.11 402.364 1126.56H408.811H408.81ZM414.582 1121.69C415.115 1121.56 415.823 1121.42 416.706 1121.27C417.589 1121.12 418.605 1121.04 419.755 1121.04C420.788 1121.04 421.646 1121.19 422.329 1121.48C423.012 1121.77 423.557 1122.18 423.965 1122.7C424.374 1123.23 424.661 1123.86 424.828 1124.59C424.994 1125.32 425.077 1126.13 425.077 1127.01V1134.31H422.754V1127.51C422.754 1126.71 422.699 1126.03 422.591 1125.46C422.483 1124.9 422.304 1124.44 422.054 1124.09C421.804 1123.74 421.471 1123.49 421.055 1123.33C420.638 1123.17 420.122 1123.09 419.506 1123.09C419.256 1123.09 418.997 1123.1 418.731 1123.12C418.464 1123.13 418.21 1123.15 417.969 1123.18C417.727 1123.2 417.511 1123.23 417.319 1123.27C417.128 1123.3 416.99 1123.32 416.907 1123.34V1134.31H414.583V1121.69L414.582 1121.69ZM431.099 1121.32H436.021V1123.26H431.099V1129.26C431.099 1129.91 431.149 1130.45 431.249 1130.87C431.349 1131.3 431.499 1131.63 431.699 1131.87C431.899 1132.11 432.148 1132.29 432.448 1132.38C432.748 1132.49 433.098 1132.54 433.498 1132.54C434.197 1132.54 434.76 1132.46 435.184 1132.3C435.609 1132.14 435.905 1132.03 436.071 1131.96L436.521 1133.88C436.288 1134 435.88 1134.15 435.296 1134.32C434.714 1134.5 434.047 1134.58 433.297 1134.58C432.414 1134.58 431.686 1134.47 431.111 1134.25C430.536 1134.02 430.074 1133.68 429.724 1133.23C429.374 1132.79 429.129 1132.23 428.987 1131.57C428.845 1130.92 428.775 1130.15 428.775 1129.29V1117.69L431.098 1117.29V1121.32L431.099 1121.32ZM450.09 1127.81C450.09 1128.85 449.94 1129.78 449.64 1130.61C449.34 1131.44 448.92 1132.16 448.378 1132.76C447.836 1133.36 447.191 1133.82 446.441 1134.15C445.692 1134.47 444.875 1134.63 443.992 1134.63C443.109 1134.63 442.293 1134.47 441.544 1134.15C440.794 1133.82 440.149 1133.36 439.607 1132.76C439.066 1132.16 438.645 1131.44 438.345 1130.61C438.045 1129.78 437.895 1128.85 437.895 1127.81C437.895 1126.8 438.046 1125.87 438.345 1125.03C438.645 1124.19 439.065 1123.46 439.607 1122.86C440.148 1122.27 440.794 1121.8 441.544 1121.48C442.293 1121.15 443.109 1120.99 443.992 1120.99C444.875 1120.99 445.692 1121.15 446.441 1121.48C447.191 1121.8 447.836 1122.27 448.378 1122.86C448.919 1123.46 449.34 1124.19 449.64 1125.03C449.94 1125.87 450.09 1126.8 450.09 1127.81ZM447.666 1127.81C447.666 1126.35 447.336 1125.18 446.678 1124.33C446.02 1123.47 445.125 1123.04 443.992 1123.04C442.86 1123.04 441.964 1123.47 441.306 1124.33C440.648 1125.18 440.319 1126.35 440.319 1127.81C440.319 1129.28 440.648 1130.44 441.306 1131.3C441.964 1132.16 442.86 1132.59 443.992 1132.59C445.125 1132.59 446.02 1132.16 446.678 1131.3C447.336 1130.44 447.666 1129.28 447.666 1127.81ZM458.41 1127.84C458.41 1126.69 458.577 1125.68 458.91 1124.83C459.244 1123.97 459.685 1123.26 460.235 1122.69C460.784 1122.12 461.417 1121.7 462.133 1121.42C462.85 1121.13 463.583 1120.99 464.332 1120.99C466.082 1120.99 467.422 1121.54 468.355 1122.63C469.288 1123.72 469.755 1125.38 469.755 1127.61C469.755 1127.71 469.755 1127.84 469.755 1128C469.755 1128.16 469.746 1128.3 469.73 1128.44H460.834C460.934 1129.79 461.325 1130.81 462.009 1131.51C462.692 1132.21 463.758 1132.56 465.207 1132.56C466.023 1132.56 466.71 1132.49 467.268 1132.35C467.826 1132.21 468.247 1132.07 468.53 1131.94L468.855 1133.88C468.572 1134.03 468.077 1134.19 467.369 1134.36C466.661 1134.53 465.857 1134.61 464.958 1134.61C463.825 1134.61 462.846 1134.44 462.021 1134.1C461.197 1133.76 460.518 1133.28 459.985 1132.68C459.452 1132.09 459.056 1131.37 458.798 1130.55C458.539 1129.72 458.41 1128.82 458.41 1127.84L458.41 1127.84ZM467.331 1126.56C467.348 1125.51 467.085 1124.65 466.544 1123.98C466.003 1123.3 465.257 1122.96 464.308 1122.96C463.775 1122.96 463.304 1123.07 462.896 1123.28C462.488 1123.49 462.143 1123.76 461.859 1124.09C461.576 1124.42 461.355 1124.81 461.197 1125.24C461.039 1125.67 460.935 1126.11 460.885 1126.56H467.332H467.331ZM490.595 1134.31C490.311 1133.56 490.045 1132.82 489.795 1132.1C489.545 1131.37 489.287 1130.64 489.021 1129.89H481.175L479.6 1134.31H477.077C477.743 1132.48 478.368 1130.78 478.951 1129.22C479.534 1127.67 480.105 1126.19 480.663 1124.79C481.22 1123.39 481.775 1122.05 482.324 1120.78C482.874 1119.5 483.449 1118.24 484.048 1116.99H486.272C486.872 1118.24 487.447 1119.5 487.996 1120.78C488.546 1122.05 489.1 1123.39 489.658 1124.79C490.216 1126.19 490.787 1127.67 491.369 1129.22C491.952 1130.78 492.577 1132.48 493.244 1134.31H490.595V1134.31ZM488.321 1127.89C487.788 1126.44 487.259 1125.03 486.735 1123.68C486.21 1122.32 485.664 1121.02 485.098 1119.77C484.515 1121.02 483.961 1122.32 483.436 1123.68C482.912 1125.03 482.391 1126.44 481.875 1127.89H488.321H488.321Z" fill="white"/>
<path d="M495.442 1121.69C495.975 1121.56 496.683 1121.42 497.566 1121.27C498.449 1121.12 499.465 1121.04 500.615 1121.04C501.648 1121.04 502.506 1121.19 503.189 1121.48C503.872 1121.77 504.417 1122.18 504.825 1122.7C505.234 1123.23 505.521 1123.86 505.687 1124.59C505.854 1125.32 505.937 1126.13 505.937 1127.01V1134.31H503.614V1127.51C503.614 1126.71 503.559 1126.03 503.451 1125.46C503.343 1124.9 503.164 1124.44 502.914 1124.09C502.664 1123.74 502.331 1123.49 501.915 1123.33C501.498 1123.17 500.982 1123.09 500.365 1123.09C500.115 1123.09 499.857 1123.1 499.591 1123.12C499.324 1123.13 499.07 1123.15 498.829 1123.18C498.587 1123.2 498.371 1123.23 498.179 1123.27C497.987 1123.3 497.85 1123.32 497.767 1123.34V1134.31H495.443V1121.69L495.442 1121.69ZM514.183 1132.64C514.733 1132.64 515.22 1132.62 515.645 1132.6C516.07 1132.57 516.424 1132.53 516.707 1132.46V1128.59C516.54 1128.5 516.27 1128.43 515.895 1128.38C515.52 1128.32 515.066 1128.29 514.533 1128.29C514.183 1128.29 513.813 1128.31 513.421 1128.36C513.03 1128.41 512.672 1128.52 512.347 1128.68C512.022 1128.83 511.751 1129.05 511.535 1129.33C511.318 1129.6 511.21 1129.96 511.21 1130.41C511.21 1131.24 511.476 1131.82 512.009 1132.15C512.542 1132.47 513.267 1132.64 514.183 1132.64V1132.64ZM513.983 1120.99C514.916 1120.99 515.703 1121.11 516.344 1121.35C516.986 1121.6 517.502 1121.94 517.894 1122.38C518.285 1122.82 518.564 1123.35 518.731 1123.95C518.897 1124.56 518.981 1125.23 518.981 1125.96V1134.09C518.781 1134.12 518.502 1134.16 518.144 1134.22C517.785 1134.28 517.382 1134.34 516.932 1134.39C516.482 1134.44 515.995 1134.48 515.47 1134.52C514.945 1134.56 514.425 1134.59 513.908 1134.59C513.176 1134.59 512.501 1134.51 511.884 1134.36C511.268 1134.21 510.735 1133.97 510.285 1133.65C509.836 1133.32 509.486 1132.89 509.236 1132.36C508.986 1131.83 508.861 1131.19 508.861 1130.44C508.861 1129.72 509.007 1129.11 509.298 1128.59C509.59 1128.07 509.985 1127.66 510.485 1127.34C510.985 1127.02 511.568 1126.79 512.234 1126.64C512.901 1126.49 513.6 1126.41 514.333 1126.41C514.567 1126.41 514.808 1126.43 515.058 1126.45C515.308 1126.48 515.545 1126.51 515.77 1126.55C515.995 1126.59 516.191 1126.63 516.357 1126.66C516.524 1126.7 516.64 1126.72 516.707 1126.74V1126.09C516.707 1125.71 516.665 1125.33 516.582 1124.95C516.499 1124.58 516.349 1124.24 516.132 1123.95C515.916 1123.66 515.62 1123.43 515.245 1123.25C514.87 1123.08 514.383 1122.99 513.784 1122.99C513.017 1122.99 512.347 1123.05 511.772 1123.15C511.198 1123.26 510.768 1123.37 510.485 1123.49L510.21 1121.57C510.51 1121.43 511.01 1121.3 511.709 1121.18C512.409 1121.05 513.167 1120.99 513.983 1120.99H513.983ZM517.382 1116.39L513.858 1119.82L512.684 1118.77L515.882 1114.92L517.381 1116.39L517.382 1116.39ZM526.727 1134.56C525.294 1134.53 524.278 1134.22 523.678 1133.64C523.079 1133.05 522.779 1132.14 522.779 1130.91V1115.32L525.102 1114.92V1130.54C525.102 1130.92 525.135 1131.24 525.202 1131.49C525.269 1131.74 525.377 1131.94 525.527 1132.09C525.677 1132.24 525.877 1132.35 526.127 1132.42C526.377 1132.5 526.685 1132.56 527.051 1132.61L526.726 1134.56H526.727ZM531.974 1134.31H529.65V1121.32H531.974V1134.31ZM530.799 1118.97C530.383 1118.97 530.029 1118.83 529.737 1118.55C529.446 1118.28 529.3 1117.91 529.3 1117.44C529.3 1116.98 529.446 1116.61 529.737 1116.33C530.029 1116.06 530.383 1115.92 530.799 1115.92C531.216 1115.92 531.57 1116.06 531.861 1116.33C532.153 1116.61 532.299 1116.98 532.299 1117.44C532.299 1117.91 532.153 1118.28 531.861 1118.55C531.57 1118.83 531.216 1118.97 530.799 1118.97ZM538.995 1132.64C539.945 1132.64 540.649 1132.51 541.107 1132.26C541.565 1132.01 541.794 1131.61 541.794 1131.06C541.794 1130.49 541.569 1130.04 541.119 1129.71C540.67 1129.38 539.928 1129 538.896 1128.59C538.396 1128.39 537.917 1128.18 537.459 1127.98C537.001 1127.77 536.606 1127.52 536.272 1127.24C535.939 1126.95 535.673 1126.61 535.473 1126.21C535.272 1125.81 535.173 1125.32 535.173 1124.74C535.173 1123.59 535.598 1122.68 536.447 1122C537.297 1121.33 538.455 1120.99 539.92 1120.99C540.287 1120.99 540.653 1121.01 541.02 1121.05C541.387 1121.1 541.728 1121.15 542.044 1121.2C542.361 1121.26 542.64 1121.32 542.881 1121.39C543.123 1121.46 543.311 1121.52 543.444 1121.57L543.019 1123.57C542.769 1123.43 542.377 1123.29 541.844 1123.15C541.311 1123.01 540.67 1122.94 539.92 1122.94C539.27 1122.94 538.704 1123.07 538.221 1123.33C537.738 1123.59 537.496 1123.99 537.496 1124.54C537.496 1124.82 537.551 1125.07 537.659 1125.29C537.767 1125.51 537.934 1125.7 538.158 1125.88C538.383 1126.05 538.662 1126.21 538.995 1126.36C539.329 1126.51 539.728 1126.67 540.195 1126.84C540.811 1127.07 541.361 1127.3 541.844 1127.53C542.327 1127.75 542.739 1128.01 543.081 1128.31C543.423 1128.61 543.685 1128.97 543.868 1129.4C544.052 1129.82 544.143 1130.34 544.143 1130.96C544.143 1132.16 543.698 1133.07 542.806 1133.68C541.915 1134.3 540.645 1134.61 538.996 1134.61C537.846 1134.61 536.947 1134.51 536.297 1134.32C535.648 1134.13 535.206 1133.98 534.973 1133.88L535.398 1131.89C535.665 1131.99 536.089 1132.14 536.672 1132.33C537.255 1132.53 538.03 1132.63 538.996 1132.63L538.995 1132.64ZM546.392 1127.84C546.392 1126.69 546.558 1125.68 546.891 1124.83C547.225 1123.97 547.666 1123.26 548.216 1122.69C548.765 1122.12 549.398 1121.7 550.115 1121.42C550.831 1121.13 551.564 1120.99 552.314 1120.99C554.063 1120.99 555.404 1121.54 556.337 1122.63C557.27 1123.72 557.736 1125.38 557.736 1127.61C557.736 1127.71 557.736 1127.84 557.736 1128C557.736 1128.16 557.727 1128.3 557.711 1128.44H548.815C548.915 1129.79 549.307 1130.81 549.99 1131.51C550.673 1132.21 551.739 1132.56 553.188 1132.56C554.004 1132.56 554.691 1132.49 555.249 1132.35C555.807 1132.21 556.228 1132.07 556.512 1131.94L556.837 1133.88C556.553 1134.03 556.058 1134.19 555.35 1134.36C554.642 1134.53 553.838 1134.61 552.939 1134.61C551.806 1134.61 550.827 1134.44 550.003 1134.1C549.178 1133.76 548.499 1133.28 547.966 1132.68C547.433 1132.09 547.037 1131.37 546.779 1130.55C546.521 1129.72 546.391 1128.82 546.391 1127.84L546.392 1127.84ZM555.313 1126.56C555.329 1125.51 555.067 1124.65 554.525 1123.98C553.984 1123.3 553.238 1122.96 552.289 1122.96C551.756 1122.96 551.286 1123.07 550.878 1123.28C550.469 1123.49 550.124 1123.76 549.84 1124.09C549.557 1124.42 549.337 1124.81 549.178 1125.24C549.02 1125.67 548.916 1126.11 548.866 1126.56H555.313H555.313ZM575.253 1124.06C574.97 1123.83 574.562 1123.61 574.028 1123.39C573.495 1123.17 572.912 1123.07 572.279 1123.07C571.613 1123.07 571.042 1123.19 570.567 1123.43C570.093 1123.67 569.705 1124 569.405 1124.43C569.105 1124.85 568.889 1125.36 568.756 1125.94C568.623 1126.52 568.556 1127.15 568.556 1127.81C568.556 1129.33 568.931 1130.5 569.68 1131.32C570.43 1132.15 571.43 1132.56 572.679 1132.56C573.312 1132.56 573.841 1132.53 574.266 1132.47C574.691 1132.41 575.02 1132.35 575.253 1132.29V1124.06V1124.06ZM575.253 1115.32L577.576 1114.92V1133.93C577.044 1134.08 576.36 1134.23 575.527 1134.38C574.695 1134.53 573.737 1134.61 572.654 1134.61C571.654 1134.61 570.755 1134.45 569.955 1134.13C569.156 1133.82 568.473 1133.37 567.906 1132.79C567.34 1132.2 566.903 1131.49 566.594 1130.65C566.286 1129.81 566.132 1128.86 566.132 1127.81C566.132 1126.81 566.261 1125.9 566.52 1125.06C566.778 1124.23 567.157 1123.51 567.657 1122.91C568.156 1122.32 568.768 1121.85 569.493 1121.52C570.218 1121.18 571.046 1121.02 571.979 1121.02C572.729 1121.02 573.391 1121.12 573.966 1121.32C574.54 1121.52 574.97 1121.71 575.253 1121.89V1115.32V1115.32ZM580.85 1127.84C580.85 1126.69 581.017 1125.68 581.35 1124.83C581.683 1123.97 582.124 1123.26 582.674 1122.69C583.223 1122.12 583.857 1121.7 584.573 1121.42C585.289 1121.13 586.022 1120.99 586.772 1120.99C588.521 1120.99 589.862 1121.54 590.795 1122.63C591.728 1123.72 592.194 1125.38 592.194 1127.61C592.194 1127.71 592.194 1127.84 592.194 1128C592.194 1128.16 592.186 1128.3 592.169 1128.44H583.274C583.373 1129.79 583.765 1130.81 584.448 1131.51C585.131 1132.21 586.197 1132.56 587.646 1132.56C588.463 1132.56 589.15 1132.49 589.708 1132.35C590.266 1132.21 590.686 1132.07 590.97 1131.94L591.295 1133.88C591.011 1134.03 590.516 1134.19 589.808 1134.36C589.1 1134.53 588.297 1134.61 587.397 1134.61C586.264 1134.61 585.285 1134.44 584.461 1134.1C583.636 1133.76 582.957 1133.28 582.424 1132.68C581.891 1132.09 581.495 1131.37 581.237 1130.55C580.979 1129.72 580.85 1128.82 580.85 1127.84L580.85 1127.84ZM589.771 1126.56C589.787 1125.51 589.525 1124.65 588.984 1123.98C588.442 1123.3 587.697 1122.96 586.747 1122.96C586.214 1122.96 585.744 1123.07 585.336 1123.28C584.928 1123.49 584.582 1123.76 584.299 1124.09C584.015 1124.42 583.795 1124.81 583.637 1125.24C583.478 1125.67 583.374 1126.11 583.324 1126.56H589.771H589.771ZM605.488 1132.59C608.02 1132.59 609.286 1131.72 609.286 1129.99C609.286 1129.45 609.174 1129 608.949 1128.62C608.724 1128.25 608.42 1127.93 608.037 1127.65C607.653 1127.38 607.216 1127.14 606.725 1126.94C606.233 1126.74 605.713 1126.54 605.163 1126.34C604.53 1126.12 603.93 1125.88 603.364 1125.6C602.798 1125.33 602.306 1125 601.89 1124.63C601.473 1124.25 601.144 1123.81 600.903 1123.29C600.661 1122.77 600.54 1122.15 600.54 1121.42C600.54 1119.9 601.056 1118.72 602.089 1117.87C603.122 1117.02 604.546 1116.59 606.362 1116.59C607.412 1116.59 608.365 1116.71 609.223 1116.93C610.081 1117.16 610.71 1117.4 611.11 1117.67L610.335 1119.64C609.985 1119.43 609.465 1119.21 608.774 1119.01C608.082 1118.8 607.279 1118.69 606.362 1118.69C605.896 1118.69 605.463 1118.74 605.063 1118.84C604.663 1118.94 604.313 1119.09 604.013 1119.29C603.713 1119.49 603.476 1119.75 603.302 1120.05C603.126 1120.36 603.039 1120.72 603.039 1121.14C603.039 1121.61 603.13 1122 603.314 1122.32C603.497 1122.63 603.755 1122.91 604.088 1123.15C604.422 1123.39 604.809 1123.62 605.25 1123.81C605.692 1124.01 606.179 1124.22 606.712 1124.41C607.462 1124.71 608.149 1125.01 608.774 1125.31C609.398 1125.61 609.94 1125.97 610.398 1126.39C610.856 1126.81 611.21 1127.3 611.46 1127.88C611.71 1128.45 611.835 1129.15 611.835 1129.96C611.835 1131.48 611.281 1132.64 610.173 1133.46C609.065 1134.28 607.504 1134.68 605.488 1134.68C604.805 1134.68 604.176 1134.64 603.601 1134.55C603.027 1134.46 602.514 1134.35 602.065 1134.22C601.615 1134.1 601.228 1133.96 600.903 1133.82C600.578 1133.68 600.324 1133.56 600.141 1133.46L600.865 1131.46C601.248 1131.68 601.831 1131.92 602.614 1132.19C603.397 1132.45 604.355 1132.59 605.488 1132.59V1132.59ZM626.078 1127.81C626.078 1128.85 625.928 1129.78 625.628 1130.61C625.328 1131.44 624.908 1132.16 624.366 1132.76C623.825 1133.36 623.179 1133.82 622.429 1134.15C621.68 1134.47 620.864 1134.63 619.981 1134.63C619.098 1134.63 618.281 1134.47 617.532 1134.15C616.782 1133.82 616.137 1133.36 615.595 1132.76C615.054 1132.16 614.633 1131.44 614.333 1130.61C614.033 1129.78 613.884 1128.85 613.884 1127.81C613.884 1126.8 614.034 1125.87 614.333 1125.03C614.633 1124.18 615.054 1123.46 615.595 1122.86C616.137 1122.27 616.782 1121.8 617.532 1121.48C618.281 1121.15 619.098 1120.99 619.981 1120.99C620.864 1120.99 621.68 1121.15 622.429 1121.48C623.179 1121.8 623.825 1122.27 624.366 1122.86C624.908 1123.46 625.328 1124.18 625.628 1125.03C625.928 1125.87 626.078 1126.8 626.078 1127.81ZM623.654 1127.81C623.654 1126.35 623.325 1125.18 622.667 1124.33C622.009 1123.47 621.114 1123.04 619.981 1123.04C618.848 1123.04 617.952 1123.47 617.295 1124.33C616.637 1125.18 616.308 1126.35 616.308 1127.81C616.308 1129.28 616.637 1130.44 617.295 1131.3C617.952 1132.16 618.848 1132.59 619.981 1132.59C621.114 1132.59 622.009 1132.16 622.667 1131.3C623.325 1130.44 623.654 1129.28 623.654 1127.81ZM633.249 1134.56C631.817 1134.53 630.801 1134.22 630.201 1133.63C629.601 1133.05 629.301 1132.14 629.301 1130.91V1115.32L631.625 1114.92V1130.54C631.625 1130.92 631.658 1131.24 631.725 1131.49C631.791 1131.74 631.9 1131.93 632.05 1132.08C632.2 1132.23 632.4 1132.35 632.649 1132.42C632.899 1132.5 633.207 1132.56 633.574 1132.61L633.249 1134.56H633.249ZM647.642 1127.81C647.642 1128.85 647.492 1129.78 647.192 1130.61C646.892 1131.44 646.472 1132.16 645.93 1132.76C645.389 1133.36 644.743 1133.82 643.994 1134.15C643.244 1134.47 642.428 1134.63 641.545 1134.63C640.662 1134.63 639.846 1134.47 639.097 1134.15C638.347 1133.82 637.701 1133.36 637.16 1132.76C636.619 1132.16 636.198 1131.44 635.898 1130.61C635.598 1129.78 635.448 1128.85 635.448 1127.81C635.448 1126.8 635.598 1125.87 635.898 1125.03C636.198 1124.18 636.618 1123.46 637.16 1122.86C637.701 1122.27 638.347 1121.8 639.097 1121.48C639.846 1121.15 640.662 1120.99 641.545 1120.99C642.428 1120.99 643.244 1121.15 643.994 1121.48C644.743 1121.8 645.389 1122.27 645.93 1122.86C646.472 1123.46 646.892 1124.18 647.192 1125.03C647.492 1125.87 647.642 1126.8 647.642 1127.81ZM645.219 1127.81C645.219 1126.35 644.889 1125.18 644.231 1124.33C643.573 1123.47 642.678 1123.04 641.545 1123.04C640.412 1123.04 639.517 1123.47 638.859 1124.33C638.201 1125.18 637.872 1126.35 637.872 1127.81C637.872 1129.28 638.201 1130.44 638.859 1131.3C639.517 1132.16 640.412 1132.59 641.545 1132.59C642.678 1132.59 643.573 1132.16 644.231 1131.3C644.889 1130.44 645.219 1129.28 645.219 1127.81Z" fill="white"/>
<path fill-rule="evenodd" clip-rule="evenodd" d="M384.951 0C450.76 0 384.951 0 507.973 0C507.973 65.8085 454.628 119.154 388.819 119.154C323.012 119.154 269.667 65.8085 269.667 0C384.951 0 319.144 0 384.951 0Z" fill="#006D39" fill-opacity="0.4"/>
<path fill-rule="evenodd" clip-rule="evenodd" d="M104.26 0.00377822C197.52 0.00133812 132.966 0 168.38 0C203.795 0 168.38 0 232.501 0.00377822C232.501 35.4173 203.795 64.1232 168.38 64.1232C132.966 64.1232 104.26 35.4173 104.26 0.00377822Z" fill="#006D39" fill-opacity="0.4"/>
<path fill-rule="evenodd" clip-rule="evenodd" d="M0.640625 0.00133812C33.869 0 15.5176 0 33.869 0C52.2219 0 33.869 0 67.0989 0.00133812C67.0989 18.3542 52.2219 33.2312 33.869 33.2312C15.5176 33.2312 0.640625 18.3542 0.640625 0.00133812Z" fill="#006D39" fill-opacity="0.4"/>
<path fill-rule="evenodd" clip-rule="evenodd" d="M673.379 0.00377822C606.768 0 642.182 0 606.768 0C571.355 0 606.768 0 545.14 0.00377822C545.14 35.4173 573.846 64.1232 609.259 64.1232C644.673 64.1232 673.379 35.4173 673.379 0.00377822Z" fill="#006D39" fill-opacity="0.4"/>
<path fill-rule="evenodd" clip-rule="evenodd" d="M777 0.00133812C743.77 0.00377822 762.123 0.00377822 743.77 0.00377822C725.417 0.00377822 743.77 0.00377822 710.54 0.00133812C710.54 18.3542 725.417 33.2312 743.77 33.2312C762.123 33.2312 777 18.3542 777 0.00133812Z" fill="#006D39" fill-opacity="0.4"/>
<path fill-rule="evenodd" clip-rule="evenodd" d="M388.82 284.56C353.407 284.56 324.701 255.854 324.701 220.441C324.701 185.026 353.407 156.322 388.82 156.322C424.235 156.322 452.941 185.026 452.941 220.441C452.941 255.854 424.235 284.56 388.82 284.56Z" fill="#006D39" fill-opacity="0.4"/>
<path fill-rule="evenodd" clip-rule="evenodd" d="M388.82 388.179C370.467 388.179 355.591 373.303 355.591 354.951C355.591 336.598 370.467 321.721 388.82 321.721C407.173 321.721 422.05 336.598 422.05 354.951C422.05 373.303 407.173 388.179 388.82 388.179Z" fill="#006D39" fill-opacity="0.4"/>
<path fill-rule="evenodd" clip-rule="evenodd" d="M187.607 201.212C162.566 176.171 162.566 135.573 187.607 110.533C212.648 85.4914 253.245 85.4914 278.287 110.533C303.327 135.573 303.327 176.171 278.287 201.212C253.245 226.253 212.648 226.253 187.607 201.212Z" fill="#006D39" fill-opacity="0.4"/>
<path fill-rule="evenodd" clip-rule="evenodd" d="M114.336 274.49C101.358 261.512 101.358 240.473 114.336 227.497C127.314 214.519 148.352 214.519 161.329 227.497C174.307 240.475 174.307 261.513 161.329 274.49C148.351 287.468 127.313 287.468 114.336 274.49Z" fill="#006D39" fill-opacity="0.4"/>
<path fill-rule="evenodd" clip-rule="evenodd" d="M590.005 201.185C564.964 226.225 524.366 226.225 499.326 201.185C474.285 176.143 474.285 135.546 499.326 110.506C524.366 85.4639 564.964 85.4639 590.005 110.506C615.045 135.546 615.045 176.143 590.005 201.185Z" fill="#006D39" fill-opacity="0.4"/>
<path fill-rule="evenodd" clip-rule="evenodd" d="M663.304 274.49C650.326 287.468 629.287 287.468 616.31 274.49C603.332 261.512 603.332 240.473 616.31 227.497C629.288 214.519 650.328 214.519 663.304 227.497C676.281 240.475 676.281 261.513 663.304 274.49Z" fill="#006D39" fill-opacity="0.4"/>
</svg>
